<svg width="62" height="58" viewBox="0 0 62 58" fill="none" xmlns="http://www.w3.org/2000/svg">
<path d="M42.8155 3.82744C40.1368 1.97779 36.9976 1 33.737 1C27.6871 1 22.2156 4.36126 19.4576 9.77205C19.0125 10.6457 18.2124 10.5358 17.4318 10.5358C12.61 10.5358 8.32096 13.6102 6.75909 18.1861C6.62104 18.5907 6.28319 18.9139 5.83249 19.0728C2.82219 20.1345 0.882271 23.0007 1.00555 26.2051C1.15567 30.1162 4.45402 33.1742 8.37287 33.1742H11.0127V36.362H8.44213C8.07475 35.275 7.04878 34.4902 5.8428 34.4902C4.32945 34.4902 3.09816 35.7254 3.09816 37.2439C3.09816 38.7624 4.32945 39.9977 5.8428 39.9977C7.04878 39.9977 8.07487 39.2129 8.44213 38.1257H11.8917C12.3772 38.1257 12.7706 37.7309 12.7706 37.2439V33.1742H20.7153V44.9468H15.4461C15.0647 43.6342 13.8556 42.6721 12.4259 42.6721C10.6911 42.6721 9.27979 44.0881 9.27979 45.8286C9.27979 47.5692 10.6911 48.9852 12.4259 48.9852C13.8556 48.9852 15.0647 48.023 15.4461 46.7105H21.5942C22.0797 46.7105 22.4731 46.3156 22.4731 45.8286V33.1742H30.4058V49.6054C28.7677 50.0032 27.547 51.4857 27.547 53.2498C27.547 55.3177 29.2237 57 31.2847 57C33.3457 57 35.0224 55.3177 35.0224 53.2498C35.0224 51.4856 33.8018 50.0031 32.1636 49.6054V33.1742H34.0793C34.5648 33.1742 34.9582 32.7794 34.9582 32.2924C34.9582 31.8053 34.5648 31.4105 34.0793 31.4105H8.37287C5.39081 31.4105 2.87363 29.0449 2.76195 26.1372C2.66867 23.7106 4.13679 21.5404 6.4155 20.7368C7.37725 20.3976 8.10862 19.6762 8.42221 18.7575C9.74068 14.8948 13.3613 12.2995 17.4319 12.2995C18.0351 12.2995 20.0277 12.5279 21.0229 10.5751C23.4788 5.75681 28.3505 2.7637 33.7371 2.7637C36.6401 2.7637 39.4347 3.63391 41.819 5.28026C42.219 5.55646 42.7661 5.45498 43.0413 5.0538C43.3163 4.65262 43.2153 4.10352 42.8155 3.82744ZM5.8428 38.234C5.29859 38.234 4.85597 37.7898 4.85597 37.2439C4.85597 36.698 5.29859 36.2539 5.8428 36.2539C6.3869 36.2539 6.82952 36.698 6.82952 37.2439C6.82952 37.7898 6.38679 38.234 5.8428 38.234ZM12.4259 47.2215C11.6604 47.2215 11.0376 46.5967 11.0376 45.8286C11.0376 45.0606 11.6603 44.4358 12.4259 44.4358C13.1913 44.4358 13.8141 45.0606 13.8141 45.8286C13.8141 46.5967 13.1914 47.2215 12.4259 47.2215ZM33.2646 53.2499C33.2646 54.3453 32.3764 55.2364 31.2847 55.2364C30.1931 55.2364 29.3048 54.3453 29.3048 53.2499C29.3048 52.1545 30.193 51.2634 31.2847 51.2634C32.3764 51.2634 33.2646 52.1545 33.2646 53.2499Z" fill="url(#paint0_linear)" stroke="url(#paint1_linear)" stroke-width="0.5"/>
<path d="M49.3064 31.4135H38.1836C37.6981 31.4135 37.3047 31.8083 37.3047 32.2953C37.3047 32.7823 37.6981 33.1772 38.1836 33.1772H40.0994V45.8316C40.0994 46.3186 40.4928 46.7134 40.9783 46.7134H47.1263C47.5076 48.026 48.7167 48.9881 50.1465 48.9881C51.8812 48.9881 53.2925 47.5721 53.2925 45.8316C53.2925 44.091 51.8812 42.675 50.1465 42.675C48.7168 42.675 47.5076 43.6372 47.1263 44.9497H41.8572V33.1772H49.3064C49.491 33.1772 49.6752 33.1723 49.8591 33.1634V37.2468C49.8591 37.7339 50.2525 38.1287 50.738 38.1287H54.1874C54.5547 39.2158 55.5808 40.0007 56.7868 40.0007C58.3002 40.0007 59.5314 38.7654 59.5314 37.2468C59.5314 35.7284 58.3002 34.4931 56.7868 34.4931C55.5808 34.4931 54.5547 35.278 54.1874 36.365H51.6169V32.9425C56.9649 31.8511 61.1097 27.1344 61.0008 21.4271C60.8782 14.9977 55.5304 9.89906 49.1144 10.1334C48.5876 10.1529 48.0762 9.85979 47.8189 9.38771C47.3156 8.46353 46.7177 7.5838 46.0416 6.77308C45.7301 6.39941 45.1757 6.35003 44.8036 6.66268C44.4313 6.9752 44.382 7.53136 44.6936 7.90479C45.2958 8.62708 45.8284 9.4104 46.2764 10.2333C46.8319 11.2536 47.9184 11.898 49.0673 11.898C49.104 11.898 49.1409 11.8973 49.1778 11.896C54.6004 11.6992 59.1392 16.0071 59.2433 21.4609C59.3485 26.9691 54.7262 31.4135 49.3064 31.4135ZM50.1464 44.4387C50.9117 44.4387 51.5346 45.0636 51.5346 45.8316C51.5346 46.5996 50.9119 47.2244 50.1464 47.2244C49.3809 47.2244 48.7581 46.5996 48.7581 45.8316C48.7581 45.0636 49.3809 44.4387 50.1464 44.4387ZM56.7868 36.2567C57.331 36.2567 57.7736 36.7008 57.7736 37.2467C57.7736 37.7927 57.331 38.2369 56.7868 38.2369C56.2426 38.2369 55.8 37.7927 55.8 37.2467C55.8 36.7008 56.2426 36.2567 56.7868 36.2567Z" fill="url(#paint2_linear)" stroke="url(#paint3_linear)" stroke-width="0.5"/>
<defs>
<linearGradient id="paint0_linear" x1="1" y1="32.538" x2="43.1964" y2="32.5136" gradientUnits="userSpaceOnUse">
<stop stop-color="#4250C2"/>
<stop offset="1" stop-color="#00A1FF"/>
</linearGradient>
<linearGradient id="paint1_linear" x1="1" y1="32.538" x2="43.1964" y2="32.5136" gradientUnits="userSpaceOnUse">
<stop stop-color="#4250C2"/>
<stop offset="1" stop-color="#00A1FF"/>
</linearGradient>
<linearGradient id="paint2_linear" x1="37.3047" y1="30.4096" x2="61.0031" y2="30.3995" gradientUnits="userSpaceOnUse">
<stop stop-color="#4250C2"/>
<stop offset="1" stop-color="#00A1FF"/>
</linearGradient>
<linearGradient id="paint3_linear" x1="37.3047" y1="30.4096" x2="61.0031" y2="30.3995" gradientUnits="userSpaceOnUse">
<stop stop-color="#4250C2"/>
<stop offset="1" stop-color="#00A1FF"/>
</linearGradient>
</defs>
</svg>
