<svg width="32" height="32" viewBox="0 0 32 32" fill="none" xmlns="http://www.w3.org/2000/svg">
<rect width="32" height="32" rx="4" fill="#C4C4C4"/>
<g opacity="0.9">
<path d="M24.7059 21.1373C24.7059 21.4857 24.5675 21.8198 24.3211 22.0662C24.0747 22.3126 23.7406 22.451 23.3922 22.451H7.62745C7.27903 22.451 6.94488 22.3126 6.69851 22.0662C6.45214 21.8198 6.31373 21.4857 6.31373 21.1373V13.2549C6.31373 12.9065 6.45214 12.5723 6.69851 12.326C6.94488 12.0796 7.27903 11.9412 7.62745 11.9412H9.16714C10.2119 11.9406 11.2136 11.5253 11.9522 10.7864L13.0426 9.69865C13.2883 9.4529 13.6213 9.3145 13.9688 9.31373H17.0482C17.3966 9.3138 17.7307 9.45226 17.977 9.69865L19.0647 10.7864C19.4308 11.1526 19.8654 11.443 20.3437 11.6411C20.822 11.8393 21.3347 11.9412 21.8525 11.9412H23.3922C23.7406 11.9412 24.0747 12.0796 24.3211 12.326C24.5675 12.5723 24.7059 12.9065 24.7059 13.2549V21.1373ZM7.62745 10.6275C6.93061 10.6275 6.26231 10.9043 5.76956 11.397C5.27682 11.8898 5 12.5581 5 13.2549L5 21.1373C5 21.8341 5.27682 22.5024 5.76956 22.9951C6.26231 23.4879 6.93061 23.7647 7.62745 23.7647H23.3922C24.089 23.7647 24.7573 23.4879 25.25 22.9951C25.7428 22.5024 26.0196 21.8341 26.0196 21.1373V13.2549C26.0196 12.5581 25.7428 11.8898 25.25 11.397C24.7573 10.9043 24.089 10.6275 23.3922 10.6275H21.8525C21.1557 10.6273 20.4875 10.3504 19.9949 9.85761L18.9071 8.76984C18.4145 8.27707 17.7463 8.00015 17.0495 8H13.9701C13.2733 8.00015 12.6051 8.27707 12.1125 8.76984L11.0247 9.85761C10.5321 10.3504 9.86392 10.6273 9.16714 10.6275H7.62745Z" fill="white"/>
<path d="M15.5113 19.8238C14.6402 19.8238 13.8048 19.4777 13.1889 18.8618C12.573 18.2459 12.2269 17.4105 12.2269 16.5394C12.2269 15.6684 12.573 14.833 13.1889 14.2171C13.8048 13.6012 14.6402 13.2551 15.5113 13.2551C16.3823 13.2551 17.2177 13.6012 17.8336 14.2171C18.4495 14.833 18.7956 15.6684 18.7956 16.5394C18.7956 17.4105 18.4495 18.2459 17.8336 18.8618C17.2177 19.4777 16.3823 19.8238 15.5113 19.8238ZM15.5113 21.1375C16.7307 21.1375 17.9003 20.653 18.7626 19.7907C19.6249 18.9284 20.1093 17.7589 20.1093 16.5394C20.1093 15.32 19.6249 14.1504 18.7626 13.2881C17.9003 12.4258 16.7307 11.9414 15.5113 11.9414C14.2918 11.9414 13.1223 12.4258 12.26 13.2881C11.3977 14.1504 10.9132 15.32 10.9132 16.5394C10.9132 17.7589 11.3977 18.9284 12.26 19.7907C13.1223 20.653 14.2918 21.1375 15.5113 21.1375ZM8.94263 13.912C8.94263 14.0862 8.87343 14.2533 8.75024 14.3765C8.62706 14.4997 8.45998 14.5689 8.28577 14.5689C8.11156 14.5689 7.94448 14.4997 7.8213 14.3765C7.69811 14.2533 7.62891 14.0862 7.62891 13.912C7.62891 13.7378 7.69811 13.5707 7.8213 13.4475C7.94448 13.3243 8.11156 13.2551 8.28577 13.2551C8.45998 13.2551 8.62706 13.3243 8.75024 13.4475C8.87343 13.5707 8.94263 13.7378 8.94263 13.912Z" fill="white"/>
</g>
</svg>
