<svg width="30" height="30" viewBox="0 0 30 30" fill="none" xmlns="http://www.w3.org/2000/svg">
<g clip-path="url(#clip0)">
<path fill-rule="evenodd" clip-rule="evenodd" d="M6.32846 11.7667L8.05545 10.3596C7.44379 9.89119 6.83207 9.42109 6.21877 8.95264H5.29129C4.94887 8.95264 4.66797 9.23172 4.66797 9.57391V10.1902C4.66797 10.9759 5.55057 11.7766 6.32846 11.7667Z" fill="#FFBC85"/>
<path fill-rule="evenodd" clip-rule="evenodd" d="M23.3136 27.8221C23.543 27.8071 23.6709 27.7208 23.6709 27.3188V22.6475C23.6709 19.8733 20.8054 17.8018 18.2988 17.2985L18.2722 17.3184L12.5112 17.1024L6.54732 17.3018L6.54398 17.2984C4.0391 17.8017 1.17188 19.8733 1.17188 22.6474V27.3187C1.17188 27.7207 1.30154 27.8071 1.52924 27.822C8.79123 27.8221 16.0516 27.8221 23.3136 27.8221Z" fill="#F9F7F7"/>
<path fill-rule="evenodd" clip-rule="evenodd" d="M15.0312 25.528L13.492 20.4032L12.3717 19.7205L11.2498 20.4032L9.71065 25.528C9.69735 25.5728 9.68569 25.5745 9.70731 25.6143L10.8741 27.8221H12.3717H13.8693L15.0345 25.6143C15.0561 25.5745 15.0445 25.5729 15.0312 25.528Z" fill="#7BACDF"/>
<path fill-rule="evenodd" clip-rule="evenodd" d="M13.4921 20.4031L13.9708 18.5277L13.7513 17.7485L12.4216 17.104L11.1833 17.7369L10.791 18.6024L11.2498 20.4031H12.3718H13.4921Z" fill="#3987D0"/>
<path fill-rule="evenodd" clip-rule="evenodd" d="M10.7917 18.6025L12.4223 17.104C12.4057 17.104 12.3891 17.104 12.3725 17.104C11.5564 15.9296 10.195 15.1854 8.78882 15.5708C7.97601 16.1871 6.84076 17.0841 6.54492 17.2984L6.54826 17.3017L9.30082 19.3467C9.88587 19.7105 9.47701 19.7603 10.3745 18.9862L10.7917 18.6025Z" fill="#CECECE"/>
<path fill-rule="evenodd" clip-rule="evenodd" d="M15.5434 19.3467L18.2727 17.3183L18.2993 17.2984C17.9968 17.0792 16.8166 16.1472 16.0022 15.5309C14.2918 15.3963 13.0552 16.2983 12.4219 17.104L13.971 18.5276L14.4697 18.9861C15.3672 19.7603 14.9583 19.7105 15.5434 19.3467Z" fill="#CECECE"/>
<path fill-rule="evenodd" clip-rule="evenodd" d="M13.4919 20.4031L13.9706 18.5277L12.4215 17.104L11.8613 17.619L12.8486 18.5277L12.3716 20.4031H13.4919Z" fill="#0067B4"/>
<path fill-rule="evenodd" clip-rule="evenodd" d="M15.0325 25.528L13.4934 20.4032H12.373L13.9105 25.528C13.9255 25.5728 13.9355 25.5745 13.9155 25.6144L12.7487 27.8221H13.8706L15.0358 25.6144C15.0574 25.5745 15.0458 25.5729 15.0325 25.528Z" fill="#3987D0"/>
<path fill-rule="evenodd" clip-rule="evenodd" d="M10.8857 18.516L11.8614 17.6189L12.4215 17.104C12.4049 17.104 12.3883 17.104 12.3717 17.104C11.8796 17.104 11.3893 17.001 10.8308 16.7917C10.0978 16.5192 9.40471 16.0923 8.78801 15.5707C8.49047 15.7966 8.14975 16.0608 7.82227 16.3149C8.6301 17.2667 9.67893 18.0658 10.8208 18.4927C10.8425 18.4994 10.864 18.5077 10.8857 18.516Z" fill="#B5ADB6"/>
<path fill-rule="evenodd" clip-rule="evenodd" d="M13.9245 18.4845C15.0814 18.0476 16.1402 17.2303 16.9496 16.2585C16.6255 16.006 16.2914 15.7485 16.0022 15.5309C15.3739 16.0708 14.6641 16.511 13.9129 16.7917C13.371 16.9927 12.8956 17.0974 12.4219 17.104L13.9245 18.4845Z" fill="#B5ADB6"/>
<path fill-rule="evenodd" clip-rule="evenodd" d="M22.9677 27.8221H22.9793C22.976 27.8221 22.9727 27.8221 22.9677 27.8221ZM17.0371 18.2353C19.394 18.9097 21.8607 20.8783 21.8607 23.4515V27.8221H22.9677H22.9794H23.3135C23.5429 27.8071 23.6709 27.7208 23.6709 27.3188V22.6475C23.6709 19.8733 20.8053 17.8018 18.2987 17.2985L18.2721 17.3184L17.0371 18.2353Z" fill="#E2E2E2"/>
<path fill-rule="evenodd" clip-rule="evenodd" d="M16.0042 15.5309C17.211 14.4927 18.1152 13.0906 18.416 11.7666C18.4875 11.4526 18.5257 11.1436 18.5257 10.843V7.84947V7.40094H17.3954C14.9986 7.40094 14.4999 4.45068 11.5712 4.45068H9.62646C7.3842 4.45068 9.09127 7.85117 6.51156 7.84947H6.2207V10.843C6.2207 11.1437 6.25891 11.4526 6.33039 11.7666C6.63625 13.1088 7.55875 14.5292 8.79039 15.5707C9.40703 16.0923 10.1002 16.5192 10.8332 16.7917C11.3917 17.001 11.882 17.104 12.374 17.104H12.4239C12.8976 17.0974 13.373 16.9927 13.9149 16.7917C14.6662 16.511 15.3759 16.0708 16.0042 15.5309Z" fill="#FFE5C1"/>
<path fill-rule="evenodd" clip-rule="evenodd" d="M18.4143 11.7667C19.1922 11.7766 20.0748 10.9759 20.0748 10.1902V9.57391C20.0748 9.23172 19.7955 8.95264 19.4531 8.95264H18.524L17.7793 10.1005L18.4143 11.7667Z" fill="#FFBC85"/>
<path fill-rule="evenodd" clip-rule="evenodd" d="M6.50926 8.95258C9.08897 8.95258 7.3819 5.55209 9.62417 5.55209H11.5689C14.4977 5.55209 14.9963 8.5024 17.3931 8.5024H18.5234V7.60703V5.58203C18.5234 2.48061 15.0877 0.447285 12.1988 0.438965H12.1606C10.8625 0.442305 9.67737 0.857559 8.9726 1.77291C6.00067 2.03535 6.2184 5.98902 6.2184 6.51062V7.51732V8.95258H6.50926Z" fill="#838383"/>
<path fill-rule="evenodd" clip-rule="evenodd" d="M18.5224 5.58203C18.5224 2.48061 15.0867 0.447285 12.1978 0.438965H12.1596C10.8631 0.442305 9.68133 0.855918 8.97656 1.76793C9.57826 1.47555 10.2897 1.33604 11.0377 1.3327H11.0776C13.9648 1.34266 17.4004 3.37598 17.4004 6.4774V8.5024H18.5224V7.60703V5.58203Z" fill="#595959"/>
<path fill-rule="evenodd" clip-rule="evenodd" d="M17.3935 8.50231C14.9967 8.50231 14.4981 5.552 11.5693 5.552H9.62459C8.71041 5.552 8.45277 6.11679 8.29322 6.78464H11.345C14.272 6.78464 14.6609 9.54224 17.0578 9.55718H17.2223C17.3586 9.55882 17.4018 9.55384 17.4018 9.70003C17.4035 10.4708 17.4151 10.8097 17.1641 11.6104C16.8201 12.7118 16.2566 13.8696 15.3075 14.6853C14.6792 15.2252 13.9694 15.6654 13.2181 15.9461C12.7095 16.1355 12.2208 16.2551 11.6773 16.2584C10.6617 16.2584 8.47931 15.1055 7.69141 14.4461C8.01719 14.8497 8.38621 15.2318 8.78846 15.5707C9.40509 16.0923 10.0983 16.5192 10.8313 16.7917C11.3898 17.001 11.8801 17.104 12.3721 17.104H12.422C12.8957 17.0974 13.3711 16.9927 13.9129 16.7917C14.6642 16.511 15.374 16.0707 16.0023 15.5309C17.209 14.4926 18.1132 13.0906 18.414 11.7666C18.4855 11.4526 18.5237 11.1436 18.5237 10.843V8.95249V8.50231H17.3935Z" fill="#FED1A3"/>
<path fill-rule="evenodd" clip-rule="evenodd" d="M19.2787 20.0211C21.4644 17.8383 25.0048 17.8383 27.1906 20.0211C29.3747 22.2039 29.3747 25.7439 27.1906 27.9268C25.0049 30.1096 21.4645 30.1096 19.2787 27.9268C17.0946 25.744 17.0946 22.204 19.2787 20.0211Z" fill="#FE636E"/>
<path fill-rule="evenodd" clip-rule="evenodd" d="M25.17 20.0211C27.3557 22.2039 27.3557 25.7439 25.17 27.9267C24.3355 28.7606 23.3033 29.2756 22.2246 29.4733C23.9699 29.7906 25.8382 29.2756 27.1895 27.9267C29.3736 25.7439 29.3736 22.2039 27.1895 20.0211C25.8382 18.6722 23.9699 18.1572 22.2246 18.4745C23.3034 18.6722 24.3356 19.1872 25.17 20.0211Z" fill="#FB2A39"/>
<path d="M11.4919 14.6732C11.525 14.6732 11.5587 14.6694 11.5923 14.6616C11.9915 14.5682 12.6672 14.5683 13.0681 14.6616C13.3044 14.7166 13.5407 14.5696 13.5958 14.3332C13.6508 14.0968 13.5038 13.8605 13.2674 13.8054C12.7408 13.6828 11.9172 13.6828 11.3923 13.8055C11.156 13.8607 11.0092 14.0971 11.0643 14.3335C11.1118 14.5363 11.2924 14.6732 11.4919 14.6732Z" fill="#474747"/>
<path d="M9.83773 10.7668C10.1654 10.7668 10.4933 10.6463 10.7434 10.4052C10.9181 10.2366 10.9232 9.95844 10.7547 9.78371C10.5863 9.60905 10.3081 9.60389 10.1333 9.7724C9.97022 9.92973 9.7059 9.93008 9.54412 9.77322C9.3698 9.60424 9.09166 9.6087 8.92273 9.78289C8.75381 9.95721 8.75814 10.2355 8.93246 10.4044C9.18166 10.646 9.50955 10.7668 9.83773 10.7668Z" fill="#474747"/>
<path d="M14.9131 10.7669C15.2412 10.7669 15.5691 10.646 15.8184 10.4044C15.9927 10.2355 15.997 9.95722 15.8281 9.7829C15.6592 9.60865 15.381 9.60425 15.2067 9.77318C15.0449 9.92997 14.7806 9.9298 14.6175 9.77242C14.4429 9.60396 14.1647 9.609 13.9962 9.78367C13.8277 9.95839 13.8327 10.2367 14.0074 10.4051C14.2574 10.6463 14.5854 10.7669 14.9131 10.7669Z" fill="#474747"/>
<path d="M28.7592 21.5502C28.6614 21.3281 28.4024 21.2273 28.1797 21.3246C27.9577 21.4224 27.8569 21.6815 27.9541 21.9041C28.8137 23.862 28.3918 26.1041 26.8789 27.6155C25.8741 28.6193 24.554 29.1216 23.2339 29.1216C22.236 29.121 21.2382 28.8344 20.3769 28.2619C20.098 28.0761 19.8337 27.861 19.5882 27.6161C19.5121 27.5405 19.4388 27.4625 19.3691 27.3828C18.5347 26.4411 18.0795 25.2427 18.0795 23.9739C18.0795 22.598 18.615 21.3046 19.5882 20.3318C20.1009 19.8196 20.6962 19.4381 21.332 19.1879C21.6584 19.0584 21.9959 18.9641 22.338 18.9042C23.9382 18.6241 25.6456 19.0999 26.879 20.3317C27.0513 20.5034 27.329 20.5034 27.5007 20.3317C27.6724 20.1601 27.6718 19.8817 27.5001 19.7099C25.8729 18.0849 23.5404 17.5839 21.4785 18.2068C20.582 17.5798 19.5326 17.115 18.485 16.8894C18.3104 16.7582 17.9869 16.5073 17.6201 16.2225C17.3207 15.9904 16.9944 15.7373 16.6867 15.5005C17.6617 14.5529 18.4164 13.3721 18.7621 12.1707C19.1587 12.0893 19.5601 11.8713 19.8847 11.5508C20.2843 11.1558 20.5134 10.66 20.5134 10.19V9.57364C20.5134 8.98881 20.0377 8.51292 19.4523 8.51292H18.9625V5.58229C18.9625 4.39735 18.5025 3.271 17.6318 2.32342C16.8736 1.49889 15.8037 0.822018 14.6184 0.418249C13.5057 0.0385027 12.3279 -0.0880598 11.3026 0.0607683C10.2245 0.2178 9.34441 0.664343 8.745 1.35704C7.52859 1.53112 5.71576 2.45409 5.77787 6.41497C5.77846 6.45423 5.77846 6.48645 5.77846 6.51048V8.51292H5.29096C4.70443 8.51292 4.22807 8.98876 4.22807 9.57364V10.1902C4.22807 10.6601 4.45717 11.1559 4.85678 11.5509C5.18139 11.8715 5.58275 12.0894 5.97943 12.1709C6.32982 13.3904 7.10267 14.5888 8.09935 15.544C7.80463 15.7702 7.49642 16.0099 7.21283 16.2302C6.85072 16.5116 6.53197 16.7594 6.35853 16.889C5.32142 17.1134 4.26146 17.5799 3.36211 18.2092C3.16289 18.3481 3.11426 18.6224 3.25371 18.821C3.33926 18.9435 3.47519 19.0086 3.61406 19.0086C3.70078 19.0086 3.78867 18.9828 3.86543 18.9295C4.6418 18.3863 5.55 17.979 6.44232 17.7703L9.03803 19.6995C9.0474 19.7065 9.05736 19.7136 9.06791 19.72C9.16517 19.7804 9.22904 19.8302 9.28002 19.87C9.43705 19.9925 9.5724 20.0405 9.69193 20.0405C9.89174 20.0405 10.0488 19.9058 10.1941 19.7581C10.2703 19.6801 10.3792 19.5694 10.5456 19.4199L10.7935 20.3933L9.28939 25.4026C9.23549 25.5479 9.24603 25.6856 9.31869 25.8198L10.1449 27.3827H5.51244V24.5212C5.51244 24.2786 5.31557 24.0817 5.07299 24.0817C4.83041 24.0817 4.63353 24.2786 4.63353 24.5212V27.3827H1.875C1.82637 27.3827 1.78008 27.3833 1.73555 27.3839C1.69746 27.3845 1.65293 27.3857 1.61309 27.3851C1.61191 27.3669 1.61133 27.3447 1.61133 27.3189V22.6471C1.61133 21.8109 1.9002 21.0057 2.46973 20.2532C2.61621 20.0593 2.57812 19.7838 2.38477 19.6373C2.19141 19.4908 1.91543 19.5289 1.76895 19.7223C1.09102 20.6184 0.732422 21.6299 0.732422 22.6472V27.3189C0.732422 27.5299 0.757617 27.8352 0.974414 28.0485C1.20293 28.2724 1.49355 28.2677 1.75078 28.2631C1.79062 28.2625 1.83164 28.2619 1.875 28.2619H10.8731H10.8743H13.869H13.8701H18.9918C20.1648 29.4205 21.6994 30 23.2339 30C24.779 30 26.3241 29.4123 27.5 28.2379C28.376 27.3624 28.9543 26.2583 29.1717 25.044C29.3844 23.8585 29.2414 22.6501 28.7592 21.5502ZM18.9625 10.843V9.392H19.4523C19.5531 9.392 19.6345 9.47344 19.6345 9.57364V10.1902C19.6345 10.4234 19.4968 10.6982 19.2671 10.9256C19.1693 11.0223 19.0609 11.1038 18.949 11.1683C18.9578 11.0586 18.9625 10.9497 18.9625 10.843ZM5.47435 10.9256C5.24408 10.6983 5.10697 10.4234 5.10697 10.1902V9.57364C5.10697 9.4752 5.19076 9.392 5.29096 9.392H5.77846V10.843C5.77846 10.9497 5.78373 11.0586 5.79193 11.1683C5.6806 11.1038 5.57221 11.0223 5.47435 10.9256ZM17.0811 16.9171C17.2604 17.0565 17.425 17.1843 17.5674 17.2945L15.2951 18.9834C15.2559 19.008 15.2201 19.0314 15.1885 19.0537C15.0901 18.9553 14.9553 18.8251 14.7613 18.6581L14.2721 18.2081C14.2697 18.2057 14.2674 18.204 14.2656 18.2016L13.4049 17.4111C13.6164 17.3583 13.8356 17.2898 14.0658 17.2037C14.749 16.9493 15.4088 16.5649 16.0123 16.0914C16.3569 16.3551 16.7365 16.6499 17.0811 16.9171ZM13.48 18.674L13.1507 19.9638H11.5909L11.2815 18.7484L12.4212 17.7012L13.48 18.674ZM9.01101 2.21087C9.13348 2.19973 9.24539 2.13821 9.32039 2.04094C9.96082 1.21055 11.0325 0.878854 12.1639 0.878854C12.8957 0.878854 13.6528 1.01772 14.3348 1.24981C16.0645 1.83932 18.0836 3.32784 18.0836 5.58223V8.06286H17.3927C16.4283 8.06286 15.8125 7.48565 15.0988 6.81698C14.2462 6.01823 13.28 5.11225 11.5686 5.11225H9.62385C8.18361 5.11225 7.95099 6.2468 7.78107 7.07485C7.59767 7.96735 7.45822 8.45667 6.65725 8.50823V6.51048C6.65725 6.48294 6.65725 6.44602 6.65607 6.40149C6.62807 4.58661 7.01361 2.38729 9.01101 2.21087ZM6.75639 11.6693C6.69076 11.3815 6.65736 11.1032 6.65736 10.843V9.38848C8.2183 9.31524 8.47201 8.07815 8.64193 7.25128C8.83353 6.31835 8.9601 5.99133 9.62396 5.99133H11.5687C12.9328 5.99133 13.6933 6.70454 14.4983 7.45876C15.2764 8.18778 16.0809 8.942 17.3929 8.942H18.0837V10.8431C18.0837 11.1033 18.0509 11.3816 17.9852 11.6688C17.5399 13.6232 15.723 15.6485 13.7589 16.3798C13.2392 16.5744 12.7986 16.6646 12.3714 16.6646C11.9431 16.6646 11.5025 16.5744 10.9839 16.3798C9.01922 15.6483 7.2017 13.6231 6.75639 11.6693ZM10.4975 18.2755C10.4946 18.2784 10.4917 18.2808 10.4887 18.2837L10.0815 18.6582C9.88758 18.8252 9.75281 18.9553 9.65437 19.0538C9.62215 19.0315 9.58699 19.0081 9.54773 18.9834L7.27547 17.2945C7.41551 17.1861 7.57605 17.0607 7.75184 16.9248C8.08113 16.6686 8.445 16.3862 8.77957 16.1301C9.36961 16.586 10.0124 16.9558 10.6762 17.2031C10.9358 17.3004 11.1807 17.3748 11.4174 17.4299L10.4975 18.2755ZM13.6041 27.3829H11.1386L10.1653 25.541L11.5762 20.8429H13.1653L14.5762 25.541L13.6041 27.3829ZM14.5979 27.3829L15.4211 25.8234C15.4955 25.6857 15.5055 25.548 15.451 25.3992L13.9481 20.3934L14.2147 19.3473C14.4291 19.5343 14.561 19.6685 14.6488 19.7581C14.7942 19.9058 14.9512 20.0406 15.151 20.0406C15.2705 20.0406 15.4059 19.9925 15.5629 19.8701C15.6139 19.8302 15.6778 19.7804 15.775 19.7201C15.7856 19.7136 15.7955 19.7066 15.8049 19.6996L18.4006 17.7704C19.1154 17.9356 19.8315 18.2222 20.4854 18.606C19.9375 18.885 19.4248 19.253 18.9672 19.7101C17.8276 20.8488 17.2006 22.363 17.2006 23.974C17.2006 25.2093 17.5692 26.3872 18.2553 27.3829H14.5979Z" fill="#474747"/>
<path d="M25.2524 24.4749C25.081 24.3031 24.8027 24.3029 24.631 24.4744L23.6738 25.43V21.4581C23.6738 21.2153 23.4771 21.0186 23.2344 21.0186C22.9916 21.0186 22.7949 21.2153 22.7949 21.4581V25.43L21.8378 24.4744C21.666 24.3028 21.3877 24.3031 21.2164 24.4749C21.0449 24.6467 21.0451 24.9249 21.2169 25.0964L22.9235 26.8004L22.9238 26.8008L22.9239 26.8008C22.924 26.8009 22.924 26.8009 22.9241 26.8009C23.0036 26.8802 23.1132 26.9293 23.2344 26.9293C23.3556 26.9293 23.4653 26.8802 23.5448 26.8008H23.5449L23.5449 26.8008C23.5451 26.8006 23.5452 26.8005 23.5453 26.8004L25.2519 25.0964C25.4237 24.925 25.4239 24.6467 25.2524 24.4749Z" fill="#474747"/>
</g>
<defs>
<clipPath id="clip0">
<rect width="30" height="30" fill="white"/>
</clipPath>
</defs>
</svg>
