<svg width="20" height="20" viewBox="0 0 20 20" fill="none" xmlns="http://www.w3.org/2000/svg">
<path fill-rule="evenodd" clip-rule="evenodd" d="M10.5284 1.69699C8.47117 1.56924 6.43766 2.19115 4.80977 3.44594C3.18187 4.70073 2.07157 6.50208 1.68736 8.51174C1.30396 10.5171 1.66987 12.5923 2.71638 14.3491C2.8271 14.5275 2.86214 14.7482 2.80124 14.9597L1.89 18.1247L1.2423 17.941L1.89 18.1247L5.07936 17.2204C5.28932 17.1609 5.51219 17.1932 5.6941 17.3043C7.46466 18.343 9.55606 18.7063 11.5771 18.3257C13.6023 17.9445 15.4175 16.8426 16.682 15.2272C17.9465 13.6118 18.5732 11.5938 18.4444 9.55232C18.3157 7.51081 17.4403 5.58615 15.9828 4.13976C14.5252 2.69337 12.5857 1.82475 10.5284 1.69699ZM5.19072 18.7772C7.22198 19.8829 9.58096 20.2561 11.864 19.8262C14.2576 19.3756 16.403 18.0734 17.8975 16.1641C19.3919 14.2548 20.1326 11.8698 19.9805 9.45693C19.8283 7.04406 18.7937 4.76931 17.071 3.05982C15.3484 1.35033 13.056 0.323696 10.6246 0.172705C8.19307 0.0217138 5.78967 0.756749 3.86566 2.23979C1.94165 3.72282 0.629381 5.85184 0.175276 8.22706C-0.257863 10.4926 0.118163 12.8335 1.23242 14.8492L0.410159 17.7051C0.334756 17.967 0.331298 18.2441 0.400145 18.5078C0.468992 18.7714 0.607639 19.012 0.801719 19.2046C0.9958 19.3972 1.23825 19.5348 1.50394 19.6031C1.76963 19.6714 2.0489 19.668 2.31281 19.5932L5.19072 18.7772Z" fill="#666666"/>
<path fill-rule="evenodd" clip-rule="evenodd" d="M6.15625 8.54586C6.15625 8.12412 6.50078 7.78223 6.92578 7.78223H13.082C13.507 7.78223 13.8515 8.12412 13.8515 8.54586C13.8515 8.96761 13.507 9.3095 13.082 9.3095H6.92578C6.50078 9.3095 6.15625 8.96761 6.15625 8.54586Z" fill="#666666"/>
<path fill-rule="evenodd" clip-rule="evenodd" d="M6.15625 11.6005C6.15625 11.1788 6.50078 10.8369 6.92578 10.8369H13.082C13.507 10.8369 13.8515 11.1788 13.8515 11.6005C13.8515 12.0223 13.507 12.3642 13.082 12.3642H6.92578C6.50078 12.3642 6.15625 12.0223 6.15625 11.6005Z" fill="#666666"/>
<path d="M20 3.5C20 5.433 18.433 7 16.5 7C14.567 7 13 5.433 13 3.5C13 1.567 14.567 0 16.5 0C18.433 0 20 1.567 20 3.5Z" fill="#FF3333"/>
</svg>
