<svg width="20" height="21" viewBox="0 0 20 21" fill="none" xmlns="http://www.w3.org/2000/svg">
<ellipse cx="10" cy="10.2967" rx="10" ry="10.2967" fill="#F46A6A"/>
<path d="M10.3245 10.4999L13.829 14.0045C14.057 14.2325 14.057 14.6011 13.829 14.829C13.601 15.057 13.2324 15.057 13.0045 14.829L9.49995 11.3244L5.99553 14.829C5.76747 15.057 5.399 15.057 5.17105 14.829C4.94298 14.6011 4.94298 14.2325 5.17105 14.0045L8.67547 10.4999L5.17105 6.99533C4.94298 6.76737 4.94298 6.3988 5.17105 6.17084C5.28465 6.05712 5.43402 6 5.58329 6C5.73255 6 5.88182 6.05712 5.99553 6.17084L9.49995 9.67543L13.0045 6.17084C13.1182 6.05712 13.2674 6 13.4167 6C13.566 6 13.7152 6.05712 13.829 6.17084C14.057 6.3988 14.057 6.76737 13.829 6.99533L10.3245 10.4999Z" fill="white"/>
</svg>
