<svg width="56" height="56" viewBox="0 0 56 56" fill="none" xmlns="http://www.w3.org/2000/svg">
<path fill-rule="evenodd" clip-rule="evenodd" d="M42.5083 9.89187C42.2187 9.87693 41.9291 9.86014 41.6289 9.85547C41.6434 9.8844 41.6588 9.91147 41.6723 9.9404C41.9561 9.91427 42.2313 9.904 42.5083 9.89187Z" fill="url(#paint0_linear)"/>
<path fill-rule="evenodd" clip-rule="evenodd" d="M41.6723 46.0586C41.6588 46.0875 41.6434 46.1146 41.6289 46.1436C41.9282 46.1389 42.2187 46.1221 42.5093 46.1071C42.2313 46.0931 41.9571 46.0829 41.6723 46.0586Z" fill="url(#paint1_linear)"/>
<path fill-rule="evenodd" clip-rule="evenodd" d="M53.4877 12.5504L53.4935 12.5616C53.5195 12.5458 53.5485 12.5336 53.5745 12.5187C53.4494 12.4469 53.3187 12.3845 53.1836 12.332C53.2849 12.4104 53.3931 12.4711 53.4877 12.5504Z" fill="url(#paint2_linear)"/>
<path fill-rule="evenodd" clip-rule="evenodd" d="M53.4877 43.4459C53.3911 43.5252 53.2821 43.5906 53.1836 43.6671C53.3187 43.6146 53.4494 43.5522 53.5745 43.4804C53.5485 43.4655 53.5195 43.4534 53.4935 43.4375L53.4877 43.4459Z" fill="url(#paint3_linear)"/>
<path fill-rule="evenodd" clip-rule="evenodd" d="M8.74358 11.6518C8.21046 11.6544 7.77612 11.2386 7.77345 10.7232C7.77078 10.2077 8.20081 9.78773 8.73393 9.78516H8.74358C9.27671 9.78516 9.70889 10.203 9.70889 10.7185C9.70889 11.234 9.27671 11.6518 8.74358 11.6518Z" fill="url(#paint4_linear)"/>
<path d="M17.9688 34.4598C18.2051 34.5552 18.4708 34.5558 18.7076 34.4616C18.9444 34.3675 19.1328 34.1862 19.2314 33.9577L20.5925 30.7984H25.7414L27.1025 33.9577C27.3077 34.4335 27.873 34.6583 28.3651 34.4598C28.8572 34.2614 29.0897 33.7148 28.8845 33.239L24.0579 22.039C23.908 21.6913 23.5566 21.4648 23.1669 21.4648C22.7773 21.4648 22.4259 21.6913 22.276 22.039L17.4494 33.239C17.3508 33.4675 17.3502 33.7245 17.4476 33.9534C17.545 34.1824 17.7324 34.3646 17.9688 34.4598ZM23.1669 24.825L24.9363 28.9317H21.3975L23.1669 24.825Z" fill="url(#paint5_linear)"/>
<path fill-rule="evenodd" clip-rule="evenodd" d="M30.8911 32.6648C30.358 32.6648 29.9258 33.0827 29.9258 33.5982C29.9258 34.1136 30.358 34.5315 30.8911 34.5315H36.6829C37.2161 34.5315 37.6482 34.1136 37.6482 33.5982C37.6482 33.0827 37.2161 32.6648 36.6829 32.6648H34.7523V23.3315H36.6829C37.2161 23.3315 37.6482 22.9136 37.6482 22.3982C37.6482 21.8827 37.2161 21.4648 36.6829 21.4648H30.8911C30.358 21.4648 29.9258 21.8827 29.9258 22.3982C29.9258 22.9136 30.358 23.3315 30.8911 23.3315H32.8217V32.6648H30.8911Z" fill="url(#paint6_linear)"/>
<path d="M0.000183326 41.0667C0.000183326 43.1285 1.72891 44.8 3.86141 44.8C4.34508 44.7983 4.824 44.7077 5.27269 44.5331C7.55467 46.2224 10.7749 47.1035 14.7327 47.1035C15.3293 47.1035 15.949 47.0764 16.5774 47.0372C19.3806 52.5756 23.4253 56 27.9941 56C32.5629 56 36.6075 52.5756 39.4117 47.04C40.0411 47.0792 40.6599 47.1063 41.2564 47.1063C45.2142 47.1063 48.4344 46.2252 50.7164 44.5359C51.165 44.7094 51.6436 44.7991 52.1267 44.8C53.831 44.7953 55.3305 43.7108 55.8166 42.1314C56.3026 40.5521 55.6603 38.8514 54.2359 37.9465C54.3711 34.9412 53.1693 31.5308 50.7232 28C53.1693 24.4701 54.3711 21.0597 54.2359 18.0535C55.9048 17.0122 56.4814 14.9149 55.5675 13.2098C54.6537 11.5048 52.5489 10.7509 50.7068 11.4688C48.084 9.5284 44.2112 8.6688 39.4127 8.9712C36.6114 3.42813 32.5648 0 27.9941 0C23.4233 0 19.3797 3.42533 16.5764 8.96467C15.1868 8.8683 13.7912 8.88484 12.4044 9.01413C12.1431 9.03412 11.9022 9.1581 11.7391 9.35648C11.576 9.55485 11.5055 9.8098 11.5443 10.0604C11.6217 10.5564 12.0821 10.9104 12.5994 10.8715C13.6402 10.7722 14.687 10.7454 15.7318 10.7912C14.5341 13.6826 13.6855 16.6979 13.2027 19.7773C10.7062 21.7211 8.44668 23.9334 6.46774 26.3713C4.83736 24.084 3.86766 21.4176 3.6587 18.6471C3.72723 18.6471 3.79191 18.6667 3.86141 18.6667C5.7875 18.6742 7.42721 17.3133 7.71137 15.4714C7.99552 13.6295 6.83793 11.8652 4.99341 11.3289C3.14888 10.7927 1.17689 11.6471 0.363285 13.3351C-0.450324 15.0231 0.141227 17.0327 1.75221 18.0535C1.61611 21.0579 2.81888 24.4683 5.26497 28C2.81888 31.5308 1.61611 34.9412 1.75221 37.9465C0.660437 38.6335 0.00138897 39.8072 0.000183326 41.0667ZM3.86141 13.0667C4.92766 13.0667 5.79202 13.9024 5.79202 14.9333C5.79202 15.9643 4.92766 16.8 3.86141 16.8C2.79516 16.8 1.9308 15.9643 1.9308 14.9333C1.9308 13.9024 2.79516 13.0667 3.86141 13.0667ZM1.9308 41.0667C1.9308 40.0357 2.79516 39.2 3.86141 39.2C4.92766 39.2 5.79202 40.0357 5.79202 41.0667C5.79202 42.0976 4.92766 42.9333 3.86141 42.9333C3.34938 42.9333 2.85832 42.7367 2.49626 42.3866C2.1342 42.0365 1.9308 41.5617 1.9308 41.0667ZM17.7705 10.9387C20.3403 11.2362 22.8721 11.7857 25.3269 12.5785C23.5991 13.3241 21.9118 14.1546 20.2716 15.0668C18.6257 15.9853 17.0313 16.9875 15.4953 18.0693C16.0014 15.6239 16.7637 13.2347 17.7705 10.9387ZM15.0097 20.7695C16.9784 19.2611 19.0598 17.8956 21.2369 16.6843C23.4089 15.4698 25.6692 14.4092 27.9999 13.5109C30.3286 14.4095 32.5869 15.4701 34.757 16.6843C36.9339 17.8955 39.015 19.261 40.9832 20.7695C41.3363 23.1645 41.5118 25.5808 41.5084 28C41.5102 30.4193 41.3331 32.8357 40.9784 35.2305C39.0098 36.7389 36.9283 38.1044 34.7512 39.3157C32.581 40.5294 30.3227 41.5893 27.9941 42.4872C25.6653 41.5888 23.407 40.5283 21.2369 39.3139C19.0601 38.1026 16.979 36.7371 15.0107 35.2287C14.3041 30.4325 14.3041 25.5638 15.0107 20.7676L15.0097 20.7695ZM40.4938 18.0693C38.9575 16.9874 37.3629 15.9851 35.7165 15.0668C34.0788 14.1557 32.3944 13.3252 30.6699 12.5785C33.1222 11.786 35.6514 11.2366 38.2186 10.9387C39.2247 13.2348 39.9864 15.624 40.4919 18.0693H40.4938ZM38.2176 45.0613C35.6479 44.7638 33.116 44.2143 30.6612 43.4215C32.3891 42.6759 34.0764 41.8454 35.7165 40.9332C37.3624 40.0148 38.9568 39.0125 40.4929 37.9307C39.9867 40.3761 39.2244 42.7653 38.2176 45.0613ZM43.1542 22.5335C45.0779 24.1817 46.8249 26.0131 48.3688 28C46.8255 29.9868 45.0791 31.8182 43.1561 33.4665C43.3457 31.6501 43.4401 29.8256 43.439 28C43.4395 26.1743 43.3445 24.3498 43.1542 22.5335ZM20.2716 40.9332C21.9094 41.8443 23.5937 42.6748 25.3182 43.4215C22.866 44.214 20.3368 44.7634 17.7696 45.0613C16.7631 42.7652 16.0011 40.376 15.4953 37.9307C17.0313 39.0126 18.6256 40.0149 20.2716 40.9332ZM27.9941 54.1333C24.3684 54.1333 21.0738 51.3529 18.6441 46.8431C21.8434 46.4045 24.9803 45.6142 27.9941 44.4873C31.009 45.6147 34.1473 46.405 37.3479 46.8431C34.9134 51.3529 31.6198 54.1333 27.9941 54.1333ZM52.1267 42.9333C51.0605 42.9333 50.1961 42.0976 50.1961 41.0667C50.1961 40.0357 51.0605 39.2 52.1267 39.2C53.193 39.2 54.0574 40.0357 54.0574 41.0667C54.0574 42.0976 53.193 42.9333 52.1267 42.9333ZM52.3295 37.3529C52.2609 37.3529 52.1962 37.3333 52.1267 37.3333C49.9942 37.3333 48.2655 39.0048 48.2655 41.0667C48.2692 41.9013 48.5648 42.7102 49.1044 43.3617C47.0019 44.7029 43.9332 45.3404 40.2573 45.2069C41.4541 42.316 42.3024 39.3014 42.7855 36.2227C45.2822 34.2788 47.5417 32.0662 49.5204 29.6277C51.1503 31.9156 52.1199 34.5822 52.3295 37.3529ZM54.0574 14.9333C54.0574 15.9643 53.193 16.8 52.1267 16.8C51.0605 16.8 50.1961 15.9643 50.1961 14.9333C50.1961 13.9024 51.0605 13.0667 52.1267 13.0667C53.193 13.0667 54.0574 13.9024 54.0574 14.9333ZM49.1044 12.6383C48.5648 13.2898 48.2692 14.0987 48.2655 14.9333C48.2655 16.9952 49.9942 18.6667 52.1267 18.6667C52.1962 18.6667 52.2609 18.6508 52.3295 18.6471C52.1202 21.4178 51.1505 24.0845 49.5204 26.3723C47.5414 23.9338 45.2816 21.7212 42.7845 19.7773C42.3008 16.6985 41.4515 13.6838 40.2535 10.7931C43.9323 10.6587 47.0029 11.2933 49.1044 12.6383ZM27.9941 1.86667C31.6198 1.86667 34.9144 4.64707 37.344 9.15693C34.1464 9.59582 31.0111 10.3862 27.9989 11.5127C24.9838 10.3856 21.8456 9.59494 18.6451 9.156C21.0748 4.64707 24.3684 1.86667 27.9941 1.86667ZM12.8388 22.5335C12.4591 26.1686 12.4591 29.8314 12.8388 33.4665C10.9129 31.819 9.16425 29.9875 7.61935 28C9.16477 26.0129 10.9134 24.1815 12.8388 22.5335ZM6.46774 29.6268C8.44759 32.0646 10.7077 34.2768 13.2046 36.2208C13.688 39.3005 14.537 42.3161 15.7347 45.2079C12.0607 45.3423 8.99008 44.7029 6.88765 43.3617C7.42581 42.7097 7.72009 41.9009 7.72264 41.0667C7.72264 39.0048 5.99391 37.3333 3.86141 37.3333C3.79191 37.3333 3.72723 37.3501 3.6587 37.3529C3.86799 34.5825 4.83765 31.9161 6.46774 29.6287V29.6268Z" fill="url(#paint7_linear)"/>
<defs>
<linearGradient id="paint0_linear" x1="41.7266" y1="9.9012" x2="42.435" y2="9.9012" gradientUnits="userSpaceOnUse">
<stop stop-color="#F65034"/>
<stop offset="1" stop-color="#FE9618"/>
</linearGradient>
<linearGradient id="paint1_linear" x1="41.7267" y1="46.1043" x2="42.4359" y2="46.1043" gradientUnits="userSpaceOnUse">
<stop stop-color="#F65034"/>
<stop offset="1" stop-color="#FE9618"/>
</linearGradient>
<linearGradient id="paint2_linear" x1="53.227" y1="12.4557" x2="53.542" y2="12.4557" gradientUnits="userSpaceOnUse">
<stop stop-color="#F65034"/>
<stop offset="1" stop-color="#FE9618"/>
</linearGradient>
<linearGradient id="paint3_linear" x1="53.227" y1="43.5611" x2="53.542" y2="43.5611" gradientUnits="userSpaceOnUse">
<stop stop-color="#F65034"/>
<stop offset="1" stop-color="#FE9618"/>
</linearGradient>
<linearGradient id="paint4_linear" x1="7.98849" y1="10.7903" x2="9.5476" y2="10.7903" gradientUnits="userSpaceOnUse">
<stop stop-color="#F65034"/>
<stop offset="1" stop-color="#FE9618"/>
</linearGradient>
<linearGradient id="paint5_linear" x1="18.6621" y1="28.501" x2="27.9938" y2="28.501" gradientUnits="userSpaceOnUse">
<stop stop-color="#F65034"/>
<stop offset="1" stop-color="#FE9618"/>
</linearGradient>
<linearGradient id="paint6_linear" x1="30.7838" y1="28.5007" x2="37.0047" y2="28.5007" gradientUnits="userSpaceOnUse">
<stop stop-color="#F65034"/>
<stop offset="1" stop-color="#FE9618"/>
</linearGradient>
<linearGradient id="paint7_linear" x1="6.22222" y1="30.1538" x2="51.3333" y2="30.1538" gradientUnits="userSpaceOnUse">
<stop stop-color="#F65034"/>
<stop offset="1" stop-color="#FE9618"/>
</linearGradient>
</defs>
</svg>
