<svg width="23" height="23" viewBox="0 0 23 23" fill="none" xmlns="http://www.w3.org/2000/svg">
<path d="M14.375 12.4568C13.8449 12.4568 13.4182 12.8881 13.4182 13.4137V17.25C13.4182 17.7801 12.9869 18.2068 12.4613 18.2068H9.58633V3.83184C9.58633 3.01426 9.06523 2.28203 8.2791 2.00801L7.99609 1.91367H12.4613C12.9914 1.91367 13.4182 2.34492 13.4182 2.87051V5.74551C13.4182 6.27559 13.8449 6.70234 14.375 6.70234C14.9051 6.70234 15.3318 6.27109 15.3318 5.74551V2.875C15.3318 1.28926 14.0426 0 12.4568 0H2.15625C2.12031 0 2.08887 0.0179687 2.05293 0.0224609C2.00801 0.0179687 1.96309 0 1.91367 0C0.858008 0 0 0.858008 0 1.91816V19.1682C0 19.9857 0.521094 20.718 1.30723 20.992L7.0707 22.9102C7.26836 22.9686 7.46152 23 7.66367 23C8.71934 23 9.58184 22.142 9.58184 21.0818V20.125H12.4568C14.0426 20.125 15.3318 18.8357 15.3318 17.25V13.4182C15.3318 12.8881 14.9051 12.4568 14.375 12.4568Z" fill="#666666"/>
<path d="M22.7166 8.90368L18.8848 5.07184C18.6107 4.79782 18.1975 4.71696 17.8426 4.8652C17.4832 5.01344 17.2496 5.36383 17.2496 5.75016V8.62516H13.4178C12.8877 8.62516 12.4609 9.05641 12.4609 9.582C12.4609 10.1076 12.8922 10.5388 13.4178 10.5388H17.2496V13.4138C17.2496 13.8002 17.4832 14.1505 17.8426 14.2988C18.202 14.447 18.6152 14.3662 18.8848 14.0922L22.7166 10.2603C23.0939 9.88746 23.0939 9.28102 22.7166 8.90368Z" fill="#666666"/>
</svg>
