<svg width="20" height="20" viewBox="0 0 20 20" fill="none" xmlns="http://www.w3.org/2000/svg">
<path d="M5.17857 2.92857C4.58183 2.92857 4.00954 3.16562 3.58758 3.58758C3.16562 4.00954 2.92857 4.58183 2.92857 5.17857V14.8214C2.92857 16.0634 3.93657 17.0714 5.17857 17.0714H14.8214C15.4182 17.0714 15.9905 16.8344 16.4124 16.4124C16.8344 15.9905 17.0714 15.4182 17.0714 14.8214V12.25C17.0714 11.9943 17.173 11.749 17.3539 11.5681C17.5347 11.3873 17.78 11.2857 18.0357 11.2857C18.2915 11.2857 18.5367 11.3873 18.7176 11.5681C18.8984 11.749 19 11.9943 19 12.25V14.8214C19 15.9297 18.5598 16.9925 17.7761 17.7761C16.9925 18.5598 15.9297 19 14.8214 19H5.17857C4.07035 19 3.00751 18.5598 2.22388 17.7761C1.44024 16.9925 1 15.9297 1 14.8214V5.17857C1 4.07035 1.44024 3.00751 2.22388 2.22388C3.00751 1.44024 4.07035 1 5.17857 1H7.75C8.00574 1 8.25101 1.10159 8.43185 1.28243C8.61269 1.46327 8.71429 1.70854 8.71429 1.96429C8.71429 2.22003 8.61269 2.4653 8.43185 2.64614C8.25101 2.82698 8.00574 2.92857 7.75 2.92857H5.17857ZM10.6429 1.96429C10.6429 1.70854 10.7445 1.46327 10.9253 1.28243C11.1061 1.10159 11.3514 1 11.6071 1H18.0357C18.2915 1 18.5367 1.10159 18.7176 1.28243C18.8984 1.46327 19 1.70854 19 1.96429V8.39286C19 8.6486 18.8984 8.89387 18.7176 9.07471C18.5367 9.25555 18.2915 9.35714 18.0357 9.35714C17.78 9.35714 17.5347 9.25555 17.3539 9.07471C17.173 8.89387 17.0714 8.6486 17.0714 8.39286V4.29143L12.2886 9.07429C12.2003 9.16903 12.0938 9.24501 11.9755 9.29772C11.8573 9.35042 11.7296 9.37876 11.6001 9.38105C11.4706 9.38333 11.342 9.35951 11.2219 9.31101C11.1019 9.26252 10.9928 9.19033 10.9012 9.09876C10.8097 9.0072 10.7375 8.89812 10.689 8.77805C10.6405 8.65798 10.6167 8.52938 10.619 8.3999C10.6212 8.27042 10.6496 8.14274 10.7023 8.02445C10.755 7.90617 10.831 7.79971 10.9257 7.71143L15.7086 2.92857H11.6071C11.3514 2.92857 11.1061 2.82698 10.9253 2.64614C10.7445 2.4653 10.6429 2.22003 10.6429 1.96429V1.96429Z" fill="#4C5BD4"/>
</svg>
