<svg width="16" height="13" viewBox="0 0 16 13" fill="none" xmlns="http://www.w3.org/2000/svg">
<path d="M3.05469 0.46875C3.60677 0.46875 4.08333 0.674479 4.48438 1.08594C4.88542 1.4974 5.08594 1.98958 5.08594 2.5625C5.08594 3.13542 4.88802 3.625 4.49219 4.03125C4.09635 4.43229 3.61719 4.63281 3.05469 4.63281C2.48698 4.63281 2 4.43229 1.59375 4.03125C1.19271 3.625 0.992188 3.13542 0.992188 2.5625C0.992188 1.98958 1.19531 1.4974 1.60156 1.08594C2.01302 0.674479 2.4974 0.46875 3.05469 0.46875ZM3.05469 3.53125C3.33073 3.53125 3.55729 3.4401 3.73438 3.25781C3.91667 3.07031 4.00781 2.83854 4.00781 2.5625C4.00781 2.29167 3.91667 2.05729 3.73438 1.85938C3.55729 1.66146 3.33073 1.5625 3.05469 1.5625C2.77865 1.5625 2.54688 1.66146 2.35938 1.85938C2.17188 2.05729 2.07812 2.29167 2.07812 2.5625C2.07812 2.83333 2.17188 3.0625 2.35938 3.25C2.55208 3.4375 2.78385 3.53125 3.05469 3.53125ZM15.9141 8.29688C15.7995 9.51042 15.3516 10.4583 14.5703 11.1406C13.7891 11.8177 12.75 12.1562 11.4531 12.1562C10.5469 12.1562 9.7474 11.9427 9.05469 11.5156C8.36719 11.0833 7.83594 10.4714 7.46094 9.67969C7.08594 8.88802 6.89062 7.96875 6.875 6.92188V5.85938C6.875 4.78646 7.0651 3.84115 7.44531 3.02344C7.82552 2.20573 8.36979 1.57552 9.07812 1.13281C9.79167 0.690104 10.6146 0.46875 11.5469 0.46875C12.8021 0.46875 13.8125 0.809896 14.5781 1.49219C15.3438 2.17448 15.7891 3.13802 15.9141 4.38281H13.9453C13.8516 3.5651 13.612 2.97656 13.2266 2.61719C12.8464 2.2526 12.2865 2.07031 11.5469 2.07031C10.6875 2.07031 10.026 2.38542 9.5625 3.01562C9.10417 3.64062 8.86979 4.5599 8.85938 5.77344V6.78125C8.85938 8.01042 9.07812 8.94792 9.51562 9.59375C9.95833 10.2396 10.6042 10.5625 11.4531 10.5625C12.2292 10.5625 12.8125 10.388 13.2031 10.0391C13.5938 9.6901 13.8411 9.10938 13.9453 8.29688H15.9141Z" fill="#474747"/>
</svg>
