<svg width="30" height="30" viewBox="0 0 30 30" fill="none" xmlns="http://www.w3.org/2000/svg">
<g clip-path="url(#clip0)">
<path d="M21.912 19.337C20.5014 14.649 16.9235 13.5453 16.9235 13.5453H16.9222C16.3426 13.832 15.6903 13.9939 15 13.9939C14.3096 13.9939 13.6572 13.832 13.0777 13.5453H13.0764C13.0764 13.5453 9.49854 14.6491 8.08789 19.337H21.912Z" fill="#E5907A"/>
<path d="M8.46412 18.2823C8.32689 18.612 8.20045 18.963 8.08789 19.337H21.9121C21.7995 18.963 21.6731 18.612 21.5359 18.2823H8.46412Z" fill="#D68474"/>
<path d="M20.8805 7.20252C21.207 2.94346 17.9948 0.46875 14.9986 0.46875C12.0025 0.46875 8.79019 2.94346 9.11673 7.20252" fill="#C1A19D"/>
<path d="M15.0004 2.8894C12.6022 2.8894 10.6582 4.83343 10.6582 7.23155V9.65171C10.6582 12.0498 12.6022 13.9939 15.0004 13.9939C17.3985 13.9939 19.3425 12.0498 19.3425 9.65171V7.23155C19.3425 4.83349 17.3984 2.8894 15.0004 2.8894Z" fill="#FDD4BB"/>
<path d="M15.0004 12.9392C12.6022 12.9392 10.6582 10.9952 10.6582 8.59705V9.65173C10.6582 12.0499 12.6022 13.9939 15.0004 13.9939C17.3985 13.9939 19.3425 12.0499 19.3425 9.65173V8.59705C19.3425 10.9951 17.3984 12.9392 15.0004 12.9392Z" fill="#F7C4A8"/>
<path d="M14.9996 10.6588C14.3797 11.7909 12.9731 11.5164 12.9731 11.5164C12.6129 9.49238 14.0366 9.01208 14.9996 9.01208C15.9625 9.01208 17.3863 9.49238 17.0261 11.5164C17.0261 11.5165 15.6195 11.791 14.9996 10.6588Z" fill="#C1A19D"/>
<path d="M10.6574 7.2315C10.6574 7.16751 10.6595 7.10406 10.6622 7.04078C10.4679 6.94445 10.2492 6.89001 10.0176 6.89001C9.21502 6.89001 8.56445 7.54058 8.56445 8.34314C8.56445 9.1457 9.21508 9.79627 10.0176 9.79627C10.2472 9.79627 10.4643 9.74283 10.6574 9.64796V7.2315H10.6574Z" fill="#EBBAA1"/>
<path d="M19.3407 7.2315C19.3407 7.16751 19.3386 7.10406 19.3359 7.04078C19.5302 6.94445 19.749 6.89001 19.9805 6.89001C20.7831 6.89001 21.4337 7.54058 21.4337 8.34314C21.4337 9.1457 20.783 9.79627 19.9805 9.79627C19.7509 9.79627 19.5338 9.74283 19.3407 9.64796V7.2315Z" fill="#EBBAA1"/>
<path d="M8.66353 7.8158C8.59978 7.97933 8.56445 8.15705 8.56445 8.34314C8.56445 9.1457 9.21508 9.79627 10.0176 9.79627C10.2472 9.79627 10.4643 9.74283 10.6574 9.64796V8.59328C10.4643 8.68814 10.2472 8.74158 10.0176 8.74158C9.40111 8.74158 8.87471 8.35755 8.66353 7.8158Z" fill="#E8A990"/>
<path d="M19.9835 8.74158C19.7539 8.74158 19.5368 8.68814 19.3438 8.59328V9.64796C19.5368 9.74283 19.7539 9.79627 19.9835 9.79627C20.7861 9.79627 21.4367 9.1457 21.4367 8.34314C21.4367 8.15705 21.4013 7.97933 21.3376 7.8158C21.1264 8.35755 20.6 8.74158 19.9835 8.74158Z" fill="#E8A990"/>
<path d="M16.6852 17.9305L18.7659 14.5859C17.7505 13.8006 16.9235 13.5453 16.9235 13.5453L15 16.8713L16.6852 17.9305Z" fill="#565D76"/>
<path d="M13.3151 17.9305L11.2344 14.5859C12.2497 13.8006 13.0767 13.5453 13.0767 13.5453L15.0003 16.8713L13.3151 17.9305Z" fill="#565D76"/>
<path d="M14.9997 16.8713L16.922 13.5453C16.3424 13.832 15.69 13.9939 14.9997 13.9939C14.3093 13.9939 13.657 13.832 13.0774 13.5453H13.0762L14.9997 16.8713Z" fill="#EBBAA1"/>
<path d="M22.752 29.5313H7.18359C6.21275 29.5313 5.42578 28.7443 5.42578 27.7735V21.0948C5.42578 20.124 6.21275 19.337 7.18359 19.337H22.752C23.7228 19.337 24.5098 20.124 24.5098 21.0948V27.7735C24.5098 28.7443 23.7227 29.5313 22.752 29.5313Z" fill="#FFDD91"/>
<path d="M22.752 28.4766H7.18359C6.21275 28.4766 5.42578 27.6896 5.42578 26.7188V27.7734C5.42578 28.7443 6.21275 29.5312 7.18359 29.5312H22.752C23.7228 29.5312 24.5098 28.7443 24.5098 27.7734V26.7188C24.5098 27.6896 23.7227 28.4766 22.752 28.4766Z" fill="#F9CD80"/>
<path d="M16.9599 8.49547C17.203 8.49547 17.4002 8.29836 17.4002 8.05514V7.35049C17.4002 7.10732 17.203 6.91016 16.9599 6.91016C16.7167 6.91016 16.5195 7.10727 16.5195 7.35049V8.05514C16.5195 8.29836 16.7167 8.49547 16.9599 8.49547Z" fill="#474747"/>
<path d="M13.1044 8.49547C13.3476 8.49547 13.5447 8.29836 13.5447 8.05514V7.35049C13.5447 7.10732 13.3476 6.91016 13.1044 6.91016C12.8612 6.91016 12.6641 7.10727 12.6641 7.35049V8.05514C12.6641 8.29836 12.8612 8.49547 13.1044 8.49547Z" fill="#474747"/>
<path d="M12.9156 11.9419C12.9758 11.9536 14.1972 12.1789 15.0304 11.373C15.5564 11.8819 16.2369 11.9796 16.6826 11.9796C16.9428 11.9795 17.1229 11.9462 17.1451 11.9419C17.3236 11.9071 17.4624 11.766 17.4943 11.5869C17.6573 10.6708 17.5106 9.93245 17.0583 9.39251C16.429 8.64127 15.4305 8.56018 15.0303 8.56018C14.6303 8.56018 13.6317 8.64127 13.0024 9.39251C12.5501 9.93245 12.4033 10.6708 12.5664 11.5869C12.5984 11.7659 12.7371 11.907 12.9156 11.9419ZM13.6775 9.95794C14.0686 9.49112 14.7539 9.44073 15.0304 9.44073C15.3069 9.44073 15.9923 9.49112 16.3833 9.95794C16.611 10.2298 16.7071 10.6131 16.6702 11.1003C16.3097 11.0988 15.7246 11.0014 15.4166 10.4389C15.3394 10.2978 15.1913 10.2101 15.0304 10.2101C14.8696 10.2101 14.7215 10.2978 14.6442 10.4389C14.336 11.0017 13.7505 11.0989 13.3906 11.1005C13.3537 10.6131 13.4498 10.2298 13.6775 9.95794Z" fill="#474747"/>
<path d="M14.4325 5.77588C14.1894 5.77588 13.9922 5.97299 13.9922 6.21621C13.9922 6.45943 14.1893 6.65654 14.4325 6.65654H15.6313C15.8745 6.65654 16.0716 6.45937 16.0716 6.21621C16.0716 5.97305 15.8745 5.77588 15.6313 5.77588H14.4325Z" fill="#474747"/>
<path d="M14.1552 5.19561H15.9083C16.1514 5.19561 16.3486 4.9985 16.3486 4.75527C16.3486 4.51211 16.1515 4.31494 15.9083 4.31494H14.1552C13.912 4.31494 13.7148 4.51205 13.7148 4.75527C13.7148 4.99844 13.912 5.19561 14.1552 5.19561Z" fill="#474747"/>
<path d="M22.7985 18.9052H22.2786C21.4996 16.5586 20.1878 15.1317 19.2036 14.3395C18.7155 13.9465 18.2606 13.6678 17.8984 13.477C18.9217 12.7102 19.628 11.5437 19.7869 10.2115C19.8646 10.2212 19.9432 10.2264 20.0228 10.2264C21.0684 10.2264 21.919 9.37576 21.919 8.33016C21.919 7.81441 21.7118 7.34631 21.3766 7.00412C21.448 5.60848 21.1663 4.33758 20.5367 3.224C20.417 3.0123 20.1483 2.93777 19.9367 3.05748C19.725 3.17719 19.6505 3.44578 19.7702 3.65748C20.2465 4.49982 20.4926 5.45262 20.5061 6.49646C20.3517 6.45574 20.1898 6.43383 20.0228 6.43383C19.9341 6.43383 19.8467 6.44057 19.7604 6.45246C19.3935 4.17258 17.4129 2.42537 15.0311 2.42537H15.0311C12.6493 2.42537 10.6686 4.17264 10.3017 6.45246C10.2154 6.44057 10.128 6.43383 10.0394 6.43383C9.87228 6.43383 9.71021 6.4558 9.55576 6.49658C9.57996 4.62545 10.3485 3.38332 11.0292 2.64844C12.0546 1.54148 13.5505 0.880664 15.0311 0.880664C16.388 0.880664 17.7476 1.42553 18.7616 2.37557C18.939 2.5418 19.2177 2.53277 19.384 2.35529C19.5503 2.17787 19.5411 1.8992 19.3637 1.73291C18.1883 0.631582 16.6092 0 15.0311 0C13.3097 0 11.5721 0.766348 10.3832 2.04996C9.53139 2.96953 8.55984 4.56785 8.68512 7.00465C8.3502 7.34684 8.14318 7.81465 8.14318 8.33016C8.14318 9.37576 8.99385 10.2264 10.0395 10.2264C10.119 10.2264 10.1977 10.2212 10.2754 10.2115C10.4341 11.5434 11.1403 12.7096 12.1632 13.4765C11.4778 13.8374 10.46 14.5139 9.51252 15.6858C9.35959 15.8749 9.38894 16.1521 9.57809 16.305C9.76594 16.4572 10.0437 16.4294 10.1973 16.2394C10.5122 15.8499 10.8366 15.5219 11.1507 15.2463L12.9688 18.1687C13.0903 18.3727 13.378 18.4393 13.577 18.309L15.0312 17.395L16.4853 18.309C16.6842 18.4393 16.972 18.3727 17.0935 18.1688L18.9124 15.245C19.9951 16.1946 20.8121 17.4227 21.3478 18.9052H8.71494C8.87654 18.4595 9.06498 18.0338 9.27773 17.634C9.39199 17.4193 9.31061 17.1527 9.09592 17.0384C8.88117 16.9241 8.61457 17.0055 8.50037 17.2202C8.22064 17.7458 7.98041 18.3114 7.78342 18.9052H7.19959C5.98564 18.9052 4.99805 19.8928 4.99805 21.1067V27.7984C4.99805 29.0123 5.98564 29.9999 7.19959 29.9999H18.1397C18.3829 29.9999 18.58 29.8028 18.58 29.5596C18.58 29.3164 18.3829 29.1193 18.1397 29.1193H7.19965C6.47127 29.1193 5.87871 28.5267 5.87871 27.7983V21.1068C5.87871 20.3784 6.47127 19.7858 7.19965 19.7858H22.7985C23.5269 19.7858 24.1194 20.3784 24.1194 21.1068V27.7985C24.1194 28.5268 23.5269 29.1194 22.7985 29.1194H19.901C19.6579 29.1194 19.4607 29.3166 19.4607 29.5597C19.4607 29.8029 19.6579 30 19.901 30H22.7985C24.0124 30 25 29.0124 25 27.7985V21.1068C25.0001 19.8928 24.0124 18.9052 22.7985 18.9052ZM19.822 7.33424C19.8875 7.32111 19.9545 7.31449 20.0228 7.31449C20.5828 7.31449 21.0384 7.77012 21.0384 8.33016C21.0384 8.89019 20.5828 9.34582 20.0228 9.34582C19.9546 9.34582 19.8875 9.3392 19.822 9.32607V7.33424ZM10.2401 9.32607C10.1747 9.3392 10.1076 9.34582 10.0394 9.34582C9.47935 9.34582 9.02373 8.89019 9.02373 8.33016C9.02373 7.77012 9.47935 7.31449 10.0394 7.31449C10.1077 7.31449 10.1747 7.32111 10.2401 7.33424V9.32607ZM11.1207 9.64119V7.21629C11.1207 5.06016 12.8749 3.30598 15.0311 3.30598C17.1872 3.30598 18.9414 5.0601 18.9414 7.21629V9.64119C18.9414 11.7973 17.1872 13.5515 15.0311 13.5515C12.8749 13.5515 11.1207 11.7974 11.1207 9.64119ZM13.4828 17.328L11.8483 14.7006C12.2851 14.3981 12.6626 14.2045 12.9129 14.092L14.4374 16.7279L13.4828 17.328ZM15.0311 15.9954L14.071 14.3354C14.3812 14.3988 14.7023 14.4322 15.0311 14.4322C15.3598 14.4322 15.6808 14.3988 15.9911 14.3354L15.0311 15.9954ZM16.5793 17.328L15.6247 16.7279L17.1494 14.0915C17.4005 14.204 17.7791 14.3976 18.2147 14.6992L16.5793 17.328Z" fill="#474747"/>
<path d="M20.0649 22.8232C19.8218 22.8232 19.6246 23.0204 19.6246 23.2636V24.0123H18.8759C18.6327 24.0123 18.4355 24.2095 18.4355 24.4527C18.4355 24.6958 18.6327 24.893 18.8759 24.893H19.6246V25.6417C19.6246 25.8849 19.8218 26.0821 20.0649 26.0821C20.3081 26.0821 20.5053 25.8849 20.5053 25.6417V24.893H21.254C21.4972 24.893 21.6944 24.6959 21.6944 24.4527C21.6944 24.2095 21.4972 24.0123 21.254 24.0123H20.5053V23.2636C20.5053 23.0204 20.3081 22.8232 20.0649 22.8232Z" fill="#474747"/>
<path d="M11.2317 23.8195C11.5254 23.8195 11.786 23.8882 12.0135 24.0256C12.2456 24.163 12.4257 24.3549 12.5536 24.6013C12.6863 24.8476 12.7526 25.1272 12.7526 25.4399C12.7526 25.7668 12.6792 26.0606 12.5323 26.3212C12.3854 26.5771 12.1817 26.7784 11.9211 26.9253C11.6605 27.0675 11.3667 27.1386 11.0398 27.1386C10.3907 27.1386 9.88841 26.923 9.53304 26.4918C9.17768 26.0606 9 25.4447 9 24.6439C9 24.1085 9.08292 23.6418 9.24875 23.2438C9.41459 22.841 9.6515 22.533 9.95948 22.3198C10.2722 22.1066 10.6347 22 11.0469 22C11.317 22 11.5894 22.045 11.8642 22.135C12.139 22.2251 12.3736 22.3506 12.5678 22.5117C12.6342 22.5638 12.6816 22.6207 12.71 22.6823C12.7432 22.7392 12.7597 22.8102 12.7597 22.8955C12.7597 23.0187 12.7242 23.1253 12.6531 23.2153C12.5868 23.3006 12.5039 23.3433 12.4044 23.3433C12.3428 23.3433 12.2883 23.3362 12.2409 23.322C12.1983 23.303 12.139 23.2722 12.0632 23.2296C11.8737 23.1158 11.7031 23.0282 11.5515 22.9666C11.4046 22.9003 11.253 22.8671 11.0966 22.8671C10.8029 22.8671 10.5683 23.0021 10.393 23.2722C10.2224 23.5423 10.1253 23.9213 10.1016 24.4094C10.2106 24.2293 10.3646 24.0872 10.5636 23.9829C10.7626 23.8739 10.9853 23.8195 11.2317 23.8195ZM10.9758 26.2786C11.1985 26.2786 11.3762 26.2051 11.5089 26.0582C11.6463 25.9114 11.715 25.7171 11.715 25.4755C11.715 25.2385 11.6463 25.0466 11.5089 24.8998C11.3762 24.7529 11.1985 24.6794 10.9758 24.6794C10.7531 24.6794 10.5731 24.7529 10.4357 24.8998C10.2983 25.0466 10.2296 25.2385 10.2296 25.4755C10.2296 25.7124 10.2983 25.9066 10.4357 26.0582C10.5731 26.2051 10.7531 26.2786 10.9758 26.2786Z" fill="#474747"/>
<path d="M15.1308 27.1386C14.5243 27.1386 14.06 26.9182 13.7378 26.4776C13.4203 26.0369 13.2616 25.3996 13.2616 24.5657C13.2616 23.7365 13.4203 23.1016 13.7378 22.661C14.06 22.2203 14.5243 22 15.1308 22C15.7373 22 16.1992 22.2203 16.5167 22.661C16.8389 23.1016 17 23.7365 17 24.5657C17 25.3996 16.8389 26.0369 16.5167 26.4776C16.1992 26.9182 15.7373 27.1386 15.1308 27.1386ZM15.1308 26.2928C15.4056 26.2928 15.6046 26.1554 15.7278 25.8806C15.8557 25.6058 15.9197 25.1675 15.9197 24.5657C15.9197 23.9592 15.8557 23.521 15.7278 23.2509C15.6046 22.9808 15.4056 22.8458 15.1308 22.8458C14.856 22.8458 14.6546 22.9832 14.5267 23.258C14.4035 23.5281 14.3419 23.964 14.3419 24.5657C14.3419 25.1675 14.4035 25.6058 14.5267 25.8806C14.6546 26.1554 14.856 26.2928 15.1308 26.2928Z" fill="#474747"/>
</g>
<defs>
<clipPath id="clip0">
<rect width="30" height="30" fill="white"/>
</clipPath>
</defs>
</svg>
