<svg width="30" height="30" viewBox="0 0 30 30" fill="none" xmlns="http://www.w3.org/2000/svg">
<g clip-path="url(#clip0)">
<path d="M5.65007 13.6528H3.78516V14.7804C3.78516 15.2457 4.16235 15.6229 4.62764 15.6229H4.80753C5.27283 15.6229 5.65001 15.2457 5.65001 14.7804V13.6528H5.65007Z" fill="#A59CA6"/>
<path d="M17.942 21.5302L18.0561 21.5478C20.5283 21.9274 22.4504 19.4354 21.4552 17.1408L20.5016 14.9417C20.4074 14.7246 20.3426 14.496 20.309 14.2618C19.9289 11.6204 17.6658 9.65967 14.9973 9.65967C12.3287 9.65967 10.0656 11.6205 9.68558 14.2618C9.6519 14.496 9.58711 14.7246 9.49298 14.9417L8.53926 17.1408C7.54412 19.4354 9.46615 21.9274 11.9383 21.5478L12.0525 21.5302L13.8854 21.0904H16.3567L17.942 21.5302Z" fill="#A59CA6"/>
<path d="M16.3567 24.0517L18.8787 25.0636C20.2773 25.6247 21.1939 26.9801 21.1939 28.487V29.0325C21.1939 29.3242 20.9574 29.5607 20.6656 29.5607H9.21186C8.92013 29.5607 8.68359 29.3242 8.68359 29.0325V28.487C8.68359 26.9801 9.60023 25.6247 10.9988 25.0636L13.5208 24.0517L14.2942 23.741H15.6162L16.3567 24.0517Z" fill="#E79098"/>
<path d="M16.3567 24.0516L16.3445 24.0464L16.1802 24.0664L13.8127 24.8924V23.9343L13.5208 24.0516L10.9987 25.0635C9.60018 25.6246 8.68359 26.98 8.68359 28.4869V29.0324C8.68359 29.3241 8.92008 29.5606 9.21186 29.5606H10.1016V29.1309C10.1016 27.624 11.0182 26.2686 12.4167 25.7075L12.6303 25.6218C12.8902 25.5175 13.1901 25.564 13.3974 25.7522C13.8051 26.1224 14.3459 26.3483 14.9388 26.3483C16.0888 26.3483 17.044 25.4986 17.2098 24.3939L16.3567 24.0516Z" fill="#E17983"/>
<path d="M16.3574 24.0516C16.3574 24.8348 15.7226 25.4696 14.9394 25.4696C14.1563 25.4696 13.5215 24.8348 13.5215 24.0516V20.6571H16.3574V24.0516Z" fill="#FFD1C2"/>
<path d="M18.5033 15.4158V19.4588C18.5033 21.3954 16.9334 22.9654 14.9968 22.9654C13.0601 22.9654 11.4902 21.3954 11.4902 19.4588V16.416C11.4902 15.4799 11.809 14.5716 12.394 13.8407C12.4957 13.7135 12.6817 13.6937 12.808 13.7965L12.9716 13.9296C13.7082 14.5289 14.6224 14.8675 15.5717 14.8925L18.0574 14.958C18.3055 14.9646 18.5033 15.1676 18.5033 15.4158Z" fill="#FFE0D1"/>
<path d="M11.998 14.6784L12.218 14.8401C13.2083 15.5676 14.4375 15.9786 15.7136 16.009L18.5058 16.0755V15.416C18.5058 15.1678 18.308 14.9648 18.0598 14.9582L15.5742 14.8926C14.625 14.8676 13.7107 14.529 12.9741 13.9298L12.8104 13.7966C12.6841 13.6938 12.4982 13.7137 12.3965 13.8409C12.2012 14.0848 12.0364 14.3489 11.9023 14.6268C11.936 14.6395 11.9682 14.6566 11.998 14.6784Z" fill="#FFD1C2"/>
<path d="M7.78387 9.47704C7.78387 7.38818 5.69619 5.78693 3.49351 6.64611C2.76367 6.93074 2.18087 7.50815 1.89237 8.23646C1.4504 9.35215 1.64095 10.4393 2.20723 11.2425L3.68336 13.5406V13.9843C3.68336 14.0924 3.77099 14.1801 3.87913 14.1801H5.55325C5.66133 14.1801 5.74896 14.0925 5.74896 13.9844V13.5406L7.22509 11.2426C7.57703 10.7433 7.78387 10.1343 7.78387 9.47704Z" fill="#FBE88C"/>
<path d="M4.99166 13.9843V13.5406L3.51553 11.2425C2.94925 10.4393 2.7587 9.35216 3.20067 8.23647C3.48923 7.50816 4.07197 6.93075 4.80181 6.64611C4.99102 6.5723 5.17853 6.51648 5.36481 6.4777C4.78476 6.35263 4.14461 6.39212 3.49351 6.64611C2.76367 6.93081 2.18087 7.50816 1.89237 8.23647C1.4504 9.35216 1.64095 10.4393 2.20723 11.2425L3.68336 13.5406V13.9843C3.68336 14.0924 3.771 14.1801 3.87913 14.1801H5.18743C5.07935 14.1801 4.99166 14.0925 4.99166 13.9843Z" fill="#F9DE58"/>
<path d="M5.07762 11.1059H4.35674C4.11546 11.1059 3.91992 10.9103 3.91992 10.669V9.94817C3.91992 9.70689 4.11552 9.51135 4.35674 9.51135H5.07762C5.3189 9.51135 5.51444 9.70695 5.51444 9.94817V10.669C5.5145 10.9103 5.3189 11.1059 5.07762 11.1059Z" fill="#F9DE58"/>
<path d="M14.9396 7.36147C16.8511 7.36147 18.4007 5.81189 18.4007 3.9004C18.4007 1.9889 16.8511 0.439331 14.9396 0.439331C13.0281 0.439331 11.4785 1.9889 11.4785 3.9004C11.4785 5.81189 13.0281 7.36147 14.9396 7.36147Z" fill="#B3E5EE"/>
<path d="M12.9897 3.69016C12.9897 2.20941 13.9208 0.945452 15.2284 0.451223C15.1334 0.443373 15.0367 0.439331 14.9396 0.439331C13.0281 0.439331 11.4785 1.98891 11.4785 3.9004C11.4785 5.81188 13.0281 7.36141 14.9396 7.36141C15.3703 7.36141 15.7824 7.28285 16.1627 7.1391C14.3862 6.99254 12.9897 5.50452 12.9897 3.69016Z" fill="#86D7E5"/>
<path d="M25.1665 6.54646L26.028 8.29211C26.0639 8.36475 26.1332 8.41507 26.2133 8.42673L28.1397 8.70667C28.3416 8.73602 28.4222 8.98404 28.2761 9.12639L26.8821 10.4852C26.8241 10.5417 26.7976 10.6232 26.8113 10.703L27.1404 12.6216C27.1749 12.8227 26.9639 12.976 26.7834 12.881L25.0604 11.9751C24.9887 11.9375 24.903 11.9375 24.8313 11.9751L23.1083 12.881C22.9277 12.9759 22.7167 12.8226 22.7513 12.6216L23.0803 10.703C23.0941 10.6231 23.0676 10.5417 23.0096 10.4852L21.6156 9.12639C21.4695 8.98404 21.5502 8.73596 21.752 8.70667L23.6784 8.42673C23.7585 8.41507 23.8278 8.36475 23.8637 8.29211L24.7252 6.54646C24.8154 6.36358 25.0762 6.36358 25.1665 6.54646Z" fill="#FBE88C"/>
<path d="M27.1405 12.6216L27.1049 12.4138L25.0809 11.3498C24.9964 11.3053 24.8954 11.3053 24.8109 11.3498L23.8521 11.8538C23.7224 11.922 23.5707 11.8118 23.5955 11.6673L23.7972 10.4916C23.8137 10.3948 23.7817 10.2961 23.7114 10.2276L22.9254 9.46142C22.7765 9.31626 22.8587 9.06332 23.0645 9.03344L24.1492 8.87581C24.2402 8.86257 24.3188 8.80545 24.3595 8.72303L25.3002 6.817L25.1666 6.54636C25.0764 6.36348 24.8156 6.36342 24.7253 6.54636L23.8638 8.29201C23.8279 8.36465 23.7587 8.41497 23.6785 8.42662L21.752 8.70657C21.5501 8.73592 21.4695 8.98394 21.6156 9.12635L23.0096 10.4851C23.0676 10.5417 23.0941 10.6232 23.0804 10.7029L22.7513 12.6216C22.7168 12.8226 22.9278 12.9759 23.1083 12.881L24.8314 11.9751C24.9031 11.9374 24.9888 11.9374 25.0605 11.9751L26.7836 12.881C26.964 12.976 27.1749 12.8227 27.1405 12.6216Z" fill="#F9DE58"/>
<path d="M20.9041 14.7667C20.8255 14.5857 20.7715 14.3947 20.7433 14.1992C20.6702 13.6912 20.5298 13.1944 20.3259 12.7225C20.2297 12.4998 19.9713 12.3971 19.7484 12.4934C19.5256 12.5897 19.4231 12.8482 19.5193 13.0709C19.6924 13.4715 19.8116 13.8932 19.8736 14.3243C19.9129 14.5972 19.9884 14.8637 20.098 15.1164L21.0517 17.3154C21.4545 18.2442 21.3258 19.2771 20.7076 20.0787C20.1809 20.7616 19.4012 21.1419 18.5633 21.1451C18.8062 20.6335 18.9426 20.0619 18.9426 19.4588V15.4158C18.9426 14.9258 18.5589 14.5318 18.0689 14.5188L15.5832 14.4533C14.7356 14.431 13.9065 14.124 13.2488 13.5889L13.0852 13.4558C12.9326 13.3315 12.7408 13.2748 12.545 13.2955C12.3493 13.3165 12.1738 13.4126 12.0508 13.5662C11.4059 14.372 11.0508 15.384 11.0508 16.416V19.4588C11.0508 20.0619 11.1872 20.6334 11.4301 21.1451C10.5923 21.142 9.81254 20.7617 9.28585 20.0787C8.66756 19.2771 8.53892 18.2442 8.9417 17.3154L9.89537 15.1165C10.005 14.8637 10.0805 14.5972 10.1198 14.3243C10.2885 13.1514 10.8747 12.0781 11.7703 11.3022C12.6658 10.5262 13.8117 10.0989 14.9966 10.0989C16.3357 10.0989 17.5888 10.6275 18.5249 11.5873C18.6942 11.7611 18.9724 11.7644 19.1461 11.5951C19.3198 11.4257 19.3233 11.1475 19.1539 10.9738C18.0511 9.84297 16.5746 9.22021 14.9966 9.22021C13.6003 9.22021 12.2501 9.72376 11.1949 10.6381C10.1396 11.5524 9.44888 12.8171 9.25 14.1991C9.22189 14.3947 9.16782 14.5857 9.08921 14.7667L8.13554 16.9658C7.60359 18.1924 7.77347 19.5567 8.59006 20.6154C9.28855 21.521 10.3234 22.0257 11.4352 22.0256C11.6117 22.0256 11.7903 22.0124 11.9696 21.9866C12.2796 22.3571 12.6562 22.6698 13.0808 22.9067V23.7545L10.8344 24.6557C9.26055 25.2872 8.24356 26.7911 8.24356 28.4869V29.5606C8.24356 29.8033 8.44021 30 8.6829 30C8.92559 30 9.12224 29.8033 9.12224 29.5606V28.4869C9.12224 27.1521 9.92278 25.9683 11.1617 25.4713L13.1836 24.6601C13.4362 25.3862 14.127 25.9089 14.9381 25.9089C15.7491 25.9089 16.44 25.3861 16.6925 24.6601L18.7147 25.4714C18.7678 25.4926 18.8238 25.5173 18.8912 25.549C18.9516 25.5774 19.0153 25.5909 19.0779 25.5909C19.2428 25.5909 19.4009 25.4976 19.4758 25.3384C19.5791 25.1188 19.4848 24.8571 19.2652 24.7538C19.182 24.7147 19.1109 24.6835 19.0417 24.6558L16.7954 23.7545V22.9691C17.268 22.7259 17.6856 22.3908 18.0237 21.9866C18.2031 22.0125 18.3816 22.0256 18.5581 22.0256C19.6699 22.0256 20.7048 21.5209 21.4033 20.6154C22.2198 19.5567 22.3897 18.1924 21.8578 16.9658L20.9041 14.7667ZM15.9167 24.0517C15.9167 24.5913 15.4777 25.0303 14.9381 25.0303C14.3985 25.0303 13.9595 24.5913 13.9595 24.0517V23.2654C14.2902 23.3556 14.6378 23.4047 14.9967 23.4047C15.3135 23.4047 15.6213 23.3662 15.9167 23.2953V24.0517ZM14.9967 22.526C13.3055 22.526 11.9295 21.1501 11.9295 19.4589V16.4161C11.9295 15.6321 12.1834 14.8623 12.6472 14.2322L12.6943 14.2706C13.5018 14.9274 14.5195 15.3043 15.5601 15.3317L18.0457 15.3972C18.056 15.3975 18.064 15.4057 18.064 15.4159V19.4589C18.0639 21.1501 16.6879 22.526 14.9967 22.526Z" fill="black"/>
<path d="M20.2598 25.9973C20.0617 26.1375 20.0148 26.4117 20.155 26.6097C20.5462 27.1623 20.7529 27.8114 20.7529 28.487V29.5607C20.7529 29.8034 20.9495 30 21.1922 30C21.4349 30 21.6316 29.8034 21.6316 29.5607V28.487C21.6316 27.6285 21.369 26.8038 20.8721 26.1021C20.732 25.904 20.4578 25.8571 20.2598 25.9973Z" fill="black"/>
<path d="M6.69235 6.57952C5.71368 5.91078 4.4895 5.7856 3.33351 6.2366C2.49027 6.56546 1.81609 7.23536 1.48359 8.07444C1.26726 8.62057 1.17799 9.17906 1.21847 9.73445C1.23616 9.97643 1.44587 10.1585 1.68856 10.1407C1.93055 10.1231 2.11243 9.91264 2.09486 9.67065C2.06411 9.24836 2.13329 8.82021 2.30053 8.39815C2.5434 7.78518 3.03634 7.29576 3.65288 7.05523C4.53414 6.71149 5.46138 6.80253 6.19666 7.30501C6.9153 7.79602 7.34427 8.60798 7.34427 9.47693C7.34427 10.0223 7.17879 10.5452 6.86575 10.9893C6.86211 10.9944 6.8586 10.9997 6.85514 11.005L5.37902 13.303C5.33356 13.3739 5.30937 13.4562 5.30937 13.5405V13.7406H5.15525V11.5411C5.6015 11.5011 5.9525 11.1255 5.9525 10.669V9.94802C5.9525 9.46493 5.55944 9.07186 5.07634 9.07186H4.35541C3.87232 9.07186 3.47925 9.46493 3.47925 9.94802V10.669C3.47925 11.1254 3.83031 11.5011 4.27651 11.5411V13.7406H4.12239V13.5405C4.12239 13.4563 4.09819 13.3739 4.05274 13.3031L2.70941 11.2117C2.57831 11.0076 2.30651 10.9484 2.1023 11.0795C1.89821 11.2106 1.83899 11.4825 1.97009 11.6866L3.24371 13.6695V13.9842C3.24371 14.1099 3.28085 14.2268 3.34405 14.3255V14.7804C3.34405 15.4872 3.91906 16.0622 4.62593 16.0622H4.80577C5.51258 16.0622 6.08764 15.4872 6.08764 14.7804V14.3255C6.15085 14.2268 6.18799 14.1099 6.18799 13.9842V13.6695L7.58949 11.4876C8.00387 10.8963 8.2229 10.2013 8.2229 9.47699C8.2229 8.31755 7.65076 7.23443 6.69235 6.57952ZM5.07376 9.94802L5.07658 10.6664L4.73922 10.6676C4.73143 10.6672 4.7237 10.6664 4.71579 10.6664C4.70671 10.6664 4.69781 10.6673 4.6889 10.6678L4.35787 10.669L4.35536 9.95054L5.07376 9.94802ZM5.20896 14.7804C5.20896 15.0027 5.02807 15.1835 4.80577 15.1835H4.62593C4.40362 15.1835 4.22273 15.0027 4.22273 14.7804V14.6193H5.20896V14.7804Z" fill="black"/>
<path d="M14.9395 7.80077C17.0902 7.80077 18.8399 6.05107 18.8399 3.90035C18.8399 1.74969 17.0902 0 14.9395 0C12.7888 0 11.0391 1.74969 11.0391 3.90035C11.0391 6.05107 12.7888 7.80077 14.9395 7.80077ZM14.9395 0.878682C16.6056 0.878682 17.9612 2.2342 17.9612 3.90035C17.9612 5.56651 16.6056 6.92208 14.9395 6.92208C13.2733 6.92208 11.9177 5.56651 11.9177 3.90035C11.9177 2.2342 13.2733 0.878682 14.9395 0.878682Z" fill="black"/>
<path d="M14.1665 5.36644C14.2522 5.45219 14.3647 5.49507 14.4771 5.49507C14.5895 5.49507 14.702 5.45219 14.7878 5.36644L16.8403 3.31395C17.0119 3.14231 17.0119 2.86418 16.8403 2.6926C16.6687 2.52109 16.3905 2.52109 16.219 2.6926L14.4772 4.43445L14.1816 4.13892C14.0101 3.9674 13.7319 3.96734 13.5603 4.13897C13.3887 4.31055 13.3887 4.58874 13.5604 4.76026L14.1665 5.36644Z" fill="black"/>
<path d="M28.7564 8.73852C28.6752 8.48845 28.4631 8.30973 28.203 8.27188L26.3772 8.00658L25.5606 6.35202C25.4443 6.11636 25.2087 5.96997 24.946 5.96997C24.6832 5.96997 24.4477 6.11636 24.3314 6.35202L23.5148 8.00658L21.6889 8.27188C21.4288 8.30973 21.2167 8.48845 21.1356 8.73846C21.0544 8.98842 21.1209 9.25759 21.3091 9.441L22.6303 10.7289L22.3184 12.5474C22.274 12.8065 22.3785 13.0633 22.5911 13.2178C22.8037 13.3723 23.0802 13.3923 23.3129 13.2699L24.946 12.4114L26.5792 13.2699C26.6804 13.3231 26.7898 13.3494 26.8987 13.3494C27.0403 13.3494 27.1809 13.305 27.3011 13.2177C27.5136 13.0632 27.6181 12.8064 27.5736 12.5474L27.2618 10.7289L28.5829 9.44106C28.771 9.25765 28.8376 8.98842 28.7564 8.73852ZM26.5756 10.1705C26.4141 10.3279 26.3403 10.5548 26.3784 10.7772L26.6413 12.31L25.2649 11.5863C25.1651 11.5338 25.0555 11.5075 24.946 11.5075C24.8364 11.5075 24.7268 11.5338 24.6269 11.5863L23.2505 12.31L23.5134 10.7771C23.5515 10.5547 23.4778 10.3279 23.3163 10.1705L22.2027 9.08513L23.7418 8.86154C23.9651 8.82897 24.158 8.68879 24.2577 8.48657L24.9459 7.09205L25.634 8.48634C25.7338 8.68873 25.9267 8.82897 26.1502 8.86148L27.6891 9.08508L26.5756 10.1705Z" fill="black"/>
<path d="M19.5981 5.63556C20.2686 5.89705 20.9182 6.21736 21.5369 6.58928C21.3435 6.68013 21.24 6.90068 21.3028 7.11174C21.3597 7.30241 21.5344 7.42572 21.7237 7.42572C21.7653 7.42572 21.8075 7.41975 21.8494 7.40733L22.6817 7.15942C22.8679 7.10401 22.9955 6.93272 22.9955 6.73836V5.83812C22.9955 5.59543 22.7989 5.39878 22.5562 5.39878C22.3135 5.39878 22.1168 5.59543 22.1168 5.83812V5.91404C21.4177 5.48331 20.6803 5.1145 19.9175 4.81692C19.6914 4.7287 19.4367 4.84047 19.3485 5.06658C19.2604 5.29264 19.3721 5.54734 19.5981 5.63556Z" fill="black"/>
<path d="M8.00618 6.71754C8.08461 6.71754 8.16405 6.69657 8.23575 6.65251C8.64591 6.40051 9.07301 6.17076 9.50948 5.96632L9.48664 6.05185C9.42396 6.28622 9.5632 6.52704 9.79763 6.58978C9.83559 6.59991 9.87378 6.60477 9.91133 6.60477C10.1053 6.60477 10.283 6.47514 10.3355 6.27878L10.6038 5.27486C10.6635 5.0515 10.5398 4.81999 10.3209 4.74554L9.51581 4.47151C9.2863 4.39313 9.03652 4.51609 8.95837 4.74589C8.90185 4.9119 8.9507 5.08793 9.06868 5.20251C8.62594 5.41287 8.19269 5.64777 7.77585 5.90388C7.56912 6.03093 7.50445 6.30145 7.63145 6.50818C7.7144 6.64314 7.85856 6.71754 8.00618 6.71754Z" fill="black"/>
</g>
<defs>
<clipPath id="clip0">
<rect width="30" height="30" fill="white"/>
</clipPath>
</defs>
</svg>
