<svg width="30" height="30" viewBox="0 0 30 30" fill="none" xmlns="http://www.w3.org/2000/svg">
<path d="M19.0733 17.4978L21.6155 19.2462C22.6918 19.9864 23.3348 21.2089 23.3348 22.5152V24.3192C23.3348 24.7011 23.0251 25.0108 22.6432 25.0108H8.26584C7.88387 25.0108 7.57422 24.7011 7.57422 24.3192V22.5152C7.57422 21.2089 8.21721 19.9864 9.2935 19.2462L11.8357 17.4978L12.9049 16.7422L15.4838 17.7792L18.0584 16.7422L19.0733 17.4978Z" fill="#E79098"/>
<path d="M13.2754 12.074H17.6306V18.2202H13.2754V12.074Z" fill="#FFD1C2"/>
<path d="M18.4757 2.6345L18.793 2.68172C20.3983 2.92045 21.5108 4.40915 21.2846 6.01634L20.9125 8.66174L20.6478 9.83974H16.7326L16.582 2.46545H17.7437L18.4757 2.6345Z" fill="#A59CA6"/>
<path d="M19.1887 8.28892L19.6198 6.0144C19.9394 4.98228 19.9136 3.90095 19.5557 2.90221C19.3177 2.7968 19.0629 2.7219 18.7931 2.68172L18.4757 2.6345L17.7437 2.46545H16.582L16.7326 9.83968H17.1695L17.2469 9.82179L19.1887 8.28892Z" fill="#8F8390"/>
<path d="M18.385 7.80205L16.8562 9.00903L10.761 10.4172L10.0931 8.53837C9.30102 6.61708 9.48162 4.43201 10.5786 2.66686C11.6898 0.878659 13.8508 0.0423945 15.8762 0.6167L16.0105 0.654768C18.2192 1.28104 19.4682 3.6141 18.7647 5.79935L18.385 7.80205Z" fill="#A59CA6"/>
<path d="M10.868 11.0595C10.1718 11.0595 9.60742 10.4951 9.60742 9.79891C9.60742 9.10272 10.1718 8.53833 10.868 8.53833H13.5191V11.0595H10.868Z" fill="#FFD1C2"/>
<path d="M20.0414 11.0595C20.7376 11.0595 21.302 10.4951 21.302 9.79891C21.302 9.10272 20.7376 8.53833 20.0414 8.53833H17.5117V11.0595H20.0414Z" fill="#FFD1C2"/>
<path d="M15.4535 14.9081C17.7071 14.9081 19.534 13.0812 19.534 10.8276V7.98405C19.534 6.96706 19.0904 6.0007 18.3191 5.33776L17.7599 4.85702C17.6299 4.74533 17.4388 4.7424 17.3055 4.85004L16.7085 5.33225H13.9238C12.5151 5.33225 11.373 6.47429 11.373 7.88304V10.8275C11.3729 13.0812 13.1998 14.9081 15.4535 14.9081Z" fill="#FFE0D1"/>
<path d="M13.702 6.618H17.2631C17.5597 6.618 17.8473 6.51635 18.078 6.33L18.5832 5.92198C18.6433 5.87341 18.7127 5.8398 18.7839 5.82238C18.6461 5.6477 18.4907 5.48517 18.3192 5.33776L17.7599 4.85702C17.63 4.74533 17.4388 4.7424 17.3055 4.85004L16.7085 5.33225H13.9239C12.6754 5.33225 11.6362 6.22981 11.416 7.41449C12.0439 6.9165 12.8383 6.618 13.702 6.618Z" fill="#FFD1C2"/>
<path d="M15.8935 25.0108V18.6415C15.8935 18.3984 15.6965 18.2015 15.4536 18.2015C15.2106 18.2015 15.0137 18.3984 15.0137 18.6415V25.0108H15.8935Z" fill="#E17983"/>
<path d="M19.0713 17.4977L18.0565 16.7421L15.4818 17.7791L14.6384 17.44L14.6356 17.4414L14.638 17.4397L12.9029 16.7421L11.8338 17.4977L9.29154 19.2461C8.21526 19.9863 7.57227 21.2088 7.57227 22.5151V24.3191C7.57227 24.7011 7.88191 25.0107 8.26388 25.0107H9.35102C9.35073 25.0027 9.34979 24.9948 9.34979 24.9867V23.1827C9.34979 21.8764 9.99278 20.6539 11.0691 19.9137L11.7118 19.4717C11.8961 19.3449 12.1476 19.3864 12.2816 19.5655C12.494 19.8496 12.8032 20.0528 13.153 20.1118C13.3615 20.147 13.5728 20.1332 13.7723 20.0725L15.4525 19.5612L17.1327 20.0725C17.26 20.1112 17.3922 20.1309 17.5252 20.1309C17.948 20.1309 18.3517 19.9288 18.6051 19.5901L19.7957 17.9981C19.7956 17.9972 19.7955 17.9967 19.7953 17.9958L19.0713 17.4977Z" fill="#E17983"/>
<path d="M13.2766 16.0846L15.4542 17.1523V18.6415L13.5179 19.2308C13.329 19.2883 13.1244 19.2212 13.0062 19.0631L11.8354 17.4978C11.6997 17.3163 11.7286 17.0606 11.9014 16.914L12.8103 16.1426C12.9404 16.0323 13.1235 16.0095 13.2766 16.0846Z" fill="#F9F7F7"/>
<path d="M17.6326 16.0846L15.4551 17.1523V18.6415L17.3914 19.2308C17.5803 19.2883 17.7849 19.2212 17.9031 19.0631L19.0738 17.4978C19.2096 17.3163 19.1807 17.0606 19.0079 16.914L18.099 16.1426C17.9689 16.0323 17.7858 16.0095 17.6326 16.0846Z" fill="#F9F7F7"/>
<path d="M21.9764 25.9057L22.4711 26.9081C22.4917 26.9498 22.5315 26.9787 22.5775 26.9854L23.6837 27.1461C23.7996 27.1629 23.8459 27.3054 23.762 27.3871L22.9616 28.1674C22.9283 28.1998 22.9131 28.2466 22.9209 28.2924L23.1099 29.3941C23.1297 29.5096 23.0085 29.5976 22.9049 29.5431L21.9154 29.0229C21.8743 29.0013 21.8251 29.0013 21.7839 29.0229L20.7945 29.5431C20.6909 29.5976 20.5697 29.5096 20.5895 29.3941L20.7784 28.2924C20.7863 28.2466 20.7711 28.1998 20.7378 28.1674L19.9374 27.3871C19.8535 27.3054 19.8998 27.1629 20.0157 27.1461L21.1219 26.9854C21.1679 26.9787 21.2077 26.9498 21.2283 26.9081L21.723 25.9057C21.7748 25.8006 21.9245 25.8006 21.9764 25.9057Z" fill="#FBE88C"/>
<path d="M8.93002 25.9057L8.43531 26.9081C8.41472 26.9498 8.37495 26.9787 8.32891 26.9854L7.2227 27.1461C7.1068 27.1629 7.06052 27.3054 7.1444 27.3871L7.94482 28.1674C7.97814 28.1998 7.99333 28.2466 7.98547 28.2924L7.79654 29.3941C7.77671 29.5096 7.8979 29.5976 8.00154 29.5431L8.99096 29.0229C9.03214 29.0013 9.08129 29.0013 9.12247 29.0229L10.1119 29.5431C10.2155 29.5976 10.3367 29.5096 10.3169 29.3941L10.128 28.2924C10.1201 28.2466 10.1353 28.1998 10.1686 28.1674L10.969 27.3871C11.0529 27.3054 11.0066 27.1629 10.8907 27.1461L9.78452 26.9854C9.73848 26.9787 9.69871 26.9498 9.67812 26.9081L9.18341 25.9057C9.13156 25.8006 8.98181 25.8006 8.93002 25.9057Z" fill="#FBE88C"/>
<path d="M10.9287 25.0108V22.5266C10.9287 22.2836 10.7317 22.0867 10.4888 22.0867C10.2458 22.0867 10.0488 22.2836 10.0488 22.5266V25.0108H10.9287Z" fill="#E17983"/>
<path d="M20.8561 22.5266C20.8561 22.2836 20.6591 22.0867 20.4162 22.0867C20.1732 22.0867 19.9763 22.2836 19.9763 22.5266C19.9763 22.5266 19.9724 24.834 19.9688 25.0108H20.8486C20.8509 24.9039 20.8561 22.5266 20.8561 22.5266Z" fill="#E17983"/>
<path d="M15.7045 23.1591L16.5672 24.9071C16.6031 24.9798 16.6725 25.0302 16.7527 25.0419L18.6817 25.3222C18.8838 25.3516 18.9645 25.5999 18.8182 25.7425L17.4224 27.1031C17.3643 27.1597 17.3378 27.2413 17.3515 27.3211L17.6811 29.2423C17.7156 29.4436 17.5043 29.5971 17.3236 29.5021L15.5982 28.595C15.5264 28.5573 15.4407 28.5573 15.3689 28.595L13.6436 29.5021C13.4628 29.5971 13.2515 29.4436 13.2861 29.2423L13.6156 27.3211C13.6293 27.2412 13.6028 27.1597 13.5447 27.1031L12.1489 25.7425C12.0027 25.5999 12.0834 25.3515 12.2854 25.3222L14.2144 25.0419C14.2947 25.0302 14.364 24.9798 14.3999 24.9071L15.2626 23.1591C15.353 22.9759 15.6141 22.9759 15.7045 23.1591Z" fill="#FBE88C"/>
<path d="M17.6792 29.2423L17.6289 28.949L15.6741 27.9214C15.5897 27.877 15.4889 27.877 15.4045 27.9214L14.354 28.4737C14.2511 28.5278 14.1309 28.4404 14.1505 28.3259L14.3967 26.8903C14.4104 26.8104 14.3839 26.7288 14.3259 26.6722L13.6446 26.0081C13.5169 25.8837 13.5873 25.6667 13.7638 25.6411L14.8759 25.4795C14.9562 25.4678 15.0256 25.4174 15.0615 25.3447L15.9214 23.6023L15.7026 23.1591C15.6122 22.9759 15.3511 22.9759 15.2607 23.1591L14.398 24.907C14.3621 24.9798 14.2927 25.0301 14.2125 25.0418L12.2835 25.3221C12.0814 25.3515 12.0007 25.5999 12.1469 25.7424L13.5428 27.103C13.6009 27.1596 13.6274 27.2411 13.6136 27.3211L13.2841 29.2423C13.2496 29.4436 13.4609 29.5971 13.6416 29.502L15.3669 28.595C15.4387 28.5573 15.5245 28.5573 15.5963 28.595L17.3216 29.502C17.5024 29.5971 17.7137 29.4436 17.6792 29.2423Z" fill="#FBE372"/>
<path d="M22.3858 18.3202C22.153 18.9133 21.7197 19.3363 21.1076 19.6072C20.9763 19.6653 20.9811 19.8519 21.1144 19.905C21.7024 20.1392 22.1375 20.553 22.3808 21.1906C22.4313 21.3229 22.6111 21.3341 22.6768 21.2087C22.9746 20.639 23.4342 20.2129 24.0316 19.9091C24.1499 19.8489 24.1513 19.6825 24.034 19.6205C23.4343 19.3032 22.9806 18.8665 22.6779 18.3065C22.6128 18.186 22.4357 18.1928 22.3858 18.3202Z" fill="#FBE88C"/>
<path d="M7.17342 12.9997C6.95346 13.5601 6.54403 13.9598 5.96557 14.2158C5.84157 14.2707 5.84602 14.447 5.97202 14.4972C6.52761 14.7185 6.93879 15.1096 7.16872 15.7121C7.21641 15.8371 7.3864 15.8477 7.4484 15.7291C7.72983 15.1909 8.16412 14.7882 8.72863 14.5011C8.84043 14.4442 8.84178 14.287 8.73092 14.2283C8.16424 13.9284 7.73558 13.5158 7.44945 12.9866C7.38792 12.8728 7.22069 12.8793 7.17342 12.9997Z" fill="#FBE88C"/>
<path d="M23.7744 25.0109V22.8815C23.7744 22.6384 23.5774 22.4415 23.3344 22.4415C23.0915 22.4415 22.8945 22.6384 22.8945 22.8815V25.0109C22.8945 25.2539 23.0915 25.4508 23.3344 25.4508C23.5774 25.4508 23.7744 25.2538 23.7744 25.0109Z" fill="black"/>
<path d="M24.2403 19.2316C23.711 18.9515 23.3267 18.5804 23.0655 18.0971C22.954 17.891 22.7309 17.7673 22.4972 17.7814C22.2621 17.7957 22.0627 17.9406 21.9768 18.1594C21.7907 18.6335 21.4483 18.9755 20.9301 19.2048C20.7082 19.303 20.5679 19.523 20.5724 19.7653C20.5769 20.0084 20.726 20.2235 20.9521 20.3136C21.447 20.5108 21.7801 20.8489 21.9702 21.3474C22.0549 21.5692 22.2621 21.7216 22.4982 21.7354C22.5099 21.7361 22.5216 21.7365 22.5333 21.7365C22.7558 21.7365 22.9626 21.612 23.0671 21.4124C23.3159 20.9366 23.6967 20.5731 24.2315 20.3011C24.4333 20.1985 24.5597 19.9945 24.5615 19.7688C24.5634 19.5431 24.4402 19.3372 24.2403 19.2316ZM22.5639 20.5641C22.3613 20.2307 22.0956 19.9578 21.7685 19.7472C22.0965 19.53 22.3622 19.261 22.5633 18.9422C22.7965 19.2558 23.0817 19.5291 23.4167 19.7599C23.0792 19.9858 22.7942 20.2546 22.5639 20.5641Z" fill="black"/>
<path d="M7.2784 16.2511C7.28995 16.2518 7.30145 16.2521 7.31289 16.2521C7.53215 16.2521 7.73592 16.1296 7.83874 15.933C8.07143 15.488 8.42789 15.1478 8.92858 14.8932C9.1273 14.7921 9.25189 14.5913 9.25365 14.3689C9.25547 14.1467 9.13422 13.9438 8.93708 13.8395C8.44132 13.5772 8.08146 13.2298 7.83686 12.7774C7.72712 12.5744 7.5081 12.4526 7.27717 12.4664C7.04559 12.4805 6.84909 12.6232 6.76439 12.8389V12.839C6.591 13.2808 6.27162 13.5996 5.78806 13.8136C5.56945 13.9102 5.43119 14.1271 5.43565 14.3658C5.44017 14.6052 5.58698 14.8173 5.8097 14.906C6.27068 15.0896 6.58092 15.4046 6.75812 15.869C6.84164 16.0875 7.04583 16.2375 7.2784 16.2511ZM7.34274 13.63C7.55391 13.9078 7.80853 14.1517 8.10481 14.36C7.80666 14.5637 7.55238 14.8034 7.34374 15.0773C7.15933 14.7831 6.92224 14.5395 6.63394 14.3479C6.92282 14.1513 7.15962 13.9114 7.34274 13.63Z" fill="black"/>
<path d="M18.7456 24.8869L16.9173 24.6212L16.0996 22.9645C16.0504 22.8648 15.9797 22.7812 15.8947 22.7177V19.2353L17.263 19.6517C17.3497 19.6781 17.4384 19.6909 17.5262 19.6909C17.8078 19.6908 18.0809 19.5596 18.2551 19.3267L19.1726 18.0999L19.8214 18.5461C19.8976 18.5985 19.9844 18.6236 20.0703 18.6236C20.2103 18.6236 20.3479 18.5569 20.4332 18.4329C20.5709 18.2327 20.5202 17.9589 20.32 17.8211L19.5942 17.3219C19.6193 17.0483 19.5154 16.7679 19.2923 16.5785L18.3834 15.8073C18.2906 15.7285 18.1844 15.6723 18.0724 15.6385V14.5117C18.1544 14.4534 18.2352 14.3932 18.3134 14.3293C18.5016 14.1755 18.5294 13.8983 18.3756 13.7102C18.2219 13.5221 17.9448 13.4943 17.7566 13.6479C17.1093 14.177 16.2919 14.4683 15.4548 14.4683C13.4474 14.4683 11.8142 12.835 11.8142 10.8276V7.88315C11.8142 6.71923 12.7611 5.77234 13.9251 5.77234H16.7098C16.8104 5.77234 16.9079 5.73785 16.9862 5.67462L17.5282 5.23687L18.0338 5.67151C18.7085 6.25151 19.0955 7.0944 19.0955 7.98422V10.8277C19.0955 11.3448 18.9883 11.8457 18.7769 12.3165C18.6775 12.5381 18.7765 12.7985 18.9981 12.898C19.2197 12.9975 19.4801 12.8986 19.5797 12.6768C19.7495 12.2985 19.8643 11.9043 19.9249 11.4995H20.0418C20.9794 11.4995 21.7423 10.7366 21.7423 9.79899C21.7423 9.38863 21.5962 9.01182 21.3533 8.71772L21.7219 6.0973C21.9806 4.25807 20.6965 2.53944 18.8594 2.26633L18.7659 2.25243C18.1767 1.26237 17.2491 0.548286 16.1325 0.231659L15.9983 0.19365C14.4531 -0.244514 12.7647 0.0714684 11.4818 1.03889C11.2878 1.18518 11.2492 1.46104 11.3955 1.65502C11.5417 1.84905 11.8175 1.88765 12.0116 1.74142C13.0758 0.938821 14.4764 0.676744 15.7583 1.04018L15.8925 1.07819C16.8449 1.34824 17.6266 1.97757 18.0938 2.85032C18.4387 3.49454 18.5775 4.20792 18.5048 4.91631L18.048 4.52361C17.757 4.27355 17.3291 4.26699 17.0305 4.50812L16.5544 4.89267H13.9252C12.2761 4.89267 10.9345 6.23426 10.9345 7.88333V8.09866H10.8681C10.7129 8.09866 10.5628 8.11995 10.4199 8.15901C9.80035 6.47552 9.9674 4.57135 10.8814 3.02054C11.0047 2.81125 10.9351 2.54155 10.7258 2.41819C10.5164 2.29478 10.2467 2.36452 10.1234 2.57381C9.04867 4.39726 8.87504 6.64697 9.65154 8.61266C9.35245 8.91932 9.16762 9.33795 9.16762 9.79911C9.16762 10.7367 9.93045 11.4996 10.8681 11.4996H10.9847C11.17 12.738 11.86 13.8129 12.8375 14.5098V15.6385C12.7254 15.6723 12.6193 15.7285 12.5265 15.8073L11.6175 16.5786C11.3943 16.768 11.2905 17.0484 11.3156 17.322L9.04468 18.8838C7.84873 19.7062 7.13477 21.0638 7.13477 22.5153V25.0109C7.13477 25.2539 7.33173 25.4508 7.57469 25.4508C7.81764 25.4508 8.01461 25.2539 8.01461 25.0109V22.5152C8.01461 21.3535 8.58604 20.2669 9.54326 19.6086L11.7371 18.0999L12.6547 19.3267C12.8289 19.5596 13.102 19.6908 13.3836 19.6908C13.4714 19.6908 13.56 19.678 13.6467 19.6516L15.0151 19.2352V22.7668C14.9561 22.8222 14.9063 22.8887 14.8688 22.9645L14.0512 24.6212L12.2229 24.8869C11.9624 24.9248 11.7501 25.1037 11.6688 25.3541C11.5875 25.6044 11.6541 25.8739 11.8425 26.0575L13.1655 27.3471L12.8531 29.168C12.8086 29.4274 12.9132 29.6846 13.1261 29.8392C13.339 29.9939 13.6159 30.014 13.8489 29.8916L15.4842 29.0318L17.1195 29.8916C17.2209 29.9448 17.3304 29.9711 17.4395 29.9711C17.5812 29.9711 17.722 29.9266 17.8423 29.8392C18.0552 29.6846 18.1598 29.4274 18.1153 29.168L17.803 27.3471L19.126 26.0575C19.3144 25.8739 19.381 25.6043 19.2997 25.3541C19.2183 25.1037 19.006 24.9247 18.7456 24.8869ZM20.0417 10.6196H19.9753V8.97833H20.0417C20.4942 8.97833 20.8624 9.34645 20.8624 9.79899C20.8624 10.2515 20.4942 10.6196 20.0417 10.6196ZM20.8506 5.97465L20.5413 8.17344C20.3833 8.12476 20.2155 8.09848 20.0418 8.09848H19.9754V7.98422C19.9754 7.16127 19.7173 6.37017 19.2507 5.71245C19.469 4.89672 19.4536 4.05389 19.2119 3.2595C20.3072 3.65491 21.0186 4.77976 20.8506 5.97465ZM10.0473 9.79893C10.0473 9.34645 10.4154 8.97833 10.868 8.97833H10.9344V10.6196H10.868C10.4155 10.6196 10.0473 10.2515 10.0473 9.79893ZM18.7151 17.2426L17.5506 18.7996C17.5433 18.8093 17.5307 18.8132 17.5192 18.8099L15.8947 18.3155V17.4265L17.8195 16.4828L18.7151 17.2426ZM15.4548 15.3482C16.0541 15.3482 16.6451 15.2272 17.1925 14.9994V15.8103L15.4548 16.6623L13.7171 15.8103V15.0003C14.2524 15.2241 14.8393 15.3482 15.4548 15.3482ZM13.3903 18.8099C13.3789 18.8135 13.3662 18.8093 13.359 18.7996L12.1945 17.2426L13.0901 16.4828L15.0149 17.4265V18.3155L13.3903 18.8099ZM17.116 26.788C16.9543 26.9457 16.8804 27.1728 16.9185 27.3956L17.1818 28.9303L15.8035 28.2057C15.7035 28.1531 15.5938 28.1268 15.4842 28.1268C15.3745 28.1268 15.2648 28.153 15.1648 28.2057L13.7865 28.9303L14.0498 27.3954C14.0879 27.1727 14.0141 26.9456 13.8523 26.7881L12.7373 25.7012L14.2784 25.4773C14.5019 25.4448 14.695 25.3045 14.795 25.1019L15.4842 23.7055L16.1733 25.1019C16.2733 25.3045 16.4664 25.4448 16.6901 25.4773L18.231 25.7012L17.116 26.788Z" fill="black"/>
<path d="M23.7496 26.7108L22.7988 26.5726L22.3736 25.711V25.711C22.2749 25.5112 22.0752 25.3871 21.8523 25.3871C21.6294 25.3871 21.4298 25.5113 21.3312 25.711L20.9059 26.5726L19.9551 26.7108C19.7346 26.7428 19.5548 26.8944 19.4859 27.1063C19.417 27.3182 19.4734 27.5466 19.633 27.7021L20.321 28.3728L20.1586 29.3197C20.1208 29.5394 20.2094 29.7573 20.3898 29.8883C20.4917 29.9623 20.6109 29.9999 20.7309 29.9999C20.8233 29.9999 20.9161 29.9776 21.0019 29.9325L21.8523 29.4854L22.7027 29.9324C22.8999 30.0362 23.1345 30.0192 23.3148 29.8883C23.4951 29.7573 23.5838 29.5395 23.5461 29.3198L23.3837 28.3728L24.0717 27.7021C24.2313 27.5466 24.2876 27.3183 24.2188 27.1064C24.1499 26.8944 23.9701 26.7428 23.7496 26.7108ZM22.657 27.8524C22.5201 27.9859 22.4577 28.1781 22.4899 28.3668L22.5766 28.8722L22.1229 28.6337C22.0382 28.5891 21.9453 28.5668 21.8523 28.5668C21.7594 28.5668 21.6665 28.5891 21.5819 28.6336L21.1281 28.8722L21.2147 28.3669C21.2471 28.1783 21.1847 27.986 21.0476 27.8524L20.6804 27.4945L21.1874 27.4208C21.3769 27.3934 21.5406 27.2746 21.6255 27.1028L21.8524 26.643L22.0793 27.1029C22.1641 27.2746 22.3279 27.3934 22.5169 27.4207L23.0243 27.4945L22.657 27.8524Z" fill="black"/>
<path d="M10.9546 26.7108L10.0038 26.5726L9.57852 25.7111C9.47992 25.5113 9.28025 25.3871 9.05742 25.3871H9.05736C8.83452 25.3871 8.6348 25.5112 8.5362 25.711V25.711L8.111 26.5726L7.16024 26.7108C6.93969 26.7428 6.75985 26.8944 6.69098 27.1064C6.62212 27.3183 6.67849 27.5466 6.83809 27.7021L7.52608 28.3728L7.36366 29.3198C7.326 29.5395 7.41463 29.7573 7.59494 29.8883C7.69682 29.9623 7.81601 29.9999 7.93597 29.9999C8.02835 29.9999 8.1212 29.9775 8.20696 29.9325L9.05742 29.4854L9.90776 29.9324C10.105 30.0362 10.3396 30.0192 10.52 29.8883C10.7003 29.7573 10.7889 29.5394 10.7512 29.3198L10.5888 28.3728L11.2767 27.7021C11.4363 27.5466 11.4927 27.3182 11.4239 27.1063C11.3549 26.8944 11.1751 26.7429 10.9546 26.7108ZM9.86207 27.8524C9.72505 27.986 9.66258 28.1784 9.69496 28.3669L9.78165 28.8722L9.32794 28.6337C9.15848 28.5446 8.95624 28.5446 8.7869 28.6337L8.33307 28.8722L8.41976 28.3667C8.45203 28.1782 8.3895 27.986 8.25253 27.8524L7.8854 27.4945L8.39243 27.4208C8.58189 27.3934 8.7456 27.2746 8.83048 27.1028L9.05736 26.643L9.28436 27.1029C9.36912 27.2746 9.53289 27.3934 9.72194 27.4207L10.2293 27.4945L9.86207 27.8524Z" fill="black"/>
<path d="M10.9306 24.6808V22.5267C10.9306 22.2837 10.7337 22.0868 10.4907 22.0868C10.2478 22.0868 10.0508 22.2837 10.0508 22.5267V24.6808C10.0508 24.9238 10.2478 25.1207 10.4907 25.1207C10.7337 25.1207 10.9306 24.9238 10.9306 24.6808Z" fill="black"/>
<path d="M19.9785 22.5267V24.6808C19.9785 24.9238 20.1755 25.1207 20.4184 25.1207C20.6614 25.1207 20.8584 24.9238 20.8584 24.6808V22.5267C20.8584 22.2837 20.6614 22.0868 20.4184 22.0868C20.1755 22.0868 19.9785 22.2838 19.9785 22.5267Z" fill="black"/>
</svg>
