<svg width="30" height="30" viewBox="0 0 30 30" fill="none" xmlns="http://www.w3.org/2000/svg">
<g clip-path="url(#clip0)">
<path d="M22.7539 29.5313H7.18555C6.21471 29.5313 5.42773 28.7443 5.42773 27.7735V21.0948C5.42773 20.124 6.21471 19.337 7.18555 19.337H22.7539C23.7247 19.337 24.5117 20.124 24.5117 21.0948V27.7735C24.5117 28.7443 23.7247 29.5313 22.7539 29.5313Z" fill="#FFDD91"/>
<path d="M22.7539 28.4766H7.18555C6.21471 28.4766 5.42773 27.6896 5.42773 26.7188V27.7734C5.42773 28.7443 6.21471 29.5312 7.18555 29.5312H22.7539C23.7247 29.5312 24.5117 28.7443 24.5117 27.7734V26.7188C24.5117 27.6896 23.7247 28.4766 22.7539 28.4766Z" fill="#F9CD80"/>
<path d="M19.3323 6.32581V9.666C19.3323 12.0575 17.3936 13.9963 15.0021 13.9963C12.6106 13.9963 10.6719 12.0576 10.6719 9.666V6.32581H19.3323Z" fill="#FDD4BB"/>
<path d="M15.0021 12.9416C12.6106 12.9416 10.6719 11.0029 10.6719 8.61133V9.66602C10.6719 12.0575 12.6106 13.9963 15.0021 13.9963C17.3936 13.9963 19.3323 12.0576 19.3323 9.66602V8.61133C19.3323 11.0028 17.3936 12.9416 15.0021 12.9416Z" fill="#F7C4A8"/>
<path d="M19.332 7.05988C19.5246 6.96531 19.7411 6.91199 19.9701 6.91199C20.7704 6.91199 21.4192 7.5608 21.4192 8.36113C21.4192 9.16147 20.7704 9.81028 19.9701 9.81028C19.741 9.81028 19.5246 9.75696 19.332 9.66239V7.05988Z" fill="#EBBAA1"/>
<path d="M10.6731 7.05988C10.4806 6.96531 10.2641 6.91199 10.0351 6.91199C9.23475 6.91199 8.58594 7.5608 8.58594 8.36113C8.58594 9.16147 9.23475 9.81028 10.0351 9.81028C10.2641 9.81028 10.4806 9.75696 10.6731 9.66239V7.05988Z" fill="#EBBAA1"/>
<path d="M19.9701 8.75554C19.741 8.75554 19.5246 8.70222 19.332 8.60765V9.66233C19.5246 9.75696 19.7411 9.81022 19.9701 9.81022C20.7704 9.81022 21.4192 9.16142 21.4192 8.36108C21.4192 8.17493 21.3837 7.99722 21.3198 7.83374C21.1089 8.37321 20.5843 8.75554 19.9701 8.75554Z" fill="#E8A990"/>
<path d="M8.68336 7.83374C8.61943 7.99722 8.58398 8.17493 8.58398 8.36108C8.58398 9.16142 9.23279 9.81022 10.0331 9.81022C10.2621 9.81022 10.4786 9.7569 10.6712 9.66233V8.60765C10.4786 8.70228 10.2621 8.75554 10.0331 8.75554C9.41889 8.75554 8.8943 8.37321 8.68336 7.83374Z" fill="#E8A990"/>
<path d="M21.899 19.337C20.4948 14.6515 16.9205 13.5488 16.9205 13.5488H16.9193C16.3412 13.8348 15.6907 13.9962 15.0023 13.9962C14.3138 13.9962 13.6632 13.8348 13.0852 13.5488H13.084C13.084 13.5488 9.50967 14.6515 8.10547 19.337H21.899Z" fill="#F95750"/>
<path d="M8.48047 18.2823C8.34365 18.612 8.21756 18.963 8.10547 19.337H21.8991C21.787 18.963 21.6609 18.612 21.5241 18.2823H8.48047Z" fill="#E84642"/>
<path d="M15.0021 16.179C16.8384 16.179 16.9202 13.5488 16.9202 13.5488H16.9189C16.3409 13.8348 15.6904 13.9962 15.0019 13.9962C14.3134 13.9962 13.6629 13.8348 13.0849 13.5488H13.084C13.0839 13.5488 13.1658 16.179 15.0021 16.179Z" fill="#EBBAA1"/>
<path d="M20.0867 6.32578C19.8659 1.85906 17.6581 0.505249 15.0014 0.505249C12.3447 0.505249 10.1369 1.85906 9.91602 6.32578H20.0867Z" fill="#F3584D"/>
<path d="M10.0123 5.27112C9.96705 5.60182 9.93447 5.95268 9.91602 6.32581H20.0867C20.0682 5.95268 20.0357 5.60182 19.9904 5.27112H10.0123Z" fill="#E84642"/>
<path d="M16.7442 6.32581H13.2559V4.18245C13.2559 3.21917 14.0367 2.43823 15.0001 2.43823C15.9634 2.43823 16.7443 3.21911 16.7443 4.18245V6.32581H16.7442Z" fill="#5A5B77"/>
<path d="M13.2578 4.39282H16.7462V6.32577H13.2578V4.39282Z" fill="#CB3541"/>
<path d="M13.2578 5.27112H16.7462V6.32581H13.2578V5.27112Z" fill="#B53939"/>
<path d="M22.8104 18.8923H22.2746C21.4978 16.5441 20.1869 15.1164 19.203 14.3237C18.7146 13.9302 18.2593 13.6512 17.897 13.4603C18.9179 12.6945 19.6239 11.5305 19.7826 10.2008C19.86 10.2103 19.9384 10.2155 20.0176 10.2155C21.062 10.2155 21.9117 9.36586 21.9117 8.32143C21.9117 7.45037 21.3205 6.71525 20.5184 6.495C20.5586 6.42334 20.5789 6.34143 20.5747 6.25781C20.5163 5.07621 20.3177 4.04707 19.9844 3.19881C19.8955 2.97246 19.64 2.86113 19.4135 2.95002C19.1872 3.03896 19.0759 3.29455 19.1647 3.5209C19.4199 4.17006 19.5873 4.9483 19.664 5.83928H17.2234V4.12928C17.2234 2.9216 16.2409 1.93916 15.0332 1.93916C13.8256 1.93916 12.8431 2.92166 12.8431 4.12928V5.83928H10.4022C10.6861 2.50418 12.2044 0.880664 15.0332 0.880664C16.4875 0.880664 17.5689 1.29504 18.3393 2.14752C18.5024 2.32787 18.7808 2.34199 18.9613 2.17898C19.1417 2.01592 19.1558 1.73748 18.9927 1.55707C18.059 0.523887 16.7269 0 15.0333 0C13.4489 0 12.1785 0.459434 11.2573 1.36564C10.1946 2.41102 9.60066 4.05697 9.4918 6.25781C9.48764 6.34137 9.50791 6.42334 9.54822 6.495C8.74613 6.7152 8.15492 7.45037 8.15492 8.32143C8.15492 9.36586 9.00459 10.2155 10.049 10.2155C10.1282 10.2155 10.2066 10.2103 10.284 10.2008C10.4427 11.5304 11.1487 12.6943 12.1695 13.4602C11.692 13.7118 11.053 14.1166 10.3889 14.7353C10.211 14.901 10.2011 15.1796 10.3669 15.3575C10.4536 15.4506 10.5712 15.4977 10.6892 15.4977C10.7966 15.4977 10.9044 15.4586 10.9892 15.3795C11.664 14.7509 12.3106 14.3703 12.736 14.1609C12.9263 15.2348 13.5498 16.6048 15.0335 16.6048C16.5172 16.6048 17.1407 15.2347 17.331 14.1608C17.6731 14.329 18.1575 14.6075 18.6836 15.0362C19.8796 16.0106 20.7716 17.3064 21.3426 18.8922H8.72516C9.02387 18.0658 9.41281 17.3095 9.88836 16.6399C10.0292 16.4417 9.98258 16.1668 9.78436 16.026C9.58613 15.8852 9.31127 15.9317 9.17041 16.13C8.59127 16.9455 8.12867 17.8736 7.79199 18.8923H7.19205C5.97688 18.8923 4.98828 19.8809 4.98828 21.096V27.7961C4.98828 29.0113 5.97688 29.9999 7.19205 29.9999H18.178C18.4211 29.9999 18.6183 29.8027 18.6183 29.5596C18.6183 29.3164 18.4211 29.1192 18.178 29.1192H7.19205C6.46244 29.1192 5.86889 28.5257 5.86889 27.7961V21.0962C5.86889 20.3665 6.46244 19.773 7.19205 19.773H22.8105C23.5401 19.773 24.1337 20.3665 24.1337 21.0962V27.7962C24.1337 28.5258 23.5401 29.1194 22.8105 29.1194H19.9415C19.6983 29.1194 19.5011 29.3166 19.5011 29.5597C19.5011 29.8029 19.6982 30.0001 19.9415 30.0001H22.8105C24.0257 30.0001 25.0143 29.0115 25.0143 27.7963V21.0962C25.0142 19.8809 24.0256 18.8923 22.8104 18.8923ZM21.0311 8.32143C21.0311 8.88029 20.5764 9.33492 20.0176 9.33492C19.9496 9.33492 19.883 9.32713 19.8178 9.31406V7.32879C19.883 7.31572 19.9496 7.30793 20.0176 7.30793C20.5764 7.30793 21.0311 7.76256 21.0311 8.32143ZM15.0333 2.81977C15.6771 2.81977 16.2136 3.28693 16.3223 3.90006H13.7443C13.853 3.28699 14.3895 2.81977 15.0333 2.81977ZM13.7238 4.78066H16.3428V5.83922H13.7238V4.78066ZM10.2488 9.31406C10.1836 9.32713 10.1171 9.33492 10.049 9.33492C9.49016 9.33492 9.03553 8.88029 9.03553 8.32143C9.03553 7.76256 9.49016 7.30793 10.049 7.30793C10.1171 7.30793 10.1836 7.31572 10.2488 7.32879V9.31406ZM11.1294 9.63053V6.71988H18.9371V9.63053C18.9371 11.7831 17.1859 13.5343 15.0332 13.5343C12.8807 13.5343 11.1294 11.7831 11.1294 9.63053ZM15.0334 15.7242C14.8255 15.7242 14.1929 15.7242 13.7987 14.706C13.7334 14.5373 13.6851 14.367 13.6493 14.2098C14.0877 14.3426 14.5521 14.415 15.0333 14.415C15.5146 14.415 15.9791 14.3426 16.4176 14.2097C16.3818 14.367 16.3336 14.5373 16.2682 14.706C15.8739 15.7242 15.2413 15.7242 15.0334 15.7242Z" fill="#474747"/>
<path d="M12.3327 22.8606C12.2131 22.6489 11.9445 22.5741 11.7327 22.6937L9.20704 24.1199C8.91273 24.2742 8.91279 24.7325 9.20704 24.8867L11.7327 26.3129C11.9406 26.4314 12.2124 26.3598 12.3327 26.1461C12.4523 25.9343 12.3775 25.6657 12.1658 25.5461L10.3191 24.5033L12.1658 23.4606C12.3775 23.3409 12.4523 23.0723 12.3327 22.8606Z" fill="#474747"/>
<path d="M16.9579 9.20633C17.2011 9.20633 17.3982 9.00922 17.3982 8.766V8.0624C17.3982 7.81924 17.2011 7.62207 16.9579 7.62207C16.7147 7.62207 16.5176 7.81918 16.5176 8.0624V8.766C16.5176 9.00916 16.7147 9.20633 16.9579 9.20633Z" fill="#474747"/>
<path d="M13.1103 9.20633C13.3534 9.20633 13.5506 9.00922 13.5506 8.766V8.0624C13.5506 7.81924 13.3534 7.62207 13.1103 7.62207C12.8671 7.62207 12.6699 7.81918 12.6699 8.0624V8.766C12.6699 9.00916 12.867 9.20633 13.1103 9.20633Z" fill="#474747"/>
<path d="M13.5043 11.0627C13.6397 11.3863 14.1117 11.9284 15.0339 11.9284C15.9561 11.9284 16.428 11.3864 16.5634 11.0627C16.5885 11.0073 16.6029 10.9459 16.6029 10.8811C16.6029 10.638 16.4058 10.4409 16.1627 10.4409C15.9793 10.4409 15.8218 10.5529 15.7557 10.7125C15.7557 10.7124 15.7557 10.7125 15.7557 10.7125C15.7392 10.7468 15.5785 11.0478 15.0339 11.0478C14.4893 11.0478 14.3286 10.7468 14.312 10.7125C14.312 10.7125 14.3121 10.7125 14.312 10.7125C14.2459 10.553 14.0885 10.4409 13.9051 10.4409C13.662 10.4409 13.4648 10.638 13.4648 10.8811C13.4648 10.9459 13.4792 11.0073 13.5043 11.0627Z" fill="#474747"/>
<path d="M16.7242 24.4836C17.0167 24.5685 17.2407 24.7171 17.3964 24.9294C17.5568 25.137 17.637 25.3917 17.637 25.6936C17.637 25.9813 17.5615 26.2313 17.4105 26.4436C17.2643 26.6559 17.052 26.821 16.7737 26.9389C16.4954 27.0521 16.1723 27.1087 15.8043 27.1087C15.4977 27.1087 15.2029 27.0639 14.9199 26.9743C14.6415 26.8847 14.401 26.7597 14.1981 26.5993C14.1274 26.5474 14.0755 26.4908 14.0425 26.4295C14.0142 26.3681 14 26.2974 14 26.2172C14 26.0945 14.0354 25.9908 14.1061 25.9059C14.1769 25.8162 14.2618 25.7714 14.3609 25.7714C14.4175 25.7714 14.4694 25.7809 14.5165 25.7997C14.5637 25.8139 14.6227 25.8422 14.6934 25.8846C14.901 26.0026 15.0802 26.0922 15.2312 26.1535C15.3821 26.2148 15.559 26.2455 15.7619 26.2455C16.0496 26.2455 16.2595 26.1936 16.3916 26.0898C16.5237 25.9813 16.5898 25.8139 16.5898 25.5874C16.5898 25.3657 16.5214 25.2054 16.3846 25.1063C16.2478 25.0072 16.0284 24.9577 15.7265 24.9577H15.309C15.1864 24.9577 15.0897 24.9152 15.0189 24.8303C14.9482 24.7454 14.9128 24.644 14.9128 24.5261C14.9128 24.4129 14.9482 24.3138 15.0189 24.2289C15.0897 24.144 15.1864 24.1015 15.309 24.1015H15.6062C15.894 24.1015 16.1062 24.052 16.243 23.9529C16.3846 23.8539 16.4553 23.7006 16.4553 23.493C16.4553 23.2949 16.3963 23.1416 16.2784 23.0331C16.1605 22.9199 15.9954 22.8633 15.7831 22.8633C15.6086 22.8633 15.4458 22.8939 15.2949 22.9552C15.1439 23.0166 14.9694 23.1062 14.7713 23.2241C14.7005 23.2666 14.6415 23.2972 14.5944 23.3161C14.5472 23.3303 14.4953 23.3373 14.4387 23.3373C14.3396 23.3373 14.2547 23.2949 14.184 23.21C14.1132 23.1203 14.0778 23.0142 14.0778 22.8916C14.0778 22.8066 14.092 22.7359 14.1203 22.6793C14.1533 22.618 14.2052 22.5613 14.276 22.5095C14.4741 22.3491 14.7099 22.2241 14.9835 22.1344C15.2619 22.0448 15.5449 22 15.8326 22C16.1676 22 16.4624 22.0566 16.7171 22.1698C16.9718 22.2783 17.1676 22.434 17.3044 22.6368C17.4412 22.8397 17.5096 23.0755 17.5096 23.3444C17.5096 23.6133 17.4389 23.8492 17.2973 24.052C17.1605 24.2501 16.9695 24.394 16.7242 24.4836Z" fill="#474747"/>
<path d="M20.1391 27.1158C19.5353 27.1158 19.073 26.8965 18.7522 26.4578C18.4361 26.0191 18.2781 25.3846 18.2781 24.5544C18.2781 23.7289 18.4361 23.0968 18.7522 22.6581C19.073 22.2194 19.5353 22 20.1391 22C20.7429 22 21.2028 22.2194 21.5188 22.6581C21.8396 23.0968 22 23.7289 22 24.5544C22 25.3846 21.8396 26.0191 21.5188 26.4578C21.2028 26.8965 20.7429 27.1158 20.1391 27.1158ZM20.1391 26.2738C20.4127 26.2738 20.6108 26.137 20.7334 25.8634C20.8608 25.5898 20.9245 25.1535 20.9245 24.5544C20.9245 23.9506 20.8608 23.5142 20.7334 23.2453C20.6108 22.9765 20.4127 22.842 20.1391 22.842C19.8655 22.842 19.665 22.9788 19.5376 23.2524C19.415 23.5213 19.3536 23.9553 19.3536 24.5544C19.3536 25.1535 19.415 25.5898 19.5376 25.8634C19.665 26.137 19.8655 26.2738 20.1391 26.2738Z" fill="#474747"/>
</g>
<defs>
<clipPath id="clip0">
<rect width="30" height="30" fill="white"/>
</clipPath>
</defs>
</svg>
