<svg width="30" height="30" viewBox="0 0 30 30" fill="none" xmlns="http://www.w3.org/2000/svg">
<g clip-path="url(#clip0)">
<path d="M21.9125 19.337C20.5009 14.651 16.9241 13.5476 16.9241 13.5476H16.9228C16.3431 13.8344 15.6907 13.9963 15.0002 13.9963C14.3097 13.9963 13.6572 13.8344 13.0776 13.5476H13.0763C13.0763 13.5476 9.49947 14.651 8.08789 19.337H21.9125Z" fill="#EEF2F5"/>
<path d="M8.46453 18.2823C8.32719 18.612 8.20057 18.963 8.08789 19.337H21.9126C21.7999 18.963 21.6733 18.612 21.5359 18.2823H8.46453Z" fill="#DEEAF3"/>
<path d="M20.6144 7.03553C21.4357 5.0482 20.8535 2.80594 19.6501 1.92152C18.6442 1.1823 17.4721 1.39453 17.4721 1.39453C17.4721 1.39453 16.59 0.46875 14.9995 0.46875C12.8272 0.46875 8.41586 1.57008 9.25522 7.1066" fill="#AF665A"/>
<path d="M19.344 7.03951V9.65332C19.344 12.0519 17.3997 13.9962 15.0011 13.9962C12.6026 13.9962 10.6582 12.0519 10.6582 9.65332V7.03951C13.2894 6.73271 16.416 4.23621 16.416 4.23621C16.416 4.23621 17.943 6.40927 19.344 7.03951Z" fill="#FDD4BB"/>
<path d="M15.0011 12.9415C12.6026 12.9415 10.6582 10.9972 10.6582 8.59863V9.65332C10.6582 12.0519 12.6026 13.9962 15.0011 13.9962C17.3997 13.9962 19.344 12.0519 19.344 9.65332V8.59863C19.344 10.9971 17.3997 12.9415 15.0011 12.9415Z" fill="#F7C4A8"/>
<path d="M19.3438 7.03959C19.5369 6.94473 19.754 6.89124 19.9837 6.89124C20.7863 6.89124 21.4371 7.54192 21.4371 8.34465C21.4371 9.14739 20.7864 9.79807 19.9837 9.79807C19.754 9.79807 19.5369 9.74458 19.3438 9.64971V7.03959Z" fill="#EBBAA1"/>
<path d="M10.6558 7.03959C10.4627 6.94473 10.2456 6.89124 10.0159 6.89124C9.21324 6.89124 8.5625 7.54192 8.5625 8.34465C8.5625 9.14739 9.21318 9.79807 10.0159 9.79807C10.2456 9.79807 10.4628 9.74458 10.6558 9.64971V7.03959Z" fill="#EBBAA1"/>
<path d="M19.9837 8.74333C19.754 8.74333 19.5369 8.68984 19.3438 8.59498V9.64966C19.5369 9.74453 19.754 9.79802 19.9837 9.79802C20.7863 9.79802 21.4371 9.14734 21.4371 8.3446C21.4371 8.15851 21.4017 7.9808 21.338 7.81726C21.1268 8.35919 20.6003 8.74333 19.9837 8.74333Z" fill="#E8A990"/>
<path d="M8.66158 7.81726C8.59783 7.9808 8.5625 8.15851 8.5625 8.3446C8.5625 9.14728 9.21318 9.79802 10.0159 9.79802C10.2456 9.79802 10.4628 9.74453 10.6558 9.64966V8.59498C10.4627 8.68984 10.2456 8.74334 10.0159 8.74334C9.39928 8.74328 8.87275 8.35914 8.66158 7.81726Z" fill="#E8A990"/>
<path d="M15 13.9963C14.3093 13.9963 13.6568 13.8344 13.0771 13.5475L13.0762 13.5477L14.0381 15.9856H15.962L16.924 13.5477L16.9231 13.5475C16.3432 13.8343 15.6907 13.9963 15 13.9963Z" fill="#F68ACC"/>
<path d="M16.5736 19.337L15.9616 15.9856H14.0377L13.4258 19.337H16.5736Z" fill="#FFA6D4"/>
<path d="M13.6184 18.2823L13.4258 19.337H16.5736L16.381 18.2823H13.6184Z" fill="#F690D2"/>
<path d="M25.3887 29.5313H4.54688C3.57604 29.5313 2.78906 28.7443 2.78906 27.7735V21.0948C2.78906 20.124 3.57604 19.337 4.54688 19.337H25.3887C26.3595 19.337 27.1465 20.124 27.1465 21.0948V27.7735C27.1465 28.7443 26.3595 29.5313 25.3887 29.5313Z" fill="#FFDD91"/>
<path d="M25.3887 28.4766H4.54688C3.57604 28.4766 2.78906 27.6896 2.78906 26.7188V27.7734C2.78906 28.7443 3.57604 29.5312 4.54688 29.5312H25.3887C26.3595 29.5312 27.1465 28.7443 27.1465 27.7734V26.7188C27.1465 27.6896 26.3595 28.4766 25.3887 28.4766Z" fill="#F9CD80"/>
<path d="M16.9599 9.21727C17.203 9.21727 17.4002 9.02016 17.4002 8.77693V8.07217C17.4002 7.829 17.203 7.63184 16.9599 7.63184C16.7167 7.63184 16.5195 7.829 16.5195 8.07217V8.77693C16.5195 9.02016 16.7166 9.21727 16.9599 9.21727Z" fill="#474747"/>
<path d="M13.1044 9.21727C13.3476 9.21727 13.5447 9.02016 13.5447 8.77693V8.07217C13.5447 7.829 13.3476 7.63184 13.1044 7.63184C12.8612 7.63184 12.6641 7.829 12.6641 8.07217V8.77693C12.6641 9.02016 12.8612 9.21727 13.1044 9.21727Z" fill="#474747"/>
<path d="M13.4987 11.0764C13.6343 11.4007 14.1072 11.9438 15.0312 11.9438C15.9553 11.9438 16.4282 11.4007 16.5638 11.0764C16.589 11.0208 16.6034 10.9594 16.6034 10.8945C16.6034 10.6509 16.4059 10.4534 16.1623 10.4534C15.9785 10.4534 15.8207 10.5656 15.7545 10.7255C15.7545 10.7254 15.7545 10.7255 15.7545 10.7254C15.7379 10.7598 15.5769 11.0615 15.0312 11.0615C14.4855 11.0615 14.3245 10.7598 14.3079 10.7254C14.3079 10.7255 14.308 10.7254 14.3079 10.7255C14.2416 10.5656 14.0839 10.4534 13.9001 10.4534C13.6565 10.4534 13.459 10.6508 13.459 10.8945C13.4591 10.9594 13.4735 11.0208 13.4987 11.0764Z" fill="#474747"/>
<path d="M25.4415 18.9052H22.2799C21.5005 16.5596 20.1888 15.1333 19.2047 14.3414C18.7167 13.9487 18.262 13.6702 17.9 13.4794C18.9235 12.7124 19.63 11.5457 19.7889 10.2132C19.8666 10.2229 19.9453 10.2281 20.0249 10.2281C21.0707 10.2281 21.9215 9.37734 21.9215 8.33156C21.9215 7.72676 21.6366 7.18764 21.1943 6.84012C21.5164 5.87924 21.5711 4.83117 21.344 3.85002C21.2892 3.61307 21.0526 3.46547 20.8158 3.52031C20.5788 3.57516 20.4312 3.81164 20.4861 4.04854C20.6697 4.84178 20.6335 5.68764 20.3887 6.47039C20.2709 6.44742 20.1493 6.435 20.0248 6.435C19.8095 6.435 19.6005 6.47062 19.4007 6.54053C18.1664 5.87566 16.8241 3.98186 16.8102 3.96199C16.7404 3.86262 16.6326 3.79652 16.5123 3.7793C16.392 3.76195 16.2701 3.79529 16.1752 3.87105C16.1453 3.8949 13.2054 6.2233 10.7455 6.57158C10.5213 6.48129 10.2846 6.43494 10.0396 6.43494C9.90453 6.43494 9.7727 6.44941 9.64549 6.47643C9.49971 4.87266 9.83644 3.5826 10.65 2.63643C11.7631 1.34186 13.6436 0.880605 15.0322 0.880605C16.4026 0.880605 17.1612 1.64115 17.1909 1.67162C17.2921 1.77779 17.4415 1.82619 17.5862 1.80152C17.5962 1.79982 18.5964 1.63717 19.4312 2.2507C19.5721 2.35424 19.7058 2.48338 19.8288 2.63455C19.9822 2.82322 20.2596 2.85176 20.4482 2.69836C20.6369 2.54496 20.6654 2.26764 20.5121 2.07896C20.342 1.86984 20.1539 1.68891 19.9528 1.54113C19.0727 0.894258 18.0918 0.876914 17.6575 0.908613C17.3002 0.612305 16.397 0 15.0323 0C14.2636 0 11.6277 0.148711 9.98234 2.06232C8.9481 3.26514 8.55295 4.88965 8.80531 6.8935C8.40037 7.2416 8.14314 7.75693 8.14314 8.33156C8.14314 9.37734 8.99393 10.2281 10.0397 10.2281C10.1193 10.2281 10.198 10.2229 10.2757 10.2132C10.4345 11.5456 11.141 12.7123 12.1644 13.4793C11.6459 13.7524 10.9372 14.2059 10.2123 14.9176C10.0388 15.088 10.0362 15.3667 10.2066 15.5403C10.3771 15.7139 10.6559 15.7163 10.8293 15.546C11.6312 14.7587 12.4131 14.3252 12.8581 14.1195L13.6128 16.032L13.0882 18.9051H8.71625C8.98982 18.1515 9.33992 17.4567 9.76062 16.8334C9.89668 16.6318 9.84359 16.3581 9.64197 16.2221C9.44041 16.0861 9.16678 16.1392 9.03072 16.3407C8.51398 17.1063 8.09645 17.9681 7.78531 18.9051H4.55896C3.34502 18.9051 2.35742 19.8927 2.35742 21.1066V27.7983C2.35742 29.0123 3.34502 29.9999 4.55896 29.9999H19.7581C20.0013 29.9999 20.1985 29.8027 20.1985 29.5596C20.1985 29.3164 20.0013 29.1192 19.7581 29.1192H4.55896C3.83059 29.1192 3.23803 28.5267 3.23803 27.7983V21.1068C3.23803 20.3784 3.83059 19.7858 4.55896 19.7858H25.4415C26.1699 19.7858 26.7625 20.3784 26.7625 21.1068V27.7985C26.7625 28.5268 26.1699 29.1194 25.4415 29.1194H21.5193C21.2762 29.1194 21.079 29.3166 21.079 29.5597C21.079 29.8029 21.2761 30.0001 21.5193 30.0001H25.4415C26.6555 30.0001 27.6431 29.0125 27.6431 27.7985V21.1068C27.6431 19.8928 26.6555 18.9052 25.4415 18.9052ZM15.6965 15.5471H14.3681L13.8728 14.292C14.2443 14.3846 14.6325 14.4346 15.0322 14.4346C15.432 14.4346 15.8203 14.3846 16.1918 14.292L15.6965 15.5471ZM21.0408 8.33156C21.0408 8.89178 20.5851 9.34752 20.0248 9.34752C19.9565 9.34752 19.8896 9.33967 19.824 9.32648V7.33664C19.8896 7.32346 19.9565 7.31561 20.0248 7.31561C20.5851 7.31566 21.0408 7.77141 21.0408 8.33156ZM9.02375 8.33156C9.02375 7.77135 9.47949 7.31561 10.0397 7.31561C10.1081 7.31561 10.1749 7.32346 10.2406 7.33664V9.32648C10.175 9.33967 10.1081 9.34752 10.0397 9.34752C9.47949 9.34752 9.02375 8.89178 9.02375 8.33156ZM11.1212 9.64289V7.40238C12.1894 7.20492 13.4178 6.6948 14.7796 5.88246C15.4627 5.47494 16.0211 5.08436 16.3617 4.83439C16.8416 5.45619 17.8839 6.70266 18.9434 7.29434V9.64289C18.9434 11.7995 17.1888 13.554 15.0323 13.554C12.8756 13.554 11.1212 11.7995 11.1212 9.64289ZM13.9833 18.9052L14.4356 16.4278H15.629L16.0813 18.9052H13.9833ZM16.9764 18.9052L16.4519 16.0321L17.2067 14.1189C18.0724 14.5189 20.2164 15.7874 21.3484 18.9052H16.9764Z" fill="#474747"/>
<path d="M7.29245 24.09C7.53857 24.1615 7.72712 24.2865 7.85812 24.4651C7.99309 24.6398 8.06057 24.8542 8.06057 25.1082C8.06057 25.3504 7.99706 25.5607 7.87003 25.7394C7.74697 25.918 7.56834 26.0569 7.33413 26.1562C7.09992 26.2515 6.82801 26.2991 6.51838 26.2991C6.26035 26.2991 6.01225 26.2614 5.77407 26.186C5.53987 26.1105 5.33742 26.0053 5.16672 25.8704C5.10718 25.8267 5.06351 25.7791 5.03573 25.7275C5.01191 25.6759 5 25.6163 5 25.5488C5 25.4456 5.02977 25.3583 5.08932 25.2868C5.14886 25.2114 5.22031 25.1737 5.30368 25.1737C5.35131 25.1737 5.39498 25.1816 5.43467 25.1975C5.47437 25.2094 5.52399 25.2332 5.58353 25.269C5.7582 25.3682 5.90904 25.4436 6.03607 25.4952C6.1631 25.5468 6.31196 25.5726 6.48265 25.5726C6.7248 25.5726 6.90144 25.529 7.01259 25.4417C7.12374 25.3504 7.17932 25.2094 7.17932 25.0189C7.17932 24.8323 7.12176 24.6974 7.00664 24.614C6.89152 24.5306 6.70693 24.4889 6.45288 24.4889H6.10157C5.99836 24.4889 5.91698 24.4532 5.85744 24.3818C5.79789 24.3103 5.76812 24.225 5.76812 24.1257C5.76812 24.0305 5.79789 23.9471 5.85744 23.8756C5.91698 23.8042 5.99836 23.7685 6.10157 23.7685H6.35165C6.5938 23.7685 6.77243 23.7268 6.88755 23.6434C7.00664 23.5601 7.06618 23.431 7.06618 23.2564C7.06618 23.0897 7.01656 22.9606 6.91732 22.8693C6.81808 22.7741 6.67915 22.7264 6.50051 22.7264C6.35364 22.7264 6.21669 22.7522 6.08966 22.8038C5.96263 22.8555 5.81576 22.9309 5.64903 23.0301C5.58949 23.0658 5.53987 23.0916 5.50017 23.1075C5.46047 23.1194 5.41681 23.1254 5.36917 23.1254C5.28581 23.1254 5.21436 23.0897 5.15481 23.0182C5.09527 22.9428 5.0655 22.8535 5.0655 22.7503C5.0655 22.6788 5.07741 22.6193 5.10123 22.5716C5.12901 22.52 5.17268 22.4724 5.23222 22.4287C5.39895 22.2938 5.59743 22.1886 5.82766 22.1131C6.06187 22.0377 6.30005 22 6.54219 22C6.82404 22 7.07214 22.0476 7.2865 22.1429C7.50085 22.2342 7.66559 22.3652 7.78071 22.5359C7.89583 22.7066 7.95339 22.9051 7.95339 23.1313C7.95339 23.3576 7.89385 23.5561 7.77476 23.7268C7.65964 23.8935 7.49887 24.0146 7.29245 24.09Z" fill="#474747"/>
<path d="M10.1661 26.305C9.658 26.305 9.26898 26.1205 8.99904 25.7513C8.73308 25.3821 8.6001 24.8482 8.6001 24.1495C8.6001 23.4549 8.73308 22.9229 8.99904 22.5538C9.26898 22.1846 9.658 22 10.1661 22C10.6742 22 11.0613 22.1846 11.3272 22.5538C11.5972 22.9229 11.7321 23.4549 11.7321 24.1495C11.7321 24.8482 11.5972 25.3821 11.3272 25.7513C11.0613 26.1205 10.6742 26.305 10.1661 26.305ZM10.1661 25.5965C10.3963 25.5965 10.5631 25.4813 10.6663 25.2511C10.7735 25.0209 10.827 24.6537 10.827 24.1495C10.827 23.6414 10.7735 23.2742 10.6663 23.048C10.5631 22.8217 10.3963 22.7086 10.1661 22.7086C9.93587 22.7086 9.76716 22.8237 9.65998 23.0539C9.55677 23.2802 9.50517 23.6454 9.50517 24.1495C9.50517 24.6537 9.55677 25.0209 9.65998 25.2511C9.76716 25.4813 9.93587 25.5965 10.1661 25.5965Z" fill="#474747"/>
<path d="M14.3396 25.007C14.0578 25.007 13.9168 24.8899 13.9168 24.6557C13.9168 24.4215 14.0578 24.3044 14.3396 24.3044H15.5067C15.7885 24.3044 15.9294 24.4215 15.9294 24.6557C15.9294 24.8899 15.7885 25.007 15.5067 25.007H14.3396Z" fill="#474747"/>
<path d="M20.995 24.7748C21.2848 24.7748 21.4297 24.8919 21.4297 25.1261C21.4297 25.3642 21.2848 25.4833 20.995 25.4833H20.7747V25.8227C20.7747 25.9736 20.733 26.0887 20.6496 26.1681C20.5663 26.2475 20.4571 26.2872 20.3222 26.2872C20.1872 26.2872 20.078 26.2475 19.9947 26.1681C19.9113 26.0887 19.8696 25.9736 19.8696 25.8227V25.4833H18.4227C18.2996 25.4833 18.2024 25.4476 18.1309 25.3762C18.0595 25.3007 18.0237 25.2074 18.0237 25.0963C18.0237 24.9851 18.0615 24.874 18.1369 24.7628L19.9113 22.2263C19.9589 22.1588 20.0185 22.1092 20.0899 22.0774C20.1614 22.0417 20.2368 22.0238 20.3162 22.0238C20.4393 22.0238 20.5464 22.0655 20.6377 22.1489C20.729 22.2283 20.7747 22.3394 20.7747 22.4823V24.7748H20.995ZM18.9586 24.7748H19.8696V23.4648L18.9586 24.7748Z" fill="#474747"/>
<path d="M24.5653 24.7748C24.8551 24.7748 25 24.8919 25 25.1261C25 25.3642 24.8551 25.4833 24.5653 25.4833H24.345V25.8227C24.345 25.9736 24.3033 26.0887 24.22 26.1681C24.1366 26.2475 24.0274 26.2872 23.8925 26.2872C23.7575 26.2872 23.6483 26.2475 23.565 26.1681C23.4816 26.0887 23.4399 25.9736 23.4399 25.8227V25.4833H21.993C21.87 25.4833 21.7727 25.4476 21.7013 25.3762C21.6298 25.3007 21.5941 25.2074 21.5941 25.0963C21.5941 24.9851 21.6318 24.874 21.7072 24.7628L23.4816 22.2263C23.5293 22.1588 23.5888 22.1092 23.6603 22.0774C23.7317 22.0417 23.8071 22.0238 23.8865 22.0238C24.0096 22.0238 24.1168 22.0655 24.2081 22.1489C24.2994 22.2283 24.345 22.3394 24.345 22.4823V24.7748H24.5653ZM22.5289 24.7748H23.4399V23.4648L22.5289 24.7748Z" fill="#474747"/>
</g>
<defs>
<clipPath id="clip0">
<rect width="30" height="30" fill="white"/>
</clipPath>
</defs>
</svg>
