<svg width="30" height="30" viewBox="0 0 30 30" fill="none" xmlns="http://www.w3.org/2000/svg">
<g clip-path="url(#clip0)">
<path d="M25.4043 29.5313H4.5625C3.59166 29.5313 2.80469 28.7443 2.80469 27.7735V21.0948C2.80469 20.124 3.59166 19.337 4.5625 19.337H25.4043C26.3751 19.337 27.1621 20.124 27.1621 21.0948V27.7735C27.1621 28.7443 26.3751 29.5313 25.4043 29.5313Z" fill="#FFDD91"/>
<path d="M25.4043 28.4766H4.5625C3.59166 28.4766 2.80469 27.6896 2.80469 26.7188V27.7734C2.80469 28.7443 3.59166 29.5312 4.5625 29.5312H25.4043C26.3751 29.5312 27.1621 28.7443 27.1621 27.7734V26.7188C27.1621 27.6896 26.3751 28.4766 25.4043 28.4766Z" fill="#F9CD80"/>
<path d="M20.7203 7.10149C21.9708 2.53399 18.5211 1.78961 18.5211 1.78961C17.2865 -0.243882 14.8899 0.573149 13.0615 0.972583C11.2331 1.37202 10.432 0.471724 10.432 0.471724C10.432 0.471724 9.33404 1.64436 9.8424 2.88989C9.8424 2.88989 8.24466 4.62198 9.24574 7.10149" fill="#E5907B"/>
<path d="M21.8919 19.337C20.4862 14.6399 16.9036 13.5347 16.9036 13.5347H16.9024C16.3234 13.8211 15.6717 13.9828 14.9821 13.9828C14.2924 13.9828 13.6408 13.8211 13.0618 13.5347H13.0606C13.0606 13.5347 9.47799 14.6399 8.07227 19.337H21.8919Z" fill="#EEF2F5"/>
<path d="M8.44662 18.2823C8.30998 18.6121 8.18418 18.963 8.07227 19.337H21.892C21.7801 18.963 21.6543 18.6121 21.5177 18.2823H8.44662Z" fill="#DAE9F2"/>
<path d="M19.3203 7.03454C19.5132 6.93979 19.7301 6.88635 19.9595 6.88635C20.7612 6.88635 21.4111 7.53627 21.4111 8.33801C21.4111 9.13975 20.7612 9.78967 19.9595 9.78967C19.7301 9.78967 19.5132 9.73629 19.3203 9.64148V7.03454Z" fill="#EBBAA1"/>
<path d="M10.6455 7.03454C10.4526 6.93979 10.2357 6.88635 10.0063 6.88635C9.20461 6.88635 8.55469 7.53627 8.55469 8.33801C8.55469 9.13975 9.20461 9.78967 10.0063 9.78967C10.2357 9.78967 10.4526 9.73629 10.6455 9.64148V7.03454Z" fill="#EBBAA1"/>
<path d="M19.9614 8.73499C19.732 8.73499 19.5152 8.68161 19.3223 8.5868V9.64149C19.5152 9.73624 19.732 9.78967 19.9614 9.78967C20.7631 9.78967 21.4131 9.13975 21.4131 8.33801C21.4131 8.15192 21.3777 7.9742 21.3139 7.81067C21.1027 8.35161 20.577 8.73499 19.9614 8.73499Z" fill="#E8A990"/>
<path d="M8.65389 7.81067C8.59008 7.9742 8.55469 8.15192 8.55469 8.33801C8.55469 9.13975 9.20461 9.78967 10.0063 9.78967C10.2357 9.78967 10.4526 9.73629 10.6455 9.64149V8.5868C10.4526 8.68155 10.2357 8.73499 10.0063 8.73499C9.3907 8.73499 8.86494 8.35161 8.65389 7.81067Z" fill="#E8A990"/>
<path d="M14.9822 13.9827C17.3778 13.9827 19.3198 12.0407 19.3198 9.64511V7.03447C19.3198 7.03447 18.5659 6.12392 18.0212 4.7738C18.0212 4.7738 16.0874 5.2756 14.9822 5.2756C13.877 5.2756 11.9432 4.7738 11.9432 4.7738C11.3985 6.12398 10.6445 7.03447 10.6445 7.03447V9.64511C10.6446 12.0407 12.5866 13.9827 14.9822 13.9827Z" fill="#FDD4BB"/>
<path d="M14.9822 12.9281C12.5866 12.9281 10.6445 10.9861 10.6445 8.59045V9.64514C10.6445 12.0407 12.5866 13.9828 14.9822 13.9828C17.3778 13.9828 19.3198 12.0407 19.3198 9.64514V8.59045C19.3198 10.9861 17.3778 12.9281 14.9822 12.9281Z" fill="#F7C4A8"/>
<path d="M14.9841 13.9828C14.2943 13.9828 13.6425 13.8211 13.0634 13.5345L13.0625 13.5347L14.0233 15.9697H15.9448L16.9056 13.5347L16.9047 13.5345C16.3257 13.8211 15.6739 13.9828 14.9841 13.9828Z" fill="#F68ACC"/>
<path d="M14.9818 10.6512C14.3625 11.7822 12.9574 11.508 12.9574 11.508C12.5976 9.48605 14.0199 9.00623 14.9818 9.00623C15.9438 9.00623 17.3661 9.48599 17.0062 11.508C17.0062 11.5081 15.6011 11.7822 14.9818 10.6512Z" fill="#E5907B"/>
<path d="M16.5594 19.3369L15.9446 15.9696H14.023L13.4082 19.3369H16.5594Z" fill="#FFA6D4"/>
<path d="M13.6008 18.2823L13.4082 19.337H16.5594L16.3668 18.2823H13.6008Z" fill="#F690D2"/>
<path d="M25.4411 18.9054H22.2457C21.469 16.5543 20.1571 15.1249 19.1724 14.3313C18.6836 13.9373 18.2278 13.658 17.8651 13.4668C18.887 12.7008 19.5924 11.5358 19.7512 10.2054C19.8287 10.2149 19.9071 10.2201 19.9864 10.2201C21.0312 10.2201 21.8812 9.37011 21.8812 8.32538C21.8812 7.76441 21.6359 7.25986 21.2472 6.91263C21.4392 6.11294 21.5031 5.37308 21.4363 4.71015C21.4119 4.46822 21.1964 4.29209 20.954 4.31623C20.7121 4.3406 20.5357 4.55658 20.5601 4.79851C20.611 5.30341 20.5707 5.86949 20.4409 6.48613C20.2951 6.45009 20.143 6.43064 19.9863 6.43064C19.8204 6.43064 19.6582 6.45238 19.5011 6.4941C19.2539 6.14892 18.8054 5.46273 18.4532 4.58957C18.3704 4.38449 18.1484 4.27252 17.9343 4.32812C17.9155 4.33298 16.0377 4.81673 15 4.81673C13.9622 4.81673 12.0845 4.33298 12.0656 4.32812C11.8516 4.27263 11.6295 4.38449 11.5467 4.58957C11.1942 5.46337 10.7459 6.14921 10.4988 6.4941C10.3417 6.45244 10.1796 6.43064 10.0136 6.43064C9.84061 6.43064 9.67314 6.45437 9.51383 6.49802C8.95074 4.54597 10.1207 3.2231 10.1731 3.16527C10.2889 3.0397 10.3217 2.85847 10.2571 2.70033C9.99904 2.06822 10.2914 1.42967 10.5264 1.06141C10.9919 1.34283 11.8568 1.66246 13.1686 1.37588C13.3539 1.33539 13.5397 1.29191 13.7365 1.24592C15.7763 0.768671 17.2882 0.542968 18.1685 1.99287C18.2305 2.095 18.3335 2.16801 18.45 2.19431C18.4597 2.19654 19.4368 2.4264 20.0557 3.3366C20.1924 3.53763 20.4662 3.58984 20.6674 3.45314C20.8685 3.31638 20.9206 3.04252 20.7839 2.84142C20.1387 1.89256 19.2187 1.51199 18.8257 1.38631C17.5262 -0.544824 15.2263 -0.00699232 13.536 0.388457C13.3425 0.433749 13.1598 0.476464 12.9808 0.515605C11.4836 0.842558 10.8199 0.20289 10.7672 0.148984C10.6065 -0.0484766 10.2853 -0.0488282 10.1187 0.143008C10.069 0.196211 8.96955 1.39223 9.35504 2.77961C8.95238 3.32412 8.03937 4.86771 8.72803 6.93519C8.35373 7.28154 8.11883 7.77648 8.11883 8.32544C8.11883 9.37023 8.96885 10.2202 10.0136 10.2202C10.0929 10.2202 10.1713 10.215 10.2488 10.2054C10.4076 11.5358 11.1129 12.7007 12.1347 13.4667C11.6143 13.7409 10.9023 14.1969 10.1748 14.9137C10.0016 15.0843 9.99945 15.3631 10.1701 15.5363C10.3409 15.7096 10.6196 15.7116 10.7928 15.541C11.5968 14.749 12.3819 14.3134 12.8282 14.1069L13.5816 16.0165L13.0542 18.9054H8.68525C8.95748 18.151 9.30635 17.4552 9.72588 16.831C9.86152 16.6292 9.80791 16.3556 9.60605 16.22C9.40426 16.0844 9.13068 16.138 8.99504 16.3398C8.48012 17.1059 8.06439 17.9682 7.75496 18.9055H4.55896C3.34502 18.9055 2.35742 19.8931 2.35742 21.107V27.7985C2.35742 29.0125 3.34502 30.0001 4.55896 30.0001H19.7258C19.9689 30.0001 20.1661 29.803 20.1661 29.5598C20.1661 29.3166 19.9689 29.1195 19.7258 29.1195H4.55896C3.83059 29.1195 3.23809 28.5269 3.23809 27.7985V21.1069C3.23809 20.3785 3.83064 19.786 4.55896 19.786H25.4411C26.1695 19.786 26.7621 20.3786 26.7621 21.1069V27.7984C26.7621 28.5268 26.1695 29.1193 25.4411 29.1193H21.4869C21.2438 29.1193 21.0466 29.3165 21.0466 29.5597C21.0466 29.8028 21.2437 30 21.4869 30H25.4411C26.655 30 27.6426 29.0124 27.6426 27.7984V21.1069C27.6426 19.893 26.655 18.9054 25.4411 18.9054ZM19.7864 7.33093C19.8516 7.31786 19.9184 7.3113 19.9864 7.3113C20.5456 7.3113 21.0005 7.76628 21.0005 8.32544C21.0005 8.88466 20.5456 9.33958 19.9864 9.33958C19.9184 9.33958 19.8516 9.33302 19.7864 9.31995V7.33093ZM10.2137 9.32001C10.1484 9.33302 10.0816 9.33958 10.0136 9.33958C9.45441 9.33958 8.99949 8.88466 8.99949 8.32544C8.99949 7.76628 9.45441 7.3113 10.0136 7.3113C10.0817 7.3113 10.1485 7.31786 10.2137 7.33093V9.32001ZM11.0943 9.63513V9.63185C11.0943 9.63173 11.0943 9.63155 11.0943 9.63144V7.1715C11.5418 6.5582 11.8137 6.12507 12.2131 5.27089C12.8435 5.41937 14.1387 5.6974 15 5.6974C15.8613 5.6974 17.1563 5.41949 17.7868 5.27095C18.2103 6.21085 18.698 6.89816 18.9058 7.17144V9.63144V9.63513C18.9058 11.7888 17.1537 13.5409 15 13.5409C12.8463 13.5409 11.0943 11.7887 11.0943 9.63513ZM16.1572 14.2792L15.6631 15.5315H14.337L13.8429 14.2792C14.2137 14.3716 14.6011 14.4214 15.0001 14.4214C15.399 14.4215 15.7864 14.3716 16.1572 14.2792ZM13.9493 18.9054L14.4045 16.4122H15.5954L16.0506 18.9054H13.9493ZM16.9459 18.9054L16.4184 16.0165L17.172 14.1067C17.5151 14.2651 18.0574 14.5584 18.6529 15.0438C19.8504 16.0198 20.7442 17.3168 21.3152 18.9055H16.9459V18.9054Z" fill="#474747"/>
<path d="M16.9246 8.49104C17.1678 8.49104 17.3649 8.29393 17.3649 8.05077V7.34683C17.3649 7.10366 17.1678 6.90649 16.9246 6.90649C16.6815 6.90649 16.4844 7.1036 16.4844 7.34683V8.05077C16.4843 8.29393 16.6815 8.49104 16.9246 8.49104Z" fill="#474747"/>
<path d="M13.075 8.49104C13.3182 8.49104 13.5154 8.29393 13.5154 8.05077V7.34683C13.5154 7.10366 13.3183 6.90649 13.075 6.90649C12.8318 6.90649 12.6348 7.1036 12.6348 7.34683V8.05077C12.6348 8.29393 12.8319 8.49104 13.075 8.49104Z" fill="#474747"/>
<path d="M17.1133 11.9338C17.2919 11.8989 17.4306 11.7579 17.4625 11.5788C17.6254 10.6635 17.4789 9.92578 17.0269 9.38631C16.398 8.63578 15.4005 8.55469 15.0008 8.55469C14.601 8.55469 13.6034 8.63572 12.9746 9.38631C12.5226 9.92584 12.3761 10.6635 12.539 11.5788C12.5709 11.7579 12.7096 11.8989 12.8882 11.9338C12.9103 11.9381 13.0902 11.9715 13.3503 11.9715C13.7954 11.9715 14.4753 11.8737 15.0008 11.3657C15.8332 12.1705 17.0533 11.9454 17.1133 11.9338ZM14.6145 10.4317C14.3069 10.9935 13.7225 11.0907 13.3631 11.0923C13.3263 10.6058 13.4222 10.2231 13.6496 9.95174C14.0401 9.48557 14.7245 9.43523 15.0007 9.43523C15.2768 9.43523 15.9613 9.48557 16.3518 9.95174C16.5791 10.2231 16.6751 10.6058 16.6383 11.0921C16.2782 11.0906 15.6943 10.9931 15.3869 10.4316C15.3096 10.2905 15.1615 10.2028 15.0007 10.2028C14.8399 10.2029 14.6918 10.2906 14.6145 10.4317Z" fill="#474747"/>
<path d="M7.98816 24.7905C8.27959 24.7905 8.4253 24.9083 8.4253 25.1439C8.4253 25.3834 8.27959 25.5031 7.98816 25.5031H7.76659V25.8445C7.76659 25.9962 7.72467 26.112 7.64084 26.1918C7.557 26.2716 7.44721 26.3116 7.31148 26.3116C7.17575 26.3116 7.06596 26.2716 6.98212 26.1918C6.89829 26.112 6.85637 25.9962 6.85637 25.8445V25.5031H5.40122C5.27746 25.5031 5.17965 25.4672 5.10779 25.3954C5.03593 25.3195 5 25.2257 5 25.1139C5 25.0021 5.03793 24.8903 5.11378 24.7786L6.89829 22.2276C6.94619 22.1597 7.00608 22.1098 7.07794 22.0778C7.1498 22.0419 7.22565 22.024 7.30549 22.024C7.42925 22.024 7.53704 22.0659 7.62886 22.1497C7.72068 22.2296 7.76659 22.3413 7.76659 22.4851V24.7905H7.98816ZM5.94016 24.7905H6.85637V23.4731L5.94016 24.7905Z" fill="#474747"/>
<path d="M10.5189 23.545C10.7784 23.545 11.0099 23.6029 11.2135 23.7186C11.4171 23.8304 11.5748 23.9881 11.6866 24.1917C11.7984 24.3953 11.8543 24.6309 11.8543 24.8983C11.8543 25.1778 11.7884 25.4253 11.6566 25.6409C11.5249 25.8565 11.3393 26.0241 11.0997 26.1439C10.8642 26.2637 10.5907 26.3235 10.2793 26.3235C10.0318 26.3235 9.79029 26.2856 9.55475 26.2098C9.31921 26.1339 9.11561 26.0281 8.94394 25.8924C8.88406 25.8485 8.84214 25.8026 8.81819 25.7547C8.79424 25.7028 8.78226 25.6409 8.78226 25.569C8.78226 25.4652 8.81021 25.3774 8.8661 25.3055C8.92598 25.2297 8.99784 25.1918 9.08167 25.1918C9.12958 25.1918 9.1735 25.1997 9.21342 25.2157C9.25334 25.2277 9.30524 25.2516 9.36911 25.2876C9.5288 25.3834 9.67452 25.4592 9.80626 25.5151C9.938 25.567 10.0817 25.593 10.2374 25.593C10.4809 25.593 10.6646 25.5371 10.7883 25.4253C10.9161 25.3135 10.98 25.1478 10.98 24.9283C10.98 24.7207 10.9141 24.557 10.7823 24.4372C10.6546 24.3175 10.4809 24.2576 10.2614 24.2576C10.1256 24.2576 10.0019 24.2756 9.89009 24.3115C9.77831 24.3434 9.65655 24.3993 9.52481 24.4792C9.44097 24.5271 9.35714 24.551 9.2733 24.551C9.17749 24.551 9.09565 24.5231 9.02778 24.4672C8.96391 24.4073 8.93197 24.3294 8.93197 24.2336V22.491C8.93197 22.3513 8.96989 22.2435 9.04574 22.1677C9.1216 22.0918 9.22939 22.0539 9.36911 22.0539H11.2973C11.5928 22.0539 11.7405 22.1717 11.7405 22.4072C11.7405 22.6467 11.5928 22.7665 11.2973 22.7665H9.84219V23.7067C10.0338 23.5989 10.2594 23.545 10.5189 23.545Z" fill="#474747"/>
<path d="M14.4586 25.0241C14.1752 25.0241 14.0334 24.9063 14.0334 24.6708C14.0334 24.4352 14.1752 24.3175 14.4586 24.3175H15.6323C15.9157 24.3175 16.0575 24.4352 16.0575 24.6708C16.0575 24.9063 15.9157 25.0241 15.6323 25.0241H14.4586Z" fill="#474747"/>
<path d="M20.0919 23.545C20.3514 23.545 20.583 23.6029 20.7866 23.7186C20.9902 23.8304 21.1479 23.9881 21.2597 24.1917C21.3714 24.3953 21.4273 24.6309 21.4273 24.8983C21.4273 25.1778 21.3615 25.4253 21.2297 25.6409C21.098 25.8565 20.9123 26.0241 20.6728 26.1439C20.4373 26.2637 20.1638 26.3235 19.8524 26.3235C19.6049 26.3235 19.3634 26.2856 19.1278 26.2098C18.8923 26.1339 18.6887 26.0281 18.517 25.8924C18.4571 25.8485 18.4152 25.8026 18.3913 25.7547C18.3673 25.7028 18.3553 25.6409 18.3553 25.569C18.3553 25.4652 18.3833 25.3774 18.4392 25.3055C18.4991 25.2297 18.5709 25.1918 18.6548 25.1918C18.7027 25.1918 18.7466 25.1997 18.7865 25.2157C18.8264 25.2277 18.8783 25.2516 18.9422 25.2876C19.1019 25.3834 19.2476 25.4592 19.3793 25.5151C19.5111 25.567 19.6548 25.593 19.8105 25.593C20.054 25.593 20.2377 25.5371 20.3614 25.4253C20.4892 25.3135 20.553 25.1478 20.553 24.9283C20.553 24.7207 20.4872 24.557 20.3554 24.4372C20.2277 24.3175 20.054 24.2576 19.8344 24.2576C19.6987 24.2576 19.575 24.2756 19.4632 24.3115C19.3514 24.3434 19.2296 24.3993 19.0979 24.4792C19.014 24.5271 18.9302 24.551 18.8464 24.551C18.7506 24.551 18.6687 24.5231 18.6009 24.4672C18.537 24.4073 18.505 24.3294 18.505 24.2336V22.491C18.505 22.3513 18.543 22.2435 18.6188 22.1677C18.6947 22.0918 18.8025 22.0539 18.9422 22.0539H20.8704C21.1658 22.0539 21.3136 22.1717 21.3136 22.4072C21.3136 22.6467 21.1658 22.7665 20.8704 22.7665H19.4153V23.7067C19.6069 23.5989 19.8324 23.545 20.0919 23.545Z" fill="#474747"/>
<path d="M23.2814 22C23.8283 22 24.2515 22.1816 24.5509 22.5449C24.8503 22.9082 25 23.4272 25 24.1019C25 24.553 24.9301 24.9482 24.7904 25.2876C24.6507 25.6229 24.4491 25.8804 24.1856 26.0601C23.9261 26.2397 23.6227 26.3295 23.2754 26.3295C23.0478 26.3295 22.8183 26.2916 22.5867 26.2158C22.3552 26.1399 22.1576 26.0341 21.9939 25.8984C21.938 25.8545 21.8961 25.8086 21.8681 25.7606C21.8442 25.7087 21.8322 25.6469 21.8322 25.575C21.8322 25.4712 21.8601 25.3834 21.916 25.3115C21.9759 25.2357 22.0478 25.1977 22.1316 25.1977C22.1835 25.1977 22.2274 25.2057 22.2634 25.2217C22.3033 25.2337 22.3552 25.2576 22.419 25.2936C22.5787 25.3894 22.7205 25.4652 22.8442 25.5211C22.972 25.573 23.1017 25.599 23.2335 25.599C23.481 25.599 23.6766 25.4852 23.8203 25.2576C23.968 25.0301 24.0519 24.7107 24.0718 24.2995C23.98 24.4512 23.8502 24.573 23.6826 24.6648C23.5149 24.7526 23.3273 24.7965 23.1197 24.7965C22.8722 24.7965 22.6506 24.7386 22.455 24.6229C22.2634 24.5071 22.1116 24.3454 21.9999 24.1378C21.8921 23.9302 21.8382 23.6947 21.8382 23.4312C21.8382 23.1557 21.9001 22.9102 22.0238 22.6946C22.1476 22.4751 22.3192 22.3054 22.5388 22.1856C22.7584 22.0619 23.0059 22 23.2814 22ZM23.3353 24.0719C23.5229 24.0719 23.6746 24.0101 23.7904 23.8863C23.9061 23.7626 23.964 23.6009 23.964 23.4013C23.964 23.2017 23.9061 23.04 23.7904 22.9162C23.6746 22.7885 23.5229 22.7246 23.3353 22.7246C23.1476 22.7246 22.9959 22.7865 22.8801 22.9102C22.7684 23.034 22.7125 23.1977 22.7125 23.4013C22.7125 23.6009 22.7684 23.7626 22.8801 23.8863C22.9959 24.0101 23.1476 24.0719 23.3353 24.0719Z" fill="#474747"/>
</g>
<defs>
<clipPath id="clip0">
<rect width="30" height="30" fill="white"/>
</clipPath>
</defs>
</svg>
