<svg width="30" height="30" viewBox="0 0 30 30" fill="none" xmlns="http://www.w3.org/2000/svg">
<g clip-path="url(#clip0)">
<path d="M17.7732 21.595L17.8248 21.5589C18.6869 20.9568 19.4065 20.173 19.9328 19.2626L20.2468 19.4396C20.3079 19.4739 20.3851 19.4539 20.4218 19.3943L20.871 18.6655C22.8628 15.4334 22.7417 11.3263 20.5627 8.21731C17.8434 4.33723 12.0959 4.33723 9.37661 8.21731C7.19769 11.3263 7.0765 15.4335 9.06835 18.6655L9.58323 19.501L10.0064 19.2626C10.5327 20.1729 11.2523 20.9568 12.1144 21.5588L12.1661 21.5949L13.6344 22.6983H16.6316L17.7732 21.595Z" fill="#A59CA6"/>
<path d="M16.4804 21.0757L19.3083 22.6026C20.9611 23.495 21.9911 25.2219 21.9911 27.1001V28.8274C21.9911 29.1705 21.7131 29.4486 21.37 29.4486H8.57037C8.22729 29.4486 7.94922 29.1705 7.94922 28.8274V27.1001C7.94922 25.2218 8.97932 23.495 10.632 22.6026L13.4599 21.0757L14.2898 20.7079H15.8581L16.4804 21.0757Z" fill="#B8DE9C"/>
<path d="M16.785 21.2402L16.4804 21.0757L15.8581 20.7079H14.2898L13.4599 21.0757L10.632 22.6026C8.97932 23.495 7.94922 25.2219 7.94922 27.1001V28.8274C7.94922 29.1705 8.22729 29.4485 8.57037 29.4485H9.85687C9.85529 29.4305 9.85411 29.4123 9.85411 29.3937V27.6664C9.85411 25.7882 10.8842 24.0613 12.5369 23.1689C12.7745 23.0406 13.0659 23.0906 13.2538 23.2847C13.6888 23.7342 14.298 24.014 14.9716 24.0136C16.2861 24.0129 17.3611 22.8894 17.3611 21.5749V21.5512L16.785 21.2402Z" fill="#A6D786"/>
<path d="M16.4814 21.6228C16.4814 22.4569 15.8052 23.133 14.9711 23.133C14.1371 23.133 13.4609 22.4568 13.4609 21.6228V17.4707H16.4814V21.6228H16.4814Z" fill="#FFD1C2"/>
<path d="M10.7109 13.1069V15.987C10.7109 18.3557 12.6312 20.276 15 20.276C17.3687 20.276 19.289 18.3557 19.289 15.987V11.563C19.289 11.2261 18.9011 11.0368 18.6355 11.2441L17.9618 11.7701C17.0235 12.5026 15.8673 12.9005 14.677 12.9005H10.9172C10.8033 12.9005 10.7109 12.9929 10.7109 13.1069Z" fill="#FFE0D1"/>
<path d="M14.5684 13.943C16.0436 13.943 17.4764 13.516 18.6392 12.7299L19.2871 12.2919V11.563C19.2871 11.2261 18.8992 11.0368 18.6336 11.2441L17.9599 11.7701C17.0216 12.5026 15.8654 12.9006 14.6751 12.9006H10.9153C10.8013 12.9006 10.709 12.9929 10.709 13.1069V13.9429H14.5684V13.943Z" fill="#FFD1C2"/>
<path d="M26.3765 6.91789C28.1346 6.91789 29.5597 5.49272 29.5597 3.7347C29.5597 1.97667 28.1346 0.551514 26.3765 0.551514C24.6185 0.551514 23.1934 1.97667 23.1934 3.7347C23.1934 5.49272 24.6185 6.91789 26.3765 6.91789Z" fill="#FBE88C"/>
<path d="M26.3765 26.7457C28.1346 26.7457 29.5597 25.3205 29.5597 23.5625C29.5597 21.8044 28.1346 20.3793 26.3765 20.3793C24.6185 20.3793 23.1934 21.8044 23.1934 23.5625C23.1934 25.3205 24.6185 26.7457 26.3765 26.7457Z" fill="#B3E5EE"/>
<path d="M26.8944 15.4278C27.877 15.4278 28.6736 14.6312 28.6736 13.6486C28.6736 12.666 27.877 11.8694 26.8944 11.8694C25.9118 11.8694 25.1152 12.666 25.1152 13.6486C25.1152 14.6312 25.9118 15.4278 26.8944 15.4278Z" fill="#E79098"/>
<path d="M3.62264 6.91789C5.38066 6.91789 6.80582 5.49272 6.80582 3.7347C6.80582 1.97667 5.38066 0.551514 3.62264 0.551514C1.86461 0.551514 0.439453 1.97667 0.439453 3.7347C0.439453 5.49272 1.86461 6.91789 3.62264 6.91789Z" fill="#FBE88C"/>
<path d="M25.1146 3.7347C25.1146 2.3115 26.0479 1.1062 27.3363 0.698771C27.0332 0.602889 26.7114 0.551514 26.3765 0.551514C24.6186 0.551514 23.1934 1.97665 23.1934 3.7347C23.1934 5.49269 24.6185 6.91783 26.3765 6.91783C26.7114 6.91783 27.034 6.86581 27.3372 6.76998C26.0487 6.36262 25.1146 5.1579 25.1146 3.7347Z" fill="#FBE372"/>
<path d="M2.36073 3.73562C2.36073 2.31242 3.29424 1.10752 4.58269 0.700159C4.27954 0.604277 3.95749 0.55249 3.62264 0.55249C1.86459 0.55249 0.439453 1.97763 0.439453 3.73562C0.439453 5.49361 1.86459 6.91874 3.62264 6.91874C3.95749 6.91874 4.28013 6.86678 4.58328 6.7709C3.29483 6.36353 2.36073 5.15881 2.36073 3.73562Z" fill="#FBE372"/>
<path d="M3.62264 26.7457C5.38066 26.7457 6.80582 25.3205 6.80582 23.5625C6.80582 21.8044 5.38066 20.3793 3.62264 20.3793C1.86461 20.3793 0.439453 21.8044 0.439453 23.5625C0.439453 25.3205 1.86461 26.7457 3.62264 26.7457Z" fill="#B3E5EE"/>
<path d="M25.1146 23.133C25.1146 21.9672 25.7425 20.9479 26.6774 20.3933C26.5786 20.3841 26.4778 20.3793 26.3766 20.3793C24.6186 20.3793 23.1934 21.8044 23.1934 23.5625C23.1934 25.3205 24.6185 26.7457 26.3766 26.7457C26.9688 26.7457 27.5239 26.5835 27.9987 26.3019C26.3815 26.1506 25.1146 24.7898 25.1146 23.133Z" fill="#86D7E5"/>
<path d="M2.36073 23.133C2.36073 21.9672 2.98846 20.9479 3.92332 20.3933C3.8245 20.3841 3.72386 20.3793 3.62258 20.3793C1.86459 20.3793 0.439453 21.8045 0.439453 23.5625C0.439453 25.3205 1.86459 26.7457 3.62264 26.7457C4.21484 26.7457 4.76964 26.5837 5.24453 26.3021C3.62734 26.1507 2.36073 24.7898 2.36073 23.133Z" fill="#86D7E5"/>
<path d="M3.10536 15.4278C4.08798 15.4278 4.88454 14.6312 4.88454 13.6486C4.88454 12.666 4.08798 11.8694 3.10536 11.8694C2.12274 11.8694 1.32617 12.666 1.32617 13.6486C1.32617 14.6312 2.12274 15.4278 3.10536 15.4278Z" fill="#E79098"/>
<path d="M26.2983 13.6486C26.2983 12.8738 26.7944 12.2149 27.4856 11.9707C27.3002 11.9053 27.1003 11.8695 26.8925 11.8695C25.9099 11.8695 25.1133 12.666 25.1133 13.6486C25.1133 14.6312 25.9098 15.4278 26.8925 15.4278C27.1003 15.4278 27.3002 15.3921 27.4856 15.3266C26.7944 15.0824 26.2983 14.4234 26.2983 13.6486Z" fill="#E17983"/>
<path d="M2.5111 13.6486C2.5111 12.8738 3.00631 12.2146 3.69756 11.9704C3.5122 11.905 3.31309 11.8695 3.1053 11.8695C2.1227 11.8695 1.32617 12.666 1.32617 13.6486C1.32617 14.6312 2.1227 15.4278 3.1053 15.4278C3.31309 15.4278 3.5132 15.392 3.69856 15.3265C3.00736 15.0824 2.5111 14.4234 2.5111 13.6486Z" fill="#E17983"/>
<path d="M8.88323 24.124C8.67379 24.0005 8.4037 24.07 8.28017 24.2795C7.77621 25.1337 7.50977 26.1091 7.50977 27.1002V29.4486C7.50977 29.6919 7.70693 29.889 7.95013 29.889C8.19333 29.889 8.39049 29.6919 8.39049 29.4486V27.1002C8.39049 26.2664 8.61461 25.4457 9.0387 24.727C9.16236 24.5175 9.09272 24.2475 8.88323 24.124Z" fill="black"/>
<path d="M19.5174 22.2152L18.452 21.6399C19.0851 21.1362 19.6405 20.5295 20.0854 19.8538L20.1403 19.8846C20.3464 20.0008 20.6073 19.9334 20.7313 19.732L21.2462 18.8965C22.5012 16.8601 22.98 14.4368 22.5946 12.0727C22.5554 11.8327 22.3292 11.6698 22.0891 11.709C21.8491 11.7481 21.6862 11.9744 21.7254 12.2144C22.0767 14.3694 21.6403 16.5784 20.4965 18.4345L20.2037 18.9095L20.1494 18.8789C19.939 18.7605 19.6727 18.8333 19.552 19.0421C19.0665 19.8819 18.3915 20.6201 17.599 21.1792L16.9207 20.8129V20.3069C18.5734 19.5689 19.7288 17.9108 19.7288 15.9869V11.5629C19.7288 11.2373 19.5471 10.9464 19.2544 10.8036C18.9618 10.6607 18.6206 10.6966 18.3639 10.8969L17.6902 11.4229C17.1079 11.8775 16.4267 12.193 15.7089 12.3485L16.8187 11.0155C16.9743 10.8286 16.9489 10.551 16.762 10.3954C16.5751 10.2398 16.2974 10.2652 16.1419 10.452L14.47 12.4601H12.8785L14.0561 11.0116C14.2095 10.8228 14.181 10.5455 13.9922 10.3921C13.8036 10.2387 13.5262 10.2673 13.3728 10.456L11.7435 12.4601H10.9167C10.5602 12.4601 10.27 12.7502 10.27 13.1068V15.9869C10.27 17.888 11.3981 19.5295 13.0195 20.2803V20.8129L12.3412 21.1792C11.5486 20.6201 10.8736 19.8819 10.3882 19.0421C10.2674 18.8332 10.0011 18.7604 9.79082 18.8789L9.73645 18.9095L9.44369 18.4345C7.54226 15.3491 7.65769 11.4379 9.73762 8.47C10.9502 6.73984 12.8573 5.74755 14.9701 5.74755C17.0828 5.74755 18.99 6.73984 20.2025 8.47C20.6261 9.07435 20.9759 9.73273 21.2423 10.4269C21.3294 10.6539 21.5842 10.7672 21.8112 10.6802C22.0382 10.5931 22.1517 10.3384 22.0645 10.1114C21.7724 9.35008 21.3887 8.62777 20.9238 7.96452C19.5441 5.99591 17.3741 4.86682 14.9701 4.86682C12.5662 4.86682 10.3962 5.99586 9.01648 7.96452C6.73451 11.2206 6.60792 15.5117 8.69396 18.8966L9.20883 19.732C9.33284 19.9334 9.59377 20.0008 9.79986 19.8847L9.85476 19.8538C10.2996 20.5295 10.8551 21.1363 11.4883 21.6399L10.4228 22.2152C10.146 22.3646 9.88042 22.5387 9.63317 22.7326C9.44181 22.8827 9.40834 23.1595 9.55848 23.3508C9.64532 23.4616 9.77467 23.5194 9.90525 23.5194C10.0004 23.5194 10.0961 23.4888 10.1768 23.4255C10.3847 23.2624 10.6084 23.1159 10.8413 22.9901L13.0287 21.809C13.1228 22.7974 13.9575 23.5733 14.9703 23.5733C15.983 23.5733 16.8177 22.7974 16.9118 21.809L19.0992 22.9901C20.6115 23.8066 21.5509 25.3815 21.5509 27.1V29.4485C21.5509 29.6918 21.748 29.8889 21.9912 29.8889C22.2344 29.8889 22.4316 29.6918 22.4316 29.4485V27.1C22.4313 25.0575 21.3148 23.1857 19.5174 22.2152ZM11.1507 15.987V13.341H14.6763C15.9586 13.341 17.2214 12.9065 18.2322 12.1173L18.848 11.6365V15.9871C18.848 18.1093 17.1215 19.8358 14.9994 19.8358C12.8772 19.8358 11.1507 18.1092 11.1507 15.987ZM14.97 22.6926C14.3801 22.6926 13.9001 22.2127 13.9001 21.6228V20.5861C14.2531 20.6705 14.6209 20.7165 14.9994 20.7165C15.357 20.7165 15.7048 20.6752 16.0399 20.5997V21.6228C16.0399 22.2127 15.5599 22.6926 14.97 22.6926Z" fill="black"/>
<path d="M21.9913 8.08444C22.0955 8.08444 22.2002 8.04762 22.2842 7.97276L23.9863 6.45521C24.6247 7.01664 25.461 7.35825 26.376 7.35825C28.374 7.35825 29.9995 5.73272 29.9995 3.7347C29.9995 1.73674 28.374 0.111206 26.376 0.111206C24.378 0.111206 22.7525 1.73674 22.7525 3.7347C22.7525 4.50105 22.9923 5.21215 23.3999 5.79818L21.6981 7.31544C21.5165 7.47726 21.5006 7.75563 21.6624 7.93718C21.7494 8.0347 21.8701 8.08444 21.9913 8.08444ZM26.376 0.991934C27.8884 0.991934 29.1188 2.22231 29.1188 3.7347C29.1188 5.24708 27.8884 6.47752 26.376 6.47752C24.8636 6.47752 23.6332 5.24708 23.6332 3.7347C23.6332 2.22231 24.8636 0.991934 26.376 0.991934Z" fill="black"/>
<path d="M26.376 19.939C25.461 19.939 24.6247 20.2806 23.9863 20.842L22.2842 19.3244C22.1027 19.1626 21.8243 19.1786 21.6624 19.36C21.5006 19.5416 21.5165 19.8199 21.6981 19.9818L23.3999 21.499C22.9923 22.0851 22.7525 22.7961 22.7525 23.5625C22.7525 25.5605 24.378 27.186 26.376 27.186C28.374 27.186 29.9995 25.5605 29.9995 23.5625C29.9995 21.5645 28.374 19.939 26.376 19.939ZM26.376 26.3053C24.8636 26.3053 23.6332 25.0749 23.6332 23.5625C23.6332 22.0501 24.8637 20.8197 26.376 20.8197C27.8884 20.8197 29.1188 22.0501 29.1188 23.5625C29.1188 25.0749 27.8884 26.3053 26.376 26.3053Z" fill="black"/>
<path d="M26.8943 11.4291C25.8212 11.4291 24.9237 12.1947 24.7188 13.2083H24.1689C23.9257 13.2083 23.7285 13.4054 23.7285 13.6486C23.7285 13.8919 23.9257 14.089 24.1689 14.089H24.7188C24.9237 15.1026 25.8212 15.8681 26.8943 15.8681C28.1182 15.8681 29.1138 14.8725 29.1138 13.6486C29.1138 12.4248 28.1181 11.4291 26.8943 11.4291ZM26.8943 14.9873C26.1561 14.9873 25.5555 14.3867 25.5555 13.6486C25.5555 12.9103 26.1561 12.3097 26.8943 12.3097C27.6326 12.3097 28.2331 12.9103 28.2331 13.6486C28.2331 14.3868 27.6325 14.9873 26.8943 14.9873Z" fill="black"/>
<path d="M3.62355 7.35825C4.53857 7.35825 5.37479 7.01664 6.0132 6.45521L7.71535 7.97276C7.79932 8.04762 7.90395 8.08444 8.00828 8.08444C8.12941 8.08444 8.25013 8.03465 8.33715 7.93712C8.49897 7.75557 8.48305 7.4772 8.30151 7.31538L6.59971 5.79818C7.00725 5.21215 7.2471 4.50111 7.2471 3.73476C7.2471 3.253 7.15362 2.78445 6.96932 2.34209C6.87578 2.11762 6.61791 2.01152 6.39344 2.105C6.16891 2.19853 6.06281 2.45635 6.15635 2.68088C6.29574 3.01532 6.36637 3.3699 6.36637 3.73476C6.36637 5.24714 5.13594 6.47752 3.62361 6.47752C2.11116 6.47752 0.880728 5.24714 0.880728 3.73476C0.880728 2.22231 2.11116 0.991875 3.62355 0.991875C4.14793 0.991875 4.65823 1.14107 5.09912 1.42331C5.30398 1.55448 5.5763 1.49471 5.70741 1.28985C5.83852 1.08506 5.77875 0.812676 5.57395 0.681624C4.99097 0.308489 4.31651 0.111206 3.62355 0.111206C1.62553 0.111147 0 1.73674 0 3.73476C0 5.73272 1.62553 7.35825 3.62355 7.35825Z" fill="black"/>
<path d="M8.30145 19.9818C8.483 19.82 8.49891 19.5416 8.33709 19.3601C8.17521 19.1785 7.8969 19.1626 7.71535 19.3245L6.0132 20.8421C5.37479 20.2806 4.53857 19.939 3.62355 19.939C1.62553 19.939 0 21.5645 0 23.5625C0 25.5605 1.62553 27.186 3.62355 27.186C5.62157 27.186 7.24704 25.5605 7.24704 23.5625C7.24704 22.7962 7.00725 22.0851 6.59965 21.499L8.30145 19.9818ZM3.62355 26.3053C2.11116 26.3053 0.880728 25.0749 0.880728 23.5625C0.880728 22.0501 2.11116 20.8197 3.62355 20.8197C5.13594 20.8197 6.36631 22.0501 6.36631 23.5625C6.36631 25.0749 5.13594 26.3053 3.62355 26.3053Z" fill="black"/>
<path d="M5.28173 13.2083C5.07687 12.1947 4.17929 11.4291 3.10621 11.4291C1.88235 11.4291 0.886719 12.4248 0.886719 13.6486C0.886719 14.8725 1.88241 15.8681 3.10621 15.8681C4.17929 15.8681 5.07687 15.1026 5.28173 14.089H5.83165C6.07485 14.089 6.27202 13.8919 6.27202 13.6486C6.27202 13.4054 6.07485 13.2083 5.83165 13.2083H5.28173ZM3.10621 14.9873C2.36799 14.9873 1.76745 14.3867 1.76745 13.6486C1.76745 12.9103 2.36804 12.3097 3.10621 12.3097C3.84438 12.3097 4.44504 12.9103 4.44504 13.6486C4.44498 14.3868 3.84438 14.9873 3.10621 14.9873Z" fill="black"/>
</g>
<defs>
<clipPath id="clip0">
<rect width="30" height="30" fill="white"/>
</clipPath>
</defs>
</svg>
