<svg width="51" height="58" viewBox="0 0 51 58" fill="none" xmlns="http://www.w3.org/2000/svg">
<path d="M40.895 17.9344C40.4423 18.0673 40.1882 18.5254 40.3273 18.9576C40.78 20.3632 41.0096 21.8293 41.0096 23.3151C41.0096 28.2417 38.4529 32.8317 34.1704 35.5935C31.7214 37.1729 30.173 39.7319 29.9206 42.5525H28.4332V34.2847L32.3461 30.6688C32.6863 30.3543 32.6952 29.8361 32.3658 29.5113C32.0364 29.1865 31.4936 29.178 31.1531 29.4924L30.529 30.0692L29.2712 29.62C29.0774 29.5507 28.8641 29.5507 28.6703 29.62L27.2346 30.1327L25.7994 29.62C25.6055 29.5507 25.3921 29.5507 25.1982 29.62L23.763 30.1327L22.3278 29.62C22.1339 29.5507 21.9204 29.5507 21.7266 29.62L20.4693 30.0691L19.8453 29.4924C19.5049 29.1779 18.9619 29.1864 18.6326 29.5113C18.3032 29.8361 18.312 30.3543 18.6523 30.6688L22.5652 34.2847V42.5525H21.0769C20.8196 39.7459 19.2471 37.1715 16.7606 35.5499C12.5913 32.8308 10.0603 28.3356 9.99015 23.5253C9.93183 19.5199 11.5525 15.7356 14.5537 12.8698C17.555 10.0039 21.5193 8.45343 25.7143 8.50987C31.1168 8.57987 36.0082 11.2648 38.7993 15.6921C39.0434 16.0795 39.5704 16.2044 39.9762 15.9714C40.3821 15.7383 40.513 15.2353 40.2687 14.8478C38.7838 12.4921 36.686 10.512 34.2023 9.1213C31.6438 7.68888 28.7168 6.91131 25.7374 6.87259C21.0754 6.81309 16.6719 8.53087 13.3406 11.7121C10.0093 14.8933 8.21017 19.0967 8.27514 23.548C8.35294 28.8902 11.1633 33.8823 15.793 36.9017C17.81 38.2172 19.1001 40.2875 19.3526 42.5524H17.2035C16.2044 42.5524 15.3916 43.3284 15.3916 44.282V46.0454C15.3916 46.9992 16.2044 47.775 17.2035 47.775H17.6056C17.6039 47.8058 17.6007 47.836 17.6007 47.8672V49.6307C17.6007 50.581 18.4079 51.3543 19.4021 51.3598C19.4251 52.0777 19.5823 52.7752 19.8735 53.4352C20.0573 53.852 20.5604 54.0476 20.9966 53.872C21.4332 53.6965 21.638 53.2165 21.4542 52.7997C21.2523 52.342 21.1391 51.8585 21.1168 51.3602H29.8816C29.7804 53.5842 27.8534 55.3639 25.4992 55.3639C24.8744 55.3639 24.2715 55.2414 23.7067 54.9997C23.275 54.8149 22.7672 54.9991 22.5733 55.4118C22.3796 55.8244 22.5728 56.3088 23.005 56.4938C23.7919 56.8305 24.631 57.0013 25.4992 57.0013C28.7993 57.0013 31.4941 54.4869 31.596 51.3598C32.5902 51.3544 33.3976 50.5811 33.3976 49.6307V47.8672C33.3976 47.836 33.3944 47.8058 33.3926 47.775H33.7948C34.7938 47.775 35.6066 46.9992 35.6066 46.0454V44.282C35.6066 43.3284 34.7938 42.5524 33.7948 42.5524H31.6443C31.8905 40.2781 33.1541 38.2248 35.1306 36.9502C39.8858 33.8834 42.7248 28.7863 42.7248 23.3151C42.7248 21.666 42.4698 20.0381 41.9669 18.4764C41.8274 18.0442 41.3476 17.8018 40.895 17.9344ZM21.8335 31.33L22.027 31.2609L23.4622 31.7736C23.6561 31.8429 23.8695 31.8429 24.0634 31.7736L25.4986 31.2609L26.9338 31.7736C27.1277 31.8429 27.3413 31.8429 27.5349 31.7736L28.9706 31.2609L29.1643 31.3301L26.9789 33.3497C26.812 33.5039 26.7177 33.7162 26.7177 33.9379V42.5525H24.2798V33.9379C24.2798 33.7162 24.1855 33.5039 24.0187 33.3497L21.8335 31.33ZM31.6822 49.6308C31.6822 49.6817 31.6389 49.723 31.5856 49.723H19.4123C19.359 49.723 19.3157 49.6817 19.3157 49.6308V47.8673C19.3157 47.8165 19.359 47.7751 19.4123 47.7751H31.5856C31.6389 47.7751 31.6822 47.8165 31.6822 47.8673V49.6308ZM33.7947 44.1898C33.848 44.1898 33.8913 44.2312 33.8913 44.282V46.0454C33.8913 46.0963 33.848 46.1377 33.7947 46.1377H17.2032C17.15 46.1377 17.1066 46.0963 17.1066 46.0454V44.282C17.1066 44.2312 17.15 44.1898 17.2032 44.1898H33.7947Z" fill="url(#paint0_linear)" stroke="url(#paint1_linear)" stroke-width="0.5"/>
<path d="M25.4983 4.40987C25.9719 4.40987 26.3559 4.04334 26.3559 3.59117V1.8187C26.3559 1.36653 25.9719 1 25.4983 1C25.0246 1 24.6406 1.36653 24.6406 1.8187V3.59117C24.6406 4.04334 25.0246 4.40987 25.4983 4.40987Z" fill="url(#paint2_linear)" stroke="url(#paint3_linear)" stroke-width="0.5"/>
<path d="M13.8617 6.78658C14.0205 7.04919 14.3088 7.19609 14.6052 7.19609C14.7507 7.19609 14.8982 7.16065 15.0333 7.08627C15.4435 6.86019 15.584 6.35956 15.3472 5.96799L14.4188 4.43297C14.1821 4.04129 13.6572 3.90719 13.2473 4.13328C12.8372 4.35936 12.6966 4.85999 12.9334 5.25156L13.8617 6.78658Z" fill="url(#paint4_linear)" stroke="url(#paint5_linear)" stroke-width="0.5"/>
<path d="M7.06246 13.2852L5.45446 12.399C5.04404 12.1728 4.51973 12.307 4.28301 12.6986C4.04617 13.0902 4.18676 13.5908 4.59695 13.8169L6.20495 14.7032C6.34004 14.7777 6.4875 14.813 6.63302 14.813C6.92944 14.813 7.21772 14.6661 7.37652 14.4035C7.61324 14.0121 7.47265 13.5114 7.06246 13.2852Z" fill="url(#paint6_linear)" stroke="url(#paint7_linear)" stroke-width="0.5"/>
<path d="M46.4042 34.9649L44.7962 34.0786C44.3862 33.8524 43.8616 33.9867 43.6248 34.3783C43.388 34.7699 43.5286 35.2705 43.9387 35.4966L45.5467 36.3829C45.6817 36.4574 45.8293 36.4927 45.9748 36.4927C46.2711 36.4927 46.5594 36.3458 46.7183 36.0832C46.9549 35.6917 46.8143 35.191 46.4042 34.9649Z" fill="url(#paint8_linear)" stroke="url(#paint9_linear)" stroke-width="0.5"/>
<path d="M4.57199 24.389C4.57199 23.9368 4.18804 23.5703 3.71437 23.5703H1.85762C1.38395 23.5703 1 23.9368 1 24.389C1 24.8412 1.38395 25.2077 1.85762 25.2077H3.71437C4.18804 25.2077 4.57199 24.8412 4.57199 24.389Z" fill="url(#paint10_linear)" stroke="url(#paint11_linear)" stroke-width="0.5"/>
<path d="M49.1421 23.5703H47.2854C46.8117 23.5703 46.4277 23.9368 46.4277 24.389C46.4277 24.8412 46.8117 25.2077 47.2854 25.2077H49.1421C49.6158 25.2077 49.9997 24.8412 49.9997 24.389C49.9997 23.9368 49.6158 23.5703 49.1421 23.5703Z" fill="url(#paint12_linear)" stroke="url(#paint13_linear)" stroke-width="0.5"/>
<path d="M6.20495 34.0785L4.59695 34.9648C4.18676 35.1909 4.04617 35.6916 4.28301 36.0831C4.44193 36.3457 4.73009 36.4926 5.02651 36.4926C5.17202 36.4926 5.31949 36.4572 5.45457 36.3828L7.06257 35.4965C7.47277 35.2704 7.61335 34.7697 7.37652 34.3782C7.13957 33.9866 6.61492 33.8526 6.20495 34.0785Z" fill="url(#paint14_linear)" stroke="url(#paint15_linear)" stroke-width="0.5"/>
<path d="M44.3682 14.813C44.5137 14.813 44.6612 14.7775 44.7963 14.7031L46.4043 13.8169C46.8144 13.5908 46.955 13.09 46.7182 12.6986C46.4812 12.307 45.9566 12.1728 45.5467 12.3989L43.9388 13.2852C43.5286 13.5113 43.388 14.012 43.6248 14.4035C43.7836 14.6661 44.0719 14.813 44.3682 14.813Z" fill="url(#paint16_linear)" stroke="url(#paint17_linear)" stroke-width="0.5"/>
<path d="M35.964 7.0863C36.0991 7.16078 36.2466 7.19611 36.3921 7.19611C36.6884 7.19611 36.9768 7.04922 37.1356 6.7866L38.064 5.25158C38.3009 4.86001 38.1603 4.35928 37.7501 4.1333C37.3397 3.90711 36.8153 4.04142 36.5786 4.433L35.6502 5.96801C35.4134 6.35959 35.554 6.86032 35.964 7.0863Z" fill="url(#paint18_linear)" stroke="url(#paint19_linear)" stroke-width="0.5"/>
<defs>
<linearGradient id="paint0_linear" x1="12.1014" y1="33.8643" x2="39.8539" y2="33.8643" gradientUnits="userSpaceOnUse">
<stop stop-color="#824C99"/>
<stop offset="1" stop-color="#EF3795"/>
</linearGradient>
<linearGradient id="paint1_linear" x1="12.1014" y1="33.8643" x2="39.8539" y2="33.8643" gradientUnits="userSpaceOnUse">
<stop stop-color="#824C99"/>
<stop offset="1" stop-color="#EF3795"/>
</linearGradient>
<linearGradient id="paint2_linear" x1="24.8312" y1="2.83608" x2="26.2129" y2="2.83608" gradientUnits="userSpaceOnUse">
<stop stop-color="#824C99"/>
<stop offset="1" stop-color="#EF3795"/>
</linearGradient>
<linearGradient id="paint3_linear" x1="24.8312" y1="2.83608" x2="26.2129" y2="2.83608" gradientUnits="userSpaceOnUse">
<stop stop-color="#824C99"/>
<stop offset="1" stop-color="#EF3795"/>
</linearGradient>
<linearGradient id="paint4_linear" x1="13.1121" y1="5.73179" x2="15.2419" y2="5.73179" gradientUnits="userSpaceOnUse">
<stop stop-color="#824C99"/>
<stop offset="1" stop-color="#EF3795"/>
</linearGradient>
<linearGradient id="paint5_linear" x1="13.1121" y1="5.73179" x2="15.2419" y2="5.73179" gradientUnits="userSpaceOnUse">
<stop stop-color="#824C99"/>
<stop offset="1" stop-color="#EF3795"/>
</linearGradient>
<linearGradient id="paint6_linear" x1="4.53725" y1="13.6481" x2="7.21452" y2="13.6481" gradientUnits="userSpaceOnUse">
<stop stop-color="#824C99"/>
<stop offset="1" stop-color="#EF3795"/>
</linearGradient>
<linearGradient id="paint7_linear" x1="4.53725" y1="13.6481" x2="7.21452" y2="13.6481" gradientUnits="userSpaceOnUse">
<stop stop-color="#824C99"/>
<stop offset="1" stop-color="#EF3795"/>
</linearGradient>
<linearGradient id="paint8_linear" x1="43.879" y1="35.3278" x2="46.5562" y2="35.3278" gradientUnits="userSpaceOnUse">
<stop stop-color="#824C99"/>
<stop offset="1" stop-color="#EF3795"/>
</linearGradient>
<linearGradient id="paint9_linear" x1="43.879" y1="35.3278" x2="46.5562" y2="35.3278" gradientUnits="userSpaceOnUse">
<stop stop-color="#824C99"/>
<stop offset="1" stop-color="#EF3795"/>
</linearGradient>
<linearGradient id="paint10_linear" x1="1.39689" y1="24.452" x2="4.27432" y2="24.452" gradientUnits="userSpaceOnUse">
<stop stop-color="#824C99"/>
<stop offset="1" stop-color="#EF3795"/>
</linearGradient>
<linearGradient id="paint11_linear" x1="1.39689" y1="24.452" x2="4.27432" y2="24.452" gradientUnits="userSpaceOnUse">
<stop stop-color="#824C99"/>
<stop offset="1" stop-color="#EF3795"/>
</linearGradient>
<linearGradient id="paint12_linear" x1="46.8246" y1="24.452" x2="49.7021" y2="24.452" gradientUnits="userSpaceOnUse">
<stop stop-color="#824C99"/>
<stop offset="1" stop-color="#EF3795"/>
</linearGradient>
<linearGradient id="paint13_linear" x1="46.8246" y1="24.452" x2="49.7021" y2="24.452" gradientUnits="userSpaceOnUse">
<stop stop-color="#824C99"/>
<stop offset="1" stop-color="#EF3795"/>
</linearGradient>
<linearGradient id="paint14_linear" x1="4.53726" y1="35.3278" x2="7.21459" y2="35.3278" gradientUnits="userSpaceOnUse">
<stop stop-color="#824C99"/>
<stop offset="1" stop-color="#EF3795"/>
</linearGradient>
<linearGradient id="paint15_linear" x1="4.53726" y1="35.3278" x2="7.21459" y2="35.3278" gradientUnits="userSpaceOnUse">
<stop stop-color="#824C99"/>
<stop offset="1" stop-color="#EF3795"/>
</linearGradient>
<linearGradient id="paint16_linear" x1="43.879" y1="13.6481" x2="46.5563" y2="13.6481" gradientUnits="userSpaceOnUse">
<stop stop-color="#824C99"/>
<stop offset="1" stop-color="#EF3795"/>
</linearGradient>
<linearGradient id="paint17_linear" x1="43.879" y1="13.6481" x2="46.5563" y2="13.6481" gradientUnits="userSpaceOnUse">
<stop stop-color="#824C99"/>
<stop offset="1" stop-color="#EF3795"/>
</linearGradient>
<linearGradient id="paint18_linear" x1="35.8289" y1="5.7318" x2="37.9587" y2="5.7318" gradientUnits="userSpaceOnUse">
<stop stop-color="#824C99"/>
<stop offset="1" stop-color="#EF3795"/>
</linearGradient>
<linearGradient id="paint19_linear" x1="35.8289" y1="5.7318" x2="37.9587" y2="5.7318" gradientUnits="userSpaceOnUse">
<stop stop-color="#824C99"/>
<stop offset="1" stop-color="#EF3795"/>
</linearGradient>
</defs>
</svg>
