<svg width="23" height="23" viewBox="0 0 23 23" fill="none" xmlns="http://www.w3.org/2000/svg">
<path d="M21.2906 6.54647C21.1492 5.47342 20.5794 4.32134 19.6269 3.36474C18.6745 2.4123 17.5224 1.84665 16.4452 1.70524C15.9586 1.64286 15.3098 1.37251 14.9188 1.07306C14.062 0.411754 12.8476 0 11.4958 0C10.1441 0 8.92966 0.411754 8.06872 1.07306C7.67776 1.37251 7.02893 1.6387 6.54232 1.70524C5.46926 1.84665 4.31718 2.4123 3.36474 3.3689C2.4123 4.32134 1.8425 5.47342 1.70109 6.55063C1.6387 7.03725 1.36835 7.68608 1.0689 8.07703C0.411754 8.93382 0 10.1483 0 11.4958C0 12.8476 0.411754 14.062 1.07306 14.923C1.37251 15.3139 1.6387 15.9627 1.70524 16.4494C1.84665 17.5224 2.41646 18.6745 3.3689 19.6311C4.32134 20.5835 5.47342 21.1533 6.54647 21.2948C7.03309 21.3571 7.68192 21.6275 8.07288 21.9269C8.93382 22.5882 10.1483 23 11.5 23C12.8517 23 14.0662 22.5882 14.9271 21.9269C15.3181 21.6275 15.9669 21.3613 16.4535 21.2948C17.5266 21.1533 18.6787 20.5835 19.6311 19.6311C20.5835 18.6787 21.1533 17.5266 21.2948 16.4494C21.3571 15.9627 21.6275 15.3139 21.9269 14.923C22.5882 14.062 23 12.8476 23 11.4958C23 10.1441 22.5882 8.92966 21.9269 8.06872C21.6233 7.68192 21.353 7.03309 21.2906 6.54647ZM12.8725 18.0174C12.8725 18.3002 12.6438 18.5248 12.3651 18.5248H10.7139C10.4311 18.5248 10.2065 18.296 10.2065 18.0174V16.3703C10.2065 16.0875 10.4353 15.8629 10.7139 15.8629H12.3651C12.6479 15.8629 12.8725 16.0917 12.8725 16.3703V18.0174ZM15.9919 10.1358C15.6591 10.6599 14.9479 11.3752 13.8624 12.2819C13.3009 12.7519 12.9474 13.1262 12.8143 13.4132C12.7145 13.6253 12.6521 13.9664 12.6354 14.4322C12.623 14.715 12.4025 14.9396 12.1197 14.9396H10.7181C10.4353 14.9396 10.2065 14.7982 10.2024 14.6235C10.1982 14.4613 10.1982 14.3532 10.1982 14.3074C10.1982 13.5213 10.3271 12.8767 10.5892 12.3693C10.847 11.8618 11.3669 11.292 12.1447 10.6599C12.9224 10.0277 13.3882 9.61175 13.538 9.41628C13.7709 9.10434 13.8873 8.76329 13.8873 8.38897C13.8873 7.86908 13.6794 7.42405 13.2676 7.05389C12.8517 6.68373 12.2944 6.49656 11.5915 6.49656C11.109 6.49656 10.6848 6.59638 10.3146 6.79186C10.0651 6.92495 9.71573 7.22441 9.54521 7.44901C9.35805 7.69855 9.20416 8.00217 9.0877 8.35154C9.00036 8.61772 8.73002 8.8132 8.45136 8.77993L7.0123 8.60108C6.73363 8.56781 6.51736 8.30995 6.56727 8.03544C6.73363 7.12043 7.1953 6.32604 7.95642 5.65642C8.85063 4.86618 10.0277 4.47107 11.4834 4.47107C13.0139 4.47107 14.2325 4.87034 15.1392 5.67306C16.0459 6.47161 16.4951 7.40741 16.4951 8.46799C16.491 9.05443 16.3246 9.60759 15.9919 10.1358Z" fill="#666666"/>
</svg>
