<svg width="30" height="30" viewBox="0 0 30 30" fill="none" xmlns="http://www.w3.org/2000/svg">
<path d="M6.25 6.25C7.97589 6.25 9.375 4.85089 9.375 3.125C9.375 1.39911 7.97589 0 6.25 0C4.52411 0 3.125 1.39911 3.125 3.125C3.125 4.85089 4.52411 6.25 6.25 6.25Z" fill="#2196F3"/>
<path d="M9.0625 7.5H3.4375C1.54125 7.5 0 9.04125 0 10.9375V11.5625C0 12.08 0.42 12.5 0.9375 12.5H11.5625C12.08 12.5 12.5 12.08 12.5 11.5625V10.9375C12.5 9.04125 10.9588 7.5 9.0625 7.5Z" fill="#2196F3"/>
<path d="M23.75 23.75C22.0275 23.75 20.625 22.3475 20.625 20.625C20.625 18.9025 22.0275 17.5 23.75 17.5C25.4725 17.5 26.875 18.9025 26.875 20.625C26.875 22.3475 25.4725 23.75 23.75 23.75Z" fill="#4CD4B4"/>
<path d="M29.0625 30H18.4375C17.92 30 17.5 29.58 17.5 29.0625V28.4375C17.5 26.5413 19.0413 25 20.9375 25H26.5625C28.4588 25 30 26.5413 30 28.4375V29.0625C30 29.58 29.58 30 29.0625 30Z" fill="#4CD4B4"/>
<path fill-rule="evenodd" clip-rule="evenodd" d="M25.3133 13.4501C24.9615 13.4501 24.6758 13.1644 24.6758 12.8126V7.18755C24.6758 6.16061 23.8402 5.32505 22.8133 5.32505H13.4383C13.0865 5.32505 12.8008 5.03936 12.8008 4.68755C12.8008 4.33573 13.0865 4.05005 13.4383 4.05005H22.8133C24.5438 4.05005 25.9508 5.45698 25.9508 7.18755V12.8126C25.9508 13.1644 25.6651 13.4501 25.3133 13.4501Z" fill="#666666"/>
<path fill-rule="evenodd" clip-rule="evenodd" d="M25.313 13.45C25.149 13.45 24.9868 13.3879 24.8633 13.2636L22.6751 11.0754C22.426 10.8263 22.426 10.4225 22.6751 10.1734C22.9242 9.9243 23.328 9.9243 23.5771 10.1734L25.3142 11.9105L27.0514 10.1734C27.3004 9.9243 27.7042 9.9243 27.9533 10.1734C28.2024 10.4225 28.2024 10.8263 27.9533 11.0754L25.7662 13.2625C25.6395 13.3882 25.4764 13.45 25.313 13.45Z" fill="#666666"/>
<path fill-rule="evenodd" clip-rule="evenodd" d="M14.0633 25.9501H7.18828C5.45772 25.9501 4.05078 24.5431 4.05078 22.8126V17.1875C4.05078 16.8357 4.33647 16.55 4.68828 16.55C5.0401 16.55 5.32578 16.8357 5.32578 17.1875V22.8126C5.32578 23.8395 6.16135 24.6751 7.18828 24.6751H14.0633C14.4151 24.6751 14.7008 24.9607 14.7008 25.3126C14.7008 25.6644 14.4151 25.9501 14.0633 25.9501Z" fill="#666666"/>
<path fill-rule="evenodd" clip-rule="evenodd" d="M6.87672 20.0125C6.71274 20.0125 6.55057 19.9504 6.42708 19.8261L4.68922 18.0882L2.95209 19.8254C2.70299 20.0745 2.29919 20.0745 2.0501 19.8254C1.80101 19.5763 1.80101 19.1725 2.0501 18.9234L4.2376 16.7359C4.48669 16.4868 4.8905 16.4868 5.13959 16.7359L7.32709 18.9234C7.57618 19.1725 7.57618 19.5763 7.32709 19.8254L7.32637 19.8261C7.20287 19.9504 7.0407 20.0125 6.87672 20.0125Z" fill="#666666"/>
<path d="M6.25 6.25C4.5275 6.25 3.125 4.8475 3.125 3.125C3.125 1.4025 4.5275 0 6.25 0C7.9725 0 9.375 1.4025 9.375 3.125C9.375 4.8475 7.9725 6.25 6.25 6.25ZM6.25 1.875C5.56125 1.875 5 2.43625 5 3.125C5 3.81375 5.56125 4.375 6.25 4.375C6.93875 4.375 7.5 3.81375 7.5 3.125C7.5 2.43625 6.93875 1.875 6.25 1.875Z" fill="#666666"/>
<path d="M11.5625 12.5C11.045 12.5 10.625 12.08 10.625 11.5625V10.9375C10.625 10.0763 9.92375 9.375 9.0625 9.375H3.4375C2.57625 9.375 1.875 10.0763 1.875 10.9375V11.5625C1.875 12.08 1.455 12.5 0.9375 12.5C0.42 12.5 0 12.08 0 11.5625V10.9375C0 9.04125 1.54125 7.5 3.4375 7.5H9.0625C10.9588 7.5 12.5 9.04125 12.5 10.9375V11.5625C12.5 12.08 12.08 12.5 11.5625 12.5Z" fill="#666666"/>
<path d="M23.75 23.75C22.0275 23.75 20.625 22.3475 20.625 20.625C20.625 18.9025 22.0275 17.5 23.75 17.5C25.4725 17.5 26.875 18.9025 26.875 20.625C26.875 22.3475 25.4725 23.75 23.75 23.75ZM23.75 19.375C23.0613 19.375 22.5 19.9363 22.5 20.625C22.5 21.3138 23.0613 21.875 23.75 21.875C24.4388 21.875 25 21.3138 25 20.625C25 19.9363 24.4388 19.375 23.75 19.375Z" fill="#666666"/>
<path d="M29.0625 30C28.545 30 28.125 29.58 28.125 29.0625V28.4375C28.125 27.5763 27.4238 26.875 26.5625 26.875H20.9375C20.0763 26.875 19.375 27.5763 19.375 28.4375V29.0625C19.375 29.58 18.955 30 18.4375 30C17.92 30 17.5 29.58 17.5 29.0625V28.4375C17.5 26.5413 19.0413 25 20.9375 25H26.5625C28.4588 25 30 26.5413 30 28.4375V29.0625C30 29.58 29.58 30 29.0625 30Z" fill="#666666"/>
</svg>
