<svg width="10" height="5" viewBox="0 0 10 5" fill="none" xmlns="http://www.w3.org/2000/svg">
<path d="M4.67857 0.122051L0.133119 4.28871C0.0695534 4.34699 0.026266 4.42123 0.00873084 4.50206C-0.00880436 4.58288 0.000200157 4.66666 0.0346055 4.74279C0.0690109 4.81893 0.127272 4.884 0.202022 4.92978C0.276771 4.97556 0.364652 5 0.454552 5L9.54545 5C9.63535 5 9.72323 4.97556 9.79798 4.92978C9.87273 4.884 9.93099 4.81892 9.96539 4.74279C9.9998 4.66666 10.0088 4.58288 9.99127 4.50206C9.97374 4.42123 9.93045 4.34699 9.86689 4.28871L5.32144 0.122051C5.27923 0.0833564 5.22911 0.0526615 5.17396 0.0317197C5.11881 0.0107785 5.0597 6.03363e-08 5 5.96244e-08C4.94031 5.89126e-08 4.8812 0.0107785 4.82604 0.0317197C4.77089 0.0526615 4.72078 0.0833564 4.67857 0.122051Z" fill="#4C5BD4"/>
</svg>
