<svg width="12" height="7" viewBox="0 0 12 7" fill="none" xmlns="http://www.w3.org/2000/svg">
<path d="M5.61428 0.170871L0.159743 6.0042C0.083464 6.08578 0.0315192 6.18972 0.010477 6.30288C-0.0105652 6.41603 0.000240184 6.53332 0.0415266 6.63991C0.082813 6.7465 0.152726 6.8376 0.242426 6.90169C0.332126 6.96579 0.437583 7 0.545463 7H11.4545C11.5624 7 11.6679 6.96579 11.7576 6.90169C11.8473 6.83759 11.9172 6.74649 11.9585 6.63991C11.9998 6.53332 12.0106 6.41603 11.9895 6.30288C11.9685 6.18972 11.9165 6.08578 11.8403 6.0042L6.38572 0.170871C6.33507 0.116699 6.27494 0.0737262 6.20876 0.0444078C6.14257 0.0150895 6.07164 0 6 0C5.92837 0 5.85743 0.0150895 5.79125 0.0444078C5.72507 0.0737262 5.66494 0.116699 5.61428 0.170871Z" fill="#474747"/>
</svg>
