<svg width="31" height="35" viewBox="0 0 31 35" fill="none" xmlns="http://www.w3.org/2000/svg">
<path d="M21.9398 12.7053C21.9398 16.4193 18.929 19.4301 15.215 19.4301C11.501 19.4301 8.49023 16.4193 8.49023 12.7053C8.49023 8.99126 11.501 5.98047 15.215 5.98047C18.929 5.98047 21.9398 8.99126 21.9398 12.7053Z" fill="#D44C4C" stroke="#474747"/>
<path d="M18.906 17.643V18.2434C17.9887 19.2402 16.6732 19.8647 15.2118 19.8647C13.7514 19.8647 12.4368 19.2411 11.5195 18.2453V17.643C11.5195 16.7257 12.2696 15.9756 13.1869 15.9756H17.2386C18.1559 15.9756 18.906 16.7257 18.906 17.643Z" fill="#474747"/>
<path d="M15.1277 8.86079C17.5745 8.86079 19.5581 6.87724 19.5581 4.4304C19.5581 1.98356 17.5745 0 15.1277 0C12.6808 0 10.6973 1.98356 10.6973 4.4304C10.6973 6.87724 12.6808 8.86079 15.1277 8.86079Z" fill="#FFCC6C"/>
<path d="M15.3675 1.88248L16.0936 3.35312L17.7166 3.58868C17.9383 3.62102 18.027 3.89353 17.8663 4.04964L16.6912 5.19512L16.9684 6.81171C17.0062 7.03249 16.7744 7.20062 16.5758 7.09716L15.1236 6.33413L13.6714 7.09716C13.4728 7.20155 13.241 7.03342 13.2788 6.81171L13.556 5.19512L12.3809 4.04964C12.2202 3.89353 12.3089 3.62102 12.5306 3.58868L14.1536 3.35312L14.8797 1.88248C14.9823 1.6811 15.2686 1.6811 15.3675 1.88248Z" fill="#FFEFD0"/>
<path d="M15.1797 15.4415C16.4062 15.4415 17.4005 14.4472 17.4005 13.2207C17.4005 11.9943 16.4062 11 15.1797 11C13.9532 11 12.959 11.9943 12.959 13.2207C12.959 14.4472 13.9532 15.4415 15.1797 15.4415Z" fill="#F7B790"/>
<path d="M7.78712 9.06737C7.64763 9.3094 7.33817 9.39162 7.09707 9.25213L5.2292 8.17317C4.98718 8.03368 4.90496 7.72421 5.04445 7.48311C5.18394 7.24108 5.4934 7.15887 5.73451 7.29836L7.60237 8.37732C7.84439 8.51681 7.92661 8.82535 7.78712 9.06737Z" fill="#D44C4C"/>
<path d="M6.82385 12.728C6.82385 13.0069 6.59753 13.2333 6.31855 13.2333H4.16155C3.88257 13.2333 3.65625 13.0069 3.65625 12.728C3.65625 12.449 3.88257 12.2227 4.16155 12.2227H6.31855C6.59753 12.2227 6.82385 12.449 6.82385 12.728Z" fill="#D44C4C"/>
<path d="M15.405 18.1948H15.0115C14.2069 18.1948 13.5547 17.5426 13.5547 16.738V15.9648H16.8618V16.738C16.8609 17.5426 16.2087 18.1948 15.405 18.1948Z" fill="#6D6D6D"/>
<path d="M13.9496 27.4973C13.9496 31.2113 10.9388 34.2221 7.2248 34.2221C3.5108 34.2221 0.5 31.2113 0.5 27.4973C0.5 23.7833 3.5108 20.7725 7.2248 20.7725C10.9388 20.7725 13.9496 23.7833 13.9496 27.4973Z" fill="white" stroke="#666666"/>
<path d="M10.9197 31.643L11 32.5C10.0827 33.4967 8.68691 33.8647 7.22551 33.8647C5.76503 33.8647 4.53084 33.4977 3.61354 32.5018L3.5332 31.643C3.5332 30.7257 4.2833 29.9756 5.20061 29.9756H9.25226C10.1696 29.9756 10.9197 30.7257 10.9197 31.643Z" fill="#666666"/>
<path d="M7.18949 29.4415C8.41597 29.4415 9.41023 28.4472 9.41023 27.2207C9.41023 25.9943 8.41597 25 7.18949 25C5.96301 25 4.96875 25.9943 4.96875 27.2207C4.96875 28.4472 5.96301 29.4415 7.18949 29.4415Z" fill="#F7B790"/>
<path d="M7.41672 32.1938H7.02319C6.21859 32.1938 5.56641 31.5417 5.56641 30.7371V29.9639H8.8735V30.7371C8.8735 31.5417 8.22132 32.1938 7.41672 32.1938Z" fill="#474747" fill-opacity="0.76"/>
<path d="M29.9496 27.4973C29.9496 31.2113 26.9388 34.2221 23.2248 34.2221C19.5108 34.2221 16.5 31.2113 16.5 27.4973C16.5 23.7833 19.5108 20.7725 23.2248 20.7725C26.9388 20.7725 29.9496 23.7833 29.9496 27.4973Z" fill="white" stroke="#666666"/>
<path d="M26.9197 31.643L27 32.5C26.0827 33.4967 24.6869 33.8647 23.2255 33.8647C21.765 33.8647 20.5308 33.4977 19.6135 32.5018L19.5332 31.643C19.5332 30.7257 20.2833 29.9756 21.2006 29.9756H25.2523C26.1696 29.9756 26.9197 30.7257 26.9197 31.643Z" fill="#666666"/>
<path d="M23.1895 29.4415C24.416 29.4415 25.4102 28.4472 25.4102 27.2207C25.4102 25.9943 24.416 25 23.1895 25C21.963 25 20.9688 25.9943 20.9688 27.2207C20.9688 28.4472 21.963 29.4415 23.1895 29.4415Z" fill="#F7B790"/>
<path d="M23.4167 32.1938H23.0232C22.2186 32.1938 21.5664 31.5417 21.5664 30.7371V29.9639H24.8735V30.7371C24.8735 31.5417 24.2213 32.1938 23.4167 32.1938Z" fill="#474747" fill-opacity="0.76"/>
<path d="M7.77481 16.3098C7.92262 16.5463 7.85056 16.8585 7.61408 17.0063L5.78501 18.1499C5.54853 18.2977 5.2363 18.2257 5.08849 17.9892C4.94069 17.7527 5.01274 17.4405 5.24923 17.2927L7.07829 16.149C7.3157 16.0012 7.62701 16.0733 7.77481 16.3098Z" fill="#D44C4C"/>
<path d="M22.482 9.06737C22.6214 9.3094 22.9309 9.39162 23.172 9.25213L25.0399 8.17317C25.2819 8.03368 25.3641 7.72421 25.2246 7.48311C25.0851 7.24108 24.7757 7.15887 24.5346 7.29836L22.6667 8.37732C22.4247 8.51681 22.3425 8.82535 22.482 9.06737Z" fill="#D44C4C"/>
<path d="M23.4453 12.728C23.4453 13.0069 23.6716 13.2333 23.9506 13.2333H26.1076C26.3866 13.2333 26.6129 13.0069 26.6129 12.728C26.6129 12.449 26.3866 12.2227 26.1076 12.2227H23.9506C23.6716 12.2227 23.4453 12.449 23.4453 12.728Z" fill="#D44C4C"/>
<path d="M22.4928 16.3098C22.345 16.5463 22.417 16.8585 22.6535 17.0063L24.4826 18.1499C24.7191 18.2977 25.0313 18.2257 25.1791 17.9892C25.3269 17.7527 25.2549 17.4405 25.0184 17.2927L23.1893 16.149C22.9528 16.0012 22.6406 16.0733 22.4928 16.3098Z" fill="#D44C4C"/>
</svg>
