<svg width="20" height="20" viewBox="0 0 20 20" fill="none" xmlns="http://www.w3.org/2000/svg">
<g clip-path="url(#clip0)">
<path d="M17.7549 12.2801C17.5027 12.2801 17.2983 12.4845 17.2983 12.7366V16.7903C17.2974 17.5465 16.6847 18.1592 15.9285 18.1599H3.11695C2.36072 18.1592 1.74806 17.5465 1.74717 16.7903V4.8931C1.74806 4.13712 2.36072 3.52434 3.11695 3.52345H7.171C7.4232 3.52345 7.6276 3.31907 7.6276 3.0669C7.6276 2.81491 7.4232 2.61035 7.171 2.61035H3.11695C1.85668 2.61178 0.835411 3.63295 0.833984 4.8931V16.7905C0.835411 18.0506 1.85668 19.0718 3.11695 19.0732H15.9285C17.1888 19.0718 18.21 18.0506 18.2115 16.7905V12.7366C18.2115 12.4845 18.0071 12.2801 17.7549 12.2801Z" fill="#4C5BD4" stroke="#4C5BD4" stroke-width="0.5"/>
<path d="M18.0302 1.43477C17.2278 0.632421 15.9268 0.632421 15.1244 1.43477L6.97849 9.57989C6.92267 9.63571 6.88236 9.7049 6.86131 9.78088L5.7901 13.6478C5.74604 13.8064 5.79081 13.9761 5.9071 14.0926C6.02357 14.2089 6.19336 14.2536 6.35192 14.2098L10.2192 13.1385C10.2952 13.1174 10.3644 13.0771 10.4202 13.0213L18.566 4.87601C19.3672 4.07312 19.3672 2.77339 18.566 1.9705L18.0302 1.43477ZM7.97337 9.87664L14.6402 3.21032L16.7903 5.3602L10.1233 12.0265L7.97337 9.87664ZM7.54388 10.7384L9.26164 12.4561L6.88557 13.1144L7.54388 10.7384ZM17.9203 4.23042L17.4361 4.71461L15.2858 2.56455L15.7702 2.08036C16.216 1.63469 16.9387 1.63469 17.3844 2.08036L17.9203 2.61609C18.3653 3.06229 18.3653 3.78439 17.9203 4.23042Z" fill="#4C5BD4" stroke="#4C5BD4" stroke-width="0.5"/>
</g>
<defs>
<clipPath id="clip0">
<rect width="20" height="19.998" fill="white"/>
</clipPath>
</defs>
</svg>
