<svg width="22" height="22" viewBox="0 0 22 22" fill="none" xmlns="http://www.w3.org/2000/svg">
<path fill-rule="evenodd" clip-rule="evenodd" d="M11 2C6.02944 2 2 6.02944 2 11C2 15.9706 6.02944 20 11 20C15.9706 20 20 15.9706 20 11C20 6.02944 15.9706 2 11 2ZM0 11C0 4.92487 4.92487 0 11 0C17.0751 0 22 4.92487 22 11C22 17.0751 17.0751 22 11 22C4.92487 22 0 17.0751 0 11Z" fill="#666666"/>
<path fill-rule="evenodd" clip-rule="evenodd" d="M10.9997 7C9.25077 7 7.83301 8.41776 7.83301 10.1667C7.83301 11.9156 9.25077 13.3333 10.9997 13.3333C12.7486 13.3333 14.1663 11.9156 14.1663 10.1667C14.1663 8.41776 12.7486 7 10.9997 7ZM5.83301 10.1667C5.83301 7.3132 8.1462 5 10.9997 5C13.8531 5 16.1663 7.3132 16.1663 10.1667C16.1663 13.0201 13.8531 15.3333 10.9997 15.3333C8.1462 15.3333 5.83301 13.0201 5.83301 10.1667Z" fill="#666666"/>
<path fill-rule="evenodd" clip-rule="evenodd" d="M10.9993 15.3334C9.79925 15.3334 8.62258 15.6655 7.59957 16.2929C6.57657 16.9203 5.74712 17.8185 5.20307 18.8882C4.95269 19.3805 4.35065 19.5765 3.85839 19.3262C3.36612 19.0758 3.17003 18.4738 3.42041 17.9815C4.13179 16.5828 5.21633 15.4083 6.55396 14.588C7.8916 13.7676 9.43016 13.3334 10.9993 13.3334C12.5685 13.3334 14.107 13.7676 15.4447 14.5879C16.7823 15.4083 17.8669 16.5828 18.5783 17.9815C18.8286 18.4737 18.6325 19.0758 18.1403 19.3261C17.648 19.5765 17.046 19.3804 16.7956 18.8882C16.2515 17.8185 15.4221 16.9203 14.3991 16.2929C13.3761 15.6655 12.1994 15.3334 10.9993 15.3334Z" fill="#666666"/>
</svg>
