<svg width="23" height="32" viewBox="0 0 23 32" fill="none" xmlns="http://www.w3.org/2000/svg">
<path d="M2.63663 29.5465C1.60057 25.4023 5.90263 21.9513 9.72341 23.8617L12 25L14.9771 23.5823C18.3849 21.9596 22.293 24.5532 22.1217 28.3237L22 31H3L2.63663 29.5465Z" fill="#D44C4C"/>
<path d="M22.2235 27.5464V30.5C22.2235 30.7761 21.9997 31 21.7235 31C21.4474 31 21.2235 30.7761 21.2235 30.5V27.5464C21.2235 25.2468 19.3626 23.3857 17.0627 23.3857C15.9745 23.3857 14.9872 22.8314 14.4216 21.9028C14.2779 21.6669 14.3526 21.3593 14.5885 21.2156C14.8242 21.0719 15.1319 21.1467 15.2756 21.3825C15.6583 22.0107 16.3263 22.3857 17.0627 22.3857C19.915 22.3857 22.2235 24.6938 22.2235 27.5464ZM13.8816 23.6747L12.0985 25.0551L9.06677 22.7079C9.72121 22.1822 10.1444 21.4176 10.213 20.5492C10.8113 20.7253 11.444 20.8202 12.0986 20.8202C15.7861 20.8202 18.7861 17.8202 18.7861 14.1327C18.7861 14.0939 18.787 10.632 18.7845 10.5933C18.7675 10.3228 18.5419 10.1249 18.2861 10.1249C18.2005 10.1249 17.5844 10.2468 16.9813 9.884C16.0408 9.31819 16.036 8.07794 16.0361 8.0655C16.0385 7.65925 15.5792 7.4195 15.2472 7.65431C13.1877 9.11225 10.7762 10.1009 8.15765 10.4674C7.88421 10.5058 7.69352 10.7584 7.73184 11.0319C7.76684 11.2819 7.98096 11.4627 8.2264 11.4627C8.30515 11.4627 9.9264 11.2643 11.7693 10.5949C12.9567 10.1636 14.0944 9.60087 15.1611 8.91781C15.5297 10.3007 16.5632 11.07 17.7861 11.1394V14.1327C17.7861 17.2689 15.2348 19.8202 12.0986 19.8202C8.96252 19.8202 6.41115 17.2689 6.41115 14.1327V10.625C6.41115 10.3489 6.18727 10.125 5.91115 10.125C5.63502 10.125 5.41115 10.3489 5.41115 10.625V14.1328C5.41115 16.7917 6.97102 19.0929 9.22365 20.17V20.3019C9.22365 21.4544 8.28965 22.3857 7.13446 22.3857C6.5019 22.3857 5.87865 22.5001 5.28909 22.7255L4.96627 22.4686C2.43309 20.4524 1.95865 16.8931 3.68621 14.2999C4.42246 13.1947 4.84865 11.8729 4.84865 10.4586V7.75025C4.84865 4.57956 7.42809 2 10.5986 2H13.5986C16.7692 2 19.3486 4.57944 19.3486 7.75V10.4583C19.3486 11.834 19.7487 13.1596 20.5056 14.2918C21.8898 16.3625 21.8871 19.0802 20.4568 21.1557C20.3001 21.3831 20.3573 21.6944 20.5847 21.8511C20.8121 22.0078 21.1234 21.9505 21.2801 21.7231C22.9452 19.3072 22.9471 16.1447 21.3369 13.7361C20.6903 12.7689 20.3486 11.6355 20.3486 10.4583V7.75C20.3486 4.02806 17.3205 1 13.5986 1H10.5986C6.87665 1 3.84859 4.02819 3.84859 7.75025V10.4583C3.84859 11.6321 3.50465 12.7687 2.85384 13.7456C0.837898 16.772 1.40921 20.888 4.31177 23.2251C2.8859 24.1604 1.97359 25.7489 1.97359 27.5464V30.5C1.97359 30.7761 2.19746 31 2.47359 31C2.74971 31 2.97359 30.7761 2.97359 30.5V27.5464C2.97359 25.2467 4.83452 23.3857 7.1344 23.3857C7.46577 23.3857 7.79315 23.3332 8.10709 23.2296L11.7925 26.0828C11.9727 26.2223 12.2245 26.2223 12.4046 26.0828L14.4938 24.4654C14.7122 24.2963 14.7521 23.9823 14.5831 23.7639C14.4141 23.5457 14.1001 23.5056 13.8816 23.6747Z" fill="#666666"/>
<path fill-rule="evenodd" clip-rule="evenodd" d="M15.4471 21.2783C15.7935 21.8468 16.3968 22.1855 17.0635 22.1855C20.0262 22.1855 22.4243 24.5832 22.4243 27.5462V30.4998C22.4243 30.8864 22.1109 31.1998 21.7243 31.1998C21.3377 31.1998 21.0243 30.8864 21.0243 30.4998V27.5462C21.0243 25.3571 19.2529 23.5855 17.0635 23.5856C15.9056 23.5856 14.8535 22.9949 14.2515 22.0066C14.0504 21.6764 14.1551 21.2458 14.4851 21.0447C14.8153 20.8433 15.246 20.9482 15.4471 21.2783ZM14.5892 21.2154C14.3534 21.3591 14.2787 21.6667 14.4223 21.9026C14.988 22.8312 15.9753 23.3856 17.0635 23.3856C19.3633 23.3855 21.2243 25.2466 21.2243 27.5462V30.4998C21.2243 30.7759 21.4482 30.9998 21.7243 30.9998C22.0004 30.9998 22.2243 30.7759 22.2243 30.4998V27.5462C22.2243 24.6936 19.9158 22.3855 17.0635 22.3855C16.3271 22.3855 15.659 22.0105 15.2763 21.3823C15.1327 21.1465 14.825 21.0717 14.5892 21.2154ZM15.248 7.65412C15.5799 7.4193 16.0393 7.65905 16.0368 8.0653C16.0368 8.07774 16.0416 9.31799 16.9821 9.8838C17.51 10.2014 18.0479 10.1476 18.2312 10.1292C18.2573 10.1266 18.2762 10.1247 18.2868 10.1247C18.5427 10.1247 18.7682 10.3226 18.7852 10.5931C18.7876 10.6297 18.7869 13.7289 18.7868 14.0972L18.7868 14.1326C18.7868 17.8201 15.7868 20.8201 12.0993 20.8201C11.5158 20.8201 10.9497 20.7446 10.4098 20.6035C10.3441 20.5863 10.2787 20.5681 10.2137 20.549C10.2084 20.6169 10.2008 20.6842 10.1912 20.7507C10.0876 21.4663 9.74028 22.1011 9.22254 22.5748C9.17244 22.6207 9.12075 22.665 9.06753 22.7077L12.0993 25.0549L13.8824 23.6745C14.1008 23.5054 14.4148 23.5455 14.5838 23.7637C14.7529 23.9821 14.713 24.2961 14.4946 24.4652L12.4054 26.0826C12.2252 26.2221 11.9735 26.2221 11.7932 26.0826L8.10784 23.2294C7.7939 23.333 7.46653 23.3856 7.13515 23.3856C4.83528 23.3855 2.97434 25.2466 2.97434 27.5462V30.4998C2.97434 30.7759 2.75047 30.9998 2.47434 30.9998C2.19822 30.9998 1.97434 30.7759 1.97434 30.4998V27.5462C1.97434 25.8222 2.81364 24.2904 4.14039 23.3427C4.1969 23.3024 4.25428 23.2631 4.31253 23.2249C4.25811 23.1811 4.20451 23.1366 4.15174 23.0916C1.38945 20.7339 0.876447 16.7151 2.85459 13.7454C3.5054 12.7686 3.84934 11.6319 3.84934 10.4581V7.75005C3.84934 4.02799 6.8774 0.999805 10.5993 0.999805H13.5993C17.3213 0.999805 20.3493 4.02787 20.3493 7.7498V10.4581C20.3493 11.6353 20.6911 12.7687 21.3377 13.7359C22.9478 16.1446 22.9459 19.307 21.2808 21.7229C21.1242 21.9503 20.8128 22.0076 20.5855 21.8509C20.3581 21.6942 20.3008 21.3829 20.4575 21.1555C21.8878 19.08 21.8906 16.3623 20.5063 14.2916C19.7495 13.1594 19.3494 11.8338 19.3494 10.4581V7.7498C19.3494 4.57924 16.77 1.9998 13.5994 1.9998H10.5994C7.42884 1.9998 4.8494 4.57937 4.8494 7.75005V10.4584C4.8494 11.8727 4.42322 13.1946 3.68697 14.2997C1.9594 16.8929 2.43384 20.4522 4.96703 22.4684L5.28984 22.7253C5.8794 22.4999 6.50265 22.3855 7.13522 22.3855C8.2904 22.3855 9.2244 21.4542 9.2244 20.3017V20.1698C6.97178 19.0927 5.4119 16.7915 5.4119 14.1326V10.6248C5.4119 10.3487 5.63578 10.1248 5.9119 10.1248C6.18803 10.1248 6.4119 10.3487 6.4119 10.6248V14.1326C6.4119 17.2687 8.96328 19.8201 12.0994 19.8201C15.2355 19.8201 17.7869 17.2687 17.7869 14.1326V11.1392C16.6241 11.0732 15.6325 10.3744 15.221 9.11713C15.1997 9.05212 15.18 8.98561 15.1618 8.91762C15.1031 8.9552 15.0442 8.99242 14.9851 9.02928C13.9698 9.66221 12.8921 10.1872 11.7701 10.5947C9.92715 11.2641 8.3059 11.4625 8.22715 11.4625C7.98172 11.4625 7.76759 11.2817 7.73259 11.0317C7.69428 10.7582 7.88497 10.5056 8.1584 10.4672C10.777 10.1007 13.1885 9.11205 15.248 7.65412ZM15.0467 9.22649C15.47 10.4647 16.4378 11.1916 17.5869 11.3228V14.1326C17.5869 17.1582 15.1251 19.6201 12.0994 19.6201C9.07374 19.6201 6.6119 17.1582 6.6119 14.1326V10.6248C6.6119 10.2382 6.29849 9.9248 5.9119 9.9248C5.52532 9.9248 5.2119 10.2382 5.2119 10.6248V14.1326C5.2119 16.8266 6.7665 19.1634 9.0244 20.2946V20.3017C9.0244 21.3433 8.18045 22.1855 7.13522 22.1855C6.5168 22.1855 5.90666 22.2909 5.32618 22.4986L5.09158 22.3119C2.64165 20.362 2.18206 16.9194 3.85341 14.4106C4.61082 13.2737 5.0494 11.9134 5.0494 10.4584V7.75005C5.0494 4.68982 7.53931 2.1998 10.5994 2.1998H13.5994C16.6595 2.1998 19.1494 4.6897 19.1494 7.7498V10.4581C19.1494 11.8729 19.561 13.2373 20.3401 14.4028C21.6791 16.4058 21.6763 19.0344 20.2928 21.042C20.0735 21.3603 20.1536 21.7962 20.472 22.0156C20.7903 22.2349 21.2261 22.1548 21.4455 21.8364C23.1574 19.3525 23.1593 16.1011 21.5039 13.6247C20.8796 12.6908 20.5493 11.5962 20.5493 10.4581V7.7498C20.5493 3.91741 17.4317 0.799805 13.5993 0.799805H10.5993C6.76694 0.799805 3.64934 3.91754 3.64934 7.75005V10.4581C3.64934 11.5924 3.31708 12.6905 2.68815 13.6345C0.663975 16.6733 1.17681 20.7813 3.98263 23.2099C2.62919 24.196 1.77434 25.7733 1.77434 27.5462V30.4998C1.77434 30.8864 2.08776 31.1998 2.47434 31.1998C2.86092 31.1998 3.17434 30.8864 3.17434 30.4998V27.5462C3.17434 25.357 4.94574 23.5855 7.13515 23.5856C7.45182 23.5856 7.76519 23.5404 8.06783 23.4514L11.6708 26.2408C11.9231 26.436 12.2756 26.4361 12.5278 26.2408L14.617 24.6233C14.9228 24.3866 14.9787 23.947 14.742 23.6413C14.5054 23.3358 14.0658 23.2797 13.76 23.5163L12.0993 24.802L9.38288 22.699C9.91397 22.2029 10.2726 21.5446 10.3855 20.8038C10.9337 20.9448 11.508 21.0201 12.0993 21.0201C15.8973 21.0201 18.9868 17.9305 18.9868 14.1326L18.9869 14.0975C18.9869 13.9243 18.9871 13.1434 18.987 12.3627C18.9869 11.9251 18.9868 11.4875 18.9865 11.1568C18.9863 10.8358 18.986 10.601 18.9848 10.5805" fill="#666666"/>
</svg>
