<svg width="7" height="12" viewBox="0 0 7 12" fill="none" xmlns="http://www.w3.org/2000/svg">
<path d="M6.82913 5.61428L0.995803 0.159743C0.914219 0.083464 0.810277 0.0315192 0.697122 0.010477C0.583966 -0.0105652 0.466679 0.000240184 0.360091 0.0415266C0.253503 0.082813 0.162401 0.152726 0.098306 0.242426C0.0342105 0.332126 -2.89779e-07 0.437583 0 0.545463V11.4545C2.49517e-06 11.5624 0.0342145 11.6679 0.0983104 11.7576C0.162406 11.8473 0.253508 11.9172 0.360095 11.9585C0.466681 11.9998 0.583967 12.0106 0.697122 11.9895C0.810276 11.9685 0.914218 11.9165 0.995803 11.8403L6.82913 6.38572C6.8833 6.33507 6.92627 6.27494 6.95559 6.20876C6.98491 6.14257 7 6.07164 7 6C7 5.92837 6.98491 5.85743 6.95559 5.79125C6.92627 5.72507 6.8833 5.66494 6.82913 5.61428Z" fill="#474747"/>
</svg>
