<svg width="20" height="20" viewBox="0 0 20 20" fill="none" xmlns="http://www.w3.org/2000/svg">
<path d="M10 18.75C7.67936 18.75 5.45376 17.8281 3.81282 16.1872C2.17187 14.5462 1.25 12.3206 1.25 10C1.25 7.67936 2.17187 5.45376 3.81282 3.81282C5.45376 2.17187 7.67936 1.25 10 1.25C12.3206 1.25 14.5462 2.17187 16.1872 3.81282C17.8281 5.45376 18.75 7.67936 18.75 10C18.75 12.3206 17.8281 14.5462 16.1872 16.1872C14.5462 17.8281 12.3206 18.75 10 18.75ZM10 20C12.6522 20 15.1957 18.9464 17.0711 17.0711C18.9464 15.1957 20 12.6522 20 10C20 7.34784 18.9464 4.8043 17.0711 2.92893C15.1957 1.05357 12.6522 0 10 0C7.34784 0 4.8043 1.05357 2.92893 2.92893C1.05357 4.8043 0 7.34784 0 10C0 12.6522 1.05357 15.1957 2.92893 17.0711C4.8043 18.9464 7.34784 20 10 20Z" fill="#FF3333"/>
<path d="M5.80666 5.80862C5.86472 5.75041 5.93369 5.70423 6.00962 5.67273C6.08555 5.64122 6.16695 5.625 6.24916 5.625C6.33137 5.625 6.41277 5.64122 6.48871 5.67273C6.56464 5.70423 6.63361 5.75041 6.69166 5.80862L9.99916 9.11737L13.3067 5.80862C13.3648 5.75051 13.4338 5.70441 13.5097 5.67296C13.5856 5.64151 13.667 5.62533 13.7492 5.62533C13.8313 5.62533 13.9127 5.64151 13.9886 5.67296C14.0646 5.70441 14.1336 5.75051 14.1917 5.80862C14.2498 5.86673 14.2959 5.93571 14.3273 6.01164C14.3588 6.08756 14.375 6.16894 14.375 6.25112C14.375 6.3333 14.3588 6.41467 14.3273 6.4906C14.2959 6.56652 14.2498 6.63551 14.1917 6.69362L10.8829 10.0011L14.1917 13.3086C14.2498 13.3667 14.2959 13.4357 14.3273 13.5116C14.3588 13.5876 14.375 13.6689 14.375 13.7511C14.375 13.8333 14.3588 13.9147 14.3273 13.9906C14.2959 14.0665 14.2498 14.1355 14.1917 14.1936C14.1336 14.2517 14.0646 14.2978 13.9886 14.3293C13.9127 14.3607 13.8313 14.3769 13.7492 14.3769C13.667 14.3769 13.5856 14.3607 13.5097 14.3293C13.4338 14.2978 13.3648 14.2517 13.3067 14.1936L9.99916 10.8849L6.69166 14.1936C6.63355 14.2517 6.56457 14.2978 6.48864 14.3293C6.41272 14.3607 6.33134 14.3769 6.24916 14.3769C6.16698 14.3769 6.08561 14.3607 6.00968 14.3293C5.93376 14.2978 5.86477 14.2517 5.80666 14.1936C5.74855 14.1355 5.70246 14.0665 5.67101 13.9906C5.63956 13.9147 5.62337 13.8333 5.62337 13.7511C5.62337 13.6689 5.63956 13.5876 5.67101 13.5116C5.70246 13.4357 5.74855 13.3667 5.80666 13.3086L9.11541 10.0011L5.80666 6.69362C5.74846 6.63556 5.70228 6.56659 5.67077 6.49066C5.63926 6.41473 5.62305 6.33333 5.62305 6.25112C5.62305 6.16891 5.63926 6.08751 5.67077 6.01157C5.70228 5.93564 5.74846 5.86667 5.80666 5.80862Z" fill="#FF3333"/>
</svg>
