<svg width="22" height="22" viewBox="0 0 22 22" fill="none" xmlns="http://www.w3.org/2000/svg">
<path fill-rule="evenodd" clip-rule="evenodd" d="M14.4269 2.03162C13.0063 1.8876 11.5795 2.23852 10.3877 3.02505C9.1959 3.81158 8.31223 4.98547 7.88606 6.34832C7.46215 7.70391 7.51673 9.16374 8.04025 10.4836C8.19842 10.853 8.12118 11.2905 7.82779 11.5839L2 17.4117V20H4.00254V18.5985C4.00254 18.0462 4.45026 17.5985 5.00254 17.5985H6.40407V16.197C6.40407 15.6447 6.85178 15.197 7.40407 15.197H9.39138L10.4161 14.1722C10.7088 13.8796 11.1454 13.8017 11.5148 13.9591C12.8351 14.4832 14.2955 14.538 15.6517 14.114C17.0145 13.6878 18.1884 12.8041 18.975 11.6123C19.7615 10.4206 20.1124 8.99377 19.9684 7.57313C19.8244 6.15248 19.1943 4.82513 18.1846 3.81543C17.1749 2.80574 15.8475 2.17563 14.4269 2.03162ZM11.3847 16.0321C12.9645 16.5195 14.6606 16.5194 16.2486 16.0228C18.0512 15.4591 19.6039 14.2903 20.6442 12.714C21.6845 11.1377 22.1487 9.25047 21.9582 7.37142C21.7677 5.49237 20.9343 3.73672 19.5988 2.40122C18.2633 1.06572 16.5077 0.232297 14.6286 0.0418145C12.7496 -0.148668 10.8624 0.315478 9.28604 1.3558C7.7097 2.39612 6.54091 3.9488 5.97721 5.7514C5.48064 7.33936 5.48048 9.03546 5.96795 10.6153L0.292893 16.2904C0.105357 16.4779 0 16.7322 0 16.9975V21C0 21.5523 0.447715 22 1 22H5.00254C5.55483 22 6.00254 21.5523 6.00254 21V19.5985H7.40407C7.95635 19.5985 8.40407 19.1508 8.40407 18.5985V17.197H9.80559C10.0708 17.197 10.3252 17.0916 10.5127 16.9041L11.3847 16.0321ZM17.4462 6.37189C17.4462 7.25611 16.7294 7.97291 15.8452 7.97291C14.9609 7.97291 14.2441 7.25611 14.2441 6.37189C14.2441 5.48767 14.9609 4.77087 15.8452 4.77087C16.7294 4.77087 17.4462 5.48767 17.4462 6.37189Z" fill="#666666"/>
</svg>
