<svg width="29" height="30" viewBox="0 0 29 30" fill="none" xmlns="http://www.w3.org/2000/svg">
<circle cx="5.5" cy="4.5" r="2.5" fill="#FFCC6C"/>
<circle cx="14.5" cy="3.5" r="2.5" fill="#FFCC6C"/>
<circle cx="22.5" cy="4.5" r="2.5" fill="#FFCC6C"/>
<path d="M22.957 7.49996C24.6795 7.49996 26.082 6.09746 26.082 4.37498C26.082 2.6525 24.6807 1.25 22.957 1.25C21.2345 1.25 19.832 2.6525 19.832 4.37498C19.832 6.09746 21.2345 7.49996 22.957 7.49996ZM22.957 2.49998C23.9908 2.49998 24.832 3.34121 24.832 4.37498C24.832 5.40875 23.992 6.24998 22.957 6.24998C21.9232 6.24998 21.082 5.40875 21.082 4.37498C21.082 3.34121 21.9245 2.49998 22.957 2.49998Z" fill="#474747"/>
<path d="M28.4041 17.8935L27.6029 11.4885C27.4091 9.92725 26.0754 8.75098 24.5028 8.75098H21.4166C21.0691 8.75098 20.7191 8.81221 20.3753 8.93473C20.0503 9.04975 19.8803 9.40723 19.9953 9.73225C20.1116 10.0573 20.4678 10.2285 20.7929 10.1122C21.0016 10.0385 21.2116 10.001 21.4166 10.001H24.5028C25.4466 10.001 26.2454 10.7072 26.3628 11.6435L27.1641 18.0485C27.1866 18.2285 27.1329 18.4035 27.0129 18.5397C26.8929 18.6759 26.7266 18.7509 26.5441 18.7509H26.0854C25.7566 18.7509 25.4854 19.0034 25.4617 19.331L24.8779 27.501H21.0416L20.5916 21.2047C20.5679 20.861 20.2654 20.591 19.9241 20.626C19.5804 20.6497 19.3204 20.9497 19.3454 21.2935L19.8367 28.1698C19.8617 28.496 20.1341 28.7498 20.4604 28.7498H25.4604C25.7879 28.7498 26.0604 28.496 26.0829 28.1711L26.6666 19.9973C27.1591 19.9648 27.6204 19.7398 27.9491 19.3673C28.3053 18.9635 28.4716 18.4272 28.4041 17.8935Z" fill="#474747"/>
<path d="M8.48561 20.7687C8.13686 20.7362 7.84313 21.0037 7.81811 21.3474L7.37813 27.4999H3.54059L2.95811 19.3299C2.93432 19.0037 2.66186 18.75 2.33309 18.75H1.87436C1.69184 18.75 1.52561 18.675 1.40561 18.5387C1.28561 18.4025 1.23188 18.2287 1.25438 18.0475L2.05565 11.6425C2.1719 10.7062 2.97065 9.99998 3.91565 9.99998H7.0019C7.14188 9.99998 7.29065 10.0213 7.47317 10.07C7.80692 10.1525 8.1494 9.9575 8.23694 9.62375C8.32442 9.29 8.12444 8.94752 7.79069 8.85998C7.50194 8.78498 7.25192 8.75 7.00067 8.75H3.91559C2.34311 8.75 1.01057 9.92627 0.815573 11.4875L0.0143619 17.8924C-0.0519076 18.4262 0.113092 18.9624 0.469342 19.3662C0.798112 19.7387 1.25936 19.9637 1.75184 19.9962L2.33561 28.17C2.35934 28.4962 2.63186 28.75 2.95811 28.75H7.95809C8.28557 28.75 8.55809 28.4962 8.58182 28.17L9.06305 21.4362C9.08807 21.0925 8.82809 20.7937 8.48561 20.7687Z" fill="#474747"/>
<path d="M5.45701 7.49996C7.17949 7.49996 8.58199 6.09746 8.58199 4.37498C8.58199 2.6525 7.18072 1.25 5.45701 1.25C3.73453 1.25 2.33203 2.6525 2.33203 4.37498C2.33203 6.09746 3.73453 7.49996 5.45701 7.49996ZM5.45701 2.49998C6.49078 2.49998 7.33201 3.34121 7.33201 4.37498C7.33201 5.40875 6.49201 6.24998 5.45701 6.24998C4.42453 6.24998 3.58201 5.40875 3.58201 4.37498C3.58201 3.34121 4.42453 2.49998 5.45701 2.49998Z" fill="#474747"/>
<path d="M19.7117 17.7963L18.883 10.5363C18.6868 8.805 17.3155 7.5 15.6955 7.5H12.5042C10.8868 7.5 9.51672 8.805 9.31926 10.5363L8.49051 17.7963C8.42178 18.4038 8.60928 19.0075 9.00426 19.45C9.34551 19.8313 9.79674 20.0538 10.288 20.0813L10.978 29.4213C11.0017 29.7475 11.2742 30 11.6005 30H16.6005C16.928 30 17.2005 29.7475 17.223 29.4213L17.913 20.0813C18.403 20.0538 18.8555 19.8325 19.1967 19.45C19.5943 19.0062 19.7805 18.4038 19.7117 17.7963ZM18.2668 18.6175C18.1943 18.6975 18.0392 18.8338 17.8093 18.8338H17.333C17.0055 18.8338 16.733 19.0863 16.7093 19.4125L16.0205 28.75H12.1817L11.4943 19.4125C11.4692 19.0863 11.198 18.8338 10.8705 18.8338H10.3955C10.1668 18.8338 10.0105 18.6976 9.93801 18.6175C9.77928 18.4388 9.70428 18.1912 9.73299 17.9375L10.5617 10.6775C10.6867 9.57879 11.523 8.75004 12.5068 8.75004H15.698C16.6805 8.75004 17.5168 9.57879 17.643 10.6775L18.4718 17.9375C18.5005 18.1912 18.4255 18.4388 18.2668 18.6175Z" fill="#474747"/>
<path d="M14.1015 6.25002C15.824 6.25002 17.2265 4.84752 17.2265 3.12504C17.2265 1.40256 15.8253 0 14.1015 0C12.3791 0 10.9766 1.4025 10.9766 3.12498C10.9766 4.84746 12.3791 6.25002 14.1015 6.25002ZM14.1015 1.24998C15.1353 1.24998 15.9765 2.09121 15.9765 3.12498C15.9765 4.15875 15.1353 4.99998 14.1015 4.99998C13.0678 4.99998 12.2265 4.15875 12.2265 3.12498C12.2265 2.09127 13.0691 1.24998 14.1015 1.24998Z" fill="#474747"/>
</svg>
