<svg width="20" height="21" viewBox="0 0 20 21" fill="none" xmlns="http://www.w3.org/2000/svg">
<path fill-rule="evenodd" clip-rule="evenodd" d="M5.60427 0.712707C6.05069 0.258017 6.65913 0 7.29652 0H12.2056C12.843 0 13.4514 0.258017 13.8979 0.712707C14.3438 1.16693 14.592 1.78011 14.592 2.41665V3.3335L18.75 3.3335C19.1642 3.3335 19.5 3.66928 19.5 4.0835C19.5 4.49771 19.1642 4.8335 18.75 4.8335L17.6882 4.8335L16.8074 19.8087C16.7763 20.3373 16.3386 20.75 15.8091 20.75H3.69489C3.16541 20.75 2.72771 20.3373 2.69661 19.8087L1.81572 4.8335L0.75 4.8335C0.335787 4.8335 0 4.49771 0 4.0835C0 3.66929 0.335786 3.3335 0.75 3.3335L4.91016 3.3335V2.41665C4.91016 1.78011 5.1583 1.16693 5.60427 0.712707ZM13.092 2.41665V3.3335L6.41016 3.3335V2.41665C6.41016 2.16915 6.50682 1.93449 6.67461 1.7636C6.84194 1.59317 7.06593 1.5 7.29652 1.5H12.2056C12.4362 1.5 12.6602 1.59317 12.8275 1.7636C12.9953 1.93449 13.092 2.16915 13.092 2.41665ZM7.29688 8.3335C7.71109 8.3335 8.04688 8.66928 8.04688 9.0835V15.7501C8.04688 16.1643 7.71109 16.5001 7.29688 16.5001C6.88266 16.5001 6.54688 16.1643 6.54688 15.7501V9.0835C6.54688 8.66928 6.88266 8.3335 7.29688 8.3335ZM12.957 9.0835C12.957 8.66928 12.6212 8.3335 12.207 8.3335C11.7928 8.3335 11.457 8.66928 11.457 9.0835V15.7501C11.457 16.1643 11.7928 16.5001 12.207 16.5001C12.6212 16.5001 12.957 16.1643 12.957 15.7501V9.0835ZM4.16634 19.25L3.34281 5.25H16.1612L15.3376 19.25H4.16634Z" fill="#EB5757"/>
</svg>
