<svg width="4" height="21" viewBox="0 0 4 21" fill="none" xmlns="http://www.w3.org/2000/svg">
<path fill-rule="evenodd" clip-rule="evenodd" d="M2.00002 4.38481C3.1046 4.38481 4.00004 3.48937 4.00004 2.38479C4.00004 1.28021 3.1046 0.384766 2.00002 0.384766C0.89544 0.384766 0 1.28021 0 2.38479C0 3.48937 0.89544 4.38481 2.00002 4.38481ZM2.00002 12.385C3.1046 12.385 4.00004 11.4895 4.00004 10.3849C4.00004 9.28037 3.1046 8.38493 2.00002 8.38493C0.89544 8.38493 0 9.28037 0 10.3849C0 11.4895 0.89544 12.385 2.00002 12.385ZM4.00004 18.3851C4.00004 19.4897 3.1046 20.3851 2.00002 20.3851C0.89544 20.3851 0 19.4897 0 18.3851C0 17.2805 0.89544 16.3851 2.00002 16.3851C3.1046 16.3851 4.00004 17.2805 4.00004 18.3851Z" fill="#666666"/>
</svg>
