<svg width="20" height="16" viewBox="0 0 20 16" fill="none" xmlns="http://www.w3.org/2000/svg">
<path d="M18.4615 2.28571H10.2569L7.58864 0.304315C7.32262 0.107527 6.99969 0.00082213 6.66767 0H1.53846C1.13056 0.000398629 0.73948 0.16107 0.45105 0.446754C0.162619 0.732437 0.000402462 1.11979 0 1.52381V14.4762C0.000402716 14.8802 0.16262 15.2676 0.45105 15.5532C0.73948 15.8389 1.13056 15.9996 1.53846 16H18.5472C18.9323 15.9995 19.3015 15.8477 19.5739 15.5779C19.8462 15.3082 19.9995 14.9425 20 14.561V3.80952C19.9996 3.40551 19.8374 3.01815 19.549 2.73247C19.2605 2.44678 18.8694 2.28611 18.4615 2.28571Z" fill="#666666"/>
</svg>
