<svg width="14" height="12" viewBox="0 0 14 12" fill="none" xmlns="http://www.w3.org/2000/svg">
<path fill-rule="evenodd" clip-rule="evenodd" d="M0 5.99972C0 5.52633 0.376081 5.14258 0.84 5.14258H13.16C13.6239 5.14258 14 5.52633 14 5.99972C14 6.47311 13.6239 6.85686 13.16 6.85686H0.84C0.376081 6.85686 0 6.47311 0 5.99972Z" fill="#474747"/>
<path fill-rule="evenodd" clip-rule="evenodd" d="M6.47397 0.251051C6.80201 0.585786 6.80201 1.1285 6.47397 1.46323L2.02794 6L6.47397 10.5368C6.80201 10.8715 6.80201 11.4142 6.47397 11.7489C6.14593 12.0837 5.61407 12.0837 5.28603 11.7489L0.24603 6.60609C-0.0820101 6.27136 -0.0820101 5.72864 0.24603 5.39391L5.28603 0.251051C5.61407 -0.0836838 6.14593 -0.0836838 6.47397 0.251051Z" fill="#474747"/>
</svg>
