<svg width="20" height="21" viewBox="0 0 20 21" fill="none" xmlns="http://www.w3.org/2000/svg">
<path fill-rule="evenodd" clip-rule="evenodd" d="M6.21057 0.721293C6.64555 0.261126 7.23838 0 7.85943 0H12.6426C13.2637 0 13.8565 0.261126 14.2915 0.721293C14.726 1.18099 14.9678 1.80156 14.9678 2.44577V3.37366L19.0192 3.37366C19.4228 3.37366 19.75 3.71349 19.75 4.13269C19.75 4.5519 19.4228 4.89173 19.0192 4.89173L17.9843 4.89173L17.126 20.0474C17.0957 20.5823 16.6692 21 16.1533 21H4.34975C3.83385 21 3.40736 20.5823 3.37707 20.0474L2.51876 4.89174L1.48077 4.89174C1.07718 4.89174 0.75 4.5519 0.75 4.1327C0.75 3.7135 1.07718 3.37366 1.48077 3.37366L5.53426 3.37366V2.44577C5.53426 1.80156 5.77603 1.18099 6.21057 0.721293ZM13.5063 2.44577V3.37366L6.99579 3.37366V2.44577C6.99579 2.19528 7.08998 1.9578 7.25346 1.78484C7.4165 1.61236 7.63475 1.51807 7.85943 1.51807H12.6426C12.8673 1.51807 13.0856 1.61236 13.2486 1.78484C13.4121 1.9578 13.5063 2.19528 13.5063 2.44577ZM7.85968 8.4339C8.26327 8.4339 8.59044 8.77373 8.59044 9.19294V15.9399C8.59044 16.3591 8.26327 16.6989 7.85968 16.6989C7.45608 16.6989 7.12891 16.3591 7.12891 15.9399V9.19294C7.12891 8.77373 7.45608 8.4339 7.85968 8.4339ZM13.3756 9.19294C13.3756 8.77373 13.0484 8.4339 12.6448 8.4339C12.2412 8.4339 11.9141 8.77373 11.9141 9.19294V15.9399C11.9141 16.3591 12.2412 16.6989 12.6448 16.6989C13.0484 16.6989 13.3756 16.3591 13.3756 15.9399V9.19294ZM4.80911 19.4819L4.0067 5.31325H16.4964L15.694 19.4819H4.80911Z" fill="#666666"/>
</svg>
