<svg width="16" height="16" viewBox="0 0 16 16" fill="none" xmlns="http://www.w3.org/2000/svg">
<path fill-rule="evenodd" clip-rule="evenodd" d="M11.2601 0.608967C9.85711 0.00346615 8.31328 -0.15496 6.82385 0.153721C5.33443 0.462403 3.9663 1.22433 2.89248 2.34315L1.4861 3.80847V2.39365C1.4861 1.96607 1.15343 1.61946 0.743052 1.61946C0.332676 1.61946 0 1.96607 0 2.39365L1.86265e-09 5.67746C1.86265e-09 5.67751 1.86265e-09 5.67756 1.86265e-09 5.67762L0 5.6781C0 6.10568 0.332676 6.4523 0.743052 6.4523H3.89539C4.30577 6.4523 4.63845 6.10568 4.63845 5.6781C4.63845 5.25053 4.30577 4.90391 3.89539 4.90391H2.5364L3.94332 3.43802C4.8093 2.53575 5.91263 1.92129 7.11378 1.67236C8.31493 1.42342 9.55995 1.55118 10.6914 2.03949C11.8229 2.5278 12.7899 3.35472 13.4703 4.41568C14.1507 5.47664 14.5139 6.72399 14.5139 8C14.5139 9.27601 14.1507 10.5234 13.4703 11.5843C12.7899 12.6453 11.8229 13.4722 10.6914 13.9605C9.55995 14.4488 8.31493 14.5766 7.11378 14.3276C5.91263 14.0787 4.8093 13.4643 3.94332 12.562C3.65314 12.2596 3.18266 12.2596 2.89248 12.562C2.6023 12.8643 2.60231 13.3545 2.89248 13.6569C3.9663 14.7757 5.33443 15.5376 6.82385 15.8463C8.31328 16.155 9.85711 15.9965 11.2601 15.391C12.6631 14.7855 13.8623 13.7602 14.706 12.4446C15.5497 11.129 16 9.58225 16 8C16 6.41775 15.5497 4.87103 14.706 3.55544C13.8623 2.23985 12.6631 1.21447 11.2601 0.608967ZM9.06309 4.05886C9.06309 3.63129 8.73041 3.28467 8.32003 3.28467C7.90966 3.28467 7.57698 3.63129 7.57698 4.05886V7.99919V8.00021C7.57698 8.29645 7.73668 8.55383 7.97127 8.684L11.2246 10.6411C11.58 10.8548 12.0345 10.728 12.2397 10.3577C12.4449 9.98739 12.3231 9.5139 11.9677 9.30011L9.06309 7.55285V4.05886Z" fill="#666666"/>
</svg>
