<svg width="20" height="20" viewBox="0 0 20 20" fill="none" xmlns="http://www.w3.org/2000/svg">
<path d="M10 18.75C7.67936 18.75 5.45376 17.8281 3.81282 16.1872C2.17187 14.5462 1.25 12.3206 1.25 10C1.25 7.67936 2.17187 5.45376 3.81282 3.81282C5.45376 2.17187 7.67936 1.25 10 1.25C12.3206 1.25 14.5462 2.17187 16.1872 3.81282C17.8281 5.45376 18.75 7.67936 18.75 10C18.75 12.3206 17.8281 14.5462 16.1872 16.1872C14.5462 17.8281 12.3206 18.75 10 18.75ZM10 20C12.6522 20 15.1957 18.9464 17.0711 17.0711C18.9464 15.1957 20 12.6522 20 10C20 7.34784 18.9464 4.8043 17.0711 2.92893C15.1957 1.05357 12.6522 0 10 0C7.34784 0 4.8043 1.05357 2.92893 2.92893C1.05357 4.8043 0 7.34784 0 10C0 12.6522 1.05357 15.1957 2.92893 17.0711C4.8043 18.9464 7.34784 20 10 20Z" fill="#FF3333"/>
<path d="M5.8074 5.80862C5.86545 5.75041 5.93442 5.70423 6.01035 5.67273C6.08629 5.64122 6.16769 5.625 6.2499 5.625C6.33211 5.625 6.41351 5.64122 6.48944 5.67273C6.56537 5.70423 6.63434 5.75041 6.6924 5.80862L9.9999 9.11737L13.3074 5.80862C13.3655 5.75051 13.4345 5.70441 13.5104 5.67296C13.5863 5.64151 13.6677 5.62533 13.7499 5.62533C13.8321 5.62533 13.9135 5.64151 13.9894 5.67296C14.0653 5.70441 14.1343 5.75051 14.1924 5.80862C14.2505 5.86673 14.2966 5.93571 14.3281 6.01164C14.3595 6.08756 14.3757 6.16894 14.3757 6.25112C14.3757 6.3333 14.3595 6.41467 14.3281 6.4906C14.2966 6.56652 14.2505 6.63551 14.1924 6.69362L10.8836 10.0011L14.1924 13.3086C14.2505 13.3667 14.2966 13.4357 14.3281 13.5116C14.3595 13.5876 14.3757 13.6689 14.3757 13.7511C14.3757 13.8333 14.3595 13.9147 14.3281 13.9906C14.2966 14.0665 14.2505 14.1355 14.1924 14.1936C14.1343 14.2517 14.0653 14.2978 13.9894 14.3293C13.9135 14.3607 13.8321 14.3769 13.7499 14.3769C13.6677 14.3769 13.5863 14.3607 13.5104 14.3293C13.4345 14.2978 13.3655 14.2517 13.3074 14.1936L9.9999 10.8849L6.6924 14.1936C6.63429 14.2517 6.5653 14.2978 6.48938 14.3293C6.41345 14.3607 6.33208 14.3769 6.2499 14.3769C6.16772 14.3769 6.08634 14.3607 6.01042 14.3293C5.93449 14.2978 5.86551 14.2517 5.8074 14.1936C5.74929 14.1355 5.70319 14.0665 5.67174 13.9906C5.64029 13.9147 5.62411 13.8333 5.62411 13.7511C5.62411 13.6689 5.64029 13.5876 5.67174 13.5116C5.70319 13.4357 5.74929 13.3667 5.8074 13.3086L9.11615 10.0011L5.8074 6.69362C5.74919 6.63556 5.70301 6.56659 5.67151 6.49066C5.64 6.41473 5.62378 6.33333 5.62378 6.25112C5.62378 6.16891 5.64 6.08751 5.67151 6.01157C5.70301 5.93564 5.74919 5.86667 5.8074 5.80862Z" fill="#FF3333"/>
</svg>
