<svg width="20" height="19" viewBox="0 0 20 19" fill="none" xmlns="http://www.w3.org/2000/svg">
<path fill-rule="evenodd" clip-rule="evenodd" d="M17.7778 12.5926C17.7778 12.7971 17.612 12.963 17.4074 12.963H2.59259C2.38804 12.963 2.22222 12.7971 2.22222 12.5926V11.4815H17.7778V12.5926ZM0 2.59259V10.3704V12.5926C0 14.0244 1.16074 15.1852 2.59259 15.1852H8.88889V16.2963H7.03704C6.42339 16.2963 5.92593 16.7938 5.92593 17.4074C5.92593 18.0211 6.42339 18.5185 7.03704 18.5185L10 18.5185L12.963 18.5185C13.5766 18.5185 14.0741 18.0211 14.0741 17.4074C14.0741 16.7938 13.5766 16.2963 12.963 16.2963H11.1111V15.1852H17.4074C18.8393 15.1852 20 14.0244 20 12.5926V10.3704V2.59259C20 1.16074 18.8393 0 17.4074 0H2.59259C1.16074 0 0 1.16074 0 2.59259ZM2.22222 2.59259V9.25926H17.7778V2.59259C17.7778 2.38804 17.612 2.22222 17.4074 2.22222H2.59259C2.38804 2.22222 2.22222 2.38804 2.22222 2.59259Z" fill="#474747"/>
</svg>
