<svg width="20" height="20" viewBox="0 0 20 20" fill="none" xmlns="http://www.w3.org/2000/svg">
<g clip-path="url(#clip0)">
<path d="M17.6133 12.24C17.3657 12.24 17.165 12.4407 17.165 12.6883V16.6682C17.1641 17.4107 16.5626 18.0123 15.8201 18.013H3.24146C2.49898 18.0123 1.89746 17.4107 1.89659 16.6682V4.98734C1.89746 4.2451 2.49898 3.64347 3.24146 3.64259H7.22181C7.46942 3.64259 7.6701 3.44193 7.6701 3.19434C7.6701 2.94693 7.46942 2.74609 7.22181 2.74609H3.24146C2.00411 2.74749 1.0014 3.7501 1 4.98734V16.6684C1.0014 17.9057 2.00411 18.9083 3.24146 18.9097H15.8201C17.0575 18.9083 18.0602 17.9057 18.0616 16.6684V12.6883C18.0616 12.4407 17.8609 12.24 17.6133 12.24V12.24Z" fill="#4C5BD4" stroke="#4C5BD4" stroke-width="0.7"/>
<path d="M17.8835 1.59082C17.0957 0.803059 15.8184 0.803059 15.0306 1.59082L7.03276 9.58786C6.97794 9.64267 6.93837 9.7106 6.91771 9.7852L5.86597 13.5818C5.82271 13.7375 5.86667 13.9042 5.98084 14.0185C6.09519 14.1327 6.2619 14.1766 6.41758 14.1336L10.2146 13.0818C10.2892 13.0611 10.3571 13.0215 10.4119 12.9667L18.4096 4.9695C19.1962 4.18121 19.1962 2.9051 18.4096 2.11681L17.8835 1.59082ZM8.00954 9.87922L14.5551 3.33409L16.6662 5.44489L10.1204 11.99L8.00954 9.87922ZM7.58787 10.7253L9.2744 12.4118L6.94152 13.0581L7.58787 10.7253ZM17.7757 4.33565L17.3002 4.81103L15.1891 2.70006L15.6647 2.22467C16.1023 1.78711 16.8118 1.78711 17.2495 2.22467L17.7757 2.75067C18.2126 3.18876 18.2126 3.89773 17.7757 4.33565V4.33565Z" fill="#4C5BD4" stroke="#4C5BD4" stroke-width="0.7"/>
</g>
<defs>
<clipPath id="clip0">
<rect width="20" height="19.998" fill="white"/>
</clipPath>
</defs>
</svg>
