<svg width="20" height="22" viewBox="0 0 20 22" fill="none" xmlns="http://www.w3.org/2000/svg">
<path d="M2.5198 8.19997C2.51847 7.25118 2.70495 6.3115 3.06848 5.43511C3.43201 4.55872 3.96541 3.76295 4.63792 3.09366C5.31044 2.42438 6.10877 1.89482 6.9869 1.53551C7.86503 1.1762 8.80559 0.994248 9.75437 1.00014C13.7134 1.02957 16.8801 4.32029 16.8801 8.29036V8.99998C16.8801 12.5816 17.6294 14.6599 18.2894 15.7958C18.3605 15.9172 18.3983 16.0552 18.399 16.1958C18.3998 16.3365 18.3634 16.4749 18.2936 16.597C18.2238 16.7191 18.1231 16.8207 18.0015 16.8915C17.8799 16.9622 17.7419 16.9997 17.6012 17H1.79785C1.65717 16.9997 1.51908 16.9622 1.39749 16.8914C1.27591 16.8207 1.17515 16.7191 1.10536 16.5969C1.03557 16.4748 0.999235 16.3364 1.00001 16.1957C1.00079 16.055 1.03865 15.917 1.10979 15.7957C1.77012 14.6597 2.51979 12.5814 2.51979 8.99998L2.5198 8.19997Z" stroke="#666666" stroke-width="2" stroke-linecap="round" stroke-linejoin="round"/>
<path d="M6.50003 17V17.8C6.50003 18.6487 6.83717 19.4626 7.43729 20.0628C8.03741 20.6629 8.85135 21 9.70005 21C10.5487 21 11.3627 20.6629 11.9628 20.0628C12.5629 19.4626 12.9001 18.6487 12.9001 17.8V17" stroke="#666666" stroke-width="2" stroke-linecap="round" stroke-linejoin="round"/>
</svg>
