<svg width="22" height="32" viewBox="0 0 22 32" fill="none" xmlns="http://www.w3.org/2000/svg">
<path d="M2 27.3365C2 24.8482 3.82965 22.7386 6.29289 22.3867L9 22L11.5 24L14.5 22L16.7603 22.3477C19.1994 22.723 21 24.8217 21 27.2896V31H2V27.3365Z" fill="#4CD4B4"/>
<path fill-rule="evenodd" clip-rule="evenodd" d="M12.9568 21.155C12.9889 21.1471 13.0214 21.1424 13.0539 21.1409C13.2305 21.1329 13.4058 21.219 13.5041 21.3806C13.8863 22.0089 14.5539 22.3843 15.2901 22.3848C18.1421 22.3866 20.4482 24.6962 20.4462 27.5476L20.4442 30.5004C20.444 30.7336 20.2841 30.9302 20.0666 30.9849C20.2845 30.9305 20.4448 30.7336 20.4449 30.5002L20.4469 27.5474C20.449 24.696 18.1429 22.3864 15.2909 22.3846C14.5547 22.3841 13.8871 22.0087 13.5049 21.3804C13.4065 21.2185 13.2308 21.1326 13.0539 21.1409C13.0214 21.1425 12.9889 21.147 12.9568 21.155ZM14.6372 23.3147C14.637 23.3146 14.6367 23.3146 14.6365 23.3145L13.9368 26.4796C13.8925 26.6803 13.7425 26.813 13.5701 26.8562C13.7429 26.8132 13.8932 26.6804 13.9376 26.4794L14.6372 23.3147ZM11.2645 24.6161L11.2642 24.6157L10.8253 25.1198L10.8233 28.1195C10.8231 28.3527 10.6632 28.5493 10.4458 28.604C10.6636 28.5496 10.8239 28.3527 10.824 28.1193L10.8261 25.1196L11.2645 24.6161ZM9.37792 24.6259L9.37761 24.6256L7.57756 26.6955C7.50584 26.778 7.41695 26.8293 7.3235 26.8525C7.41723 26.8294 7.50642 26.778 7.57834 26.6953L9.37792 24.6259ZM4.35209 23.5005C2.54136 23.9506 1.20236 25.5853 1.20103 27.5345L1.19897 30.4873C1.19881 30.7204 1.03888 30.9171 0.821473 30.9718C1.03928 30.9174 1.19959 30.7205 1.19975 30.4871L1.20181 27.5343C1.20314 25.5854 2.54176 23.9509 4.35209 23.5005ZM4.12722 22.5173C4.52871 22.4189 4.94442 22.3704 5.36587 22.378C5.54065 22.378 5.71039 22.3566 5.87261 22.3164C5.71063 22.3565 5.54115 22.3778 5.36665 22.3778C4.94493 22.3702 4.52895 22.4188 4.12722 22.5173ZM3.74967 4.18535C3.81189 4.16988 3.87516 4.15709 3.93935 4.14709C3.93936 4.14706 3.93937 4.14704 3.93938 4.14701C3.87519 4.15703 3.8119 4.16986 3.74967 4.18535ZM7.55809 1.16473C7.98854 1.05657 8.43716 0.999671 8.89608 0.999805L16.3411 1.00493C16.6904 1.00518 16.9319 1.3554 16.8082 1.68201L16.1237 3.48718L16.4701 3.58785C17.7485 3.9595 18.6446 5.13765 18.6493 6.45288C18.6494 6.47901 18.6473 9.4317 18.6461 11.1688L18.6453 12.4074C18.6451 12.6407 18.4847 12.8376 18.2669 12.892C18.4843 12.8373 18.6443 12.6407 18.6445 12.4076C18.6445 12.3968 18.6448 11.8911 18.6453 11.1784C18.6465 9.44257 18.6486 6.47926 18.6485 6.45307C18.6439 5.13784 17.7477 3.9597 16.4693 3.58804L16.1229 3.48738L16.8074 1.6822C16.9312 1.3556 16.6897 1.00537 16.3403 1.00512L8.8953 1C8.43666 0.999867 7.9883 1.0567 7.55809 1.16473ZM13.1754 25.2925L11.9279 23.8541C12.1599 23.5877 12.0945 23.2839 11.9052 23.119C11.7774 23.0078 11.6091 22.973 11.4562 23.0109C11.6089 22.9733 11.7768 23.0081 11.9044 23.1192C12.0937 23.2841 12.1592 23.5879 11.9272 23.8543L13.1752 25.2934L13.1754 25.2925ZM10.32 24.1775L8.10809 21.7164C8.26555 21.4146 8.37129 21.0882 8.42115 20.7479C8.43091 20.6813 8.43852 20.6142 8.44397 20.5466C8.44372 20.5466 8.44347 20.5465 8.44322 20.5464C8.40998 20.9594 8.29563 21.3556 8.1073 21.7166L10.3196 24.1781L10.32 24.1775ZM11.9348 20.6257C12.2562 20.5458 12.5697 20.4424 12.873 20.3171C15.2573 19.3322 17.0124 16.9971 17.0195 14.149C17.0195 13.9788 17.0221 10.3282 17.0223 10.0799C17.0237 8.14602 15.4597 6.57997 13.5256 6.5786L9.85629 6.57608L7.15214 6.57422C6.85603 6.57422 6.5689 6.61068 6.29488 6.67929C6.56866 6.6108 6.85553 6.57442 7.15136 6.57442L9.85633 6.57628L13.5248 6.57879C15.459 6.58017 17.0229 8.14621 17.0215 10.0801C17.0213 10.3284 17.0188 13.979 17.0188 14.1492C17.0116 16.997 15.2569 19.332 12.873 20.3171C12.5697 20.4424 12.2562 20.5458 11.9348 20.6257ZM3.64761 13.3121C3.57594 13.2749 3.50916 13.2298 3.44848 13.178C3.22675 12.9888 3.08646 12.7099 3.08665 12.3967L3.09078 6.30698C3.09115 5.75113 3.47534 5.2836 3.99204 5.15539C3.47494 5.28333 3.09037 5.75105 3.09 6.30717L3.08587 12.3969C3.08562 12.7961 3.31363 13.1396 3.64761 13.3127L3.64761 13.3121ZM4.39945 5.10589C4.55636 5.06711 4.68377 4.95475 4.74311 4.80667C5.27944 3.46873 6.42405 2.47896 7.80541 2.13337C6.4237 2.47879 5.27876 3.46867 4.74233 4.80686C4.68309 4.9547 4.556 5.06693 4.39945 5.10589ZM12.4799 22.0038C12.7364 22.4257 13.0758 22.7742 13.47 23.0363L13.0665 24.8617L12.1814 23.8411C12.362 23.5207 12.2691 23.1707 12.0365 22.9682C11.7451 22.7144 11.303 22.7447 11.0491 23.0365L10.318 23.8761L8.34742 21.6835C8.4779 21.4046 8.56812 21.108 8.61544 20.8008C10.1154 21.187 11.607 21.0486 12.9166 20.5154C15.3886 19.509 17.2121 17.0959 17.2195 14.1495C17.2195 13.9794 17.2221 10.3284 17.2223 10.0801C17.2237 8.03569 15.5703 6.38005 13.5258 6.3786L9.81237 6.37605L7.15227 6.37422C5.09783 6.37422 3.45203 8.03464 3.45064 10.0708L3.44868 12.8874C3.34641 12.7497 3.28654 12.5803 3.28665 12.3968L3.29078 6.30711C3.29114 5.76313 3.73404 5.32059 4.27798 5.32059C4.57301 5.32059 4.82514 5.13961 4.92875 4.88108C5.57098 3.27895 7.12622 2.19961 8.89545 2.19956L15.3272 2.20392L14.81 3.56798C14.6655 3.94945 14.8767 4.37405 15.269 4.48816L16.1351 4.73991C16.8823 4.95709 17.4462 5.64131 17.4496 6.47636L17.4455 12.4065C17.4453 12.793 17.7585 13.1065 18.145 13.1069C18.5329 13.1069 18.845 12.7926 18.8453 12.4074L18.8461 11.1979C18.8473 9.46479 18.8494 6.47875 18.8493 6.45218C18.8443 5.04673 17.888 3.79178 16.5259 3.39579L16.3875 3.35558L16.9952 1.75289C17.1685 1.29553 16.8305 0.805279 16.3412 0.804929L8.89614 0.799805C6.70818 0.799168 4.74587 2.04933 3.80406 3.96812C2.71474 4.18847 1.89188 5.15241 1.89109 6.30622L1.88697 12.3959C1.88631 13.4097 2.55942 14.2464 3.45929 14.5277C3.60333 17.0722 5.12427 19.2266 7.25519 20.2932L7.25519 20.2958C7.25449 21.3363 6.41153 22.1768 5.36844 22.1778C2.5605 22.1287 0.00413875 24.4641 0.00206261 27.5335L1.64608e-07 30.4864C-0.00026214 30.8729 0.312999 31.1864 0.699563 31.1867C1.08752 31.1867 1.39949 30.8725 1.39975 30.4873L1.40181 27.5344C1.4033 25.3486 3.17171 23.5784 5.35978 23.5775C5.49984 23.5799 5.67943 23.5675 5.86353 23.5397L6.51753 26.5175C6.6412 27.0802 7.35345 27.2587 7.72926 26.8266L9.38086 24.9273L9.62629 25.2004L9.62428 28.1186C9.62402 28.5051 9.93728 28.8186 10.3238 28.8189C10.7118 28.8189 11.0238 28.5047 11.024 28.1195L11.026 25.1945L11.2647 24.9204L12.9208 26.8301C13.2977 27.2648 14.0092 27.0829 14.1329 26.5226L14.7909 23.5458C14.9541 23.5708 15.1208 23.5842 15.2902 23.5843C17.4786 23.5857 19.2488 25.3578 19.2472 27.5466L19.2452 30.4995C19.2449 30.886 19.5582 31.1995 19.9447 31.1998C20.3327 31.1998 20.6447 30.8856 20.6449 30.5004L20.6469 27.5476C20.6491 24.5857 18.2535 22.1865 15.2911 22.1846C14.6245 22.1841 14.0216 21.8451 13.6758 21.2765C13.5317 21.0395 13.2693 20.9186 13.0105 20.9434C12.9087 20.9532 12.8074 20.9855 12.7141 21.0422C12.384 21.243 12.279 21.6735 12.4799 22.0038ZM4.65032 10.0717L4.64758 14.1233C4.64758 17.283 7.19663 19.8142 10.3297 19.8164C10.8068 19.8164 11.2699 19.758 11.7122 19.6481C11.2697 19.7582 10.8063 19.8166 10.3289 19.8166C7.19585 19.8144 4.6468 17.2832 4.6468 14.1235L4.64954 10.0719C4.65034 8.90266 5.45795 7.91897 6.54442 7.64813C5.45834 7.91925 4.65112 8.90274 4.65032 10.0717ZM4.85033 10.0719L4.84758 14.1233C4.84765 17.1722 7.30693 19.6143 10.3299 19.6164C11.1446 19.6164 11.9169 19.44 12.611 19.1234C14.5002 18.2617 15.8103 16.3617 15.8197 14.1541L15.8225 10.0791C15.8234 8.80804 14.7955 7.77935 13.5247 7.77841L10.1197 7.77607L7.1497 7.77404C5.88263 7.77404 4.85119 8.80462 4.85033 10.0719ZM7.476 25.2887L7.47534 25.2895L6.95878 22.9374C7.14942 22.8225 7.32825 22.6855 7.49315 22.5289L7.49343 22.5292C7.45065 22.5698 7.40693 22.6091 7.36231 22.647C7.2351 22.7552 7.10056 22.8522 6.95956 22.9372L7.476 25.2887ZM8.43805 23.8784L7.58616 24.858L7.18494 23.031C7.28644 22.9634 7.38438 22.8899 7.47846 22.8107L8.43805 23.8784Z" fill="#666666"/>
</svg>
