<svg width="20" height="20" viewBox="0 0 20 20" fill="none" xmlns="http://www.w3.org/2000/svg">
<path fill-rule="evenodd" clip-rule="evenodd" d="M5.74609 0.686946C6.20396 0.248691 6.828 0 7.48173 0H12.5167C13.1704 0 13.7945 0.248691 14.2523 0.686946C14.7097 1.12475 14.9642 1.71577 14.9642 2.3293V3.21289L19.2308 3.21289C19.6556 3.21289 20 3.53654 20 3.93578C20 4.33502 19.6556 4.65867 19.2308 4.65867L18.1431 4.65867L17.2397 19.0916C17.2078 19.601 16.7589 19.9988 16.2158 19.9988H3.79101C3.24795 19.9988 2.79902 19.601 2.76714 19.0916L1.86372 4.65868L0.769231 4.65868C0.344397 4.65868 0 4.33503 0 3.93579C0 3.53655 0.344396 3.2129 0.769231 3.2129L5.03418 3.21289V2.3293C5.03418 1.71577 5.28868 1.12475 5.74609 0.686946ZM13.4258 2.3293V3.21289L6.57264 3.21289V2.3293C6.57264 2.09075 6.67178 1.86457 6.84387 1.69985C7.01549 1.53559 7.24523 1.44578 7.48173 1.44578H12.5167C12.7532 1.44578 12.9829 1.53559 13.1546 1.69985C13.3266 1.86457 13.4258 2.09075 13.4258 2.3293ZM7.4831 8.03223C7.90793 8.03223 8.25233 8.35588 8.25233 8.75512V15.1808C8.25233 15.58 7.90793 15.9037 7.4831 15.9037C7.05826 15.9037 6.71387 15.58 6.71387 15.1808V8.75512C6.71387 8.35588 7.05826 8.03223 7.4831 8.03223ZM13.289 8.75512C13.289 8.35588 12.9446 8.03223 12.5197 8.03223C12.0949 8.03223 11.7505 8.35588 11.7505 8.75512V15.1808C11.7505 15.58 12.0949 15.9037 12.5197 15.9037C12.9446 15.9037 13.289 15.58 13.289 15.1808V8.75512ZM4.27455 18.553L3.4299 5.05906H16.5769L15.7323 18.553H4.27455Z" fill="#EB5757"/>
</svg>
