<svg width="30" height="30" viewBox="0 0 30 30" fill="none" xmlns="http://www.w3.org/2000/svg">
<g clip-path="url(#clip0)">
<path d="M16.1074 7.63501V18.9491H26.904V7.63501C26.904 5.30316 24.9015 3.47486 22.5793 3.68634L21.8233 3.75547C21.612 3.77469 21.3994 3.77469 21.1881 3.75547L20.4321 3.68634C18.1099 3.47486 16.1074 5.30316 16.1074 7.63501Z" fill="#FDBD37"/>
<path d="M20.0554 3.67078C20.0258 3.67101 19.9963 3.67101 19.9668 3.67169C19.9963 3.67123 20.0258 3.67078 20.0554 3.67078Z" fill="#FA9A39"/>
<path d="M22.5781 3.68634L21.8221 3.75547C21.6109 3.77469 21.3982 3.77469 21.187 3.75547L20.431 3.68634C20.3342 3.67765 20.238 3.67353 20.1426 3.6717C22.2604 3.72502 24.0015 5.46086 24.0015 7.63501V18.9491H26.9028V7.63501C26.9028 5.30316 24.9003 3.47486 22.5781 3.68634Z" fill="#FA9A39"/>
<path d="M28.0948 18.1505C26.8357 17.5112 25.5068 17.0668 24.1507 16.8164C23.6234 16.7189 23.2393 16.2611 23.2393 15.7246V13.604H19.7733V15.7246C19.7733 16.2611 19.3893 16.7189 18.8619 16.8164C17.5058 17.0668 16.1769 17.5112 14.9181 18.1505C14.1113 18.6882 13.4512 19.9216 13.4512 20.8911V26.374H28.8574C29.2463 26.374 29.5617 26.0588 29.5617 25.67V20.8911C29.5615 19.9216 28.9014 18.6882 28.0948 18.1505Z" fill="#FED6A6"/>
<path d="M28.0943 18.1505C26.8352 17.5112 25.5063 17.0668 24.1502 16.8164C23.6228 16.7189 23.2388 16.2611 23.2388 15.7246V13.604H20.3496V16.8962C20.3496 17.4327 20.7334 17.8905 21.261 17.988C22.6171 18.2384 23.946 18.6831 25.2049 19.3222C26.0117 19.86 26.6718 21.0932 26.6718 22.0628V26.374H28.8569C29.2458 26.374 29.561 26.0588 29.561 25.67V20.8911C29.561 19.9216 28.9009 18.6882 28.0943 18.1505Z" fill="#EFC79C"/>
<path d="M17.7052 8.70801H17.0751C16.5405 8.70801 16.1074 9.14151 16.1074 9.67618V10.1342C16.1074 10.6691 16.5402 11.1026 17.0751 11.1026H17.7052V8.70801Z" fill="#FED6A6"/>
<path d="M25.3066 8.70801H25.9368C26.4714 8.70801 26.9045 9.14151 26.9045 9.67618V10.1342C26.9045 10.6691 26.4714 11.1026 25.9368 11.1026H25.3066V8.70801Z" fill="#FED6A6"/>
<path d="M21.3778 6.41714C19.9292 7.78197 18.1329 8.12163 17.5877 8.19624C17.4934 8.20906 17.4234 8.28917 17.4238 8.38416L17.4362 11.6393C17.4362 14.3452 20.2766 15.6191 21.5062 15.6454C22.7359 15.6191 25.5761 14.3452 25.5761 11.6393L25.5887 8.38416C25.5889 8.28917 25.5189 8.20906 25.4248 8.19624C24.8794 8.12186 23.0834 7.78197 21.6346 6.41714C21.5627 6.3494 21.4499 6.3494 21.3778 6.41714Z" fill="#FFE3C2"/>
<path d="M25.4236 8.1963C25.0054 8.13908 23.8512 7.92531 22.6823 7.21326L22.6742 11.6394C22.6742 13.519 21.3039 14.7073 20.0547 15.2669C20.6038 15.513 21.1295 15.6375 21.5049 15.6455C22.7347 15.6192 25.5751 14.3452 25.5751 11.6394L25.5875 8.38445C25.5879 8.28923 25.5179 8.20912 25.4236 8.1963Z" fill="#F7D6B5"/>
<path d="M28.0948 18.1506C27.2333 17.7132 26.3391 17.3674 25.426 17.1119C24.9248 17.9167 23.3279 19.7461 21.4353 19.7461C19.5694 19.7461 17.9908 17.9332 17.4662 17.146C16.5949 17.3978 15.7416 17.7324 14.9178 18.1506C14.1113 18.6882 13.4512 19.9217 13.4512 20.8912V26.3741H28.8574C29.2463 26.3741 29.5615 26.0589 29.5615 25.6701V20.8912C29.5615 19.9217 28.9014 18.6882 28.0948 18.1506Z" fill="#FF94A6"/>
<path d="M28.8572 26.3741C29.246 26.3741 29.5612 26.0589 29.5612 25.6701V20.8912C29.5612 19.9217 28.9011 18.6882 28.0945 18.1506C27.233 17.7132 26.3388 17.3671 25.4258 17.1119C25.1722 17.5189 24.6382 18.1877 23.9277 18.7498C24.3601 18.9192 24.7865 19.1098 25.2051 19.3223C26.0119 19.8601 26.672 21.0933 26.672 22.0629V26.3741H28.8572Z" fill="#F4849C"/>
<path d="M15.0581 18.1645C10.9245 16.0661 6.03745 16.0661 1.90384 18.1645C1.00548 18.6204 0.439453 19.5426 0.439453 20.5499V25.67C0.439453 26.0589 0.754623 26.374 1.14349 26.374H16.5225V20.5499C16.5225 19.5426 15.9565 18.6204 15.0581 18.1645Z" fill="#51A1C8"/>
<path d="M15.0573 18.1645C12.6238 16.9292 9.92941 16.4218 7.28125 16.641V16.6594C7.28125 17.2364 7.69461 17.7262 8.26132 17.8337C9.5909 18.086 10.8932 18.5252 12.1283 19.1523C13.0266 19.6083 13.5927 20.5304 13.5927 21.5377V26.374H16.5217V20.5499C16.5217 19.5426 15.9556 18.6204 15.0573 18.1645Z" fill="#4497B7"/>
<path d="M2.40039 17.9256C2.87074 17.821 3.34521 17.7395 3.82198 17.6823V17.3586C3.34087 17.5216 2.86639 17.7109 2.40039 17.9256Z" fill="#51A1C8"/>
<path d="M6.75 13.6257H10.2102V18.0615H6.75V13.6257Z" fill="#FED6A6"/>
<path d="M7.28125 16.6593C7.28125 17.2363 7.69461 17.7264 8.26132 17.8337C8.59824 17.8976 8.93309 17.9738 9.26566 18.0617H10.2103V13.6257H7.28125V16.6593Z" fill="#EFC79C"/>
<path d="M12.4754 5.31873H4.48515C3.83421 5.31873 3.30664 5.8463 3.30664 6.49724V9.75766H13.6539V6.49724C13.6539 5.8463 13.1264 5.31873 12.4754 5.31873Z" fill="#FA9A39"/>
<path d="M4.68687 8.73804H4.05791C3.52415 8.73804 3.0918 9.17085 3.0918 9.70461V10.1619C3.0918 10.6957 3.52415 11.1285 4.05791 11.1285H4.68687V8.73804Z" fill="#FED6A6"/>
<path d="M12.2754 8.73804H12.9046C13.4383 8.73804 13.8705 9.17085 13.8705 9.70461V10.1619C13.8705 10.6957 13.4383 11.1285 12.9046 11.1285H12.2754V8.73804Z" fill="#FED6A6"/>
<path d="M4.40234 7.15442L4.41631 11.6643C4.44331 12.8135 5.09494 13.6064 5.78639 14.2873C6.42291 14.914 7.28877 15.6539 8.50322 15.6645C9.71767 15.6457 10.5783 14.9007 11.2104 14.2697C11.8971 13.5839 12.5434 12.7856 12.5624 11.6364L12.554 8.90193C12.551 7.93605 11.7671 7.15442 10.801 7.15442H4.40234Z" fill="#FFE3C2"/>
<path d="M12.5527 8.90216C12.5497 7.93605 11.7658 7.15442 10.7997 7.15442H9.64592L9.65965 11.6364C9.64066 12.7856 8.99452 13.5842 8.30765 14.2697C7.96112 14.6157 7.5457 14.9957 7.04102 15.2717C7.46239 15.5015 7.94556 15.6597 8.50174 15.6645C9.71619 15.6457 10.577 14.9007 11.209 14.2697C11.8958 13.5842 12.542 12.7858 12.5612 11.6364L12.5527 8.90216Z" fill="#F7D6B5"/>
<path d="M6.13608 3.66211C5.20316 3.66211 4.44281 4.39911 4.40459 5.32265C3.79897 5.37209 3.30664 5.87906 3.30664 6.49727V9.09645C3.48357 8.87787 3.75388 8.73802 4.05714 8.73802H4.40596C4.40596 8.73802 4.40733 8.73802 4.40573 8.73802C5.04523 8.73802 5.59111 8.2251 5.71677 7.59819C5.71677 7.3558 5.91338 7.15919 6.15576 7.15919H10.8934C12.3287 7.15919 13.4923 5.99556 13.4923 4.56024V3.78204C13.4923 3.7159 13.4388 3.66211 13.3724 3.66211H6.13608Z" fill="#FDBD37"/>
<path d="M10.5287 16.2803L8.48047 18.0615L10.5947 19.346C10.7574 19.4449 10.9691 19.4016 11.0799 19.2467L12.5605 17.1757L11.3028 16.249C11.0694 16.0771 10.7475 16.0899 10.5287 16.2803Z" fill="#3990B2"/>
<path d="M6.43413 16.2803L8.48239 18.0615L6.36821 19.346C6.20547 19.4449 5.99376 19.4016 5.88298 19.2467L4.40234 17.1757L5.66005 16.249C5.89351 16.0771 6.21532 16.0899 6.43413 16.2803Z" fill="#3990B2"/>
<path d="M21.5671 12.0685H21.8669C22.1096 12.0685 22.3064 11.8718 22.3064 11.629C22.3064 11.3862 22.1096 11.1895 21.8669 11.1895H21.8633V10.5757C21.8633 10.3331 21.6664 10.1362 21.4238 10.1362C21.1812 10.1362 20.9844 10.3331 20.9844 10.5757V11.4857C20.9844 11.8071 21.2458 12.0685 21.5671 12.0685Z" fill="#474747"/>
<path d="M23.238 13.1779C23.3678 12.9728 23.3067 12.7013 23.1016 12.5716C22.8963 12.4418 22.6249 12.5029 22.4951 12.708C22.3198 12.9854 21.9311 13.1646 21.5056 13.1646C21.0799 13.1646 20.6915 12.9854 20.5159 12.708C20.3862 12.5029 20.1147 12.4418 19.9096 12.5716C19.7046 12.7013 19.6434 12.9728 19.7732 13.1779C20.1113 13.7119 20.775 14.0435 21.5056 14.0435C22.2362 14.0435 22.9 13.7119 23.238 13.1779Z" fill="#474747"/>
<path d="M23.5879 10.5832C23.8307 10.5832 24.0273 10.3866 24.0273 10.1438V9.72925C24.0273 9.4864 23.8307 9.28979 23.5879 9.28979C23.3453 9.28979 23.1484 9.4864 23.1484 9.72925V10.1438C23.1484 10.3866 23.3453 10.5832 23.5879 10.5832Z" fill="#474747"/>
<path d="M19.8613 10.1438V9.72925C19.8613 9.4864 19.6647 9.28979 19.4219 9.28979C19.1793 9.28979 18.9824 9.4864 18.9824 9.72925V10.1438C18.9824 10.3866 19.1793 10.5832 19.4219 10.5832C19.6647 10.5832 19.8613 10.3866 19.8613 10.1438Z" fill="#474747"/>
<path d="M8.54344 12.0937H8.84259C9.08543 12.0937 9.28204 11.8969 9.28204 11.6543C9.28204 11.4114 9.08543 11.2148 8.84259 11.2148L8.83984 10.6028C8.83984 10.3599 8.64323 10.1633 8.40039 10.1633C8.15778 10.1633 7.96094 10.3599 7.96094 10.6028V11.5114C7.96094 11.8323 8.22232 12.0937 8.54344 12.0937Z" fill="#474747"/>
<path d="M10.2098 13.2007C10.3396 12.9956 10.2784 12.7242 10.0734 12.5944C9.86829 12.4646 9.59684 12.5257 9.46706 12.7306C9.29197 13.0073 8.90447 13.1863 8.47967 13.1863C8.05509 13.1863 7.6676 13.0073 7.4925 12.7306C7.36273 12.5257 7.09127 12.4646 6.88619 12.5944C6.68112 12.7242 6.62001 12.9956 6.74978 13.2007C7.08715 13.734 7.74999 14.0652 8.47967 14.0652C9.20957 14.0652 9.87241 13.734 10.2098 13.2007Z" fill="#474747"/>
<path d="M10.5605 10.611C10.8034 10.611 11 10.4144 11 10.1715V9.75769C11 9.51485 10.8034 9.31824 10.5605 9.31824C10.3179 9.31824 10.1211 9.51485 10.1211 9.75769V10.1715C10.1211 10.4144 10.3179 10.611 10.5605 10.611Z" fill="#474747"/>
<path d="M6.83984 10.1715V9.75769C6.83984 9.51485 6.64323 9.31824 6.40039 9.31824C6.15778 9.31824 5.96094 9.51485 5.96094 9.75769V10.1715C5.96094 10.4144 6.15778 10.611 6.40039 10.611C6.64323 10.611 6.83984 10.4144 6.83984 10.1715Z" fill="#474747"/>
<path d="M28.3376 17.7848C28.3232 17.7752 27.4999 17.2252 24.2297 16.3843C23.9147 16.3033 23.6778 16.0478 23.6778 15.7246V15.3902C23.8779 15.2742 24.0763 15.1431 24.2683 14.9963C25.0651 14.3877 26.0149 13.3111 26.0149 11.6412L26.0154 11.5398C26.1733 11.5311 26.3244 11.4958 26.4642 11.4391V15.6525C26.4642 15.8952 26.6611 16.092 26.9037 16.092C27.1465 16.092 27.3431 15.8952 27.3431 15.6525V7.63504C27.3431 6.40045 26.8204 5.21507 25.9085 4.38263C24.9969 3.55019 23.7689 3.13683 22.5391 3.24875C21.8358 3.31284 21.1739 3.31284 20.4716 3.24875C19.2423 3.13705 18.0141 3.55019 17.1023 4.38263C16.1906 5.21507 15.6676 6.40045 15.6676 7.63504V15.6454C15.6676 15.8883 15.8645 16.0849 16.1071 16.0849C16.3499 16.0849 16.5466 15.8883 16.5466 15.6454V11.4391C16.6866 11.4958 16.8377 11.5308 16.9956 11.5398L16.9961 11.6393C16.9961 13.3111 17.9457 14.3877 18.7424 14.9963C18.9347 15.1433 19.1329 15.2742 19.333 15.3902V15.7246C19.333 16.0478 19.1009 16.3252 18.7811 16.3843C17.4623 16.6278 16.1824 17.0476 14.9737 17.6326C14.2632 17.2911 13.5207 17.0039 12.7608 16.7773L11.5643 15.8954C11.2926 15.6953 10.9563 15.6404 10.6506 15.7267C10.6506 15.6612 10.6508 15.5958 10.6508 15.5305C10.6508 15.469 10.6563 15.4044 10.6469 15.3436C10.9685 15.1094 11.2569 14.8439 11.5205 14.5807C12.2406 13.8618 12.9799 12.9506 13.0014 11.6437C13.0016 11.6409 13.0016 11.638 13.0016 11.635L13.0014 11.5647C13.7313 11.5146 14.3097 10.9046 14.3097 10.1619V9.70459C14.3097 9.43016 14.2307 9.17381 14.0941 8.95729V6.49727C14.0941 6.14822 13.9799 5.80971 13.7734 5.53253C13.8766 5.2272 13.9327 4.90013 13.9327 4.56024V3.78204C13.9327 3.47351 13.6819 3.22266 13.3733 3.22266H6.13678C5.08713 3.22266 4.2112 3.96011 4.00864 4.95575C3.34625 5.16632 2.86789 5.78545 2.86789 6.49727V8.95706C2.73125 9.17381 2.65228 9.43016 2.65228 9.70459V10.1619C2.65228 10.9097 3.23891 11.5228 3.97591 11.5654C3.97591 11.5654 3.97636 11.6716 3.97636 11.6746C3.99055 12.2779 4.15306 12.8341 4.4735 13.3754C4.92714 14.1417 5.59639 14.8002 6.31142 15.3248V15.7262C6.00563 15.6404 5.66986 15.6953 5.39864 15.8954L4.2025 16.7766C3.34053 17.0338 2.50053 17.3687 1.70471 17.7727C0.653229 18.3064 0 19.3707 0 20.5499V21.8655C0 22.1082 0.196838 22.305 0.439453 22.305C0.682068 22.305 0.878906 22.1082 0.878906 21.8655V20.5499C0.878906 19.7035 1.34789 18.9395 2.10274 18.5564C2.78183 18.2117 3.49548 17.9203 4.22813 17.6882L5.52498 19.5021C5.68039 19.7195 5.92873 19.8374 6.18095 19.8374C6.32355 19.8374 6.46706 19.7999 6.59592 19.7216L8.48145 18.576L10.367 19.7216C10.4958 19.7999 10.6396 19.8374 10.7819 19.8374C11.0342 19.8374 11.2825 19.7195 11.4379 19.5021L12.7348 17.6884C13.4669 17.9203 14.1801 18.2117 14.8592 18.5564C15.6141 18.9395 16.0831 19.7033 16.0831 20.5499V25.9346H14.4232V23.31C14.4232 23.0672 14.2264 22.8706 13.9838 22.8706C13.7409 22.8706 13.5443 23.0672 13.5443 23.31V25.9346H3.41766V23.31C3.41766 23.0672 3.22105 22.8706 2.97821 22.8706C2.7356 22.8706 2.53876 23.0672 2.53876 23.31V25.9346H1.14349C0.997696 25.9346 0.878906 25.8158 0.878906 25.6698V23.9097C0.878906 23.6668 0.682068 23.4702 0.439453 23.4702C0.196838 23.4702 0 23.6668 0 23.9097V25.6698C0 26.3004 0.512924 26.8135 1.14349 26.8135H28.8565C29.4871 26.8135 30 26.3004 30 25.6698V20.891C30 19.7708 29.2696 18.4064 28.3376 17.7848ZM26.0186 10.6565L26.0243 9.15482C26.2738 9.19716 26.4642 9.4146 26.4642 9.67621V10.1342C26.4642 10.3976 26.2708 10.6167 26.0186 10.6565ZM17.6949 5.03151C18.4248 4.36523 19.4078 4.0345 20.3918 4.12422C21.1482 4.19312 21.8635 4.19289 22.6188 4.12422C23.6028 4.0345 24.586 4.36523 25.3159 5.03151C26.0456 5.69778 26.4642 6.64673 26.4642 7.63504V8.37135C26.3248 8.31482 26.1745 8.2798 26.017 8.27087C25.9689 8.00835 25.7558 7.79778 25.4832 7.7607C24.9944 7.69409 23.2933 7.37686 21.9351 6.09718C21.6941 5.87013 21.3167 5.87036 21.0754 6.09718C19.7173 7.37686 18.0162 7.69409 17.5273 7.7607C17.2549 7.79778 17.0416 8.00835 16.9936 8.27087C16.8363 8.2798 16.6859 8.31482 16.5466 8.37135V7.63504C16.5466 6.64673 16.965 5.69778 17.6949 5.03151ZM16.5466 10.1342V9.67621C16.5466 9.41483 16.737 9.19716 16.9865 9.15482L16.9922 10.6565C16.74 10.6167 16.5466 10.3976 16.5466 10.1342ZM17.8748 11.6377L17.8631 8.59772C18.5696 8.47389 20.154 8.07793 21.5053 6.89415C22.8568 8.0777 24.4411 8.47389 25.1477 8.59772L25.136 11.6393C25.136 12.9517 24.3741 13.8096 23.7348 14.298C22.9438 14.9025 22.0274 15.1916 21.5053 15.206C20.9832 15.1916 20.067 14.9025 19.276 14.298C18.6367 13.8096 17.8748 12.9517 17.8748 11.6377ZM18.9407 17.2485C19.6507 17.1174 20.173 16.517 20.2096 15.805L20.2094 15.8043C20.6982 15.9867 21.1526 16.0773 21.4959 16.0847C21.4991 16.0849 21.5117 16.0849 21.5147 16.0847C21.8582 16.0773 22.3125 15.9865 22.8014 15.8043L22.801 15.805C22.8376 16.517 23.3601 17.1174 24.0701 17.2485C24.278 17.2868 24.4849 17.33 24.6906 17.3774C24.4295 17.6983 24.0811 18.0647 23.6771 18.3875C23.1523 18.8068 22.337 19.3066 21.4343 19.3066C20.1334 19.3066 18.9109 18.2439 18.2092 17.4037C18.4513 17.3456 18.6953 17.2939 18.9407 17.2485ZM13.4306 10.1619C13.4306 10.4203 13.2438 10.6359 12.9984 10.6805L12.9939 9.18503C13.2415 9.22783 13.4306 9.44458 13.4306 9.70459V10.1619ZM13.2152 8.33336C13.1161 8.3107 13.0133 8.2988 12.9076 8.29857C12.7924 7.89528 12.5668 7.54166 12.2649 7.27158C12.6302 7.08618 12.9531 6.82915 13.2152 6.51901V8.33336ZM4.44122 5.76073C4.66232 5.74265 4.83536 5.56252 4.84451 5.34073C4.87312 4.64584 5.44075 4.10156 6.13678 4.10156H13.0536V4.56024C13.0536 5.73853 12.1051 6.69937 10.9314 6.71951C10.9174 6.71906 6.15646 6.71974 6.15646 6.71974C5.69046 6.71974 5.30823 7.08458 5.27985 7.54349C5.1796 7.96944 4.80171 8.29857 4.40643 8.29857C4.18671 8.29857 3.96263 8.28438 3.7468 8.33336V6.49727C3.7468 6.11595 4.05167 5.79254 4.44122 5.76073ZM3.53119 10.1619V9.70459C3.53119 9.44435 3.7207 9.2276 3.96858 9.18503L3.97339 10.6821C3.72299 10.6414 3.53119 10.4237 3.53119 10.1619ZM4.85527 11.6583L4.84726 9.11568C5.48355 8.93555 6.00883 8.38005 6.14845 7.68471C6.15417 7.65633 6.15669 7.62772 6.15669 7.59865H10.9085C11.5439 7.65015 12.0465 8.14384 12.1076 8.77991C12.1097 8.80119 12.1225 11.6331 12.1225 11.6331C12.1056 12.5665 11.6212 13.2378 10.8994 13.9586C10.2509 14.6059 9.51164 15.2071 8.50113 15.2248C7.4913 15.214 6.74767 14.6175 6.09421 13.9742C5.36751 13.2584 4.87862 12.5906 4.85527 11.6583ZM8.49884 16.1039H8.50273C8.50502 16.1039 8.50731 16.1039 8.50937 16.1037C8.97537 16.0966 9.39331 15.9984 9.77165 15.8421V16.3568L8.48145 17.4788L7.19032 16.3561V15.832C7.58148 15.9968 8.01476 16.0995 8.49884 16.1039ZM6.19926 18.9342L5.01137 17.2726L5.92003 16.6029C5.98869 16.5525 6.08116 16.5564 6.14525 16.612L7.73964 17.9984L6.19926 18.9342ZM10.7636 18.9342L9.22325 17.9984L10.8174 16.612H10.8176C10.8817 16.5562 10.9742 16.5525 11.0429 16.6029L11.9515 17.2726L10.7636 18.9342ZM29.1211 25.67C29.1211 25.8158 29.0023 25.9346 28.8565 25.9346H27.4475V23.31C27.4475 23.0674 27.2507 22.8706 27.0081 22.8706C26.7654 22.8706 26.5686 23.0674 26.5686 23.31V25.9346H16.962V20.5499C16.962 19.6234 16.5587 18.7681 15.8759 18.1849C16.3378 17.9842 16.8095 17.8082 17.2893 17.658C18.0704 18.7042 19.6431 20.1858 21.4343 20.1858C23.3047 20.1858 24.8824 18.6413 25.6107 17.6237C26.3876 17.8596 27.1433 18.1627 27.8705 18.53C28.5505 18.9972 29.1211 20.0713 29.1211 20.8912V25.67Z" fill="#474747"/>
</g>
<defs>
<clipPath id="clip0">
<rect width="30" height="30" fill="white"/>
</clipPath>
</defs>
</svg>
