<svg width="30" height="30" viewBox="0 0 30 30" fill="none" xmlns="http://www.w3.org/2000/svg">
<g clip-path="url(#clip0)">
<path d="M26.0794 29.0866L24.4493 29.1563L15.0011 29.5594L3.90352 29.0866C3.50098 20.2133 3.90352 14.0793 3.90352 14.0793L15.0011 2.73523L24.3919 12.3016L26.0794 14.0207C26.0794 14.0207 26.4819 20.2133 26.0794 29.0866Z" fill="#E1F9FF"/>
<path d="M26.0781 29.0865L24.448 29.1562C24.8102 21.6043 24.5518 15.1743 24.3906 12.3015L26.0781 14.0206C26.0781 14.0207 26.4807 20.2133 26.0781 29.0865Z" fill="#A6DFF5"/>
<path d="M25.2205 9.03451L23.7984 7.6957L21.8906 5.89986C21.9346 4.11984 22.0312 2.90226 22.0312 2.90226C22.6488 2.83546 23.216 2.81671 23.6889 2.82023C24.5309 2.82609 25.0746 2.90226 25.0746 2.90226C25.0746 2.90226 25.2979 5.71289 25.2205 9.03451Z" fill="#F77173"/>
<path d="M25.2191 9.03447L23.7971 7.69566C23.7818 5.83888 23.7385 4.19005 23.6875 2.82019C24.5295 2.82605 25.0732 2.90222 25.0732 2.90222C25.0732 2.90222 25.2965 5.71285 25.2191 9.03447Z" fill="#ED485C"/>
<path d="M29.5605 13.9105C29.5605 13.9105 28.7033 15.1949 27.6023 15.7058C27.6023 15.7058 27.1927 15.2288 26.4773 14.4443C24.3925 12.1562 19.7074 7.24797 15 3.90701C8.67891 8.39348 2.39766 15.7058 2.39766 15.7058C1.29668 15.1949 0.439453 13.9105 0.439453 13.9105C0.439453 13.9105 5.88691 6.78221 14.9999 0.438965C21.638 5.05955 26.3313 10.0967 28.3909 12.4914C29.1585 13.3844 29.5605 13.9105 29.5605 13.9105Z" fill="#FEAF82"/>
<path d="M29.5598 13.9106C29.5598 13.9106 28.7025 15.195 27.6016 15.7058C27.6016 15.7058 27.192 15.2289 26.4766 14.4443C27.7164 13.631 28.2021 12.9379 28.3902 12.4915C29.1578 13.3844 29.5598 13.9106 29.5598 13.9106Z" fill="#DD927A"/>
<path d="M21.5232 26.0616C20.8418 26.1319 20.1785 26.1893 19.5351 26.2362C12.965 26.7149 8.47855 26.0592 8.47855 26.0592C8.47328 22.6784 9.06566 21.1181 13.8879 20.8667L15.4348 20.8685L16.1145 20.869C20.9361 21.1204 21.5285 22.6808 21.5232 26.0616Z" fill="#9BD8DA"/>
<path d="M19.534 26.2361C19.6623 22.2477 16.7566 21.4889 15.4336 20.8684L16.1133 20.869C20.935 21.1204 21.5274 22.6807 21.5221 26.0615C20.8406 26.1318 20.1773 26.1892 19.534 26.2361Z" fill="#3EAFA9"/>
<path d="M16.1145 20.1078V20.8127C16.1145 21.1203 15.9897 21.3992 15.7881 21.6014C15.5866 21.8029 15.3077 21.9277 15.0001 21.9277C14.3842 21.9277 13.885 21.4285 13.885 20.8127V20.1189C13.544 20.0404 13.2528 19.9232 13.0044 19.7768C11.0672 18.6371 11.7247 15.7327 11.7247 15.7327L15.0001 12.6144L17.8635 15.3794L18.2292 15.7327C18.2292 15.7327 19.0571 19.3936 16.1145 20.1078Z" fill="#FFE6C7"/>
<path d="M16.116 20.1079V20.8127C16.116 21.1204 15.9912 21.3993 15.7896 21.6014C15.5881 21.803 15.3092 21.9278 15.0016 21.9278C14.3857 21.9278 13.8865 21.4286 13.8865 20.8127V20.119C13.5455 20.0405 13.2543 19.9233 13.0059 19.7768C16.0826 18.8176 17.377 17.0493 17.865 15.3794L18.2307 15.7327C18.2307 15.7328 19.0586 19.3937 16.116 20.1079Z" fill="#FFD5B0"/>
<path d="M10.685 15.5815C10.685 15.5815 14.9777 16.6817 14.9777 12.6146C14.9777 8.54761 7.89227 12.331 10.685 15.5815Z" fill="#A1ADB4"/>
<path d="M19.276 15.5781C19.276 15.5781 18.1271 15.8729 17.0198 15.5913C15.9919 15.3307 15 14.5738 15 12.6228C15 11.9249 15.2092 11.4593 15.5415 11.1834C17.1387 9.85369 21.5787 12.898 19.276 15.5781Z" fill="#A1ADB4"/>
<path d="M19.2775 15.5781C19.2775 15.5781 18.1286 15.8729 17.0214 15.5913C16.9963 15.583 16.9839 15.5781 16.9839 15.5781C18.4858 13.8294 17.1187 11.9263 15.543 11.1834C17.1402 9.85369 21.5802 12.898 19.2775 15.5781Z" fill="#6F7F8F"/>
<path d="M3.50944 10.3813C3.59452 10.4623 3.70356 10.5025 3.81243 10.5025C3.92844 10.5025 4.04434 10.4568 4.13071 10.3661C6.44434 7.93699 10.1935 4.35404 14.9997 0.975762C15.6642 1.44287 16.3309 1.92949 16.9852 2.4252C17.1787 2.57168 17.4543 2.53365 17.6009 2.34023C17.7474 2.14676 17.7094 1.87113 17.5159 1.72459C16.7698 1.15939 16.0076 0.605625 15.2507 0.07875C15.0999 -0.02625 14.8995 -0.02625 14.7486 0.07875C9.76174 3.54996 5.87592 7.25936 3.49426 9.76002C3.32692 9.93574 3.33366 10.2139 3.50944 10.3813Z" fill="#474747"/>
<path d="M29.9097 13.6445C29.8854 13.6127 28.3753 11.6515 25.6621 8.89386C25.7287 5.65292 25.5136 2.89539 25.5113 2.86744C25.4951 2.66201 25.3381 2.49548 25.1341 2.46701C25.0777 2.45915 23.7336 2.27634 21.9831 2.46531C21.7731 2.48798 21.6089 2.65685 21.5922 2.86744C21.5915 2.87746 21.5272 3.69607 21.4796 4.95226C20.7302 4.29759 19.9364 3.63039 19.1008 2.96007C18.9115 2.8082 18.6349 2.83861 18.4831 3.02792C18.3312 3.21724 18.3616 3.49386 18.5509 3.64568C24.3671 8.31115 28.12 12.8148 29.0081 13.921C28.7571 14.2428 28.2759 14.7985 27.7022 15.1533C26.5013 13.7908 20.8646 7.5308 15.2543 3.54871C15.1019 3.44054 14.898 3.44054 14.7456 3.54871C9.13539 7.5308 3.49867 13.7907 2.29785 15.1531C1.72603 14.7988 1.24357 14.2423 0.991911 13.9203C1.28265 13.5573 1.87984 12.8301 2.75019 11.8594C2.9122 11.6786 2.89709 11.4008 2.71638 11.2388C2.53574 11.0768 2.25789 11.0919 2.09582 11.2726C0.803415 12.7141 0.118747 13.6072 0.0902704 13.6445C-0.023753 13.7938 -0.0303741 13.9991 0.0739228 14.1553C0.111716 14.2119 1.0133 15.5484 2.21283 16.1051C2.39125 16.1878 2.603 16.142 2.73121 15.9928C2.74316 15.979 2.98082 15.7035 3.40076 15.2362C3.28492 17.8773 3.19633 22.8356 3.44207 28.6254C2.30652 28.5237 1.6675 28.4462 1.64898 28.444C1.40769 28.4145 1.18879 28.5856 1.15914 28.8264C1.12943 29.0673 1.30064 29.2866 1.54152 29.3163C1.59695 29.3231 7.17988 30 15 30C22.8201 30 28.403 29.3231 28.4585 29.3163C28.6994 29.2866 28.8706 29.0673 28.8409 28.8264C28.8112 28.5856 28.5924 28.4145 28.351 28.444C28.3324 28.4463 27.6864 28.5246 26.5387 28.6273C26.5721 27.842 26.6005 27.0497 26.6233 26.2656C26.6303 26.0229 26.4394 25.8206 26.1968 25.8135C25.9537 25.8072 25.7518 25.9974 25.7447 26.24C25.721 27.0576 25.6911 27.8842 25.6558 28.7024C23.2898 28.8935 19.5245 29.1211 15 29.1211C10.4648 29.1211 6.69039 28.8923 4.3249 28.7007C3.98242 20.7709 4.28547 15.0484 4.33427 14.2134C6.55404 11.8169 10.7698 7.50173 15 4.44753C19.2194 7.494 23.4245 11.795 25.6487 14.1951C25.6926 14.9638 25.8843 18.7152 25.7936 24.1083C25.7895 24.351 25.9829 24.551 26.2256 24.5551C26.2281 24.5551 26.2306 24.5552 26.2331 24.5552C26.4723 24.5552 26.6683 24.3633 26.6724 24.1231C26.7415 20.0104 26.6472 16.8432 26.5782 15.2127C27.0112 15.6943 27.2567 15.9787 27.2688 15.9928C27.3544 16.0924 27.4771 16.146 27.6023 16.146C27.6647 16.146 27.7278 16.1326 27.7871 16.1051C28.9867 15.5484 29.8882 14.2119 29.926 14.1553C30.0303 13.999 30.0238 13.7938 29.9097 13.6445ZM24.7947 8.02656C24.048 7.29179 23.2262 6.51361 22.3341 5.71017C22.3641 4.62455 22.413 3.76451 22.4427 3.30484C23.4116 3.22708 24.2223 3.2664 24.6606 3.30191C24.709 4.05097 24.8085 5.87365 24.7947 8.02656Z" fill="#474747"/>
<path d="M13.3122 25.9553C13.0715 25.9484 12.8683 26.1418 12.8627 26.3845C12.8571 26.6271 13.0492 26.8284 13.2919 26.834C13.783 26.8454 14.2759 26.8511 14.7706 26.8511C17.0188 26.8511 19.299 26.7332 21.5681 26.4991C21.7919 26.4761 21.9622 26.2877 21.9625 26.0627C21.9653 24.2561 21.7982 22.9463 20.9574 22.0001C20.1565 21.0987 18.7896 20.6168 16.5549 20.4561V20.4379C17.7471 20.0326 18.4895 19.1003 18.7101 17.7223C18.8098 17.0997 18.78 16.5127 18.7354 16.1207C19.1163 16.079 19.3725 16.0152 19.4025 16.0075C19.4898 15.9851 19.5681 15.9365 19.6268 15.8682C20.5419 14.8031 20.6328 13.5212 19.8762 12.3511C18.9846 10.9722 17.1647 10.1218 15.9025 10.4946C15.635 10.5735 15.2707 10.7449 14.9893 11.1161C14.7079 10.745 14.3436 10.5735 14.0761 10.4946C12.8139 10.122 10.994 10.9722 10.1024 12.3511C9.34586 13.5212 9.43674 14.8031 10.3519 15.8682C10.4105 15.9365 10.4888 15.9851 10.5761 16.0075C10.6056 16.015 10.8522 16.0764 11.2206 16.1182C11.1754 16.5137 11.1451 17.1089 11.2483 17.739C11.4755 19.1259 12.2327 20.0576 13.4467 20.4531V20.4537C11.212 20.6145 9.84508 21.0964 9.04416 21.9977C8.20334 22.944 8.03623 24.2538 8.0391 26.0603C8.03945 26.2782 8.19941 26.463 8.41504 26.4945C8.45371 26.5001 9.38107 26.634 11.0126 26.7369C11.022 26.7374 11.0313 26.7377 11.0406 26.7377C11.2707 26.7377 11.4641 26.5587 11.4788 26.3259C11.494 26.0837 11.31 25.8749 11.0678 25.8597C10.0687 25.7967 9.33209 25.7207 8.92 25.6726C8.95609 22.8447 9.51648 21.6066 13.5345 21.3284C13.7475 21.9329 14.3244 22.3674 15.0009 22.3674C15.6765 22.3674 16.2528 21.934 16.4664 21.3307C20.4801 21.6084 21.0442 22.8439 21.0816 25.6645C18.4803 25.9171 15.8689 26.0149 13.3122 25.9553ZM16.1512 11.3375C16.2716 11.302 16.4028 11.2852 16.5415 11.2852C17.4094 11.2852 18.5672 11.9455 19.1381 12.8283C19.5041 13.3942 19.7751 14.2539 19.0504 15.185C18.8721 15.2198 18.5311 15.2739 18.1223 15.2777C17.5877 15.2836 16.8328 15.1981 16.2771 14.7669C15.7217 14.336 15.4401 13.6119 15.4401 12.6149C15.4401 11.9065 15.6794 11.4768 16.1512 11.3375ZM10.9276 15.1845C10.2034 14.2535 10.4745 13.3941 10.8404 12.8283C11.5025 11.8042 12.9541 11.0797 13.8272 11.3375C14.299 11.4768 14.5383 11.9065 14.5383 12.6149C14.5383 13.6104 14.2575 14.3337 13.7039 14.7649C12.7957 15.4723 11.3686 15.2694 10.9276 15.1845ZM16.0117 19.6811C15.8147 19.7289 15.6759 19.9054 15.6759 20.1082V20.8132C15.6759 21.1855 15.3731 21.4884 15.0007 21.4884C14.6284 21.4884 14.3256 21.1856 14.3256 20.8132V20.119C14.3256 19.9142 14.1841 19.7366 13.9845 19.6907C11.9027 19.2126 11.9875 16.9979 12.0995 16.1534C12.7878 16.1281 13.5901 15.9657 14.2403 15.4612C14.5512 15.2199 14.8011 14.9229 14.9893 14.5718C15.1775 14.9228 15.4274 15.2199 15.7383 15.4612C16.3806 15.9597 17.1714 16.1241 17.854 16.1524C17.8956 16.4793 17.933 17.0167 17.8422 17.5833C17.6594 18.7249 17.0436 19.4307 16.0117 19.6811Z" fill="#474747"/>
<path d="M14.0918 16.5343C13.8491 16.5343 13.6523 16.7311 13.6523 16.9738V17.6849C13.6523 17.9276 13.8491 18.1244 14.0918 18.1244C14.3345 18.1244 14.5312 17.9276 14.5312 17.6849V16.9738C14.5312 16.7311 14.3346 16.5343 14.0918 16.5343Z" fill="#474747"/>
<path d="M15.9082 16.5343C15.6655 16.5343 15.4688 16.7311 15.4688 16.9738V17.6849C15.4688 17.9276 15.6655 18.1244 15.9082 18.1244C16.1509 18.1244 16.3477 17.9276 16.3477 17.6849V16.9738C16.3477 16.7311 16.151 16.5343 15.9082 16.5343Z" fill="#474747"/>
</g>
<defs>
<clipPath id="clip0">
<rect width="30" height="30" fill="white"/>
</clipPath>
</defs>
</svg>
