<svg width="122" height="143" viewBox="0 0 122 143" fill="none" xmlns="http://www.w3.org/2000/svg">
<g clip-path="url(#clip0)">
<path d="M6.64 40.78C10.31 40.78 13.28 37.81 13.28 34.14C13.28 30.47 10.31 27.5 6.64 27.5C2.97 27.5 0 30.48 0 34.14C0 37.8 2.97 40.78 6.64 40.78Z" fill="white" fill-opacity="0.65"/>
<path d="M29.1184 30.6002C37.2484 27.3302 41.1884 18.0902 37.9284 9.96016C34.6484 1.82016 25.4084 -2.11984 17.2784 1.15016C9.14842 4.42016 5.20842 13.6602 8.47842 21.7902C11.7384 29.9202 20.9784 33.8602 29.1184 30.6002Z" fill="white" fill-opacity="0.65"/>
<path d="M105.698 137.65C99.3182 142.71 91.0482 142.78 84.1282 141.17C80.9782 140.44 78.1082 139.36 75.8182 138.24C72.6982 136.72 70.6482 135.74 67.7282 135.4C67.7082 135.39 67.6882 135.39 67.6582 135.39C67.5982 135.38 67.5482 135.37 67.4882 135.37C66.9582 135.31 66.3982 135.27 65.7882 135.26C62.5882 135.18 58.2282 135.69 51.0282 136.85C49.5582 137.09 47.9582 137.36 46.2282 137.65C25.3582 141.2 19.8682 127.68 20.4782 121.55C21.0882 115.41 22.0982 112.24 13.2782 103.03C-3.43184 85.6104 12.4782 67.1204 21.4582 63.2104C23.2482 62.2004 24.3282 61.1504 24.9282 60.0504C25.2382 59.4904 25.4282 58.9204 25.5182 58.3404V58.3304C25.9382 55.8304 24.7082 53.1304 24.4982 50.2204C24.3882 48.7104 24.6582 46.7104 25.4882 44.5004C26.0382 43.0304 26.8282 41.4704 27.9182 39.9104H27.9282C27.9182 39.9004 27.9382 39.8904 27.9382 39.8904C30.8582 35.6804 35.8982 31.4304 44.0282 28.7604C48.1082 27.4204 52.3182 26.3404 56.5382 25.5704C58.4882 25.2104 60.4382 24.9204 62.3782 24.7004C62.5982 24.6704 62.7882 24.6504 62.9982 24.6304C62.9982 24.6404 63.0182 24.6304 63.0182 24.6304C63.6282 24.5604 64.2482 24.5004 64.8582 24.4604C64.8682 24.4604 64.8682 24.4604 64.8782 24.4604C65.1282 24.4304 65.3682 24.4104 65.6182 24.3904C65.6282 24.4004 65.6282 24.3904 65.6382 24.3904C67.4482 24.2604 69.2582 24.1904 71.0282 24.1904H71.1782C71.5582 24.1904 71.9382 24.1904 72.3082 24.2104C72.3382 24.2004 72.3682 24.2004 72.3882 24.2104C73.8382 24.2304 75.2782 24.3004 76.6882 24.4304C84.5082 25.1004 91.6882 27.2604 97.3582 31.2704C108.278 38.9704 111.108 54.2104 105.668 67.5204C104.778 73.4604 108.968 73.9504 113.278 76.4404C116.228 77.6504 118.238 79.9804 119.618 82.5004C123.638 89.8404 120.428 101.92 112.388 105.62C104.858 109.1 121.358 125.27 105.698 137.65Z" fill="white" fill-opacity="0.65"/>
<path d="M84.1312 141.17C80.9812 140.44 78.1113 139.36 75.8213 138.24C72.7013 136.72 70.6513 135.74 67.7313 135.4L66.1913 126.24L66.1712 126.58C66.1712 126.59 66.1712 126.59 66.1712 126.6L66.1312 127.5C66.1312 127.5 66.1312 127.51 66.1312 127.52L65.7913 135.26C62.5913 135.18 58.2312 135.69 51.0312 136.85L51.8213 117.46L52.1613 108.93L52.4113 102.84L55.6413 103.02L55.7413 103.03L56.0312 103.04L56.8013 103.08L61.7913 103.36H61.8013L71.3112 103.89H71.3213L71.7613 103.92L83.0912 104.55C83.0912 105.26 83.2513 110.88 83.4413 117.58C83.7013 126.67 84.0312 137.74 84.1312 141.17Z" fill="#4D5A64"/>
<path d="M37.9997 89.71L30.1797 78.1L35.9797 73.41L45.7797 82.47C45.7797 82.47 49.9997 58.89 54.1597 57.46L53.8397 94.04C48.2197 96.71 41.4697 94.87 37.9997 89.71Z" fill="#2E353A"/>
<path d="M22 35.0195L23.66 57.6295L50.89 109.65L66.63 100.56L39.8 49.7195L22 35.0195Z" fill="#95C4DD"/>
<g opacity="0.7">
<path opacity="0.7" d="M40.07 49.8195C39.64 50.6095 38.44 50.8495 37.74 50.2695C38.14 51.8995 37.4 53.7395 35.98 54.6395C34.56 55.5395 32.58 55.4295 31.27 54.3795C31.06 56.0195 29.9 57.5095 28.36 58.1395C26.82 58.7595 24.95 58.4995 23.65 57.4695L22 35.0195L40.07 49.8195Z" fill="white"/>
</g>
<path d="M22.67 44.1095C22.67 44.1095 26.36 46.4195 29.29 41.0395L22 35.0195L22.67 44.1095Z" fill="#95C4DD"/>
<path d="M56.8894 105.4C56.8394 105.42 51.0494 94.04 43.9594 79.97C36.8694 65.9 31.1594 54.48 31.1994 54.46C31.2494 54.44 37.0294 65.82 44.1294 79.89C51.2194 93.95 56.9394 105.38 56.8894 105.4Z" fill="white"/>
<path d="M63.4303 101.5C63.3803 101.52 57.5903 90.1398 50.5003 76.0698C43.4103 61.9998 37.7003 50.5798 37.7503 50.5498C37.8003 50.5298 43.5803 61.9098 50.6803 75.9798C57.7703 90.0498 63.4803 101.48 63.4303 101.5Z" fill="white"/>
<path d="M31.4189 65.3096L27.8889 66.7096L27.1289 69.5496L28.3489 74.2796L31.1989 77.2996L33.1189 75.7096L33.2389 72.8096L33.4789 71.1896C33.4789 71.1896 35.2189 70.6496 35.2589 70.3796C35.2989 70.1196 35.0489 69.2196 34.7789 69.1796C34.5089 69.1396 32.6889 69.8196 32.6889 69.8196C32.6889 69.8196 34.8489 68.1096 34.7889 67.8396C34.7289 67.5596 34.4989 66.8596 34.0689 66.7896C33.6389 66.7096 30.1489 68.3496 30.1489 68.3496L29.5789 69.6396L29.0789 67.5796C29.0889 67.5796 32.1889 66.7096 31.4189 65.3096Z" fill="#EEBD9C"/>
<path d="M31.8684 71.9599C31.8484 71.9699 31.7784 71.8399 31.7484 71.6099C31.7184 71.3799 31.7284 71.0499 31.8584 70.7199C31.9884 70.3899 32.1884 70.1299 32.3584 69.9799C32.5284 69.8299 32.6684 69.7699 32.6784 69.7899C32.7184 69.8299 32.2484 70.1599 32.0284 70.7799C31.7884 71.3999 31.9184 71.9499 31.8684 71.9599Z" fill="#986552"/>
<path d="M30.1896 71.3501C30.1696 71.3401 30.2996 71.0101 30.3296 70.4301C30.3596 70.1401 30.3696 69.7901 30.5096 69.4101C30.5796 69.2201 30.6796 69.0301 30.8296 68.8701C30.9896 68.7101 31.1996 68.5901 31.4096 68.5101C32.2496 68.2101 33.0196 67.9601 33.5696 67.7801C34.1296 67.6001 34.4696 67.5101 34.4796 67.5301C34.4896 67.5601 34.1596 67.6901 33.6096 67.9001C33.0696 68.1101 32.2996 68.3801 31.4696 68.6801C31.2696 68.7601 31.0896 68.8601 30.9496 69.0001C30.8096 69.1401 30.7196 69.3101 30.6596 69.4801C30.5296 69.8201 30.4996 70.1701 30.4496 70.4601C30.3896 71.0201 30.2096 71.3601 30.1896 71.3501Z" fill="#986552"/>
<path d="M29.3797 70.7096C29.3297 70.6996 29.3397 70.3896 29.3997 70.0196C29.4597 69.6496 29.5497 69.3496 29.5997 69.3596C29.6497 69.3696 29.6397 69.6796 29.5797 70.0496C29.5197 70.4196 29.4297 70.7196 29.3797 70.7096Z" fill="#986552"/>
<path d="M77.1303 50.6896L74.0403 49.6396L62.4703 52.2896L61.4403 53.1396L55.3203 109.66C57.9503 112.36 66.2403 112.9 70.9503 112.1L77.1303 50.6896Z" fill="#95C4DD"/>
<path d="M77.3417 50.7996L75.8517 50.0596C75.8517 50.0596 72.5717 64.4496 72.5717 73.9496C72.5717 83.4496 70.5117 117.91 70.5117 117.91L86.1217 117.51V79.4396L77.3417 50.7996Z" fill="#2E353A"/>
<path d="M55.3084 118.48L49.3984 116.75L51.4584 88.8897L51.0684 68.6997L54.1684 57.4497L61.5084 52.9297C61.5084 52.9297 55.7084 115.12 55.3084 118.48Z" fill="#2E353A"/>
<path d="M67.6505 57.6403C64.7005 57.3803 62.4505 54.9103 62.4605 51.9603L62.4805 46.9003C62.4805 46.9003 57.7905 46.1703 57.7405 41.5103C57.6905 36.8503 58.4905 26.1303 58.4905 26.1303C63.9105 23.8103 70.1705 24.5903 74.8505 28.1803L75.5505 28.7103L73.8505 52.3903C73.6105 55.5603 70.8205 57.9203 67.6505 57.6403Z" fill="#EEBD9C"/>
<path d="M62.4592 46.8404C62.4592 46.8404 65.4192 47.0804 68.5692 45.1104C68.5692 45.1104 67.1292 48.4704 62.4492 48.0504L62.4592 46.8404Z" fill="#986552"/>
<path d="M74.9616 33.5504C75.0416 33.5104 78.1816 32.6004 78.0816 35.7904C77.9816 38.9804 74.7816 38.2204 74.7816 38.1304C74.7716 38.0404 74.9616 33.5504 74.9616 33.5504Z" fill="#EEBD9C"/>
<path d="M75.7881 36.9495C75.7981 36.9395 75.8381 36.9895 75.9381 37.0395C76.0281 37.0795 76.1881 37.1195 76.3581 37.0595C76.6981 36.9495 76.9981 36.4195 77.0381 35.8495C77.0581 35.5595 76.9981 35.2795 76.9081 35.0495C76.8181 34.8095 76.6681 34.6495 76.5081 34.6095C76.3381 34.5695 76.2181 34.6595 76.1781 34.7495C76.1281 34.8395 76.1481 34.8995 76.1381 34.9095C76.1281 34.9195 76.0681 34.8595 76.0981 34.7195C76.1081 34.6595 76.1481 34.5795 76.2281 34.5195C76.3081 34.4595 76.4181 34.4295 76.5381 34.4495C76.7881 34.4795 76.9981 34.7095 77.1081 34.9595C77.2281 35.2195 77.2981 35.5295 77.2681 35.8595C77.2281 36.4995 76.8781 37.0895 76.4081 37.2095C76.1781 37.2595 75.9981 37.1895 75.8981 37.1095C75.7881 37.0295 75.7781 36.9495 75.7881 36.9495Z" fill="#986552"/>
<path d="M60.0198 33.31C60.0098 33.66 60.2998 33.96 60.6598 33.98C61.0298 34 61.3398 33.73 61.3498 33.38C61.3598 33.03 61.0698 32.73 60.7098 32.71C60.3398 32.69 60.0298 32.96 60.0198 33.31Z" fill="#2E353A"/>
<path d="M59.3693 32.6905C59.4493 32.7805 59.9593 32.4005 60.6793 32.4005C61.3993 32.3905 61.9293 32.7605 62.0093 32.6705C62.0493 32.6305 61.9593 32.4705 61.7293 32.3105C61.4993 32.1405 61.1193 31.9805 60.6693 31.9805C60.2193 31.9805 59.8393 32.1505 59.6293 32.3105C59.4093 32.5005 59.3293 32.6605 59.3693 32.6905Z" fill="#2E353A"/>
<path d="M67.1018 33.6098C67.0918 33.9598 67.3818 34.2598 67.7418 34.2798C68.1118 34.2998 68.4218 34.0298 68.4318 33.6798C68.4418 33.3298 68.1518 33.0298 67.7918 33.0098C67.4218 32.9898 67.1118 33.2598 67.1018 33.6098Z" fill="#2E353A"/>
<path d="M66.4396 32.8299C66.5196 32.9199 67.0296 32.5399 67.7496 32.5499C68.4696 32.5399 68.9996 32.9099 69.0796 32.8199C69.1196 32.7799 69.0396 32.6199 68.7996 32.4599C68.5696 32.2899 68.1896 32.1299 67.7396 32.1299C67.2896 32.1299 66.9096 32.2999 66.6996 32.4599C66.4796 32.6299 66.3996 32.7899 66.4396 32.8299Z" fill="#2E353A"/>
<path d="M63.8304 38.1501C63.8304 38.1101 63.3904 38.0301 62.6604 37.9401C62.4804 37.9201 62.3004 37.8901 62.2704 37.7601C62.2304 37.6301 62.3004 37.4301 62.3904 37.2201C62.5604 36.7801 62.7404 36.3101 62.9304 35.8301C63.6804 33.8401 64.2304 32.2101 64.1504 32.1801C64.0704 32.1501 63.3904 33.7401 62.6404 35.7201C62.4604 36.2101 62.2804 36.6801 62.1204 37.1201C62.0504 37.3301 61.9304 37.5601 62.0304 37.8401C62.0804 37.9801 62.2204 38.0801 62.3304 38.1101C62.4504 38.1501 62.5504 38.1501 62.6404 38.1501C63.3804 38.1901 63.8304 38.1901 63.8304 38.1501Z" fill="#2E353A"/>
<path d="M66.2614 30.0195C66.3314 30.2195 67.0514 30.1195 67.8914 30.2195C68.7314 30.2995 69.4214 30.5495 69.5314 30.3795C69.5814 30.2995 69.4614 30.1095 69.1914 29.9195C68.9214 29.7295 68.4814 29.5495 67.9714 29.4995C67.4614 29.4495 67.0014 29.5295 66.6914 29.6495C66.3914 29.7695 66.2314 29.9195 66.2614 30.0195Z" fill="#2E353A"/>
<path d="M59.6287 30.6204C59.7587 30.7804 60.2487 30.6104 60.8487 30.6104C61.4487 30.5804 61.9487 30.7204 62.0687 30.5504C62.1187 30.4704 62.0387 30.3004 61.8187 30.1504C61.5987 30.0004 61.2387 29.8704 60.8287 29.8804C60.4187 29.8904 60.0687 30.0404 59.8587 30.2104C59.6487 30.3704 59.5787 30.5404 59.6287 30.6204Z" fill="#2E353A"/>
<path d="M56.1984 23.1801C56.1484 22.6001 56.3684 21.9801 56.8384 21.6401C57.3084 21.3001 58.0484 21.3201 58.4284 21.7601C58.2084 20.9801 58.8484 20.0801 59.6584 20.0301C60.4184 19.9801 61.0784 20.5601 61.8084 20.7601C62.5284 20.9601 63.2984 20.7901 63.9984 20.5101C64.6884 20.2301 65.3384 19.8501 66.0384 19.5901C67.4984 19.0601 69.1784 19.1301 70.5984 19.7701C72.0184 20.4201 73.1584 21.6401 73.7084 23.0901C74.7284 22.7701 75.8984 23.2901 76.5284 24.1501C77.1584 25.0101 77.3184 26.1501 77.1984 27.2101C77.1184 27.9301 76.9084 28.6201 76.6584 29.3001C76.6584 29.3601 76.6684 29.4201 76.6584 29.4801C76.6084 32.0501 76.3184 35.0601 75.2184 35.0801C73.2984 35.1101 73.7584 31.5101 73.7584 31.5101C71.4084 30.6101 72.2884 27.1001 71.6984 26.5601C71.1084 26.0301 69.8784 24.7901 64.9584 27.3001C63.0484 28.2701 60.5084 28.2401 59.1184 27.9301C59.0784 27.9201 59.0384 27.9201 58.9984 27.9001C58.9884 27.9001 58.9784 27.9001 58.9684 27.8901C58.9584 27.8901 58.9384 27.8801 58.9284 27.8701C58.4884 27.7501 58.0584 27.5801 57.6684 27.3401C57.2284 27.0601 56.8184 26.6801 56.6284 26.1901C56.4384 25.7001 56.5084 25.0901 56.8984 24.7301C56.5384 24.2901 56.2484 23.7601 56.1984 23.1801Z" fill="#2E353A"/>
<path d="M63.2189 40.3504C63.3289 40.6304 63.4489 40.9204 63.6389 41.1704C63.8289 41.4104 64.1089 41.6004 64.4089 41.6204C64.7389 41.6304 65.0489 41.4404 65.2389 41.1704C65.4189 40.9004 65.4789 40.5604 65.4689 40.2304C65.4589 39.9404 65.3189 39.5804 65.0289 39.5504C64.9089 39.5404 64.7889 39.5804 64.6689 39.6304C64.1589 39.8404 63.6389 40.0504 63.1289 40.2504L63.2189 40.3504Z" fill="#986552"/>
<path d="M63.8384 41.6203C63.8484 41.5703 64.1884 41.7103 64.6584 41.5203C64.8884 41.4303 65.1384 41.2403 65.2784 40.9603C65.4184 40.6803 65.4484 40.2903 65.2984 39.9503C65.2684 39.8703 65.2184 39.7903 65.1684 39.7203C65.1084 39.6503 65.1184 39.6603 65.0484 39.6703C64.9884 39.6903 64.8884 39.7403 64.7984 39.7703C64.7084 39.8103 64.6284 39.8403 64.5484 39.8703C64.2184 40.0003 63.9184 40.1203 63.6684 40.2103C63.1584 40.4003 62.8384 40.5003 62.8284 40.4603C62.8184 40.4203 63.1084 40.2603 63.5884 40.0303C63.8284 39.9103 64.1284 39.7803 64.4484 39.6303C64.5284 39.5903 64.6084 39.5603 64.6984 39.5203C64.7884 39.4803 64.8584 39.4403 64.9784 39.4003C65.0384 39.3803 65.1284 39.3703 65.2084 39.4103C65.2884 39.4403 65.3384 39.5003 65.3784 39.5403C65.4484 39.6303 65.5084 39.7303 65.5484 39.8303C65.7284 40.2503 65.6884 40.7203 65.4984 41.0603C65.3084 41.4103 64.9884 41.6103 64.7184 41.6903C64.4384 41.7803 64.1984 41.7603 64.0484 41.7203C63.9084 41.6903 63.8284 41.6403 63.8384 41.6203Z" fill="#2E353A"/>
<path d="M71.8483 26.1397C71.8283 26.1397 71.8983 25.9397 71.8483 25.5697C71.8083 25.2097 71.5983 24.6997 71.1183 24.2597C70.6483 23.8097 69.8683 23.5397 69.0083 23.5697C68.1383 23.5797 67.2183 23.8597 66.2683 24.1797C65.7883 24.3397 65.3183 24.4897 64.8483 24.5897C64.3783 24.6897 63.9183 24.7497 63.4783 24.7597C62.5983 24.7897 61.8083 24.6397 61.1683 24.4597C60.5283 24.2697 60.0483 24.0297 59.7183 23.8497C59.5583 23.7597 59.4383 23.6797 59.3583 23.6197C59.2783 23.5697 59.2383 23.5397 59.2383 23.5297C59.2483 23.5197 59.4183 23.6297 59.7483 23.7997C60.0783 23.9697 60.5683 24.1797 61.1983 24.3597C61.8283 24.5297 62.6083 24.6597 63.4783 24.6297C63.9083 24.6197 64.3583 24.5597 64.8183 24.4597C65.2783 24.3597 65.7383 24.2097 66.2283 24.0497C67.1783 23.7297 68.1183 23.4397 69.0083 23.4397C69.8883 23.4297 70.6983 23.7097 71.1883 24.1897C71.6883 24.6497 71.8783 25.1997 71.9083 25.5697C71.9383 25.9497 71.8483 26.1397 71.8483 26.1397Z" fill="#4D5A64"/>
<path d="M75.4998 34.0304C75.4998 34.0304 75.4698 34.0004 75.4398 33.9304C75.4098 33.8604 75.3498 33.7604 75.2898 33.6304C75.1698 33.3704 75.0298 32.9704 74.9198 32.4704C74.8098 31.9704 74.7499 31.3504 74.7999 30.6704C74.8399 29.9804 75.0598 29.2604 75.2198 28.5004C75.3898 27.7504 75.4198 26.9904 75.2198 26.3504C75.1298 26.0304 74.9698 25.7504 74.7698 25.5404C74.5698 25.3304 74.3298 25.1804 74.0998 25.1004C73.6198 24.9304 73.1898 25.0104 72.9498 25.1304C72.6998 25.2604 72.5998 25.3904 72.5898 25.3804C72.5898 25.3804 72.6698 25.2304 72.9298 25.0804C73.1798 24.9404 73.6398 24.8404 74.1398 25.0104C74.3898 25.0904 74.6498 25.2404 74.8598 25.4604C75.0698 25.6904 75.2398 25.9804 75.3398 26.3104C75.5598 26.9704 75.5198 27.7604 75.3498 28.5204C75.1898 29.2904 74.9698 30.0004 74.9198 30.6704C74.8598 31.3404 74.9198 31.9504 75.0098 32.4404C75.0998 32.9404 75.2398 33.3304 75.3398 33.6004C75.4398 33.8804 75.5098 34.0304 75.4998 34.0304Z" fill="#4D5A64"/>
<path d="M72.3095 25.7695C72.3095 25.7695 72.3095 25.6995 72.3095 25.5795C72.3095 25.4395 72.3195 25.2695 72.3295 25.0395C72.3295 24.5795 72.3495 23.8895 72.1195 23.0995C71.9995 22.7095 71.7995 22.2895 71.4895 21.9195C71.1895 21.5495 70.7595 21.2295 70.2295 21.0895C69.7095 20.9495 69.1195 20.9995 68.5595 21.1595C67.9895 21.3195 67.4395 21.6095 66.8895 21.9195C66.3395 22.2295 65.7895 22.5495 65.2295 22.7695C64.6595 22.9895 64.0795 23.0995 63.5195 23.1095C62.9595 23.1195 62.4295 23.0495 61.9495 22.9195C61.4695 22.7895 61.0495 22.5995 60.6795 22.3995C59.9495 21.9795 59.4595 21.4895 59.1695 21.1195C59.0195 20.9395 58.9295 20.7795 58.8595 20.6795C58.7995 20.5695 58.7695 20.5195 58.7695 20.5195C58.7695 20.5195 58.8095 20.5695 58.8795 20.6695C58.9495 20.7695 59.0495 20.9195 59.1995 21.0895C59.4995 21.4395 59.9895 21.9195 60.7095 22.3195C61.0695 22.5095 61.4995 22.6895 61.9695 22.8195C62.4395 22.9495 62.9595 23.0095 63.5095 22.9895C64.0595 22.9795 64.6195 22.8595 65.1795 22.6495C65.7295 22.4295 66.2695 22.1195 66.8295 21.7995C67.3795 21.4895 67.9495 21.1995 68.5395 21.0295C69.1295 20.8695 69.7395 20.8195 70.2795 20.9695C70.8295 21.1195 71.2795 21.4595 71.5895 21.8495C71.9095 22.2395 72.0995 22.6695 72.2195 23.0695C72.4495 23.8895 72.4195 24.5795 72.3895 25.0395C72.3795 25.2695 72.3595 25.4495 72.3395 25.5795C72.3195 25.6995 72.3095 25.7695 72.3095 25.7695Z" fill="#4D5A64"/>
<path d="M77.3417 50.7998C77.3417 50.7998 88.5117 54.3598 89.2517 56.2898C89.8117 57.7398 95.6817 75.2898 96.9417 86.7398C97.4617 91.3998 93.9917 95.5598 89.3017 95.9898C81.7417 96.6798 70.7617 97.5798 70.7617 96.9598V87.4698L84.9817 85.3798L79.7117 69.9398L77.3417 50.7998Z" fill="#2E353A"/>
<path d="M63.0085 95.0399C64.4685 95.4199 70.7685 95.4199 70.7685 95.4199V87.9599C70.7685 87.9599 68.0285 86.7899 67.2685 86.1099C66.5085 85.4299 64.3585 81.4199 64.3585 81.4199C64.3585 81.4199 63.0285 82.1599 63.3685 83.7099C63.7185 85.3499 64.3985 85.5499 64.4485 86.1999C64.4485 86.2099 64.4985 86.3699 64.5085 86.3699C64.6585 87.2799 63.7885 88.0799 63.7885 88.0799C63.8385 88.0699 63.0685 87.6199 62.8285 87.5899C61.4985 87.4299 59.9285 88.3799 59.9285 88.9099C59.9285 88.9099 59.8785 90.3399 59.9285 90.5499C59.9785 90.7599 60.6485 91.0399 60.6485 91.0399C60.6485 91.0399 60.4385 91.9899 60.6485 92.4199C60.8585 92.8399 61.5685 93.1599 61.5685 93.1599C61.5685 93.1599 62.1885 94.8299 63.0085 95.0399Z" fill="#EEBD9C"/>
<path d="M64.5381 93.8496C64.5381 93.8996 63.8481 93.9496 63.0181 93.7696C62.1881 93.5896 61.5781 93.2496 61.5981 93.2096C61.6181 93.1596 62.2481 93.4096 63.0581 93.5796C63.8681 93.7596 64.5381 93.7896 64.5381 93.8496Z" fill="#986552"/>
<path d="M64.169 91.6102C64.179 91.6602 63.409 91.8302 62.449 91.7002C61.489 91.5802 60.789 91.2002 60.809 91.1602C60.829 91.1102 61.549 91.3902 62.469 91.5102C63.399 91.6502 64.159 91.5502 64.169 91.6102Z" fill="#986552"/>
<path d="M63.9486 85.2102C63.9686 85.2002 64.2086 85.5302 64.4586 86.1302C64.5186 86.2802 64.5786 86.4502 64.6186 86.6502C64.6586 86.8402 64.6786 87.0702 64.6086 87.2902C64.4886 87.7302 64.1486 88.1402 63.7086 88.3902C63.4886 88.5202 63.2486 88.6102 63.0086 88.6602C62.7686 88.7102 62.5386 88.7202 62.3286 88.7302C61.8986 88.7402 61.5086 88.7402 61.1886 88.7402C60.5486 88.7402 60.1586 88.8302 60.1486 88.8102C60.1386 88.7802 60.5286 88.6402 61.1786 88.6102C61.4986 88.5802 61.8886 88.5802 62.3186 88.5502C62.5286 88.5402 62.7486 88.5202 62.9686 88.4702C63.1786 88.4202 63.4086 88.3402 63.6086 88.2202C64.0186 87.9802 64.3286 87.6202 64.4386 87.2402C64.5086 87.0402 64.4886 86.8702 64.4586 86.6802C64.4286 86.5002 64.3786 86.3302 64.3286 86.1802C64.1286 85.5702 63.9286 85.2302 63.9486 85.2102Z" fill="#986552"/>
<path d="M85.1695 85.36C85.1695 85.37 84.9695 85.41 84.6095 85.48C84.2095 85.55 83.6995 85.64 83.0695 85.74C81.7695 85.95 79.9695 86.24 77.9895 86.54C75.9995 86.84 74.1995 87.1 72.8895 87.27C71.5895 87.44 70.7695 87.53 70.7695 87.48C70.9195 87.45 71.0795 87.43 71.3295 87.39C71.7295 87.33 72.2395 87.24 72.8695 87.14C74.1995 86.93 75.9895 86.66 77.9595 86.36C79.9495 86.06 81.7495 85.8 83.0495 85.62C83.6795 85.54 84.1995 85.47 84.5995 85.42C84.9695 85.36 85.1695 85.34 85.1695 85.36Z" fill="#4D5A64"/>
<path d="M91.2111 83.9501C91.2111 83.9801 90.7811 83.9701 90.0911 83.9401C89.4011 83.9101 88.4411 83.8601 87.3911 83.7801C86.8611 83.7401 86.3711 83.7001 85.9311 83.7901C85.5011 83.8801 85.1511 84.1101 84.9811 84.3901C84.8111 84.6701 84.8111 84.9601 84.8511 85.1301C84.8911 85.3101 84.9611 85.3901 84.9511 85.4101C84.9411 85.4201 84.8511 85.3401 84.7811 85.1601C84.7111 84.9701 84.6911 84.6601 84.8711 84.3301C85.0511 84.0101 85.4311 83.7401 85.8911 83.6301C86.3611 83.5201 86.8811 83.5601 87.4011 83.5901C88.4511 83.6601 89.4111 83.7401 90.0911 83.8001C90.7911 83.8701 91.2111 83.9201 91.2111 83.9501Z" fill="#4D5A64"/>
<path d="M88.8692 86.5504C88.8592 86.6004 87.9492 86.3804 86.8492 86.0504C85.7492 85.7204 84.8592 85.4204 84.8792 85.3704C84.8892 85.3204 85.7992 85.5404 86.8992 85.8704C87.9992 86.1904 88.8792 86.5004 88.8692 86.5504Z" fill="#4D5A64"/>
<path d="M80.0486 67.9805C80.0986 67.9705 81.2486 71.5705 82.6086 76.0405C83.9786 80.5105 85.0386 84.1405 84.9886 84.1605C84.9386 84.1705 83.7886 80.5705 82.4286 76.1005C81.0586 71.6305 79.9986 68.0005 80.0486 67.9805Z" fill="#4D5A64"/>
<path d="M88.3886 56.56C88.3986 56.6 87.7286 56.69 86.7386 57.08C85.7486 57.46 84.4286 58.17 83.2786 59.32C82.1286 60.47 81.4186 61.79 81.0486 62.78C80.6686 63.77 80.5786 64.44 80.5386 64.43C80.5286 64.43 80.5386 64.26 80.5886 63.97C80.6386 63.67 80.7386 63.25 80.9186 62.74C81.2586 61.72 81.9686 60.37 83.1386 59.19C84.3086 58.01 85.6686 57.3 86.6786 56.95C87.1886 56.77 87.6186 56.67 87.9086 56.62C88.2186 56.56 88.3786 56.55 88.3886 56.56Z" fill="#4D5A64"/>
<path d="M51.2197 64.2998C51.2297 64.2998 51.2297 64.3898 51.2397 64.5498C51.2497 64.7398 51.2497 64.9698 51.2697 65.2698C51.2797 65.9198 51.2997 66.8198 51.3197 67.9298C51.3497 70.1998 51.3897 73.2898 51.4297 76.7098C51.4497 80.1298 51.4697 83.2198 51.4797 85.4898C51.4797 86.5998 51.4797 87.4998 51.4697 88.1498C51.4697 88.4498 51.4597 88.6898 51.4597 88.8698C51.4597 89.0398 51.4497 89.1198 51.4397 89.1198C51.4297 89.1198 51.4297 89.0298 51.4197 88.8698C51.4097 88.6798 51.4097 88.4498 51.3897 88.1498C51.3797 87.4998 51.3597 86.5998 51.3397 85.4898C51.3097 83.2198 51.2697 80.1298 51.2297 76.7098C51.2097 73.2898 51.1897 70.1998 51.1797 67.9298C51.1797 66.8198 51.1797 65.9198 51.1897 65.2698C51.1897 64.9698 51.1997 64.7298 51.1997 64.5498C51.2097 64.3898 51.2097 64.2998 51.2197 64.2998Z" fill="#4D5A64"/>
<path d="M67.6614 135.39C67.6014 135.38 67.5514 135.37 67.4914 135.37C67.0914 133.26 66.6514 130.76 66.2214 128.07C66.1914 127.88 66.1614 127.7 66.1314 127.52C66.1314 127.51 66.1314 127.5 66.1314 127.5C65.5614 123.94 65.1314 120.72 64.8514 118.35C64.7114 117.11 64.6014 116.1 64.5314 115.4C64.4914 115.07 64.4714 114.8 64.4514 114.59C64.4414 114.46 64.4414 114.38 64.4414 114.34C64.4514 114.39 64.4714 114.47 64.4914 114.59C64.5214 114.79 64.5514 115.06 64.6014 115.39C64.6914 116.11 64.8214 117.11 64.9914 118.34C65.2814 120.51 65.6814 123.38 66.1714 126.58C66.1714 126.59 66.1714 126.59 66.1714 126.6C66.2514 127.07 66.3214 127.55 66.4014 128.04C66.8414 130.75 67.2814 133.27 67.6614 135.39Z" fill="#2E353A"/>
<path d="M89.3109 95.99C89.3109 96.04 85.2109 96.35 80.1409 96.69C75.0709 97.02 70.9609 97.25 70.9609 97.2C70.9609 97.15 75.0609 96.84 80.1309 96.5C85.2009 96.16 89.3109 95.93 89.3109 95.99Z" fill="#4D5A64"/>
</g>
<defs>
<clipPath id="clip0">
<rect width="121.35" height="142.1" fill="white"/>
</clipPath>
</defs>
</svg>
