<svg width="126" height="28" viewBox="0 0 126 28" fill="none" xmlns="http://www.w3.org/2000/svg">
<path d="M64.3792 5.76051H60.0036V16.9578H56.6167L56.6064 5.76051H52.2695V2.89453H64.3766V5.76051H64.3792Z" fill="#4C5BD4"/>
<path d="M68.5376 5.79684H66.6764L62.8945 2.6875H66.3847L68.5376 5.79684ZM68.2098 16.9553H64.9907V6.50363H68.2072V16.9553H68.2098Z" fill="#4C5BD4"/>
<path d="M84.5294 16.9555H81.4343V10.7084C81.4343 10.0663 81.3439 9.63655 81.1606 9.41649C80.9464 9.23526 80.5488 9.14206 79.9654 9.14206L78.7702 9.17054V16.9555H75.6389V9.17312H73.0703V16.9581H69.9648V6.50391H80.1823C81.6692 6.50391 82.7637 6.8094 83.471 7.42299C84.1758 8.03657 84.5294 9.02296 84.5294 10.3873V16.9555Z" fill="#4C5BD4"/>
<path d="M101.975 6.50391L97.3925 16.9555H94.269L89.9141 6.50391H93.3681L95.9263 13.1291L98.6446 6.50391H101.975Z" fill="#4C5BD4"/>
<path d="M105.771 5.85426H102.555V2.87695H105.771V5.85426ZM105.771 16.9557H102.555V6.50409H105.771V16.9557Z" fill="#4C5BD4"/>
<path d="M116.205 16.9475H112.16C110.467 16.9475 109.181 16.5048 108.303 15.6194C107.418 14.7469 106.977 13.4446 106.977 11.7178C106.977 10.022 107.418 8.73013 108.303 7.84471C109.194 6.95928 110.48 6.51657 112.16 6.51657H116.205V9.06152H112.527C111.641 9.06152 111.06 9.17026 110.776 9.39032C110.487 9.62332 110.343 9.97801 110.343 10.4544H116.203V13.0174H110.343C110.343 13.4757 110.464 13.8226 110.709 14.053C110.955 14.286 111.553 14.4025 112.506 14.4025H116.203V16.9475H116.205ZM115.764 5.79684H113.928L112.413 4.45835L110.869 5.79684H109.055L111.2 2.6875H113.626L115.764 5.79684ZM113.75 20.8206H111.04V17.9184H113.75V20.8206Z" fill="#4C5BD4"/>
<path d="M125.997 16.9482H122.226C121.761 16.9482 121.341 16.9223 120.966 16.8731C120.597 16.8239 120.251 16.7514 119.931 16.6556C119.353 16.4537 118.821 16.1275 118.331 15.6744C118.111 15.4543 117.91 15.1903 117.729 14.8822C117.541 14.587 117.368 14.266 117.213 13.9217C117.086 13.5877 116.991 13.2459 116.921 12.8938C116.859 12.5495 116.828 12.1689 116.828 11.7547C116.828 10.9754 116.957 10.2428 117.213 9.55927C117.471 8.88614 117.843 8.28032 118.333 7.73923C118.777 7.33017 119.311 7.02726 119.934 6.82532C120.548 6.61821 121.312 6.51465 122.229 6.51465H126V9.13468H122.99C122.363 9.13468 121.862 9.17351 121.485 9.24859C121.116 9.34179 120.827 9.49713 120.62 9.70943C120.194 10.0978 119.98 10.7813 119.98 11.7547C119.98 12.2958 120.073 12.754 120.261 13.1294C120.424 13.4997 120.682 13.8077 121.033 14.0537L121.645 14.2712C121.815 14.2971 121.986 14.3152 122.161 14.3281C122.342 14.3411 122.618 14.3463 122.99 14.3463H126V16.9482H125.997Z" fill="#4C5BD4"/>
<path d="M11.3739 13.094C11.3739 14.3004 10.9893 15.2454 10.2174 15.9315C9.43265 16.6098 8.34844 16.9489 6.96219 16.9489H0V14.1321H5.76698C6.44332 14.1321 6.93638 14.0182 7.24357 13.793C7.55077 13.56 7.70565 13.2001 7.70565 12.7082C7.70565 12.2551 7.55851 11.9005 7.26422 11.6441C6.95703 11.3982 6.45881 11.2765 5.76956 11.2765L1.06356 11.2946V8.47785H5.68179C6.37878 8.47785 6.87959 8.36911 7.18678 8.14905C7.48107 7.93676 7.62821 7.58466 7.62821 7.09276C7.62821 6.62674 7.48107 6.27982 7.18678 6.04682C7.03706 5.91996 6.83828 5.82934 6.59304 5.77239C6.3349 5.7232 6.03287 5.69731 5.68179 5.69731H0V2.87793H6.67049C8.2142 2.87793 9.3836 3.18861 10.1787 3.80996C10.9635 4.43907 11.3558 5.41511 11.3558 6.74066C11.3558 7.40602 11.2087 7.9963 10.9144 8.51151C10.6072 9.02671 10.2097 9.47978 9.71919 9.86812C10.2587 10.2021 10.6511 10.6008 10.8963 11.0642C11.2139 11.6105 11.3739 12.2836 11.3739 13.094Z" fill="#4C5BD4"/>
<path d="M25.2879 12.6331C25.2879 14.1088 24.7535 15.2273 23.6874 15.9884C22.6212 16.7496 21.0852 17.1276 19.0769 17.1276C16.7071 17.1276 14.9543 16.5554 13.8184 15.4111C12.6903 14.2745 12.125 12.4907 12.125 10.0571C12.125 7.60019 12.7291 5.78792 13.9398 4.6203C15.1324 3.45786 16.991 2.87793 19.5183 2.87793H24.5599L24.5496 5.69472H19.446C18.1785 5.69472 17.2595 5.94067 16.689 6.42998C16.4205 6.66299 16.2166 6.95813 16.0772 7.31541C15.9197 7.6934 15.8423 8.12575 15.8423 8.61507H20.396C22.0378 8.61507 23.264 8.94386 24.0746 9.59887C24.8826 10.2591 25.2879 11.2688 25.2879 12.6331ZM21.648 12.7833C21.648 12.3302 21.5318 11.9885 21.2995 11.7555C21.0672 11.5432 20.7135 11.4344 20.2359 11.4344H15.8604C15.8604 12.3949 16.1288 13.1224 16.6684 13.6118C17.195 14.114 18.0391 14.3651 19.1982 14.3651C20.0836 14.3651 20.7083 14.2357 21.0801 13.9794C21.4596 13.7231 21.648 13.3244 21.648 12.7833Z" fill="#4C5BD4"/>
<path d="M38.0842 12.6901C38.0842 14.0648 37.6531 15.1211 36.7961 15.8564C35.9313 16.5865 34.7102 16.9489 33.1356 16.9489H25.75V14.1321H32.4953C33.1588 14.1321 33.6286 14.0182 33.8971 13.793C34.1552 13.5729 34.2817 13.2053 34.2817 12.6901C34.2817 12.1619 34.1526 11.7814 33.8971 11.5509C33.6286 11.3309 33.1588 11.2221 32.4953 11.2221H25.75V2.87793H37.3975L37.3872 5.69472H29.2014V8.42089H33.7628C35.0871 8.42089 36.1455 8.78853 36.9432 9.52379C37.3123 9.90696 37.5989 10.3574 37.8002 10.8726C37.9913 11.3982 38.0842 12.004 38.0842 12.6901Z" fill="#4C5BD4"/>
<path fill-rule="evenodd" clip-rule="evenodd" d="M39.7656 21.4033L44.9208 16.7432L50.5329 18.3768C50.5329 18.3768 54.2347 19.9328 52.1669 22.5373C51.235 23.4589 50.3522 24.3314 47.0944 23.4512C46.1676 23.1431 39.7656 21.4033 39.7656 21.4033Z" fill="#4C5BD4"/>
<path fill-rule="evenodd" clip-rule="evenodd" d="M9.90876 18.11C9.96297 18.2343 10.0094 18.3612 10.0662 18.4854C10.1669 18.7055 10.2779 18.9178 10.3992 19.1275C10.7038 19.6505 11.073 20.1346 11.4964 20.5669C12.0281 21.108 12.6451 21.5637 13.3137 21.9184C14.1578 22.3689 15.0768 22.6614 16.0139 22.8271C17.2504 23.0472 18.5179 23.0549 19.7673 22.9359C21.4556 22.7753 23.1207 22.3896 24.7392 21.8899C29.3988 20.4504 33.7021 18.3301 37.3471 15.0473C37.4013 14.9981 37.4555 14.9489 37.5123 14.8997C40.0344 12.5981 43.1347 9.36711 42.7527 5.63124C42.51 3.27011 39.6523 1.94974 37.6362 1.46819C36.7766 1.26366 36.9392 -0.0204639 37.8221 0.000247773C41.893 0.0986283 46.0518 1.20411 47.4432 4.70439C47.4509 4.7251 47.4586 4.74581 47.4664 4.76911C47.8149 5.89531 47.8898 7.11471 47.7942 8.28233C47.6135 10.514 46.7565 12.6396 45.5277 14.4958C43.4755 17.6 40.481 19.9948 37.3445 21.9236C34.6985 23.552 31.9673 24.818 29.0141 25.7397C26.9335 26.3895 24.8141 26.9228 22.6534 27.2283C20.2346 27.5701 17.7151 27.6452 15.3298 27.0471C12.9291 26.4465 10.8045 25.0899 9.44152 22.9902C8.61029 21.7113 8.08883 20.2563 7.77647 18.7676C7.68354 18.3301 7.79971 17.7372 8.18176 17.4524C8.66966 17.09 9.457 17.4136 9.77452 17.8563C9.82615 17.9417 9.87004 18.0246 9.90876 18.11Z" fill="#4C5BD4"/>
<path fill-rule="evenodd" clip-rule="evenodd" d="M11.4609 17.8628C11.4609 17.8628 18.609 24.3482 30.8812 17.3994C29.5157 19.0227 14.2334 26.4349 11.4609 17.8628Z" fill="#4C5BD4"/>
</svg>
