<svg width="10" height="5" viewBox="0 0 10 5" fill="none" xmlns="http://www.w3.org/2000/svg">
<path d="M5.32143 4.87795L9.86688 0.711288C9.93045 0.653013 9.97373 0.578769 9.99127 0.497944C10.0088 0.417119 9.9998 0.333342 9.96539 0.257208C9.93099 0.181074 9.87273 0.116001 9.79798 0.0702186C9.72323 0.0244361 9.63535 -2.06985e-07 9.54545 0L0.454546 0C0.364647 1.78227e-06 0.276768 0.0244389 0.202019 0.0702217C0.127271 0.116005 0.0690107 0.181077 0.034606 0.25721C0.000201225 0.333344 -0.00880337 0.41712 0.00872993 0.497944C0.0262642 0.578769 0.0695496 0.653013 0.133113 0.711288L4.67856 4.87795C4.72077 4.91664 4.77089 4.94734 4.82604 4.96828C4.88119 4.98922 4.9403 5 5 5C5.05969 5 5.1188 4.98922 5.17396 4.96828C5.22911 4.94734 5.27922 4.91664 5.32143 4.87795Z" fill="#666666"/>
</svg>
