<svg width="56" height="56" viewBox="0 0 56 56" fill="none" xmlns="http://www.w3.org/2000/svg">
<path d="M23.1416 12.7286H22.1381V11.1842C22.1381 10.5798 21.6471 10.0898 21.0415 10.0898C20.436 10.0898 19.945 10.5798 19.945 11.1842V12.7286H18.9415C16.6089 12.7286 14.711 14.6225 14.711 16.9505V17.9851C14.711 20.313 16.6089 22.207 18.9415 22.207H23.1417C24.2651 22.207 25.1791 23.1191 25.1791 24.2402V25.052C25.1791 26.1731 24.2651 27.0852 23.1417 27.0852H18.9414C17.8181 27.0852 16.9041 26.1731 16.9041 25.052C16.9041 24.4476 16.413 23.9576 15.8075 23.9576C15.202 23.9576 14.7109 24.4476 14.7109 25.052C14.7109 27.3799 16.6088 29.2739 18.9414 29.2739H19.9449V30.8184C19.9449 31.4228 20.4359 31.9127 21.0414 31.9127C21.647 31.9127 22.138 31.4228 22.138 30.8184V29.2739H23.1415C25.4742 29.2739 27.372 27.3799 27.372 25.052V24.2402C27.372 21.9122 25.4742 20.0183 23.1415 20.0183H18.9414C17.8181 20.0183 16.9041 19.1062 16.9041 17.9851V16.9505C16.9041 15.8293 17.8181 14.9172 18.9414 14.9172H23.1416C24.265 14.9172 25.179 15.8293 25.179 16.9505V17.0489C25.179 17.6533 25.6701 18.1432 26.2756 18.1432C26.8811 18.1432 27.3722 17.6533 27.3722 17.0489V16.9505C27.3722 14.6224 25.4744 12.7286 23.1416 12.7286Z" fill="url(#paint0_linear)"/>
<path d="M54.6602 39.373L43.8702 28.6052C43.6825 28.4179 43.4333 28.305 43.1686 28.2871L40.8366 28.1303C41.6631 25.8523 42.0823 23.4605 42.0823 20.9991C42.0823 9.42015 32.6434 0 21.0414 0C11.4004 0 3.01294 6.50553 0.645006 15.8204C0.496202 16.4062 0.851271 17.0016 1.43827 17.1502C2.02526 17.2991 2.6219 16.9445 2.77082 16.3586C4.8918 8.01559 12.405 2.18865 21.0414 2.18865C31.4341 2.18865 39.8892 10.627 39.8892 20.999C39.8892 23.4179 39.4391 25.761 38.5502 27.9756L35.6047 27.7779C36.5716 25.7175 37.1131 23.42 37.1131 20.9986C37.1131 12.1545 29.9031 4.95936 21.0409 4.95936C12.1786 4.95936 4.96856 12.1545 4.96856 20.9986C4.96856 29.8427 12.1785 37.0379 21.0408 37.0379C23.4207 37.0379 25.6811 36.5184 27.7151 35.588L27.9131 38.5196C25.726 39.3749 23.4179 39.8081 21.0413 39.8081C12.4017 39.8081 4.88775 33.9789 2.76906 25.6327C2.62037 25.0468 2.02361 24.6923 1.43684 24.8406C0.849736 24.989 0.494447 25.5843 0.643252 26.1701C3.00866 35.4887 11.3968 41.9968 21.0414 41.9968C23.4612 41.9968 25.8175 41.5932 28.0669 40.7972L28.229 43.196C28.2469 43.4603 28.3601 43.709 28.5477 43.8962L39.3377 54.6642C40.2302 55.5547 41.4023 56 42.5747 56C43.747 56 44.9191 55.5547 45.8116 54.6642L54.6602 45.8337C56.445 44.0524 56.445 41.1542 54.6602 39.373ZM7.16171 20.9986C7.16171 13.3614 13.3878 7.14801 21.0408 7.14801C28.6937 7.14801 34.92 13.3614 34.92 20.9986C34.92 24.3696 33.7064 27.4627 31.6932 29.8669L30.5463 28.7224C30.118 28.295 29.4238 28.295 28.9954 28.7224C28.5672 29.1497 28.5672 29.8426 28.9954 30.27L30.1593 31.4315C27.7187 33.5586 24.528 34.8491 21.0408 34.8491C13.3879 34.8493 7.16171 28.6359 7.16171 20.9986ZM53.1093 44.2859L44.2608 53.1164C43.331 54.0442 41.8184 54.0442 40.8886 53.1164L30.3895 42.6389L29.8655 34.8762L31.7385 33.0071L32.4873 33.7544C32.7015 33.9681 32.9821 34.0749 33.2627 34.0749C33.5433 34.0749 33.8239 33.968 34.0381 33.7544C34.4663 33.3271 34.4663 32.6341 34.0381 32.2068L33.2892 31.4595L34.832 29.9199L42.6104 30.4431L53.1093 40.9206C54.0391 41.8485 54.0391 43.3582 53.1093 44.2859Z" fill="url(#paint1_linear)"/>
<path d="M41.4143 40.7466C43.0917 39.0726 43.0917 36.3487 41.4143 34.6747C39.7561 33.0201 36.9882 33.0197 35.3301 34.6747L34.7444 35.2591C33.067 36.9331 33.067 39.657 34.7444 41.3308C36.4058 42.9823 39.1681 42.9883 40.8286 41.3308L41.4143 40.7466ZM39.8635 39.199L39.2778 39.7834C38.4623 40.5972 37.1115 40.5905 36.2952 39.7834C35.4728 38.9626 35.4728 37.6273 36.2951 36.8067L36.8807 36.2223C37.6936 35.4112 39.0505 35.4112 39.8634 36.2223C40.6857 37.0431 40.6857 38.3783 39.8635 39.199Z" fill="url(#paint2_linear)"/>
<path d="M43.9918 41.5378C44.2186 42.0899 44.8735 42.3567 45.4241 42.1298C45.9765 41.9021 46.2459 41.2516 46.0173 40.7006C45.7887 40.1498 45.137 39.8805 44.5851 40.1086C44.0344 40.3362 43.7623 40.9881 43.9918 41.5378Z" fill="url(#paint3_linear)"/>
<path d="M45.8556 47.5659C45.676 47.1356 45.2286 46.8589 44.7621 46.8936C44.3042 46.9276 43.9101 47.2526 43.7868 47.6932C43.5219 48.64 44.6051 49.4312 45.4311 48.9077C45.8761 48.6256 46.055 48.0512 45.8556 47.5659Z" fill="url(#paint4_linear)"/>
<path d="M48.4112 43.4258H41.372C40.7664 43.4258 40.2754 43.9157 40.2754 44.5201C40.2754 45.1245 40.7664 45.6144 41.372 45.6144H48.4112C49.0167 45.6144 49.5078 45.1245 49.5078 44.5201C49.5078 43.9157 49.0168 43.4258 48.4112 43.4258Z" fill="url(#paint5_linear)"/>
<path d="M0.882735 22.0729C1.84509 22.2679 2.55325 21.136 1.98051 20.353C1.38573 19.5395 0.049013 19.9407 0.00120259 20.9459C-0.0242378 21.482 0.356711 21.9663 0.882735 22.0729Z" fill="url(#paint6_linear)"/>
<defs>
<linearGradient id="paint0_linear" x1="16.1177" y1="21.8406" x2="26.3171" y2="21.8406" gradientUnits="userSpaceOnUse">
<stop stop-color="#0073BA"/>
<stop offset="1" stop-color="#00C0B0"/>
</linearGradient>
<linearGradient id="paint1_linear" x1="6.76375" y1="30.1538" x2="51.383" y2="30.1538" gradientUnits="userSpaceOnUse">
<stop stop-color="#0073BA"/>
<stop offset="1" stop-color="#00C0B0"/>
</linearGradient>
<linearGradient id="paint2_linear" x1="34.507" y1="38.3541" x2="41.9069" y2="38.3541" gradientUnits="userSpaceOnUse">
<stop stop-color="#0073BA"/>
<stop offset="1" stop-color="#00C0B0"/>
</linearGradient>
<linearGradient id="paint3_linear" x1="44.1533" y1="41.203" x2="45.9164" y2="41.203" gradientUnits="userSpaceOnUse">
<stop stop-color="#0073BA"/>
<stop offset="1" stop-color="#00C0B0"/>
</linearGradient>
<linearGradient id="paint4_linear" x1="43.9895" y1="48.0666" x2="45.7541" y2="48.0666" gradientUnits="userSpaceOnUse">
<stop stop-color="#0073BA"/>
<stop offset="1" stop-color="#00C0B0"/>
</linearGradient>
<linearGradient id="paint5_linear" x1="41.3012" y1="44.6043" x2="48.7384" y2="44.6043" gradientUnits="userSpaceOnUse">
<stop stop-color="#0073BA"/>
<stop offset="1" stop-color="#00C0B0"/>
</linearGradient>
<linearGradient id="paint6_linear" x1="0.242883" y1="21.0903" x2="2.00379" y2="21.0903" gradientUnits="userSpaceOnUse">
<stop stop-color="#0073BA"/>
<stop offset="1" stop-color="#00C0B0"/>
</linearGradient>
</defs>
</svg>
