<svg width="56" height="57" viewBox="0 0 56 57" fill="none" xmlns="http://www.w3.org/2000/svg">
<path d="M43.8875 29.0211C42.5534 29.0211 41.2933 28.4528 40.4212 27.4554C39.6211 26.54 39.2342 25.3731 39.3268 24.1941H32.1302C31.5061 24.1941 31 23.7044 31 23.1004V15.7244C31 15.3998 31.149 15.0919 31.4067 14.8841C31.6644 14.6763 32.0047 14.5902 32.3342 14.6486L32.4018 14.6607C33.0816 14.7812 33.7759 14.6042 34.3067 14.1759C34.8377 13.7475 35.1423 13.1182 35.1423 12.4491C35.1423 11.7802 34.8378 11.151 34.3068 10.7227C33.776 10.2945 33.0815 10.1179 32.4016 10.2382L32.334 10.2503C32.0039 10.3088 31.6643 10.2225 31.4067 10.0147C31.1492 9.80687 31.0001 9.49909 31.0001 9.17447V1.09374C31.0001 0.489666 31.5062 0 32.1303 0H50.8788C53.7025 0 55.9999 2.22324 55.9999 4.95604V23.1004C55.9999 23.7044 55.4939 24.1941 54.8697 24.1941H48.4508C48.5571 25.3472 48.1943 26.4966 47.4273 27.4006C46.5697 28.4111 45.3038 29.0015 43.954 29.0206C43.9318 29.021 43.9097 29.0211 43.8875 29.0211ZM33.2604 22.0066H40.6561C40.9914 22.0066 41.3094 22.1508 41.5243 22.4C41.7389 22.6493 41.8283 22.978 41.7678 23.2972L41.6138 24.1119C41.4833 24.802 41.6776 25.5056 42.1469 26.0424C42.6013 26.5621 43.2324 26.8417 43.921 26.8333C44.6045 26.8236 45.2459 26.5243 45.6805 26.0122C46.115 25.5002 46.2934 24.8328 46.1701 24.1811L46.0031 23.2971C45.9427 22.9779 46.032 22.6492 46.2467 22.3999C46.4615 22.1507 46.7795 22.0065 47.1148 22.0065H53.7395V4.95604C53.7395 3.42941 52.4562 2.18747 50.8788 2.18747H33.2604V8.03371C34.1677 8.11782 35.0366 8.46366 35.754 9.04246C36.8017 9.88759 37.4025 11.1293 37.4025 12.4491C37.4025 13.769 36.8017 15.0109 35.754 15.856C35.0365 16.4349 34.1677 16.7809 33.2604 16.8651V22.0066Z" fill="url(#paint0_linear)"/>
<path d="M46.609 37.9549C47.2332 37.9549 47.7391 37.4652 47.7391 36.8611V32.9011C47.7391 32.2971 47.2332 31.8074 46.609 31.8074H38.8542C38.5188 31.8074 38.2008 31.9516 37.9861 32.2008C37.7714 32.4501 37.6821 32.7787 37.7424 33.098L37.9096 33.982C38.0329 34.6337 37.8544 35.3011 37.4199 35.8131C36.9852 36.3253 36.3438 36.6245 35.6604 36.6342C34.971 36.6416 34.3406 36.363 33.8863 35.8433C33.4171 35.3065 33.2228 34.6029 33.3532 33.913L33.5073 33.0981C33.5676 32.7789 33.4783 32.4502 33.2637 32.2008C33.049 31.9516 32.7308 31.8074 32.3955 31.8074H24.9998V26.6659C25.9072 26.5816 26.7759 26.2358 27.4935 25.6569C28.5411 24.8116 29.1418 23.5699 29.1418 22.25C29.1418 20.9301 28.541 19.6884 27.4934 18.8432C26.7758 18.2644 25.9071 17.9186 24.9998 17.8345V10.8945C24.9998 10.2904 24.4938 9.80078 23.8696 9.80078H5.12109C2.29727 9.80078 0 12.024 0 14.7568V51.0455C0 53.7783 2.29727 56.0015 5.12109 56.0015H42.6181C45.4418 56.0015 47.7392 53.7783 47.7392 51.0455V47.8713C47.7392 47.2673 47.2333 46.7776 46.6091 46.7776C45.985 46.7776 45.4789 47.2673 45.4789 47.8713V51.0455C45.4789 52.572 44.1956 53.814 42.6181 53.814H24.9998V46.7592C24.9998 46.4348 24.8509 46.127 24.5935 45.9192C24.336 45.7114 23.9963 45.6249 23.6666 45.6832L23.5983 45.6952C22.9184 45.8156 22.2239 45.6392 21.6932 45.211C21.1622 44.7828 20.8576 44.1536 20.8576 43.484C20.8576 42.8151 21.1621 42.1858 21.6932 41.7574C22.2241 41.329 22.9184 41.1524 23.5989 41.273L23.6666 41.285C23.9961 41.343 24.3359 41.2567 24.5935 41.0489C24.8509 40.8411 24.9998 40.5334 24.9998 40.2089V33.9947H31.0662C30.9736 35.1737 31.3604 36.3405 32.1607 37.2558C33.0472 38.2699 34.3387 38.8417 35.6933 38.8212C37.0431 38.8022 38.3091 38.2117 39.1666 37.2012C39.9337 36.2973 40.2965 35.1478 40.1901 33.9947H45.4789V36.8611C45.4788 37.4652 45.9849 37.9549 46.609 37.9549ZM2.26032 14.7568C2.26032 13.2303 3.54372 11.9883 5.12109 11.9883H22.7395V18.9751C22.7395 19.2997 22.8883 19.6073 23.1459 19.8151C23.4034 20.0228 23.743 20.1091 24.0728 20.0511L24.1405 20.0391C24.1405 20.0391 24.1407 20.039 24.1409 20.039C24.8206 19.9187 25.5152 20.0951 26.0462 20.5234C26.5771 20.9519 26.8816 21.5811 26.8816 22.25C26.8816 22.9189 26.5771 23.5484 26.0462 23.9767C25.5152 24.405 24.8209 24.5816 24.141 24.4613L24.073 24.4493C23.7432 24.3909 23.4035 24.4773 23.146 24.6851C22.8884 24.8929 22.7395 25.2007 22.7395 25.5252V31.8074H17.8902C17.3359 29.9537 15.573 28.6172 13.4872 28.6172C11.4014 28.6172 9.63855 29.9537 9.08432 31.8074H2.26032V14.7568ZM20.2459 40.0773C19.1982 40.9224 18.5973 42.1642 18.5973 43.4848C18.5973 44.8047 19.1982 46.0464 20.2459 46.8916C20.9634 47.4704 21.8323 47.8161 22.7395 47.9001V53.814H5.12109C3.54372 53.814 2.26032 52.5721 2.26032 51.0455V33.9949H10.0368C10.6419 33.9949 11.1396 33.5336 11.166 32.9487C11.22 31.7465 12.2396 30.8048 13.4873 30.8048C14.7349 30.8048 15.7546 31.7465 15.8087 32.9487C15.835 33.5338 16.3327 33.9949 16.9378 33.9949H22.7396V39.0685C21.8321 39.1526 20.9633 39.4984 20.2459 40.0773Z" fill="url(#paint1_linear)"/>
<path d="M46.6086 43.399C46.1353 43.399 45.7055 43.104 45.5455 42.6736C45.3883 42.2509 45.5228 41.762 45.8775 41.4716C46.2483 41.168 46.7923 41.13 47.205 41.3771C47.6008 41.6141 47.8086 42.0777 47.7173 42.5196C47.613 43.0247 47.1404 43.399 46.6086 43.399Z" fill="url(#paint2_linear)"/>
<defs>
<linearGradient id="paint0_linear" x1="33.7778" y1="15.6267" x2="53.9166" y2="15.6267" gradientUnits="userSpaceOnUse">
<stop stop-color="#126D2E"/>
<stop offset="1" stop-color="#96BE15"/>
</linearGradient>
<linearGradient id="paint1_linear" x1="5.30436" y1="34.6781" x2="43.761" y2="34.6781" gradientUnits="userSpaceOnUse">
<stop stop-color="#126D2E"/>
<stop offset="1" stop-color="#96BE15"/>
</linearGradient>
<linearGradient id="paint2_linear" x1="45.7314" y1="42.3909" x2="47.5504" y2="42.3909" gradientUnits="userSpaceOnUse">
<stop stop-color="#126D2E"/>
<stop offset="1" stop-color="#96BE15"/>
</linearGradient>
</defs>
</svg>
