<svg width="10" height="11" viewBox="0 0 10 11" fill="none" xmlns="http://www.w3.org/2000/svg">
<path fill-rule="evenodd" clip-rule="evenodd" d="M7.92168 0.421053C7.92168 0.188512 7.73025 0 7.49412 0C7.25799 0 7.06657 0.188512 7.06657 0.421053V0.81901H2.93356V0.421053C2.93356 0.188512 2.74214 0 2.506 0C2.26987 0 2.07845 0.188512 2.07845 0.421053V0.81901H0.84323C0.377527 0.81901 0 1.1908 0 1.64942V3.69579V9.83656C0 10.2952 0.377527 10.667 0.84323 10.667H9.15677C9.62247 10.667 10 10.2952 10 9.83656V3.69579V1.64942C10 1.1908 9.62247 0.81901 9.15677 0.81901H7.92168V0.421053ZM9.14489 3.27474V1.66112H7.92168V2.05848C7.92168 2.29102 7.73025 2.47953 7.49412 2.47953C7.25799 2.47953 7.06657 2.29102 7.06657 2.05848V1.66112H2.93356V2.05848C2.93356 2.29102 2.74214 2.47953 2.506 2.47953C2.26987 2.47953 2.07845 2.29102 2.07845 2.05848V1.66112H0.855107V3.27474H9.14489ZM0.855107 4.11685H9.14489V9.82487H0.855107V4.11685Z" fill="white"/>
</svg>
