<svg width="20" height="20" viewBox="0 0 20 20" fill="none" xmlns="http://www.w3.org/2000/svg">
<path fill-rule="evenodd" clip-rule="evenodd" d="M10 1.53846C5.32682 1.53846 1.53846 5.32682 1.53846 10C1.53846 14.6732 5.32682 18.4615 10 18.4615C14.6732 18.4615 18.4615 14.6732 18.4615 10C18.4615 5.32682 14.6732 1.53846 10 1.53846ZM0 10C0 4.47715 4.47715 0 10 0C15.5228 0 20 4.47715 20 10C20 15.5228 15.5228 20 10 20C4.47715 20 0 15.5228 0 10Z" fill="#666666"/>
<path fill-rule="evenodd" clip-rule="evenodd" d="M9.9997 4.61523C10.4245 4.61523 10.7689 4.95963 10.7689 5.38447V10.7691C10.7689 11.1939 10.4245 11.5383 9.9997 11.5383C9.57487 11.5383 9.23047 11.1939 9.23047 10.7691V5.38447C9.23047 4.95963 9.57487 4.61523 9.9997 4.61523Z" fill="#666666"/>
<path d="M9.9976 15.3848C10.6348 15.3848 11.1514 14.8682 11.1514 14.231C11.1514 13.5937 10.6348 13.0771 9.9976 13.0771C9.36034 13.0771 8.84375 13.5937 8.84375 14.231C8.84375 14.8682 9.36034 15.3848 9.9976 15.3848Z" fill="#666666"/>
<path d="M20 3.5C20 5.433 18.433 7 16.5 7C14.567 7 13 5.433 13 3.5C13 1.567 14.567 0 16.5 0C18.433 0 20 1.567 20 3.5Z" fill="#FF3333"/>
</svg>
