<svg width="16" height="16" viewBox="0 0 16 16" fill="none" xmlns="http://www.w3.org/2000/svg">
<path fill-rule="evenodd" clip-rule="evenodd" d="M11.3067 1.49812V5.27337H14.6667V1.49812H11.3067ZM9.97337 1.40823C9.97337 0.630486 10.5345 0 11.2267 0H14.7467C15.4389 0 16 0.630486 16 1.40823V5.36326C16 6.14101 15.4389 6.77149 14.7467 6.77149H11.2267C10.5345 6.77149 9.97337 6.14101 9.97337 5.36326V4.13482H9.46645C9.17648 4.13482 8.89839 4.26425 8.69335 4.49463C8.48831 4.72501 8.37312 5.03747 8.37312 5.36328V7.97001C8.37347 7.97992 8.37364 7.98988 8.37364 7.99989C8.37364 8.0099 8.37347 8.01986 8.37312 8.02977V10.6367C8.37312 10.9625 8.48831 11.2749 8.69335 11.5053C8.89839 11.7357 9.17648 11.8651 9.46645 11.8651H9.97337V10.6367C9.97337 9.85894 10.5345 9.22846 11.2267 9.22846H14.7467C15.4389 9.22846 16 9.85894 16 10.6367V14.5917C16 15.3695 15.4389 15.9999 14.7467 15.9999H11.2267C10.5345 15.9999 9.97337 15.3695 9.97337 14.5917V13.3632H9.46645C8.82286 13.3632 8.20563 13.076 7.75055 12.5646C7.29546 12.0533 7.0398 11.3598 7.0398 10.6367V8.74895H5.43996V9.648C5.43996 10.4257 4.87883 11.0562 4.18664 11.0562H1.25333C0.561133 11.0562 0 10.4257 0 9.648V6.35214C0 5.5744 0.561133 4.94391 1.25333 4.94391H4.18664C4.87883 4.94391 5.43996 5.5744 5.43996 6.35214V7.25083H7.0398V5.36328C7.0398 4.64014 7.29546 3.94663 7.75055 3.4353C8.20563 2.92396 8.82286 2.6367 9.46645 2.6367H9.97337V1.40823ZM1.33332 6.44203V9.55812H4.10664V6.44203H1.33332ZM11.3067 14.5018V10.7266H14.6667V14.5018H11.3067Z" fill="#868686"/>
</svg>
