<svg width="51" height="46" viewBox="0 0 51 46" fill="none" xmlns="http://www.w3.org/2000/svg">
<path d="M49.4884 38.8374L29.1456 2.38751C27.411 -0.795836 22.68 -0.795836 20.9453 2.38751L0.602595 38.8374C-1.13201 42.0207 1.07572 46 4.70272 46H45.2306C49.0153 45.8409 51.223 42.0207 49.4884 38.8374Z" fill="#FF3333"/>
<path d="M25.5557 5.10938L46.0002 40.8872H5.11133L25.5557 5.10938Z" fill="white"/>
<path d="M21.8422 21.4965L23.1158 29.9341C23.2749 30.8892 24.0709 31.6852 25.1854 31.6852C26.1405 31.6852 27.0958 30.8892 27.255 29.9341L28.5286 21.4965C28.8469 19.4269 27.255 17.6758 25.1854 17.6758C23.1157 17.6757 21.6829 19.4269 21.8422 21.4965Z" fill="#FF3333"/>
<path d="M25.1858 37.2583C26.2409 37.2583 27.0962 36.403 27.0962 35.3479C27.0962 34.2928 26.2409 33.4375 25.1858 33.4375C24.1307 33.4375 23.2754 34.2928 23.2754 35.3479C23.2754 36.403 24.1307 37.2583 25.1858 37.2583Z" fill="#FF3333"/>
</svg>
