<svg width="30" height="30" viewBox="0 0 30 30" fill="none" xmlns="http://www.w3.org/2000/svg">
<path fill-rule="evenodd" clip-rule="evenodd" d="M5.41781 12.0876L7.08428 10.7281C6.49447 10.2744 5.90297 9.8207 5.31146 9.36865H4.41592C4.08527 9.36865 3.81445 9.63789 3.81445 9.96865V10.5637C3.81445 11.3231 4.66682 12.0976 5.41781 12.0876Z" fill="#FFBC85"/>
<path fill-rule="evenodd" clip-rule="evenodd" d="M21.8145 27.6008C22.0355 27.5858 22.1601 27.5044 22.1601 27.1154V22.6014C22.1601 19.9207 19.3921 17.9196 16.9729 17.4326L16.948 17.4509L11.3854 17.2415L5.62998 17.4359L5.62664 17.4326C3.20754 17.9196 0.439453 19.9206 0.439453 22.6014V27.1154C0.439453 27.5043 0.564082 27.5858 0.785039 27.6008H21.8145Z" fill="#F9F7F7"/>
<path fill-rule="evenodd" clip-rule="evenodd" d="M9.72583 18.6925L11.3009 17.2449C11.2843 17.2449 11.2677 17.2449 11.2511 17.2449C10.4635 16.1097 9.15096 15.3917 7.79188 15.764C7.00766 16.3591 5.91107 17.225 5.62695 17.4327L5.63029 17.436L8.287 19.4104C8.85026 19.7628 8.45815 19.811 9.32376 19.0631L9.72583 18.6925Z" fill="#CECECE"/>
<path fill-rule="evenodd" clip-rule="evenodd" d="M14.3131 19.4105L16.9482 17.451L16.9731 17.4327C16.6824 17.2217 15.5426 16.3192 14.7567 15.7242C13.1052 15.5946 11.9122 16.4655 11.3008 17.245L12.7961 18.6194L13.2763 19.0632C14.1436 19.811 13.7498 19.7628 14.3131 19.4105Z" fill="#CECECE"/>
<path fill-rule="evenodd" clip-rule="evenodd" d="M12.3351 20.4326L12.797 18.6194L11.3016 17.2449L9.72656 18.6925L10.1702 20.4326H11.2518H12.3351Z" fill="#3987D0"/>
<path fill-rule="evenodd" clip-rule="evenodd" d="M13.8194 25.3837L12.3341 20.4326H11.2508H10.1691L8.68208 25.3837C8.67048 25.4269 8.65882 25.4303 8.67874 25.4685L9.80521 27.6009H11.2507H12.6962L13.8227 25.4685C13.8427 25.4303 13.8327 25.4269 13.8194 25.3837Z" fill="#7BACDF"/>
<path fill-rule="evenodd" clip-rule="evenodd" d="M12.3349 20.4326L12.7968 18.6194L11.3014 17.2449L10.7598 17.7418L11.7135 18.6194L11.2516 20.4326H12.3349Z" fill="#0067B4"/>
<path fill-rule="evenodd" clip-rule="evenodd" d="M13.8206 25.3837L12.3352 20.4326H11.252L12.7373 25.3837C12.7506 25.4269 12.7622 25.4303 12.7406 25.4685L11.6158 27.6009H12.6975L13.8239 25.4685C13.8438 25.4303 13.8339 25.4269 13.8206 25.3837Z" fill="#3987D0"/>
<path fill-rule="evenodd" clip-rule="evenodd" d="M9.8169 18.6077L10.759 17.7418L11.3006 17.2449C11.284 17.2449 11.2674 17.2449 11.2507 17.2449C10.7772 17.2449 10.3037 17.1452 9.76369 16.9424C9.05588 16.6798 8.38633 16.2677 7.79148 15.764C7.50402 15.9818 7.17508 16.2361 6.85938 16.482C7.63861 17.4028 8.65211 18.1739 9.75537 18.5861C9.77541 18.5928 9.79697 18.6011 9.8169 18.6077Z" fill="#B5ADB6"/>
<path fill-rule="evenodd" clip-rule="evenodd" d="M12.7496 18.5779C13.8678 18.1574 14.8896 17.3663 15.6705 16.4273C15.3582 16.1846 15.0342 15.9353 14.7567 15.7242C14.1502 16.2461 13.4641 16.6716 12.738 16.9425C12.2162 17.1369 11.7577 17.2383 11.3008 17.2449L12.7496 18.5779Z" fill="#B5ADB6"/>
<path fill-rule="evenodd" clip-rule="evenodd" d="M21.483 27.6008H21.4929C21.4897 27.6008 21.4863 27.6008 21.483 27.6008ZM15.7559 18.3385C18.0321 18.99 20.413 20.8913 20.413 23.3777V27.6008H21.483H21.4929H21.8153C22.0362 27.5859 22.1609 27.5044 22.1609 27.1155V22.6015C22.1609 19.9207 19.3928 17.9196 16.9737 17.4326L16.9488 17.4509L15.7559 18.3385Z" fill="#E2E2E2"/>
<path fill-rule="evenodd" clip-rule="evenodd" d="M14.756 15.7241C15.9208 14.7219 16.793 13.3674 17.0838 12.0877C17.1536 11.7835 17.1901 11.4844 17.1901 11.1952V8.30329V7.86782H16.0985C13.7841 7.86782 13.3023 5.01917 10.4761 5.01917H8.59859C6.43367 5.01917 8.08186 8.30329 5.59133 8.30329H5.31055V11.1952C5.31055 11.4843 5.34711 11.7835 5.41689 12.0877C5.71262 13.3841 6.60318 14.7569 7.79117 15.764C8.38596 16.2676 9.05557 16.6798 9.76338 16.9424C10.3034 17.1452 10.7769 17.2449 11.2504 17.2449H11.3003C11.7572 17.2382 12.2158 17.1368 12.7375 16.9424C13.4634 16.6715 14.1496 16.246 14.756 15.7241Z" fill="#FFE5C1"/>
<path fill-rule="evenodd" clip-rule="evenodd" d="M9.45898 13.65C9.45898 15.7807 13.0462 15.7807 13.0462 13.65C13.0462 13.4505 12.8833 13.2893 12.6856 13.2893H9.81787C9.62012 13.2893 9.45898 13.4505 9.45898 13.65Z" fill="#FBF8F8"/>
<path fill-rule="evenodd" clip-rule="evenodd" d="M17.0841 12.0878C17.8367 12.0977 18.6874 11.3232 18.6874 10.5637V9.96865C18.6874 9.63789 18.4166 9.36865 18.0876 9.36865H17.1904L16.4727 10.4772L17.0841 12.0878Z" fill="#FFBC85"/>
<path fill-rule="evenodd" clip-rule="evenodd" d="M5.59089 9.36864C8.08148 9.36864 6.43329 6.08288 8.59816 6.08288H10.4757C13.3019 6.08288 13.7837 8.93323 16.0982 8.93323H17.1898V8.06897V6.11112C17.1898 3.11452 13.8718 1.15004 11.0838 1.14172H11.0472C9.79277 1.14506 8.64966 1.54725 7.97015 2.43143C5.09911 2.68403 5.31011 6.50499 5.31011 7.0086V7.98084V9.36864H5.59089Z" fill="#838383"/>
<path fill-rule="evenodd" clip-rule="evenodd" d="M17.1909 6.11112C17.1909 3.11452 13.8729 1.15004 11.0849 1.14172H11.0484C9.79729 1.14506 8.65582 1.54561 7.97461 2.42481C8.55615 2.14227 9.24234 2.00762 9.9651 2.00598H10.0033C12.7913 2.0143 16.1076 3.97877 16.1076 6.97538V8.93323H17.1909V8.06897V6.11112H17.1909Z" fill="#595959"/>
<path fill-rule="evenodd" clip-rule="evenodd" d="M16.1001 8.93324C13.7857 8.93324 13.3038 6.08289 10.4776 6.08289H8.60018C7.71793 6.08289 7.46873 6.62804 7.31586 7.27287H10.2617C13.0879 7.27287 13.4617 9.93871 15.7762 9.95201L16.1084 9.95365C16.1084 10.7979 16.135 11.117 15.8792 11.9364C15.5469 13.0001 15.0019 14.1202 14.0864 14.9064C13.48 15.4283 12.7938 15.8554 12.0694 16.1246C11.5793 16.3091 11.1074 16.4238 10.5807 16.4271C9.60043 16.4271 7.49533 15.3136 6.73438 14.6754C7.04838 15.0676 7.40562 15.4349 7.79275 15.764C8.38754 16.2676 9.05715 16.6797 9.76496 16.9424C10.305 17.1452 10.7785 17.2448 11.252 17.2448H11.3019C11.7588 17.2382 12.2173 17.1368 12.7391 16.9424C13.4652 16.6715 14.1513 16.246 14.7578 15.7241C15.9225 14.7219 16.7948 13.3674 17.0855 12.0877C17.1553 11.7835 17.1919 11.4844 17.1919 11.1952V9.36865V8.93318H16.1001V8.93324Z" fill="#FED1A3"/>
<path fill-rule="evenodd" clip-rule="evenodd" d="M18.8652 18.704C21.0966 16.1695 24.9579 15.9252 27.4917 18.1556C30.0238 20.3877 30.2697 24.2502 28.0383 26.7847C25.8069 29.3176 21.9456 29.5636 19.4118 27.3315C16.8797 25.1011 16.6338 21.2369 18.8652 18.704Z" fill="#FE9737"/>
<path fill-rule="evenodd" clip-rule="evenodd" d="M27.4931 18.1557C26.0011 16.841 24.0472 16.3873 22.2395 16.7513C21.9969 16.8012 21.7577 16.8643 21.5234 16.9424C22.4971 17.1585 23.4308 17.6172 24.2316 18.3219C26.7654 20.554 27.0096 24.4165 24.7799 26.951C24.0372 27.7936 23.1168 28.382 22.1232 28.7127C22.301 28.7509 22.4821 28.7825 22.6632 28.8075C23.1866 28.874 23.7166 28.874 24.24 28.8075C25.6589 28.623 27.0196 27.9432 28.0398 26.7848C30.2712 24.2502 30.0253 20.3877 27.4931 18.1557Z" fill="#F36B37"/>
<path d="M8.32041 11.1161C8.43332 11.1161 8.54623 11.0729 8.63207 10.9865C8.69828 10.9199 8.78635 10.8831 8.87998 10.883H8.88051C8.97479 10.883 9.06379 10.92 9.131 10.9873C9.30262 11.159 9.58088 11.1591 9.75256 10.9875C9.92424 10.8158 9.9243 10.5376 9.75268 10.366C9.51936 10.1325 9.20963 10.004 8.88051 10.004C8.87992 10.004 8.87934 10.004 8.87881 10.004C8.54981 10.0045 8.24078 10.1333 8.00869 10.3668C7.83754 10.539 7.83836 10.8172 8.01051 10.9883C8.09629 11.0736 8.20832 11.1161 8.32041 11.1161Z" fill="#474747"/>
<path d="M13.0626 11.1161C13.1755 11.1161 13.2884 11.0729 13.3743 10.9865C13.4405 10.9199 13.5286 10.8831 13.6222 10.883H13.6227C13.717 10.883 13.806 10.92 13.8732 10.9873C14.0447 11.159 14.3231 11.1591 14.4947 10.9875C14.6664 10.8159 14.6665 10.5376 14.4949 10.366C14.2616 10.1325 13.9519 10.004 13.6228 10.004C13.6222 10.004 13.6216 10.004 13.6211 10.004C13.292 10.0045 12.983 10.1333 12.7509 10.3668C12.5797 10.5389 12.5805 10.8172 12.7527 10.9883C12.8385 11.0736 12.9505 11.1161 13.0626 11.1161Z" fill="#474747"/>
<path d="M9.01758 13.65C9.01758 14.2734 9.27598 14.8213 9.74478 15.1928C10.1474 15.5116 10.6824 15.6874 11.2508 15.6874C12.3601 15.6874 13.4835 14.9878 13.4835 13.65C13.4835 13.2088 13.1248 12.8496 12.6836 12.8496H9.81574C9.37564 12.8496 9.01758 13.2088 9.01758 13.65ZM12.6028 13.7285C12.5553 14.5787 11.739 14.8085 11.2508 14.8085C10.7627 14.8085 9.94635 14.5788 9.89889 13.7285H12.6028Z" fill="#474747"/>
<path d="M25.5762 10.0491C25.6887 10.0491 25.8014 10.0061 25.8872 9.92018L26.6736 9.13274V12.6095C26.6736 12.8523 26.8703 13.049 27.1131 13.049C27.3558 13.049 27.5526 12.8523 27.5526 12.6095V9.13192L28.3408 9.92036C28.4266 10.0062 28.5391 10.0491 28.6516 10.0491C28.7641 10.0491 28.8765 10.0063 28.9624 9.92048C29.134 9.74886 29.1341 9.4706 28.9625 9.29892L27.4239 7.75989C27.4185 7.75444 27.4136 7.74999 27.409 7.74636C27.3309 7.67499 27.2272 7.6311 27.1131 7.6311C26.9917 7.6311 26.8818 7.68032 26.8023 7.75989C26.8022 7.75995 26.8021 7.75995 26.8021 7.76001L25.2652 9.29903C25.0937 9.47083 25.0939 9.74903 25.2657 9.92059C25.3514 10.0063 25.4637 10.0491 25.5762 10.0491Z" fill="#474747"/>
<path d="M27.7824 17.8255C26.4686 16.6694 24.7832 16.094 23.0375 16.2042C22.9168 16.2119 22.797 16.2241 22.6778 16.2381V13.2744L23.4642 14.0618C23.55 14.1478 23.6626 14.1907 23.7752 14.1907C23.8876 14.1907 23.9999 14.148 24.0857 14.0623C24.2575 13.8907 24.2577 13.6125 24.0862 13.4407L22.5493 11.9018C22.5493 11.9017 22.5492 11.9017 22.5492 11.9016C22.5487 11.9012 22.5482 11.9008 22.5478 11.9004C22.5428 11.8954 22.5381 11.8911 22.5335 11.8874C22.4555 11.8165 22.3521 11.7729 22.2384 11.7729C22.1247 11.7729 22.0214 11.8164 21.9434 11.8872C21.9385 11.8912 21.9332 11.896 21.9275 11.9017L20.389 13.4406C20.2174 13.6123 20.2174 13.8906 20.3891 14.0622C20.4749 14.148 20.5873 14.1908 20.6998 14.1908C20.8123 14.1908 20.9248 14.1479 21.0107 14.0621L21.7989 13.2736V16.4029C20.8348 16.6525 19.9441 17.117 19.1859 17.7705C18.5413 17.4301 17.8498 17.1735 17.1595 17.024C16.9937 16.8992 16.6901 16.6631 16.3461 16.3953C16.0554 16.1697 15.7396 15.9237 15.4407 15.694C16.376 14.7805 17.1002 13.6461 17.4331 12.4911C17.8158 12.4108 18.2013 12.1999 18.5137 11.8917C18.904 11.5073 19.1272 11.0233 19.1272 10.5639V9.96859C19.1272 9.39555 18.6608 8.92908 18.0877 8.92908H17.63V6.11125C17.63 4.96217 17.184 3.86939 16.3396 2.95059C15.6054 2.15137 14.5687 1.49623 13.4207 1.10541C12.3448 0.739785 11.2062 0.61791 10.2159 0.762637C9.17455 0.914394 8.32424 1.34682 7.74352 2.01602C6.56332 2.18652 4.80996 3.08365 4.87037 6.91639C4.87096 6.95447 4.87154 6.98553 4.87154 7.00897V8.92914H4.41563C3.84135 8.92914 3.3743 9.39555 3.3743 9.96865V10.564C3.3743 11.0228 3.59812 11.5067 3.98783 11.8912C4.30078 12.2 4.68691 12.4109 5.069 12.4912C5.40832 13.6637 6.14959 14.8156 7.10537 15.7356C6.81117 15.9624 6.50297 16.2014 6.2199 16.4218C5.89113 16.6772 5.60168 16.9022 5.43996 17.0242C4.23926 17.2837 3.01037 17.8814 2.05289 18.6754C1.86656 18.8301 1.84078 19.1072 1.99547 19.2941C2.08219 19.399 2.20758 19.4529 2.3342 19.4529C2.43264 19.4529 2.53225 19.4195 2.61434 19.3516C3.43945 18.6672 4.49074 18.1462 5.52504 17.9048L8.02494 19.7635C8.03432 19.7705 8.04369 19.777 8.05365 19.7834C8.14682 19.8414 8.20775 19.8889 8.25639 19.9275C8.41283 20.0494 8.54707 20.0975 8.66543 20.0975C8.86348 20.0975 9.01881 19.9639 9.16236 19.818C9.23268 19.7465 9.33228 19.6451 9.48059 19.5109L9.7132 20.4233L8.26166 25.2575C8.26049 25.2604 8.25932 25.2627 8.25932 25.2657L8.25814 25.2698C8.2101 25.4086 8.22064 25.5405 8.29037 25.6741L9.07617 27.1618H4.64584V24.4113C4.64584 24.1687 4.44897 23.9719 4.20633 23.9719C3.96316 23.9719 3.76682 24.1687 3.76682 24.4113V27.1618H1.1175C1.07004 27.1618 1.02492 27.1624 0.981563 27.163C0.949922 27.1636 0.91418 27.1647 0.880195 27.1642C0.879609 27.1501 0.879023 27.1337 0.879023 27.1155V22.6019C0.879023 21.9672 1.05422 21.345 1.39939 20.752C1.52127 20.5422 1.45037 20.2733 1.24061 20.1508C1.03084 20.029 0.761836 20.0999 0.639375 20.3096C0.215039 21.0384 0 21.8095 0 22.6017V27.1154C0 27.3222 0.0246094 27.621 0.238477 27.8308C0.462891 28.0511 0.746543 28.0464 0.997324 28.0417C1.03541 28.0411 1.07525 28.0405 1.11744 28.0405H19.5929C20.7134 28.8597 22.0501 29.2969 23.4424 29.2969C23.583 29.2969 23.7248 29.2928 23.8667 29.2834C25.6124 29.1726 27.2116 28.3886 28.3683 27.0749C30.7552 24.3643 30.4927 20.2145 27.7824 17.8255ZM17.6299 11.1955V9.80793H18.0875C18.1748 9.80793 18.2481 9.88176 18.2481 9.96848V10.5638C18.2481 10.7859 18.1168 11.0484 17.8965 11.2657C17.8103 11.3507 17.7166 11.4234 17.6193 11.4825C17.6263 11.3853 17.6299 11.2898 17.6299 11.1955ZM4.60541 11.2658C4.3851 11.0484 4.2532 10.7859 4.2532 10.5638V9.96853C4.2532 9.88182 4.32762 9.80799 4.41551 9.80799H4.87143V11.1955C4.87143 11.2893 4.87553 11.3854 4.88256 11.4821C4.78529 11.4228 4.69096 11.3502 4.60541 11.2658ZM15.8063 17.089C15.9662 17.2132 16.1133 17.3281 16.2422 17.4283L14.0641 19.0479C14.0307 19.069 14.0002 19.0889 13.9727 19.1082C13.8783 19.0145 13.75 18.8914 13.5689 18.735L13.1136 18.316C13.1001 18.302 13.086 18.2891 13.0708 18.2768L12.2797 17.5485C12.476 17.4981 12.6788 17.4342 12.8915 17.3545C13.549 17.109 14.1848 16.7399 14.7662 16.2839C15.1019 16.5412 15.471 16.8289 15.8063 17.089ZM12.3049 18.7666L11.9925 19.993H10.5105L10.2163 18.8393L11.3004 17.842L12.3049 18.7666ZM8.00947 2.86902C8.13193 2.85848 8.24443 2.79695 8.31949 2.69969C8.9342 1.90105 9.96439 1.58166 11.0526 1.58166C11.7552 1.58166 12.4825 1.71467 13.1376 1.93732C14.8042 2.5051 16.7509 3.93836 16.7509 6.11107V8.49355H16.0992C15.1733 8.49355 14.5803 7.9375 13.8941 7.29408C13.069 6.52006 12.1338 5.64344 10.4766 5.64344H8.59898C7.19607 5.64344 6.9699 6.74623 6.80467 7.55131C6.62596 8.42318 6.49934 8.87148 5.75045 8.92363V7.00873C5.75045 6.98178 5.74986 6.94603 5.74928 6.90268C5.72174 5.15541 6.09152 3.03777 8.00947 2.86902ZM5.84596 11.9894C5.78268 11.714 5.75045 11.4469 5.75045 11.1955V9.80383C7.2559 9.7259 7.50141 8.52883 7.66611 7.72779C7.84893 6.83482 7.9691 6.52246 8.59904 6.52246H10.4766C11.7863 6.52246 12.5182 7.20859 13.2929 7.93521C14.0464 8.64191 14.8259 9.37258 16.0992 9.37258H16.7508V11.1955C16.7508 11.4469 16.7192 11.714 16.6559 11.99C16.2275 13.8733 14.4772 15.8251 12.5832 16.5312C12.0845 16.7181 11.6614 16.8054 11.2506 16.8054C10.8404 16.8054 10.4167 16.7181 9.91746 16.5306C8.02588 15.8257 6.27551 13.8739 5.84596 11.9894ZM9.43934 18.3594C9.43172 18.3658 9.42469 18.3729 9.41707 18.3799L9.03088 18.735C8.84982 18.892 8.72203 19.0145 8.6277 19.1082C8.59957 19.0895 8.5691 19.069 8.53512 19.0479L6.35695 17.4277C6.47707 17.3351 6.61248 17.2296 6.75955 17.1154C7.08832 16.8599 7.45043 16.5781 7.78447 16.322C8.3523 16.7603 8.97053 17.116 9.60926 17.3539C9.85066 17.4447 10.0792 17.515 10.3007 17.5677L9.43934 18.3594ZM13.4253 27.1616L14.2123 25.6715C14.2832 25.5362 14.292 25.4008 14.2404 25.2573L13.9345 24.2418C13.8648 24.0092 13.6192 23.8773 13.3872 23.9477C13.1546 24.0174 13.0227 24.2623 13.093 24.4949L13.3643 25.3955L12.4314 27.1616H10.0704L9.13746 25.3955L10.4958 20.8719H12.0071L12.5164 22.57C12.5732 22.7604 12.7478 22.8829 12.9371 22.8829C12.9788 22.8829 13.0215 22.877 13.0631 22.8647C13.2957 22.795 13.4276 22.5501 13.3579 22.3175L12.7901 20.4231L13.0403 19.4404C13.2349 19.6115 13.3568 19.7351 13.4388 19.8183C13.5824 19.9642 13.7377 20.0978 13.9346 20.0978C14.0535 20.0978 14.1871 20.0492 14.343 19.9273C14.3923 19.8886 14.4532 19.8412 14.5458 19.7832C14.5563 19.7767 14.5657 19.7703 14.5751 19.7632L17.075 17.9046C17.5672 18.0194 18.0601 18.1935 18.5312 18.419C17.3774 19.731 16.8031 21.4145 16.9138 23.1589C17.0094 24.6665 17.6065 26.0635 18.6127 27.1615H13.4253V27.1616ZM27.7085 26.4942C26.707 27.6316 25.3229 28.3107 23.811 28.4062C22.9801 28.4589 22.165 28.3323 21.4102 28.0405C20.8669 27.8308 20.3554 27.5361 19.8924 27.1616C19.8279 27.11 19.7647 27.0567 19.7026 27.0016C18.5657 26.0008 17.8871 24.6162 17.791 23.1033C17.7834 22.9802 17.7793 22.8578 17.7793 22.7359C17.7793 21.3559 18.275 20.0388 19.1951 18.9946C19.2355 18.9483 19.2771 18.9031 19.3193 18.8586C19.5261 18.6377 19.7483 18.435 19.9838 18.2528C20.8728 17.5631 21.9463 17.1541 23.0931 17.0814C23.2156 17.0738 23.3381 17.0697 23.46 17.0697C24.8401 17.0697 26.1562 17.5654 27.201 18.4854C29.548 20.5538 29.7754 24.1469 27.7085 26.4942Z" fill="#474747"/>
<path d="M22.9455 21.3142H24.8945C25.1372 21.3142 25.334 21.1175 25.334 20.8748C25.334 20.632 25.1372 20.4353 24.8945 20.4353H23.8918V19.7645C23.8918 19.5218 23.6951 19.3251 23.4523 19.3251C23.2096 19.3251 23.0128 19.5218 23.0128 19.7645V20.4353H22.9455C22.1883 20.4353 21.5723 21.0515 21.5723 21.8088C21.5723 22.5671 22.1883 23.1839 22.9455 23.1839H23.9673C24.2317 23.1839 24.455 23.4104 24.455 23.6785C24.455 23.9512 24.2332 24.1731 23.9607 24.1731H22.0118C21.769 24.1731 21.5723 24.3699 21.5723 24.6126C21.5723 24.8553 21.769 25.052 22.0118 25.052H23.0112V25.7228C23.0112 25.9656 23.2079 26.1623 23.4507 26.1623C23.6934 26.1623 23.8902 25.9656 23.8902 25.7228V25.052H23.9607C24.7179 25.052 25.334 24.4359 25.334 23.6785C25.334 22.9212 24.7209 22.305 23.9674 22.305H22.9456C22.6731 22.305 22.4513 22.0824 22.4513 21.8088C22.4512 21.5361 22.673 21.3142 22.9455 21.3142Z" fill="#474747"/>
</svg>
