<svg width="14" height="16" viewBox="0 0 14 16" fill="none" xmlns="http://www.w3.org/2000/svg">
<path fill-rule="evenodd" clip-rule="evenodd" d="M9.83968 0.231307C10.2047 0.0785982 10.596 4.4357e-08 10.9911 0C11.3863 -4.43569e-08 11.7775 0.0785983 12.1426 0.231307C12.5076 0.384016 12.8393 0.607845 13.1187 0.890014C13.3981 1.17218 13.6198 1.50717 13.771 1.87584C13.9222 2.24451 14 2.63965 14 3.0387C14 3.43774 13.9222 3.83288 13.771 4.20156C13.62 4.56957 13.3989 4.90402 13.1202 5.18588C13.1197 5.18638 13.1192 5.18688 13.1187 5.18738L5.49619 12.9927C5.16223 13.33 4.70927 13.5194 4.23698 13.5194C3.76469 13.5194 3.31175 13.33 2.97779 12.9927C2.64383 12.6554 2.45621 12.198 2.45621 11.721C2.45621 11.2449 2.64318 10.7882 2.97605 10.4511L9.36902 3.88757C9.58307 3.66782 9.93298 3.66491 10.1506 3.88108C10.3682 4.09724 10.3711 4.45062 10.157 4.67038L3.75939 11.2387C3.63272 11.3666 3.56154 11.5401 3.56154 11.721C3.56154 11.9019 3.6327 12.0754 3.75937 12.2034C3.88604 12.3313 4.05785 12.4032 4.23698 12.4032C4.41559 12.4032 4.5869 12.3317 4.71346 12.2045L12.3344 4.40079L12.3371 4.39805C12.5139 4.21954 12.6541 4.00761 12.7498 3.77437C12.8454 3.54114 12.8947 3.29115 12.8947 3.0387C12.8947 2.78624 12.8454 2.53626 12.7498 2.30302C12.6541 2.06978 12.5139 1.85786 12.3371 1.67934C12.1604 1.50083 11.9505 1.35922 11.7196 1.26261C11.4886 1.166 11.2411 1.11628 10.9911 1.11628C10.7411 1.11628 10.4936 1.166 10.2627 1.26261C10.0323 1.35899 9.82288 1.50015 9.64638 1.67806L2.02258 9.48467C1.43528 10.0778 1.10532 10.8822 1.10532 11.721C1.10532 12.5598 1.43527 13.3643 2.02257 13.9574C2.60987 14.5505 3.40642 14.8837 4.23698 14.8837C5.06755 14.8837 5.8641 14.5505 6.4514 13.9574L12.7498 7.60489C12.9657 7.38707 13.3157 7.3873 13.5314 7.60541C13.747 7.82352 13.7468 8.17691 13.5308 8.39473L7.23298 14.7467C6.4384 15.5492 5.3607 16 4.23698 16C3.11327 16 2.03557 15.5492 1.24098 14.7467C0.446395 13.9443 0 12.8559 0 11.721C0 10.5869 0.445861 9.4991 1.23956 8.69678L8.86083 0.892753L8.86353 0.890014C9.14293 0.607845 9.47462 0.384016 9.83968 0.231307Z" fill="#A8A8A8"/>
</svg>
