<svg width="32" height="32" viewBox="0 0 32 32" fill="none" xmlns="http://www.w3.org/2000/svg">
<path fill-rule="evenodd" clip-rule="evenodd" d="M28.781 4.40653H18.651V2.01953L2 4.58953V27.1165L18.651 29.9845V26.4465H28.781C29.0878 26.4621 29.3883 26.3555 29.6167 26.1501C29.8451 25.9447 29.9829 25.6572 30 25.3505V5.50153C29.9827 5.19499 29.8448 4.90776 29.6164 4.70259C29.388 4.49742 29.0876 4.39098 28.781 4.40653ZM28.941 25.5325H18.617L18.6 23.6435H21.087V21.4435H18.581L18.569 20.1435H21.087V17.9435H18.55L18.538 16.6435H21.087V14.4435H18.53V13.1435H21.087V10.9435H18.53V9.64353H21.087V7.44353H18.53V5.44353H28.941V25.5325Z" fill="#20744A"/>
<path d="M22.4871 7.4375H26.8101V9.6375H22.4871V7.4375Z" fill="#20744A"/>
<path d="M22.4871 10.9414H26.8101V13.1414H22.4871V10.9414Z" fill="#20744A"/>
<path d="M22.4871 14.4414H26.8101V16.6414H22.4871V14.4414Z" fill="#20744A"/>
<path d="M22.4871 17.9414H26.8101V20.1414H22.4871V17.9414Z" fill="#20744A"/>
<path d="M22.4871 21.4414H26.8101V23.6414H22.4871V21.4414Z" fill="#20744A"/>
<path fill-rule="evenodd" clip-rule="evenodd" d="M6.34709 10.6724L8.49309 10.5494L9.84209 14.2584L11.4361 10.3964L13.5821 10.2734L10.9761 15.5394L13.5821 20.8184L11.3131 20.6654L9.78109 16.6414L8.24809 20.5124L6.16309 20.3284L8.58509 15.6654L6.34709 10.6724Z" fill="white"/>
</svg>
