<svg width="13" height="20" viewBox="0 0 13 20" fill="none" xmlns="http://www.w3.org/2000/svg">
<path fill-rule="evenodd" clip-rule="evenodd" d="M1.73333 6.69423C1.73333 4.01933 3.85003 1.81818 6.5 1.81818C9.14997 1.81818 11.2667 4.01933 11.2667 6.69423C11.2667 8.37172 10.4342 9.86289 9.15982 10.7417C9.10952 10.7683 9.06223 10.7998 9.01843 10.8355C8.28952 11.3007 7.42742 11.5703 6.5 11.5703C3.85003 11.5703 1.73333 9.36913 1.73333 6.69423ZM8.85391 12.9354C8.12299 13.2281 7.32885 13.3885 6.5 13.3885C5.67143 13.3885 4.87755 13.2282 4.14684 12.9357L3.57465 17.3597L6.06099 15.8277C6.33198 15.6608 6.66792 15.6608 6.93891 15.8277L9.42553 17.3599L8.85391 12.9354ZM2.52032 11.9871C0.989658 10.7655 0 8.85431 0 6.69423C0 2.97904 2.92756 0 6.5 0C10.0724 0 13 2.97904 13 6.69423C13 8.85393 12.0107 10.7649 10.4805 11.9864L11.3826 18.9689C11.4271 19.3137 11.2801 19.655 11.0039 19.8478C10.7277 20.0406 10.3709 20.0511 10.0848 19.8748L6.49995 17.6659L2.9151 19.8748C2.62903 20.0511 2.27213 20.0406 1.99593 19.8477C1.71974 19.6549 1.57274 19.3136 1.61734 18.9687L2.52032 11.9871Z" fill="#868686"/>
</svg>
