<svg width="20" height="20" viewBox="0 0 20 20" fill="none" xmlns="http://www.w3.org/2000/svg">
<g clip-path="url(#clip0)">
<path d="M10.0035 19.9999C8.8835 19.9999 7.82244 19.5999 7.02244 18.8768C6.23086 18.146 5.79297 17.1768 5.79297 16.1537V15.3845C5.79297 14.9614 6.17192 14.6152 6.63507 14.6152C7.09823 14.6152 7.47718 14.9614 7.47718 15.3845V16.1537C7.47718 16.7691 7.73823 17.346 8.21823 17.7845C9.16981 18.6537 10.8372 18.6537 11.7888 17.7845C12.2688 17.346 12.5298 16.7691 12.5298 16.1537V15.3845C12.5298 14.9614 12.9088 14.6152 13.3719 14.6152C13.8351 14.6152 14.214 14.9614 14.214 15.3845V16.1537C14.214 17.1768 13.7761 18.146 12.9845 18.8768C12.1845 19.5999 11.1235 19.9999 10.0035 19.9999Z" fill="#666666"/>
<path d="M17.4979 16.1474H2.51016C2.24455 16.1474 1.97895 16.0782 1.75128 15.9398C1.51603 15.8013 1.32632 15.6091 1.19731 15.3707C1.0683 15.14 1 14.8709 1 14.6017C1 14.3326 1.07589 14.0635 1.2049 13.8328C1.75887 12.8485 2.43427 10.9876 2.43427 7.68867C2.43427 6.67362 2.62399 5.68165 3.00342 4.7435C3.38286 3.80535 3.93684 2.96717 4.64259 2.24433C5.34834 1.52919 6.17551 0.967838 7.10133 0.575662C8.95298 -0.201002 11.0551 -0.201002 12.9067 0.575662C13.8325 0.967838 14.6597 1.52919 15.3654 2.24433C16.0712 2.95948 16.6252 3.80535 17.0046 4.7435C17.3841 5.68165 17.5814 6.67362 17.5738 7.68867C17.5738 10.9876 18.2416 12.8485 18.8107 13.8328C18.9473 14.0635 19.0156 14.3249 19.0156 14.6017C19.0156 14.8709 18.9473 15.14 18.8183 15.3707C18.6893 15.6014 18.4996 15.8013 18.2643 15.9321C18.0291 16.0705 17.7711 16.1474 17.4979 16.1474ZM10.0078 1.53688C9.20341 1.53688 8.42177 1.69067 7.68566 2.00595C6.94956 2.31354 6.28934 2.76724 5.72018 3.33628C5.15103 3.91301 4.71088 4.58202 4.40734 5.33561C4.10379 6.08151 3.95201 6.87356 3.95201 7.68867C3.95201 11.3336 3.17037 13.4637 2.51016 14.6094H17.4979C16.8377 13.4637 16.056 11.3336 16.056 7.68867C16.056 6.87356 15.9042 6.08151 15.6007 5.33561C15.2972 4.58202 14.857 3.91301 14.2879 3.33628C13.7187 2.75955 13.0585 2.31354 12.3224 2.00595C11.5863 1.69067 10.8046 1.53688 10.0078 1.53688Z" fill="#666666"/>
<path d="M10.0053 19.9932C8.996 19.9932 8.03982 19.5933 7.31889 18.8705C6.60555 18.1399 6.21094 17.171 6.21094 16.1483V15.3793C6.21094 14.9564 6.55243 14.6104 6.96981 14.6104C7.38719 14.6104 7.72868 14.9564 7.72868 15.3793V16.1483C7.72868 16.7635 7.96393 17.3402 8.39649 17.7785C9.25402 18.6475 10.7566 18.6475 11.6141 17.7785C12.0467 17.3402 12.2819 16.7635 12.2819 16.1483V15.3793C12.2819 14.9564 12.6234 14.6104 13.0408 14.6104C13.4582 14.6104 13.7997 14.9564 13.7997 15.3793V16.1483C13.7997 17.171 13.405 18.1399 12.6917 18.8705C11.9708 19.5933 11.0146 19.9932 10.0053 19.9932Z" fill="#666666"/>
</g>
<path d="M19.168 3.5C19.168 5.433 17.601 7 15.668 7C13.735 7 12.168 5.433 12.168 3.5C12.168 1.567 13.735 0 15.668 0C17.601 0 19.168 1.567 19.168 3.5Z" fill="#FF3333"/>
<defs>
<clipPath id="clip0">
<rect width="20" height="20" fill="white"/>
</clipPath>
</defs>
</svg>
