<svg width="16" height="16" viewBox="0 0 16 16" fill="none" xmlns="http://www.w3.org/2000/svg">
<path fill-rule="evenodd" clip-rule="evenodd" d="M13.3994 2.42261C13.1386 2.42261 12.9272 2.64017 12.9272 2.90854C12.9272 3.17692 13.1386 3.39448 13.3994 3.39448C13.6602 3.39448 13.8716 3.17692 13.8716 2.90854C13.8716 2.64017 13.6602 2.42261 13.3994 2.42261ZM11.4727 2.90854C11.4727 1.81349 12.3353 0.925781 13.3994 0.925781C14.4635 0.925781 15.3261 1.81349 15.3261 2.90854C15.3261 4.00359 14.4635 4.89131 13.3994 4.89131C12.3353 4.89131 11.4727 4.00359 11.4727 2.90854Z" fill="#868686"/>
<path fill-rule="evenodd" clip-rule="evenodd" d="M13.3991 0C13.8008 0 14.1264 0.335076 14.1264 0.748413V1.67417C14.1264 2.08751 13.8008 2.42259 13.3991 2.42259C12.9975 2.42259 12.6719 2.08751 12.6719 1.67417V0.748413C12.6719 0.335076 12.9975 0 13.3991 0Z" fill="#868686"/>
<path fill-rule="evenodd" clip-rule="evenodd" d="M10.9491 1.45441C11.1499 1.09645 11.5947 0.973803 11.9426 1.18047L12.7217 1.64335C13.0695 1.85002 13.1887 2.30774 12.9878 2.6657C12.787 3.02366 12.3422 3.14631 11.9944 2.93964L11.2153 2.47676C10.8675 2.27009 10.7483 1.81237 10.9491 1.45441Z" fill="#868686"/>
<path fill-rule="evenodd" clip-rule="evenodd" d="M12.9878 3.15167C13.1887 3.50964 13.0695 3.96736 12.7217 4.17403L11.9426 4.63691C11.5947 4.84358 11.1499 4.72093 10.9491 4.36297C10.7483 4.00501 10.8675 3.54729 11.2153 3.34062L11.9944 2.87774C12.3422 2.67107 12.787 2.79371 12.9878 3.15167Z" fill="#868686"/>
<path fill-rule="evenodd" clip-rule="evenodd" d="M13.3991 3.39453C13.8008 3.39453 14.1264 3.72961 14.1264 4.14294V5.06871C14.1264 5.48204 13.8008 5.81712 13.3991 5.81712C12.9975 5.81712 12.6719 5.48204 12.6719 5.06871V4.14294C12.6719 3.72961 12.9975 3.39453 13.3991 3.39453Z" fill="#868686"/>
<path fill-rule="evenodd" clip-rule="evenodd" d="M13.8046 3.15167C14.0054 2.79371 14.4502 2.67107 14.798 2.87774L15.5771 3.34062C15.925 3.54729 16.0441 4.00501 15.8433 4.36297C15.6425 4.72093 15.1977 4.84358 14.8499 4.63691L14.0708 4.17403C13.7229 3.96736 13.6038 3.50964 13.8046 3.15167Z" fill="#868686"/>
<path fill-rule="evenodd" clip-rule="evenodd" d="M15.8433 1.45441C16.0441 1.81237 15.925 2.27009 15.5771 2.47676L14.798 2.93964C14.4502 3.14631 14.0054 3.02366 13.8046 2.6657C13.6038 2.30774 13.7229 1.85002 14.0708 1.64335L14.8499 1.18047C15.1977 0.973803 15.6425 1.09645 15.8433 1.45441Z" fill="#868686"/>
<path fill-rule="evenodd" clip-rule="evenodd" d="M8.00004 11.6804C6.65372 11.6804 5.3311 12.045 4.16506 12.7375C2.99901 13.4301 2.0306 14.4262 1.35711 15.6259C1.15618 15.9838 0.711356 16.1063 0.36357 15.8995C0.0157843 15.6928 -0.103267 15.235 0.0976609 14.8771C0.898847 13.45 2.05086 12.265 3.43799 11.4411C4.82511 10.6173 6.39848 10.1836 8.00005 10.1836C9.60162 10.1836 11.175 10.6174 12.5621 11.4412C13.9492 12.2651 15.1012 13.4502 15.9023 14.8773C16.1033 15.2352 15.9842 15.6929 15.6364 15.8997C15.2886 16.1065 14.8438 15.9839 14.6429 15.626C13.9694 14.4264 13.001 13.4302 11.835 12.7376C10.669 12.045 9.34635 11.6804 8.00004 11.6804Z" fill="#868686"/>
<path fill-rule="evenodd" clip-rule="evenodd" d="M8.5633 1.84523C7.81357 1.73807 7.04965 1.84827 6.35744 2.16343C5.66523 2.47859 5.07218 2.98621 4.64497 3.62923C4.21775 4.27225 3.97332 5.02516 3.93914 5.80331C3.90497 6.58146 4.08241 7.35399 4.45152 8.03405C4.82063 8.7141 5.36676 9.27471 6.02853 9.65284C6.69029 10.031 7.44143 10.2116 8.1975 10.1745C8.95357 10.1374 9.68459 9.88394 10.3084 9.44269C10.9321 9.00143 11.4239 8.38986 11.7284 7.67672C11.89 7.29831 12.3191 7.12634 12.6868 7.29263C13.0545 7.45891 13.2216 7.90048 13.06 8.27889C12.6467 9.24697 11.9791 10.0772 11.1323 10.6762C10.2855 11.2752 9.29319 11.6192 8.26683 11.6696C7.24046 11.72 6.22078 11.4748 5.32244 10.9615C4.4241 10.4482 3.68272 9.68713 3.18165 8.76396C2.68059 7.84078 2.43971 6.79207 2.4861 5.73573C2.53249 4.67939 2.86432 3.65731 3.44426 2.78441C4.0242 1.91152 4.82927 1.22241 5.76895 0.794586C6.70862 0.366758 7.74564 0.217168 8.7634 0.362638C9.16124 0.419501 9.43895 0.797487 9.3837 1.20689C9.32844 1.6163 8.96114 1.9021 8.5633 1.84523Z" fill="#868686"/>
</svg>
