<svg width="20" height="18" viewBox="0 0 20 18" fill="none" xmlns="http://www.w3.org/2000/svg">
<path d="M18.0861 4.35246C18.3673 3.97543 18.5339 3.5082 18.5339 3.00277C18.5339 1.7552 17.519 0.740273 16.2714 0.740273C15.0239 0.740273 14.0089 1.7552 14.0089 3.00277C14.0089 3.50937 14.1763 3.97766 14.4587 4.35516C13.9262 4.58684 13.4697 4.96078 13.1367 5.42867C12.8024 4.95902 12.3438 4.58391 11.8087 4.35242C12.0899 3.97539 12.2566 3.50816 12.2566 3.00273C12.2566 1.75516 11.2416 0.740234 9.99406 0.740234C8.74652 0.740234 7.73156 1.75516 7.73156 3.00273C7.73156 3.50934 7.89894 3.97762 8.18129 4.35512C7.64984 4.58633 7.19414 4.95926 6.86129 5.4259C6.52719 4.95754 6.06934 4.58348 5.53531 4.35242C5.81648 3.97539 5.98312 3.50816 5.98312 3.00273C5.98312 1.75516 4.96816 0.740234 3.72062 0.740234C2.47309 0.740234 1.45812 1.75516 1.45812 3.00273C1.45812 3.50934 1.62551 3.97762 1.90785 4.35512C0.786445 4.84305 7.8125e-05 5.96133 0 7.26031V7.26047V9.51062L1.89129 9.87777C2.03098 10.3094 2.20535 10.7298 2.41246 11.1341L1.33215 12.7313L3.56695 14.9707L4.51133 15.917L6.1107 14.84C6.51965 15.0505 6.9452 15.2276 7.3825 15.369L7.74961 17.2603H12.2503L12.6174 15.369C13.0489 15.2294 13.4694 15.055 13.8737 14.8479L15.471 15.9282L18.6566 12.7489L17.5796 11.1496C17.7901 10.7407 17.9671 10.315 18.1086 9.87777L20 9.51062V7.26043V7.26031C19.9999 5.95902 19.2108 4.83898 18.0861 4.35246ZM16.2714 1.91211C16.8728 1.91211 17.3621 2.40133 17.3621 3.00273C17.3621 3.60414 16.8728 4.09336 16.2714 4.09336C15.6701 4.09336 15.1808 3.60414 15.1808 3.00273C15.1808 2.40133 15.6701 1.91211 16.2714 1.91211ZM15.7178 5.26523H16.8329C17.7293 5.26523 18.4895 5.85934 18.7404 6.67449H13.8104C14.0613 5.85934 14.8215 5.26523 15.7178 5.26523ZM9.9941 1.91211C10.5955 1.91211 11.0847 2.40133 11.0847 3.00273C11.0847 3.60414 10.5955 4.09336 9.9941 4.09336C9.39273 4.09336 8.90348 3.60414 8.90348 3.00273C8.90348 2.40133 9.39273 1.91211 9.9941 1.91211ZM9.44047 5.26523H10.5555C11.4519 5.26523 12.2121 5.85934 12.463 6.67449H7.53309C7.78395 5.85934 8.5441 5.26523 9.44047 5.26523ZM15.0054 7.84637C14.714 10.3501 12.5806 12.2999 10 12.2999C7.41941 12.2999 5.28598 10.3501 4.99465 7.84637H15.0054ZM3.72066 1.91211C4.32207 1.91211 4.81129 2.40133 4.81129 3.00273C4.81129 3.60414 4.32203 4.09336 3.72066 4.09336C3.1193 4.09336 2.63004 3.60414 2.63004 3.00273C2.63004 2.40133 3.1193 1.91211 3.72066 1.91211ZM3.16707 5.26523H4.28219C5.17855 5.26523 5.93871 5.85934 6.18961 6.67449H1.25965C1.51051 5.85934 2.2707 5.26523 3.16707 5.26523ZM18.8281 8.54437L17.1812 8.86414L17.0845 9.21418C16.9229 9.79941 16.6881 10.3639 16.3866 10.8919L16.2061 11.2079L17.1449 12.602L15.3271 14.4161L13.9348 13.4744L13.6184 13.6542C13.0939 13.9523 12.5338 14.1847 11.9537 14.3449L11.6037 14.4416L11.284 16.0885H8.7159L8.39621 14.4416L8.04621 14.3449C7.46094 14.1832 6.89645 13.9484 6.36844 13.6469L6.05246 13.4665L4.65828 14.4053L4.39645 14.143L2.84418 12.5876L3.7859 11.1952L3.60609 10.8788C3.30805 10.3543 3.07566 9.79426 2.91547 9.21414L2.81879 8.86414L1.17188 8.54437V7.84637H3.81637C4.1127 10.9975 6.77266 13.4718 10 13.4718C13.2273 13.4718 15.8873 10.9975 16.1836 7.84637H18.8281V8.54437Z" fill="white"/>
</svg>
