<svg width="16" height="16" viewBox="0 0 16 16" fill="none" xmlns="http://www.w3.org/2000/svg">
<path d="M15.6875 15.375H15.5625V6.3125C15.5625 6.13991 15.4226 6 15.25 6H12.75C12.5774 6 12.4375 6.13991 12.4375 6.3125V15.375H11.5625V8C11.5625 7.82741 11.4226 7.6875 11.25 7.6875H8.75C8.57744 7.6875 8.4375 7.82741 8.4375 8V15.375H7.5625V9.80912C7.5625 9.63653 7.42256 9.49662 7.25 9.49662H4.75C4.57744 9.49662 4.4375 9.63653 4.4375 9.80912V15.375H3.5625V12.1875C3.5625 12.0149 3.42256 11.875 3.25 11.875H0.75C0.577438 11.875 0.4375 12.0149 0.4375 12.1875V15.375H0.3125C0.139938 15.375 0 15.5149 0 15.6875C0 15.8601 0.139938 16 0.3125 16H15.6875C15.8601 16 16 15.8601 16 15.6875C16 15.5149 15.8601 15.375 15.6875 15.375ZM1.0625 15.375V12.5H2.9375V15.375H1.0625ZM5.0625 15.375V10.1216H6.9375V15.375H5.0625ZM9.0625 15.375V8.3125H10.9375V15.375H9.0625ZM13.0625 15.375V6.625H14.9375V15.375H13.0625Z" fill="#777777"/>
<path d="M1.07896 10.2177C1.13759 10.2762 1.21705 10.3092 1.29993 10.3092C1.3828 10.3092 1.46227 10.2762 1.5209 10.2177L5.12702 6.61153L6.16196 7.6465C6.22059 7.70509 6.30006 7.73803 6.38293 7.73803C6.4658 7.73803 6.54527 7.70509 6.6039 7.6465L10.0294 4.221L10.2844 4.476C10.3737 4.56534 10.5081 4.59213 10.6249 4.54372C10.7417 4.49534 10.8178 4.38141 10.8178 4.255V2.3125C10.8178 2.13991 10.6779 2 10.5053 2H8.5628C8.4364 2 8.32246 2.07616 8.27409 2.19291C8.22574 2.30969 8.25249 2.44409 8.34184 2.53347L8.59999 2.79159L6.38293 5.00872L5.34799 3.97375C5.22593 3.85172 5.02812 3.85172 4.90602 3.97375L0.0915234 8.78828C-0.0305078 8.91031 -0.0305078 9.10819 0.0915234 9.23022L1.07896 10.2177ZM5.12702 4.63672L6.16196 5.67169C6.22059 5.73028 6.30006 5.76322 6.38293 5.76322C6.4658 5.76322 6.54527 5.73028 6.6039 5.67169L9.26293 3.01262C9.32152 2.95403 9.35446 2.87453 9.35446 2.79166C9.35446 2.73222 9.33752 2.67453 9.30634 2.62503H10.1929V3.51269C10.0724 3.43866 9.91274 3.45381 9.8084 3.55813L6.38296 6.98359L5.34802 5.94863C5.22596 5.82663 5.02815 5.82663 4.90605 5.94863L1.29993 9.55475L0.754461 9.00925L5.12702 4.63672Z" fill="#777777"/>
<path d="M13.5 0C12.1215 0 11 1.12148 11 2.5C11 3.87852 12.1215 5 13.5 5C14.8785 5 16 3.87852 16 2.5C16 1.12148 14.8785 0 13.5 0ZM13.5 4.51613C13.0078 4.51613 12.5563 4.33874 12.2059 4.04468C12.3632 3.65145 12.7449 3.3871 13.1774 3.3871H13.8226C14.2551 3.3871 14.6368 3.65145 14.7941 4.04468C14.4437 4.33874 13.9922 4.51613 13.5 4.51613ZM12.7742 2.17742C12.7742 1.77721 13.0998 1.45161 13.5 1.45161C13.9002 1.45161 14.2258 1.77721 14.2258 2.17742C14.2258 2.57763 13.9002 2.90323 13.5 2.90323C13.0998 2.90323 12.7742 2.57763 12.7742 2.17742ZM15.1453 3.66398C14.9708 3.36379 14.6996 3.13271 14.3786 3.0076C14.5836 2.79077 14.7097 2.49863 14.7097 2.17742C14.7097 1.5104 14.167 0.967742 13.5 0.967742C12.833 0.967742 12.2903 1.5104 12.2903 2.17742C12.2903 2.49863 12.4164 2.79077 12.6214 3.0076C12.3004 3.13271 12.0292 3.36379 11.8547 3.66398C11.6212 3.33497 11.4839 2.93323 11.4839 2.5C11.4839 1.38831 12.3883 0.483871 13.5 0.483871C14.6117 0.483871 15.5161 1.38831 15.5161 2.5C15.5161 2.93323 15.3788 3.33497 15.1453 3.66398Z" fill="#777777"/>
</svg>
