<svg width="16" height="16" viewBox="0 0 16 16" fill="none" xmlns="http://www.w3.org/2000/svg">
<path d="M14.2706 0H12.0312C11.7724 0 11.5625 0.209875 11.5625 0.46875C11.5625 0.727625 11.7724 0.9375 12.0312 0.9375H14.2706C14.7072 0.9375 15.0625 1.29275 15.0625 1.72938V3.96875C15.0625 4.22762 15.2724 4.4375 15.5312 4.4375C15.7901 4.4375 16 4.22762 16 3.96875V1.72938C16 0.775813 15.2242 0 14.2706 0Z" fill="#777777"/>
<path d="M0.46875 4.4375C0.727625 4.4375 0.9375 4.22762 0.9375 3.96875V1.72938C0.9375 1.29275 1.29275 0.9375 1.72941 0.9375H3.96875C4.22762 0.9375 4.4375 0.727625 4.4375 0.46875C4.4375 0.209875 4.22762 0 3.96875 0H1.72941C0.775813 0 0 0.775813 0 1.72938V3.96875C0 4.22762 0.209875 4.4375 0.46875 4.4375Z" fill="#777777"/>
<path d="M3.96875 15.0625H1.72941C1.29275 15.0625 0.9375 14.7073 0.9375 14.2706V12.0312C0.9375 11.7724 0.727625 11.5625 0.46875 11.5625C0.209875 11.5625 0 11.7724 0 12.0312V14.2706C0 15.2242 0.775813 16 1.72941 16H3.96875C4.22762 16 4.4375 15.7901 4.4375 15.5312C4.4375 15.2724 4.22762 15.0625 3.96875 15.0625Z" fill="#777777"/>
<path d="M15.5312 11.5625C15.2724 11.5625 15.0625 11.7724 15.0625 12.0312V14.2706C15.0625 14.7073 14.7072 15.0625 14.2706 15.0625H12.0312C11.7724 15.0625 11.5625 15.2724 11.5625 15.5312C11.5625 15.7901 11.7724 16 12.0312 16H14.2706C15.2242 16 16 15.2242 16 14.2706V12.0312C16 11.7724 15.7901 11.5625 15.5312 11.5625Z" fill="#777777"/>
<path d="M13.0838 3.12382C9.83014 0.710382 6.32367 0.648976 2.97458 3.08104C2.76511 3.23316 2.71864 3.52629 2.87073 3.73576C3.02283 3.94519 3.31592 3.99173 3.52545 3.8396C6.55192 1.64188 9.61048 1.71466 12.5252 3.87676C12.7331 4.03098 13.0267 3.98748 13.181 3.77954C13.3352 3.57163 13.2917 3.27804 13.0838 3.12382Z" fill="#777777"/>
<path d="M8.00004 3.28125C6.00866 3.28125 3.44857 4.60716 2.36004 6.24C2.21641 6.45541 2.27463 6.74644 2.49004 6.89003C2.70548 7.03356 2.99651 6.97544 3.14007 6.76C4.04254 5.40625 6.31357 4.21875 8.00004 4.21875C9.65145 4.21875 11.91 5.09978 12.8431 6.73256C12.9296 6.884 13.0878 6.96884 13.2505 6.96884C13.6042 6.96884 13.8375 6.58319 13.657 6.26747C12.5824 4.38675 10.059 3.28125 8.00004 3.28125Z" fill="#777777"/>
<path d="M5.46875 11C5.46875 9.46641 6.60428 8.21875 8 8.21875C9.39572 8.21875 10.5312 9.46641 10.5312 11V11.5C10.5312 11.7589 10.7411 11.9688 11 11.9688C11.2589 11.9688 11.4688 11.7589 11.4688 11.5V11C11.4688 8.94947 9.91269 7.28125 8 7.28125C6.08731 7.28125 4.53125 8.94947 4.53125 11C4.53125 12.9932 6.02987 14.061 6.69153 15.0168C6.78256 15.1483 6.92872 15.2188 7.07737 15.2188C7.45059 15.2188 7.679 14.7961 7.46234 14.4832C6.74625 13.4488 5.46875 12.5911 5.46875 11Z" fill="#777777"/>
<path d="M13.1692 12.7096C14.618 9.81231 12.0418 5.28125 8 5.28125C5.15441 5.28125 2.53125 7.69303 2.53125 10.75C2.53125 11.8599 2.67363 12.7986 3.36844 13.7723C3.51881 13.983 3.81153 14.0319 4.02228 13.8816C4.233 13.7312 4.28197 13.4385 4.13156 13.2277C3.64222 12.5419 3.46875 11.8936 3.46875 10.75C3.46875 8.33616 5.58616 6.21875 8 6.21875C9.21519 6.21875 10.4153 6.75472 11.2926 7.68925C12.5345 9.01216 12.9808 10.9902 12.3308 12.2904C11.654 13.6437 9.46875 13.2601 9.46875 11.5C9.46875 8.02359 5.90766 9.06334 6.54525 11.6137C6.608 11.8648 6.86256 12.0175 7.11366 11.9548C7.36481 11.892 7.51753 11.6375 7.45472 11.3863C7.291 10.7313 7.59134 10.2188 8 10.2188C8.36697 10.2188 8.53125 10.8622 8.53125 11.5C8.53125 14.2448 12.0473 14.9537 13.1692 12.7096Z" fill="#777777"/>
</svg>
