<svg width="20" height="20" viewBox="0 0 20 20" fill="none" xmlns="http://www.w3.org/2000/svg">
<g clip-path="url(#clip0)">
<path d="M12.9913 10.9534L14.812 11.3047C14.876 12.2993 15.7572 13.0552 16.7803 12.993C17.8034 12.9308 18.5808 12.0741 18.5169 11.0794C18.4529 10.0847 17.5717 9.32885 16.5486 9.39104C15.8853 9.43137 15.2949 9.81335 15.0004 10.3926L13.1164 10.0291C13.096 9.33527 12.8198 8.67169 12.3383 8.15919L14.8781 4.67112C16.0541 5.16701 17.421 4.64209 17.931 3.49875C18.441 2.35541 17.9011 1.02648 16.7251 0.530629C15.5491 0.0347789 14.1822 0.559654 13.6722 1.70299C13.3062 2.52338 13.473 3.47643 14.0975 4.13294L11.5879 7.5797C10.3872 6.92458 8.8813 7.15376 7.94399 8.13425L4.65534 5.65124C5.08957 4.74615 4.68687 3.67025 3.75597 3.24808C2.82503 2.82591 1.7184 3.21743 1.28416 4.12247C0.849933 5.02756 1.25264 6.10345 2.18353 6.52562C2.78747 6.79951 3.49599 6.73829 4.04084 6.3652L7.40996 8.90892C6.86875 10.0582 7.15533 11.4158 8.11843 12.2649L6.10028 15.0397C4.90887 14.394 3.40456 14.8094 2.74034 15.9678C2.07613 17.1261 2.50347 18.5886 3.69488 19.2344C4.88629 19.8801 6.39059 19.4647 7.05481 18.3063C7.54182 17.4571 7.45397 16.4061 6.83229 15.6444L8.92063 12.7728C9.64829 13.0867 10.4748 13.1043 11.216 12.8219L13.7125 16.4074C12.949 17.2527 13.0351 18.5397 13.9045 19.2819C14.774 20.0241 16.0978 19.9405 16.8612 19.0952C17.6246 18.2498 17.5386 16.9629 16.6691 16.2207C16.0713 15.7103 15.2277 15.5732 14.4916 15.8668L12.0411 12.3474C12.4911 11.9829 12.8215 11.4983 12.9913 10.9534ZM16.6635 10.3178C17.1599 10.3178 17.5622 10.709 17.5622 11.1915C17.5622 11.6741 17.1599 12.0653 16.6635 12.0653C16.1672 12.0653 15.7648 11.6741 15.7648 11.1915C15.7653 10.7091 16.1674 10.3182 16.6635 10.3178ZM15.7953 1.28501C16.5452 1.28506 17.1532 1.87612 17.1531 2.6052C17.1531 3.33428 16.5451 3.92534 15.7952 3.9253C15.0453 3.92525 14.4374 3.33423 14.4374 2.60515C14.4383 1.87636 15.0458 1.2858 15.7953 1.28501ZM2.9731 5.76455C2.47701 5.76399 2.07498 5.37312 2.0744 4.89081C2.0744 4.40826 2.47677 4.01707 2.9731 4.01707C3.46944 4.01707 3.8718 4.40826 3.8718 4.89081C3.8718 5.37335 3.46948 5.76455 2.9731 5.76455ZM4.9038 18.5961C4.07189 18.596 3.39753 17.9404 3.39757 17.1316C3.39762 16.3228 4.07198 15.6672 4.90389 15.6672C5.73575 15.6673 6.41011 16.3229 6.41011 17.1317C6.40921 17.9401 5.73532 18.5952 4.9038 18.5961ZM15.2865 16.6448C15.9167 16.6455 16.4275 17.1421 16.4282 17.7549C16.4282 18.3679 15.917 18.8649 15.2865 18.8649C14.6559 18.8649 14.1447 18.3679 14.1447 17.7549C14.1447 17.1418 14.6559 16.6448 15.2865 16.6448ZM10.1288 12.0915C9.0066 12.0903 8.09719 11.2062 8.09594 10.1151C8.09594 9.02362 9.00608 8.13877 10.1288 8.13877C11.2515 8.13877 12.1616 9.02362 12.1616 10.1151C12.1616 11.2067 11.2515 12.0915 10.1288 12.0915Z" fill="white" stroke="white" stroke-width="0.5"/>
</g>
<defs>
<clipPath id="clip0">
<rect width="20" height="20" fill="white"/>
</clipPath>
</defs>
</svg>
