<svg width="18" height="19" viewBox="0 0 18 19" fill="none" xmlns="http://www.w3.org/2000/svg">
<path d="M15.6972 5.06317C15.6225 4.9456 15.4637 4.90907 15.3425 4.98153C15.2214 5.054 15.1836 5.20803 15.2584 5.32553C16.0156 6.51683 16.4358 7.8802 16.4805 9.28333H13.3134C13.1829 6.7448 11.0768 4.70213 8.45938 4.57557V1.50383C10.8346 1.5748 13.0529 2.6237 14.5783 4.40633C14.6693 4.51257 14.8318 4.52723 14.9413 4.43903C15.0509 4.35083 15.066 4.19323 14.9751 4.08697C13.2963 2.12517 10.8275 1 8.20162 1C8.05926 1 7.94385 1.1119 7.94385 1.25V2.55363C6.39822 2.60543 4.94614 3.12273 3.72994 4.0582C2.48473 5.01597 1.5899 6.36283 1.21034 7.85063C1.17614 7.98467 1.26045 8.1202 1.39864 8.15337C1.4194 8.15833 1.44023 8.16077 1.46075 8.16077C1.5765 8.16077 1.6817 8.08463 1.71074 7.97077C2.42939 5.154 4.97137 3.1632 7.94385 3.05397V4.5755C5.24086 4.70613 3.08319 6.8799 3.08319 9.53333C3.08319 10.7756 3.55057 11.9483 4.4046 12.8624L3.29548 13.9381C2.14596 12.7359 1.51553 11.1817 1.51553 9.53333C1.51553 9.38007 1.52099 9.22753 1.53175 9.07997C1.54179 8.9422 1.4348 8.82267 1.29279 8.81293C1.1506 8.80287 1.02753 8.90693 1.01749 9.0447C1.00591 9.20393 1 9.36833 1 9.5333C1 11.3152 1.68394 12.995 2.9307 14.2918L1.98006 15.2138C1.87939 15.3115 1.87939 15.4698 1.98006 15.5674C3.64178 17.1791 5.85128 18.0667 8.20162 18.0667C10.5517 18.0667 12.7611 17.1791 14.4228 15.5674C14.5235 15.4698 14.5235 15.3115 14.4228 15.2139L13.4723 14.2919C14.6605 13.056 15.3369 11.472 15.3978 9.78333H16.7422C16.8846 9.78333 17 9.67143 17 9.53333C17 7.94977 16.5495 6.404 15.6972 5.06317ZM8.20162 17.5667C6.07516 17.5667 4.07108 16.7949 2.52965 15.388L4.76939 13.2157C5.5489 13.8985 6.53631 14.3378 7.57693 14.4605C7.71853 14.4773 7.84676 14.3796 7.86394 14.2425C7.88113 14.1055 7.7805 13.9808 7.63917 13.9642C6.62732 13.8449 5.67122 13.3923 4.947 12.6899C4.94645 12.6893 4.94587 12.6889 4.94532 12.6884C4.07696 11.8454 3.59872 10.725 3.59872 9.53333C3.59872 7.0723 5.6627 5.07003 8.2 5.06927C8.20055 5.06927 8.20107 5.06933 8.20162 5.06933C10.7394 5.06933 12.804 7.0716 12.8043 9.53283C12.8043 9.533 12.8042 9.53317 12.8042 9.53333C12.8042 10.7257 12.3254 11.8468 11.4561 12.6899C11.456 12.6901 11.4558 12.6903 11.4556 12.6904C10.735 13.3888 9.78446 13.8405 8.77894 13.9626C8.63769 13.9798 8.5375 14.1047 8.5552 14.2417C8.57287 14.3787 8.70158 14.4756 8.843 14.4588C9.87692 14.3332 10.8584 13.8946 11.6338 13.2157L13.8733 15.388C12.3318 16.7949 10.3279 17.5667 8.20162 17.5667ZM13.1075 13.9381L11.9985 12.8623C12.7949 12.0097 13.255 10.9323 13.3134 9.7833H14.8819C14.8216 11.3385 14.1987 12.797 13.1075 13.9381Z" fill="#777777" stroke="#777777" stroke-width="0.5"/>
<path d="M10.7691 12.04C10.9114 12.04 11.0268 11.9281 11.0268 11.79V10.6451C11.0268 9.76919 10.2959 9.05606 9.3945 9.04859C9.67427 8.76223 9.84642 8.37606 9.84642 7.95136C9.84642 7.07083 9.1078 6.35449 8.19991 6.35449C7.29203 6.35449 6.55344 7.07083 6.55344 7.95136C6.55344 8.37606 6.7256 8.76223 7.00536 9.04859C6.104 9.05603 5.37305 9.76919 5.37305 10.6451V11.79C5.37305 11.9281 5.48846 12.04 5.63081 12.04H10.7691ZM8.19991 6.85449C8.82354 6.85449 9.33089 7.34656 9.33089 7.95136C9.33089 8.55616 8.82354 9.04823 8.19991 9.04823C7.57629 9.04823 7.06897 8.55616 7.06897 7.95136C7.06897 7.34656 7.57633 6.85449 8.19991 6.85449ZM5.88854 10.6451C5.88854 10.0403 6.3959 9.54826 7.01952 9.54826H9.38034C10.004 9.54826 10.5113 10.0403 10.5113 10.6451V11.54H9.56865V11.1166C9.56865 10.9785 9.45324 10.8666 9.31089 10.8666C9.16853 10.8666 9.05312 10.9785 9.05312 11.1166V11.54H7.34671V11.1166C7.34671 10.9785 7.2313 10.8666 7.08894 10.8666C6.94659 10.8666 6.83118 10.9785 6.83118 11.1166V11.54H5.88854V10.6451Z" fill="#777777" stroke="#777777" stroke-width="0.5"/>
</svg>
