<svg width="18" height="18" viewBox="0 0 18 18" fill="none" xmlns="http://www.w3.org/2000/svg">
<path d="M7.5182 2.15039C6.93848 2.15039 6.4668 2.61327 6.4668 3.1822C6.4668 3.75114 6.93845 4.21402 7.5182 4.21402C8.09795 4.21402 8.56957 3.75114 8.56957 3.1822C8.56957 2.61327 8.09792 2.15039 7.5182 2.15039ZM7.5182 3.7453C7.20181 3.7453 6.94443 3.4927 6.94443 3.18223C6.94443 2.87177 7.20181 2.61917 7.5182 2.61917C7.83455 2.61917 8.09193 2.87177 8.09193 3.18223C8.09193 3.4927 7.83452 3.7453 7.5182 3.7453Z" fill="#777777" stroke="#777777" stroke-width="0.3"/>
<path d="M3.85103 9.72102H5.24442C5.82137 9.72102 6.29075 9.26037 6.29075 8.69415V7.32668C6.29075 6.76046 5.82137 6.2998 5.24442 6.2998H3.85103C3.27408 6.2998 2.80469 6.76046 2.80469 7.32668V8.69415C2.80469 9.26037 3.27408 9.72102 3.85103 9.72102ZM3.28232 7.32668C3.28232 7.01893 3.53744 6.76855 3.85103 6.76855H5.24442C5.55803 6.76855 5.81312 7.01893 5.81312 7.32668V8.69415C5.81312 9.0019 5.558 9.25227 5.24442 9.25227H3.85103C3.53741 9.25227 3.28232 9.0019 3.28232 8.69415V7.32668Z" fill="#777777" stroke="#777777" stroke-width="0.3"/>
<path d="M7.11772 7.65234H10.838C10.9699 7.65234 11.0768 7.54741 11.0768 7.41797C11.0768 7.28853 10.9699 7.18359 10.838 7.18359H7.11772C6.9858 7.18359 6.87891 7.28853 6.87891 7.41797C6.87891 7.54741 6.9858 7.65234 7.11772 7.65234Z" fill="#777777" stroke="#777777" stroke-width="0.3"/>
<path d="M7.11772 8.83789H8.97789C9.10981 8.83789 9.21671 8.73295 9.21671 8.60352C9.21671 8.47408 9.10981 8.36914 8.97789 8.36914H7.11772C6.9858 8.36914 6.87891 8.47408 6.87891 8.60352C6.87891 8.73295 6.9858 8.83789 7.11772 8.83789Z" fill="#777777" stroke="#777777" stroke-width="0.3"/>
<path d="M2.80469 13.157C2.80469 13.7233 3.27408 14.1839 3.85103 14.1839H5.24442C5.82137 14.1839 6.29075 13.7233 6.29075 13.157V11.7896C6.29075 11.2234 5.82137 10.7627 5.24442 10.7627H3.85103C3.27408 10.7627 2.80469 11.2234 2.80469 11.7896V13.157ZM3.28232 11.7896C3.28232 11.4818 3.53744 11.2314 3.85103 11.2314H5.24442C5.55803 11.2314 5.81312 11.4818 5.81312 11.7896V13.157C5.81312 13.4648 5.558 13.7152 5.24442 13.7152H3.85103C3.53741 13.7152 3.28232 13.4648 3.28232 13.157V11.7896Z" fill="#777777" stroke="#777777" stroke-width="0.3"/>
<path d="M8.97789 13.3008C9.10981 13.3008 9.21671 13.1958 9.21671 13.0664C9.21671 12.937 9.10981 12.832 8.97789 12.832H7.11772C6.9858 12.832 6.87891 12.937 6.87891 13.0664C6.87891 13.1958 6.9858 13.3008 7.11772 13.3008H8.97789Z" fill="#777777" stroke="#777777" stroke-width="0.3"/>
<path d="M16.4894 5.08055C16.3977 5.00996 16.2963 4.95624 16.1889 4.92046L16.8587 3.91736C17.1036 3.55027 17.0232 3.06932 16.6716 2.79864C16.5217 2.68317 16.3344 2.6196 16.1443 2.6196C15.9086 2.6196 15.681 2.71679 15.5198 2.88626L15.2625 3.15689C15.1725 3.25154 15.1777 3.39983 15.2742 3.48814C15.3706 3.57648 15.5217 3.5713 15.6117 3.47667L15.869 3.20611C15.9412 3.13017 16.039 3.08836 16.1443 3.08836C16.2292 3.08836 16.3096 3.1157 16.3768 3.16745C16.5317 3.28673 16.5671 3.49873 16.4591 3.66055L15.1643 5.59984L14.2579 4.90187L14.9609 4.16199C15.0508 4.06733 15.0456 3.91902 14.9491 3.83074C14.8527 3.74245 14.7015 3.74764 14.6116 3.8423L13.9804 4.50646C13.7383 3.44561 12.7651 2.65682 11.6277 2.65682H11.1582C10.8722 2.39285 10.4875 2.2306 10.0648 2.2306H9.52106C9.15054 1.47791 8.38167 1 7.51931 1C6.65695 1 5.88805 1.47791 5.51753 2.23057H4.97379C4.55105 2.23057 4.16645 2.39279 3.88038 2.65679H3.41112C2.08163 2.65679 1 3.71814 1 5.02274C1 5.02274 1 12.2675 1 14.6337C1 17 1 17 3.41112 17C5.82223 17 3.96645 17 3.96645 17C4.09837 17 4.20527 16.8951 4.20527 16.7656C4.20527 16.6362 3.96645 16.5312 3.96645 16.5312C3.96645 16.5312 5.32223 16.5312 3.41112 16.5312C1.5 16.5312 1.47764 16.7656 1.47764 14.6337C1.47764 12.5019 1.47764 5.02274 1.47764 5.02274C1.47764 3.97661 2.34496 3.12554 3.41112 3.12554H3.53091C3.43165 3.32964 3.37593 3.55786 3.37593 3.79864C3.37593 4.66327 4.0927 5.36671 4.97375 5.36671H10.0648C10.9459 5.36671 11.6626 4.66327 11.6626 3.79864C11.6626 3.55786 11.6069 3.32961 11.5076 3.12554H11.6277C12.5377 3.12554 13.3165 3.75505 13.5128 4.60255C13.3364 4.62693 13.1688 4.71499 13.0504 4.86312C12.9327 5.01043 12.8804 5.19393 12.9032 5.37981C12.9115 5.44643 12.9293 5.51034 12.9553 5.57046L8.91927 10.6188C8.72464 10.8623 8.63829 11.1655 8.67605 11.4727C8.68334 11.5321 8.69525 11.5902 8.71127 11.6468H7.11848C6.98655 11.6468 6.87966 11.7518 6.87966 11.8812C6.87966 12.0106 6.98655 12.1156 7.11848 12.1156H8.91939L8.77413 12.2973C8.69271 12.3991 8.71082 12.5464 8.8146 12.6263C8.85832 12.66 8.91029 12.6763 8.96187 12.6763C9.03269 12.6763 9.10281 12.6456 9.1499 12.5866L9.32211 12.3713C9.48444 12.4509 9.66273 12.4924 9.84553 12.4924C9.89323 12.4924 9.94128 12.4896 9.98937 12.4839C10.3024 12.4468 10.5819 12.2923 10.7765 12.0489L13.4951 8.64814C13.516 8.6682 13.5381 8.68733 13.561 8.7058V15.485C13.561 16.5312 13.5 16.5312 11.6278 16.5312H4.92176C4.78983 16.5312 4.68294 16.6362 4.68294 16.7656C4.68294 16.8951 4.78983 17 4.92176 17C4.92176 17 9.25558 17 11.6278 17C14 17 14.0386 17 14.0386 15.6952V8.91939C14.0938 8.92836 14.1495 8.93289 14.2051 8.93289C14.5065 8.93289 14.8052 8.80208 15.0052 8.5518L16.6616 6.48C16.829 6.27056 16.9033 6.00965 16.8708 5.74531C16.8382 5.48096 16.7028 5.24487 16.4894 5.08055ZM10.0648 4.89796H4.97375C4.35611 4.89796 3.85357 4.4048 3.85357 3.79864C3.85357 3.19248 4.35607 2.69932 4.97375 2.69932H5.67327C5.77116 2.69932 5.85914 2.6407 5.89525 2.55142C6.16126 1.89372 6.79875 1.46875 7.51931 1.46875C8.23991 1.46875 8.87733 1.89372 9.14334 2.55142C9.17945 2.6407 9.2674 2.69932 9.36532 2.69932H10.0649C10.6825 2.69932 11.185 3.19248 11.185 3.79864C11.185 4.4048 10.6825 4.89796 10.0648 4.89796ZM13.4263 5.15246C13.4653 5.10365 13.5213 5.07271 13.5841 5.06527C13.5937 5.06412 13.6033 5.06356 13.6129 5.06356C13.6656 5.06356 13.7164 5.08071 13.7584 5.11312L15.0739 6.12606C15.1237 6.16434 15.1552 6.21934 15.1628 6.28094C15.1704 6.34253 15.153 6.40331 15.1141 6.45209C15.0335 6.55285 14.8845 6.57047 14.7818 6.49147L13.4663 5.47853C13.4166 5.44024 13.385 5.38524 13.3775 5.32365C13.3699 5.26209 13.3872 5.20127 13.4263 5.15246ZM10.8244 11.2293L13.8399 8.21664C13.9214 8.11479 13.7935 7.6361 13.7935 7.6361C13.7935 7.6361 13.6423 7.7045 13.561 7.80635L10.8244 11.2293L9.71893 10.3781L13.2765 5.92815L14.382 6.77938L10.8244 11.2293ZM9.93208 12.0185C9.74568 12.0405 9.56178 11.9901 9.41413 11.8764C9.26644 11.7628 9.17273 11.5994 9.15025 11.4165C9.12777 11.2337 9.17916 11.0532 9.29504 10.9082L9.42403 10.7469L10.5297 11.5982L10.4007 11.7596C10.2848 11.9045 10.1184 11.9965 9.93208 12.0185ZM16.2857 6.19066L14.6294 8.26245C14.4463 8.49151 14.1074 8.53161 13.874 8.35192C13.844 8.32876 13.8174 8.30273 13.7935 8.2747L14.8124 7.00029C14.8504 7.00635 14.8888 7.00938 14.9271 7.00938C15.1391 7.00938 15.3491 6.91738 15.4898 6.74138C15.6076 6.59406 15.6598 6.41056 15.637 6.22469C15.6233 6.11366 15.5833 6.01 15.5217 5.91965L15.9096 5.33868C16.0127 5.34731 16.1112 5.38515 16.1945 5.44928C16.3075 5.53631 16.3793 5.66134 16.3965 5.8014C16.4137 5.94147 16.3744 6.07975 16.2857 6.19066Z" fill="#777777"/>
<path d="M10.8244 11.2293L13.8399 8.21664C13.9214 8.11479 13.7935 7.6361 13.7935 7.6361C13.7935 7.6361 13.6423 7.7045 13.561 7.80635L10.8244 11.2293ZM10.8244 11.2293L9.71893 10.3781L13.2765 5.92815L14.382 6.77938L10.8244 11.2293ZM16.4894 5.08055C16.3977 5.00996 16.2963 4.95624 16.1889 4.92046L16.8587 3.91736C17.1036 3.55027 17.0232 3.06932 16.6716 2.79864C16.5217 2.68317 16.3344 2.6196 16.1443 2.6196C15.9086 2.6196 15.681 2.71679 15.5198 2.88626L15.2625 3.15689C15.1725 3.25154 15.1777 3.39983 15.2742 3.48814C15.3706 3.57648 15.5217 3.5713 15.6117 3.47667L15.869 3.20611C15.9412 3.13017 16.039 3.08836 16.1443 3.08836C16.2292 3.08836 16.3096 3.1157 16.3768 3.16745C16.5317 3.28673 16.5671 3.49873 16.4591 3.66055L15.1643 5.59984L14.2579 4.90187L14.9609 4.16199C15.0508 4.06733 15.0456 3.91902 14.9491 3.83074C14.8527 3.74245 14.7015 3.74764 14.6116 3.8423L13.9804 4.50646C13.7383 3.44561 12.7651 2.65682 11.6277 2.65682H11.1582C10.8722 2.39285 10.4875 2.2306 10.0648 2.2306H9.52106C9.15054 1.47791 8.38167 1 7.51931 1C6.65695 1 5.88805 1.47791 5.51753 2.23057H4.97379C4.55105 2.23057 4.16645 2.39279 3.88038 2.65679H3.41112C2.08163 2.65679 1 3.71814 1 5.02274C1 5.02274 1 12.2675 1 14.6337C1 17 1 17 3.41112 17C5.82223 17 3.96645 17 3.96645 17C4.09837 17 4.20527 16.8951 4.20527 16.7656C4.20527 16.6362 3.96645 16.5312 3.96645 16.5312C3.96645 16.5312 5.32223 16.5312 3.41112 16.5312C1.5 16.5312 1.47764 16.7656 1.47764 14.6337C1.47764 12.5019 1.47764 5.02274 1.47764 5.02274C1.47764 3.97661 2.34496 3.12554 3.41112 3.12554H3.53091C3.43165 3.32964 3.37593 3.55786 3.37593 3.79864C3.37593 4.66327 4.0927 5.36671 4.97375 5.36671H10.0648C10.9459 5.36671 11.6626 4.66327 11.6626 3.79864C11.6626 3.55786 11.6069 3.32961 11.5076 3.12554H11.6277C12.5377 3.12554 13.3165 3.75505 13.5128 4.60255C13.3364 4.62693 13.1688 4.71499 13.0504 4.86312C12.9327 5.01043 12.8804 5.19393 12.9032 5.37981C12.9115 5.44643 12.9293 5.51034 12.9553 5.57046L8.91927 10.6188C8.72464 10.8623 8.63829 11.1655 8.67605 11.4727C8.68334 11.5321 8.69525 11.5902 8.71127 11.6468H7.11848C6.98655 11.6468 6.87966 11.7518 6.87966 11.8812C6.87966 12.0106 6.98655 12.1156 7.11848 12.1156H8.91939L8.77413 12.2973C8.69271 12.3991 8.71082 12.5464 8.8146 12.6263C8.85832 12.66 8.91029 12.6763 8.96187 12.6763C9.03269 12.6763 9.10281 12.6456 9.1499 12.5866L9.32211 12.3713C9.48444 12.4509 9.66273 12.4924 9.84553 12.4924C9.89323 12.4924 9.94128 12.4896 9.98937 12.4839C10.3024 12.4468 10.5819 12.2923 10.7765 12.0489L13.4951 8.64814C13.516 8.6682 13.5381 8.68733 13.561 8.7058V15.485C13.561 16.5312 13.5 16.5312 11.6278 16.5312H4.92176C4.78983 16.5312 4.68294 16.6362 4.68294 16.7656C4.68294 16.8951 4.78983 17 4.92176 17C4.92176 17 9.25558 17 11.6278 17C14 17 14.0386 17 14.0386 15.6952V8.91939C14.0938 8.92836 14.1495 8.93289 14.2051 8.93289C14.5065 8.93289 14.8052 8.80208 15.0052 8.5518L16.6616 6.48C16.829 6.27056 16.9033 6.00965 16.8708 5.74531C16.8382 5.48096 16.7028 5.24487 16.4894 5.08055ZM10.0648 4.89796H4.97375C4.35611 4.89796 3.85357 4.4048 3.85357 3.79864C3.85357 3.19248 4.35607 2.69932 4.97375 2.69932H5.67327C5.77116 2.69932 5.85914 2.6407 5.89525 2.55142C6.16126 1.89372 6.79875 1.46875 7.51931 1.46875C8.23991 1.46875 8.87733 1.89372 9.14334 2.55142C9.17945 2.6407 9.2674 2.69932 9.36532 2.69932H10.0649C10.6825 2.69932 11.185 3.19248 11.185 3.79864C11.185 4.4048 10.6825 4.89796 10.0648 4.89796ZM13.4263 5.15246C13.4653 5.10365 13.5213 5.07271 13.5841 5.06527C13.5937 5.06412 13.6033 5.06356 13.6129 5.06356C13.6656 5.06356 13.7164 5.08071 13.7584 5.11312L15.0739 6.12606C15.1237 6.16434 15.1552 6.21934 15.1628 6.28094C15.1704 6.34253 15.153 6.40331 15.1141 6.45209C15.0335 6.55285 14.8845 6.57047 14.7818 6.49147L13.4663 5.47853C13.4166 5.44024 13.385 5.38524 13.3775 5.32365C13.3699 5.26209 13.3872 5.20127 13.4263 5.15246ZM9.93208 12.0185C9.74568 12.0405 9.56178 11.9901 9.41413 11.8764C9.26644 11.7628 9.17273 11.5994 9.15025 11.4165C9.12777 11.2337 9.17917 11.0532 9.29504 10.9082L9.42403 10.7469L10.5297 11.5982L10.4007 11.7596C10.2848 11.9045 10.1184 11.9965 9.93208 12.0185ZM16.2857 6.19066L14.6294 8.26245C14.4463 8.49151 14.1074 8.53161 13.874 8.35192C13.844 8.32876 13.8174 8.30273 13.7935 8.2747L14.8124 7.00029C14.8504 7.00635 14.8888 7.00938 14.9271 7.00938C15.1391 7.00938 15.3491 6.91738 15.4898 6.74138C15.6076 6.59406 15.6598 6.41056 15.637 6.22469C15.6233 6.11366 15.5833 6.01 15.5217 5.91965L15.9096 5.33868C16.0127 5.34731 16.1112 5.38515 16.1945 5.44928C16.3075 5.53631 16.3793 5.66134 16.3965 5.8014C16.4137 5.94147 16.3744 6.07975 16.2857 6.19066Z" stroke="#777777" stroke-width="0.3"/>
</svg>
