<svg width="21" height="21" viewBox="0 0 21 21" fill="none" xmlns="http://www.w3.org/2000/svg">
<path d="M19.6041 19.209H1.39584C1.17735 19.209 1 19.3863 1 19.6048C1 19.8233 1.17735 20.0006 1.39584 20.0006H19.6042C19.8227 20.0006 20 19.8233 20 19.6048C20 19.3863 19.8226 19.209 19.6041 19.209Z" fill="white" stroke="white" stroke-width="0.5"/>
<path d="M4.56381 14.459H2.18881C1.97031 14.459 1.79297 14.6363 1.79297 14.8548V19.6048C1.79297 19.8233 1.97031 20.0006 2.18881 20.0006H4.56381C4.78231 20.0006 4.95965 19.8233 4.95965 19.6048V14.8548C4.95965 14.6363 4.78231 14.459 4.56381 14.459Z" fill="white"/>
<path d="M4.16796 19.209H2.58466V15.2506M4.56381 14.459H2.18881C1.97031 14.459 1.79297 14.6363 1.79297 14.8548V19.6048C1.79297 19.8233 1.97031 20.0006 2.18881 20.0006H4.56381C4.78231 20.0006 4.95965 19.8233 4.95965 19.6048V14.8548C4.95965 14.6363 4.78231 14.459 4.56381 14.459Z" stroke="white" stroke-width="0.5"/>
<path d="M9.31381 10.5H6.93881C6.72031 10.5 6.54297 10.6773 6.54297 10.8958V19.6042C6.54297 19.8227 6.72031 20 6.93881 20H9.31381C9.53231 20 9.70965 19.8227 9.70965 19.6042V10.8958C9.70965 10.6773 9.53231 10.5 9.31381 10.5Z" fill="white"/>
<path d="M7.33462 19.2083H8.91796V11.2917M9.31381 10.5H6.93881C6.72031 10.5 6.54297 10.6773 6.54297 10.8958V19.6042C6.54297 19.8227 6.72031 20 6.93881 20H9.31381C9.53231 20 9.70965 19.8227 9.70965 19.6042V10.8958C9.70965 10.6773 9.53231 10.5 9.31381 10.5Z" stroke="white" stroke-width="0.5"/>
<path d="M14.0638 12.084H11.6888C11.4703 12.084 11.293 12.2613 11.293 12.4798V19.6048C11.293 19.8233 11.4703 20.0007 11.6888 20.0007H14.0638C14.2823 20.0007 14.4597 19.8233 14.4597 19.6048V12.4798C14.4597 12.2613 14.2823 12.084 14.0638 12.084Z" fill="white"/>
<path d="M12.0846 19.209H13.668V12.8756M14.0638 12.084H11.6888C11.4703 12.084 11.293 12.2613 11.293 12.4798V19.6048C11.293 19.8233 11.4703 20.0007 11.6888 20.0007H14.0638C14.2823 20.0007 14.4597 19.8233 14.4597 19.6048V12.4798C14.4597 12.2613 14.2823 12.084 14.0638 12.084Z" stroke="white" stroke-width="0.5"/>
<path d="M18.8138 7.33398H16.4388C16.2203 7.33398 16.043 7.51133 16.043 7.72983V19.6048C16.043 19.8233 16.2203 20.0007 16.4388 20.0007H18.8138C19.0323 20.0007 19.2097 19.8233 19.2097 19.6048V7.72983C19.2097 7.51129 19.0323 7.33398 18.8138 7.33398Z" fill="white"/>
<path d="M16.8346 19.209H18.418V8.12564M18.8138 7.33398H16.4388C16.2203 7.33398 16.043 7.51133 16.043 7.72983V19.6048C16.043 19.8233 16.2203 20.0007 16.4388 20.0007H18.8138C19.0323 20.0007 19.2097 19.8233 19.2097 19.6048V7.72983C19.2097 7.51129 19.0323 7.33398 18.8138 7.33398Z" stroke="white" stroke-width="0.5"/>
<path d="M3.37631 8.125C2.50309 8.125 1.79297 8.83512 1.79297 9.70834C1.79297 10.5816 2.50309 11.2917 3.37631 11.2917C4.24953 11.2917 4.95965 10.5816 4.95965 9.70834C4.95965 8.83512 4.24953 8.125 3.37631 8.125ZM3.37631 10.5C2.93931 10.5 2.58466 10.1445 2.58466 9.70834C2.58466 9.27212 2.93931 8.91669 3.37631 8.91669C3.81331 8.91669 4.16796 9.27216 4.16796 9.70834C4.16796 10.1445 3.81331 10.5 3.37631 10.5Z" fill="white" stroke="white" stroke-width="0.5"/>
<path d="M8.12631 4.16602C7.25309 4.16602 6.54297 4.87614 6.54297 5.74935C6.54297 6.62257 7.25309 7.33269 8.12631 7.33269C8.99953 7.33269 9.70965 6.62257 9.70965 5.74935C9.70965 4.87614 8.99953 4.16602 8.12631 4.16602ZM8.12631 6.54101C7.68931 6.54101 7.33466 6.18554 7.33466 5.74935C7.33466 5.31314 7.68931 4.9577 8.12631 4.9577C8.56331 4.9577 8.91796 5.31317 8.91796 5.74935C8.91796 6.18557 8.56331 6.54101 8.12631 6.54101Z" fill="white" stroke="white" stroke-width="0.5"/>
<path d="M12.8763 5.75C12.0031 5.75 11.293 6.46012 11.293 7.33334C11.293 8.20656 12.0031 8.91669 12.8763 8.91669C13.7495 8.91669 14.4597 8.20656 14.4597 7.33334C14.4597 6.46012 13.7495 5.75 12.8763 5.75ZM12.8763 8.125C12.4393 8.125 12.0847 7.76953 12.0847 7.33334C12.0847 6.89712 12.4393 6.54169 12.8763 6.54169C13.3133 6.54169 13.668 6.89716 13.668 7.33334C13.668 7.76953 13.3133 8.125 12.8763 8.125Z" fill="white" stroke="white" stroke-width="0.5"/>
<path d="M17.6263 1C16.7531 1 16.043 1.71012 16.043 2.58334C16.043 3.45656 16.7531 4.16669 17.6263 4.16669C18.4995 4.16669 19.2097 3.45656 19.2097 2.58334C19.2097 1.71012 18.4995 1 17.6263 1ZM17.6263 3.375C17.1893 3.375 16.8347 3.01953 16.8347 2.58334C16.8347 2.14712 17.1893 1.79169 17.6263 1.79169C18.0633 1.79169 18.418 2.14716 18.418 2.58334C18.418 3.01953 18.0633 3.375 17.6263 3.375Z" fill="white" stroke="white" stroke-width="0.5"/>
<path d="M17.0655 3.14215C16.9111 2.98777 16.6602 2.98777 16.5058 3.14215L13.4341 6.2138C13.2798 6.36817 13.2798 6.61914 13.4341 6.77352C13.5117 6.8503 13.613 6.88911 13.7144 6.88911C13.8149 6.88911 13.9163 6.85111 13.9939 6.77352L17.0655 3.70187C17.2199 3.54749 17.2199 3.29652 17.0655 3.14215Z" fill="white" stroke="white" stroke-width="0.5"/>
<path d="M11.9178 6.41979L9.37492 5.69464C9.16195 5.63289 8.94583 5.75639 8.88645 5.96698C8.8263 6.17758 8.9482 6.39608 9.15798 6.45623L11.7008 7.18138C11.7372 7.19166 11.7737 7.19641 11.8093 7.19641C11.9819 7.19641 12.1402 7.08319 12.1901 6.90904C12.2503 6.69926 12.1284 6.47994 11.9178 6.41979Z" fill="white" stroke="white" stroke-width="0.5"/>
<path d="M7.50602 6.24284C7.36986 6.07184 7.12127 6.04412 6.95027 6.1795L3.96567 8.55924C3.79467 8.69621 3.76617 8.94477 3.90314 9.11577C3.98152 9.21393 4.09711 9.26462 4.21267 9.26462C4.29895 9.26462 4.38605 9.23612 4.45889 9.17912L7.44349 6.79937C7.61449 6.6624 7.64299 6.41384 7.50602 6.24284Z" fill="white" stroke="white" stroke-width="0.5"/>
</svg>
