<svg width="16" height="18" viewBox="0 0 16 18" fill="none" xmlns="http://www.w3.org/2000/svg">
<path d="M10.5694 5.30664H2.90725C2.77725 5.30664 2.67188 5.41202 2.67188 5.54202C2.67188 5.67202 2.77725 5.77739 2.90725 5.77739H10.5694C10.6994 5.77739 10.8048 5.67202 10.8048 5.54202C10.8048 5.41202 10.6994 5.30664 10.5694 5.30664Z" fill="#777777" stroke="#777777" stroke-width="0.3"/>
<path d="M2.90725 4.14458H6.73831C6.86831 4.14458 6.97369 4.0392 6.97369 3.9092C6.97369 3.7792 6.86831 3.67383 6.73831 3.67383H2.90725C2.77725 3.67383 2.67188 3.7792 2.67188 3.9092C2.67188 4.03923 2.77725 4.14458 2.90725 4.14458Z" fill="#777777" stroke="#777777" stroke-width="0.3"/>
<path d="M10.5694 6.75391H2.90725C2.77725 6.75391 2.67188 6.85928 2.67188 6.98928C2.67188 7.11928 2.77725 7.22466 2.90725 7.22466H10.5694C10.6994 7.22466 10.8048 7.11928 10.8048 6.98928C10.8048 6.85928 10.6994 6.75391 10.5694 6.75391Z" fill="#777777" stroke="#777777" stroke-width="0.3"/>
<path d="M4.65275 15.3646H2.20066C1.79819 15.3646 1.47072 15.0372 1.47072 14.6347V2.20066C1.47072 1.79819 1.79819 1.47072 2.20066 1.47072H9.26491C9.28772 1.47072 9.31019 1.47281 9.33241 1.47581V2.94375C9.33241 3.60581 9.87103 4.14441 10.5331 4.14441H12.001C12.004 4.16666 12.0061 4.18912 12.0061 4.21194V8.22009C12.0061 8.35009 12.1114 8.45547 12.2414 8.45547C12.3714 8.45547 12.4768 8.35009 12.4768 8.22009V4.21197C12.4768 3.95378 12.3763 3.71103 12.1937 3.52844L9.94837 1.28313C9.76581 1.10056 9.52309 1 9.26491 1H2.20066C1.53859 1 1 1.53863 1 2.20066V14.6347C1 15.2968 1.53863 15.8353 2.20066 15.8353H4.65275C4.78275 15.8353 4.88812 15.73 4.88812 15.6C4.88812 15.47 4.78275 15.3646 4.65275 15.3646ZM11.6732 3.67369H10.5331C10.1306 3.67369 9.80316 3.34622 9.80316 2.94375V1.80362L11.6732 3.67369Z" fill="#777777" stroke="#777777" stroke-width="0.3"/>
<path d="M15.132 12.5219L13.1377 9.15569C12.9924 8.91025 12.6761 8.82913 12.4305 8.97459L11.9454 9.262C11.5689 9.48506 11.4097 9.93647 11.539 10.3365C11.3756 10.3957 11.1964 10.3948 11.0314 10.331C10.6484 10.2105 10.3572 9.96809 9.87627 10.0897C9.05971 10.2976 9.08452 10.2872 9.01065 10.3125C8.53252 10.0403 8.24512 9.95931 7.73755 10.1557L7.28512 10.3306C7.07565 10.4115 6.84483 10.3923 6.65127 10.2776L6.5278 10.2048C6.58805 9.84384 6.42796 9.46287 6.08896 9.26206C6.08896 9.26206 6.08896 9.26206 6.08893 9.26203L5.60387 8.97466C5.35899 8.82963 5.04174 8.91081 4.89668 9.15569L2.9023 12.522C2.75696 12.7673 2.83784 13.0837 3.08334 13.2291L3.5684 13.5165C3.71518 13.6035 3.87649 13.6448 4.03587 13.6448C4.21358 13.6448 4.3888 13.5933 4.53862 13.4963L4.63971 13.556L4.42627 13.8533C4.17193 14.2076 4.25274 14.7003 4.60712 14.9546C4.77099 15.0723 4.97687 15.126 5.18977 15.0925C5.22355 15.29 5.33174 15.4748 5.50693 15.6006C5.67146 15.7188 5.8764 15.7725 6.08968 15.7389C6.12355 15.9363 6.23168 16.1209 6.40677 16.2466C6.64208 16.4155 6.93465 16.4351 7.17843 16.3309C7.23177 16.4695 7.32449 16.5946 7.45384 16.6875C7.79158 16.9299 8.25684 16.8667 8.51927 16.5526L9.08646 16.8886C9.46155 17.1109 9.94552 16.9874 10.1679 16.6118C10.2248 16.5158 10.2601 16.4112 10.273 16.3037L10.2743 16.3045C10.6488 16.5263 11.1339 16.4021 11.3557 16.0277C11.42 15.9192 11.4552 15.8015 11.4638 15.6836C11.7939 15.7666 12.1537 15.628 12.3359 15.3205C12.3956 15.2196 12.4303 15.1106 12.4417 15.001C12.7955 15.1398 13.2091 15.0056 13.4089 14.6684C13.5163 14.487 13.5467 14.2746 13.4945 14.0703C13.4646 13.9535 13.4096 13.8474 13.3341 13.7578L13.6467 13.5751C13.9111 13.6837 14.213 13.6663 14.4659 13.5165L14.9509 13.2291C15.1964 13.0838 15.2775 12.7675 15.132 12.5219ZM3.80833 13.1115L3.32327 12.8241C3.30171 12.8114 3.29455 12.7834 3.3073 12.7619L5.30168 9.39553C5.31452 9.37387 5.34255 9.36684 5.36399 9.37959L5.84902 9.66693C6.06455 9.79465 6.13199 10.0711 6.00662 10.2827L4.42409 12.9539C4.29777 13.1672 4.02158 13.2378 3.80833 13.1115ZM4.88162 14.5722C4.73868 14.4696 4.70599 14.2708 4.80868 14.1278L5.1224 13.6908C5.22233 13.5516 5.42149 13.5135 5.56683 13.6178C5.70949 13.7202 5.74221 13.9196 5.63983 14.0622L5.32608 14.4992C5.22368 14.6419 5.02421 14.6746 4.88162 14.5722ZM5.78146 15.2183C5.6388 15.1158 5.60608 14.9164 5.70849 14.7738L6.02221 14.3368C6.02221 14.3368 6.02221 14.3368 6.02221 14.3368C6.02221 14.3368 6.02221 14.3368 6.02224 14.3368L6.36846 13.8545C6.41808 13.7854 6.49162 13.7397 6.57555 13.726C6.59299 13.7231 6.61046 13.7217 6.6278 13.7217C6.69387 13.7217 6.75815 13.7423 6.8129 13.7815C6.88196 13.8312 6.92765 13.9047 6.9414 13.9886C6.95518 14.0726 6.93546 14.1569 6.88584 14.2259L6.22587 15.1453C6.1233 15.2882 5.92446 15.3209 5.78146 15.2183ZM6.6813 15.8642C6.53871 15.7619 6.50596 15.5626 6.60818 15.42C6.60821 15.4199 6.60827 15.4199 6.6083 15.4198L7.26827 14.5005C7.37062 14.3579 7.57012 14.3251 7.71271 14.4275C7.85537 14.5299 7.88808 14.7293 7.78568 14.8719L7.49246 15.2804C7.49246 15.2804 7.49246 15.2804 7.49243 15.2804L7.12571 15.7913C7.0233 15.9339 6.82399 15.9667 6.6813 15.8642ZM7.72837 16.3051C7.5858 16.2027 7.55302 16.0036 7.65518 15.8609L7.87484 15.555C7.97721 15.4123 8.17668 15.3797 8.31927 15.482C8.4619 15.5844 8.49465 15.7838 8.39224 15.9264L8.17277 16.2321C8.0704 16.3748 7.87096 16.4075 7.72837 16.3051ZM13.004 14.4285C12.9144 14.5796 12.7186 14.6298 12.5675 14.5402C12.3115 14.3886 10.6601 13.4102 10.484 13.3059C10.3721 13.2397 10.2278 13.2766 10.1616 13.3884C10.0953 13.5003 10.1322 13.6446 10.2441 13.7109L11.8191 14.644L11.8192 14.6441C11.9704 14.7336 12.0208 14.9288 11.9309 15.0806C11.8413 15.2318 11.6455 15.2819 11.4944 15.1924C10.9118 14.8473 10.4388 14.567 9.91843 14.2587C9.80652 14.1925 9.66221 14.2294 9.59596 14.3412C9.52971 14.4531 9.56662 14.5974 9.67846 14.6637L10.839 15.3513L10.8393 15.3514C10.9906 15.4413 11.0405 15.6363 10.9508 15.7878C10.8612 15.939 10.6654 15.9891 10.5142 15.8996L9.89137 15.5306C9.8913 15.5306 9.89121 15.5305 9.89115 15.5305C9.89109 15.5304 9.89102 15.5304 9.89096 15.5304L9.43643 15.2611C9.32455 15.1948 9.18021 15.2317 9.11396 15.3436C9.04771 15.4554 9.08462 15.5998 9.19646 15.666L9.65108 15.9354C9.65115 15.9354 9.65121 15.9355 9.65127 15.9355C9.80249 16.0251 9.85293 16.2202 9.76302 16.372C9.67343 16.5232 9.47765 16.5733 9.32643 16.4838L8.79609 16.1696C9.02343 15.8188 8.93696 15.346 8.5938 15.0997C8.49302 15.0274 8.3808 14.9824 8.26602 14.963C8.38777 14.6375 8.2828 14.2575 7.98721 14.0453C7.81221 13.9196 7.60268 13.8762 7.40493 13.9072C7.36974 13.7014 7.25721 13.5211 7.08743 13.3993C6.76812 13.1701 6.33418 13.2142 6.06615 13.4853C6.01168 13.3897 5.93649 13.3039 5.84137 13.2356C5.57602 13.0451 5.23152 13.0434 4.96883 13.2038L4.86099 13.1401L6.3413 10.6414L6.41177 10.683C6.72302 10.8673 7.10283 10.9058 7.45483 10.7697L7.90727 10.5947C8.16618 10.4947 8.30896 10.4882 8.56505 10.609C8.39749 10.7972 8.29802 11.0444 8.29802 11.3108V12.3544C8.29802 12.6315 8.52337 12.8572 8.80033 12.8574H8.80102C9.07884 12.8574 9.34009 12.7492 9.53662 12.5528C9.65118 12.4383 9.73574 12.3018 9.78643 12.1528C10.0903 12.3328 12.6012 13.8196 12.8923 13.9921C12.9655 14.0355 13.0174 14.1048 13.0385 14.1872C13.0596 14.2695 13.0473 14.3553 13.004 14.4285ZM14.7111 12.8241L14.226 13.1115C14.0127 13.2378 13.7366 13.1671 13.6103 12.954L12.8686 11.7019C12.8023 11.5901 12.6578 11.5532 12.5461 11.6194C12.4342 11.6856 12.3973 11.83 12.4635 11.9418L13.2053 13.1939C13.2192 13.2175 13.2344 13.2399 13.2501 13.2617L13.0439 13.3822C13.0022 13.4069 12.9621 13.434 12.9237 13.4636L9.72615 11.57C9.56949 11.4773 9.37087 11.5903 9.37087 11.7725C9.3684 11.7866 9.39518 12.0285 9.20384 12.2198C9.09621 12.3273 8.95315 12.3866 8.80099 12.3866C8.80087 12.3866 8.80074 12.3866 8.80062 12.3866C8.78302 12.3866 8.76871 12.3721 8.76871 12.3542V11.3106C8.76871 11.038 8.95627 10.808 9.20993 10.7438L9.99168 10.546C10.2753 10.4743 10.4357 10.6257 10.8604 10.7695C11.1552 10.8836 11.4758 10.8765 11.7604 10.755L11.9025 10.9948C11.9687 11.1067 12.1131 11.1436 12.2249 11.0774C12.3368 11.0111 12.3737 10.8667 12.3075 10.7549L12.0277 10.2826C11.9011 10.0689 11.9716 9.79356 12.1853 9.6669L12.6703 9.37956C12.6915 9.36697 12.7196 9.3734 12.7327 9.39553L14.727 12.7618C14.7399 12.7835 14.7328 12.8113 14.7111 12.8241Z" fill="#777777" stroke="#777777" stroke-width="0.3"/>
</svg>
