<svg width="20" height="20" viewBox="0 0 20 20" fill="none" xmlns="http://www.w3.org/2000/svg">
<path d="M16.8748 10.4737V9.99867V9.51742L18.0748 8.46742C18.296 8.27245 18.4412 8.00556 18.4846 7.71392C18.5281 7.42228 18.467 7.12466 18.3123 6.87367L16.8373 4.37367C16.7277 4.18383 16.5701 4.02616 16.3803 3.91646C16.1905 3.80676 15.9752 3.74889 15.756 3.74867C15.6202 3.74763 15.4851 3.76874 15.356 3.81117L13.8373 4.32367C13.5751 4.14942 13.3016 3.99283 13.0185 3.85492L12.6998 2.27992C12.6426 1.99217 12.4861 1.73369 12.2576 1.54973C12.0291 1.36577 11.7431 1.26805 11.4498 1.27367H8.52479C8.23148 1.26805 7.94553 1.36577 7.71701 1.54973C7.48848 1.73369 7.33194 1.99217 7.27479 2.27992L6.95604 3.85492C6.671 3.99279 6.3954 4.14938 6.13104 4.32367L4.64354 3.78617C4.5131 3.75218 4.37802 3.73952 4.24354 3.74867C4.02434 3.74889 3.80905 3.80676 3.61927 3.91646C3.42949 4.02616 3.27189 4.18383 3.16229 4.37367L1.68729 6.87367C1.54141 7.12428 1.4872 7.41783 1.53395 7.70402C1.5807 7.99021 1.72549 8.25125 1.94354 8.44242L3.12479 9.52367V10.4799L1.94354 11.5299C1.71933 11.7224 1.57058 11.9881 1.52367 12.2799C1.47676 12.5716 1.53473 12.8706 1.68729 13.1237L3.16229 15.6237C3.27189 15.8135 3.42949 15.9712 3.61927 16.0809C3.80905 16.1906 4.02434 16.2484 4.24354 16.2487C4.37939 16.2497 4.51449 16.2286 4.64354 16.1862L6.16229 15.6737C6.4245 15.8479 6.69803 16.0045 6.98104 16.1424L7.29979 17.7174C7.35694 18.0052 7.51348 18.2636 7.74201 18.4476C7.97053 18.6316 8.25648 18.7293 8.54979 18.7237H11.4998C11.7931 18.7293 12.0791 18.6316 12.3076 18.4476C12.5361 18.2636 12.6926 18.0052 12.7498 17.7174L13.0685 16.1424C13.3536 16.0045 13.6292 15.8479 13.8935 15.6737L15.406 16.1862C15.5351 16.2286 15.6702 16.2497 15.806 16.2487C16.0252 16.2484 16.2405 16.1906 16.4303 16.0809C16.6201 15.9712 16.7777 15.8135 16.8873 15.6237L18.3123 13.1237C18.4582 12.873 18.5124 12.5795 18.4656 12.2933C18.4189 12.0071 18.2741 11.7461 18.056 11.5549L16.8748 10.4737ZM15.756 14.9987L13.6123 14.2737C13.1105 14.6987 12.5369 15.031 11.9185 15.2549L11.4748 17.4987H8.52479L8.08104 15.2799C7.46755 15.0497 6.89711 14.718 6.39354 14.2987L4.24354 14.9987L2.76854 12.4987L4.46854 10.9987C4.35298 10.3517 4.35298 9.68938 4.46854 9.04242L2.76854 7.49867L4.24354 4.99867L6.38729 5.72367C6.88913 5.2986 7.46267 4.96633 8.08104 4.74242L8.52479 2.49867H11.4748L11.9185 4.71742C12.532 4.94768 13.1025 5.27938 13.606 5.69867L15.756 4.99867L17.231 7.49867L15.531 8.99867C15.6466 9.64563 15.6466 10.308 15.531 10.9549L17.231 12.4987L15.756 14.9987Z" fill="white" stroke="white" stroke-width="0.2"/>
<path d="M10 13.75C9.25832 13.75 8.5333 13.5301 7.91661 13.118C7.29993 12.706 6.81928 12.1203 6.53545 11.4351C6.25162 10.7498 6.17736 9.99584 6.32206 9.26841C6.46675 8.54098 6.8239 7.8728 7.34835 7.34835C7.8728 6.8239 8.54098 6.46675 9.26841 6.32206C9.99584 6.17736 10.7498 6.25162 11.4351 6.53545C12.1203 6.81928 12.706 7.29993 13.118 7.91661C13.5301 8.5333 13.75 9.25832 13.75 10C13.755 10.4939 13.6614 10.9837 13.4748 11.441C13.2881 11.8982 13.012 12.3136 12.6628 12.6628C12.3136 13.012 11.8982 13.2881 11.441 13.4748C10.9837 13.6614 10.4939 13.755 10 13.75V13.75ZM10 7.5C9.66959 7.4923 9.34105 7.55171 9.03426 7.67462C8.72747 7.79753 8.44879 7.9814 8.2151 8.2151C7.9814 8.44879 7.79753 8.72747 7.67462 9.03426C7.55171 9.34105 7.4923 9.66959 7.5 10C7.4923 10.3304 7.55171 10.6589 7.67462 10.9657C7.79753 11.2725 7.9814 11.5512 8.2151 11.7849C8.44879 12.0186 8.72747 12.2025 9.03426 12.3254C9.34105 12.4483 9.66959 12.5077 10 12.5C10.3304 12.5077 10.6589 12.4483 10.9657 12.3254C11.2725 12.2025 11.5512 12.0186 11.7849 11.7849C12.0186 11.5512 12.2025 11.2725 12.3254 10.9657C12.4483 10.6589 12.5077 10.3304 12.5 10C12.5077 9.66959 12.4483 9.34105 12.3254 9.03426C12.2025 8.72747 12.0186 8.44879 11.7849 8.2151C11.5512 7.9814 11.2725 7.79753 10.9657 7.67462C10.6589 7.55171 10.3304 7.4923 10 7.5Z" fill="white" stroke="white" stroke-width="0.2"/>
</svg>
