<svg width="23" height="22" viewBox="0 0 23 22" fill="none" xmlns="http://www.w3.org/2000/svg">
<path d="M22.5332 16.8582L14.3994 1.67386C13.7855 0.625888 12.7013 0 11.4991 0C10.297 0 9.2128 0.625888 8.59889 1.67386C8.59426 1.68188 8.59036 1.6899 8.58573 1.69791L0.478932 16.8341C-0.148134 17.9042 -0.159993 19.1893 0.446633 20.2714C1.05465 21.3541 2.15003 22 3.37851 22H19.5749C20.8033 22 21.9437 21.3541 22.5517 20.2714C23.1583 19.1893 23.1465 17.9042 22.5332 16.8582ZM10.1501 6.95259C10.1501 6.19706 10.7541 5.58466 11.4991 5.58466C12.2442 5.58466 12.8481 6.19711 12.8481 6.95259V12.4244C12.8481 13.1798 12.2442 13.7923 11.4991 13.7923C10.7541 13.7923 10.1501 13.1798 10.1501 12.4244V6.95259ZM11.4991 19.2641C10.3833 19.2641 9.47559 18.3437 9.47559 17.2122C9.47559 16.0807 10.3833 15.1603 11.4991 15.1603C12.615 15.1603 13.5227 16.0807 13.5227 17.2122C13.5227 18.3437 12.615 19.2641 11.4991 19.2641Z" fill="#666666"/>
</svg>
