<svg width="18" height="18" viewBox="0 0 18 18" fill="none" xmlns="http://www.w3.org/2000/svg">
<g clip-path="url(#clip0)">
<path d="M15.9788 11.0524C15.7518 11.0524 15.5679 11.2363 15.5679 11.4633V15.1116C15.5671 15.7921 15.0157 16.3436 14.3351 16.3442H2.80467C2.12406 16.3436 1.57267 15.7921 1.57187 15.1116V4.40408C1.57267 3.7237 2.12406 3.1722 2.80467 3.1714H6.45332C6.68029 3.1714 6.86425 2.98746 6.86425 2.7605C6.86425 2.53371 6.68029 2.34961 6.45332 2.34961H2.80467C1.67043 2.35089 0.751284 3.26995 0.75 4.40408V15.1117C0.751284 16.2458 1.67043 17.1649 2.80467 17.1662H14.3351C15.4693 17.1649 16.3885 16.2458 16.3897 15.1117V11.4633C16.3897 11.2363 16.2058 11.0524 15.9788 11.0524Z" fill="#4C5BD4" stroke="#4C5BD4" stroke-width="0.5"/>
<path d="M16.2264 1.29159C15.5042 0.569471 14.3334 0.569471 13.6112 1.29159L6.27986 8.62219C6.22962 8.67243 6.19334 8.73471 6.1744 8.80308L5.21031 12.2833C5.17066 12.426 5.21095 12.5788 5.31561 12.6836C5.42043 12.7883 5.57325 12.8286 5.71595 12.7891L9.19653 11.8249C9.26491 11.806 9.3272 11.7697 9.37744 11.7195L16.7086 4.3887C17.4297 3.6661 17.4297 2.49634 16.7086 1.77374L16.2264 1.29159ZM7.17525 8.88927L13.1754 2.88958L15.1105 4.82447L9.11017 10.8242L7.17525 8.88927ZM6.78871 9.66484L8.33469 11.2108L6.19623 11.8033L6.78871 9.66484ZM16.1275 3.80767L15.6917 4.24344L13.7565 2.30839L14.1924 1.87262C14.5936 1.47151 15.244 1.47151 15.6452 1.87262L16.1275 2.35477C16.528 2.75636 16.528 3.40625 16.1275 3.80767Z" fill="#4C5BD4" stroke="#4C5BD4" stroke-width="0.5"/>
</g>
<defs>
<clipPath id="clip0">
<rect width="18" height="17.9982" fill="white"/>
</clipPath>
</defs>
</svg>
