<svg width="23" height="26" viewBox="0 0 23 26" fill="none" xmlns="http://www.w3.org/2000/svg">
<path d="M11.4996 0C7.69495 0 4.59961 2.95686 4.59961 6.59132C4.59961 10.2258 7.69495 13.1826 11.4996 13.1826C15.3043 13.1826 18.3996 10.2258 18.3996 6.59132C18.3996 2.95686 15.3043 0 11.4996 0Z" fill="#666666"/>
<path d="M20.0849 17.4937C18.1959 15.6614 15.6916 14.6523 13.0333 14.6523H9.96667C7.30848 14.6523 4.80414 15.6614 2.91507 17.4937C1.03526 19.317 0 21.7238 0 24.2708C0 24.6752 0.343262 25.0032 0.766667 25.0032H22.2333C22.6567 25.0032 23 24.6752 23 24.2708C23 21.7238 21.9647 19.317 20.0849 17.4937Z" fill="#666666"/>
</svg>
