<svg width="23" height="23" viewBox="0 0 23 23" fill="none" xmlns="http://www.w3.org/2000/svg">
<path d="M17.1623 5.23595L17.8419 4.39079C18.7731 3.23558 18.5843 1.54778 17.419 0.62261L17.3762 0.587603C16.2134 -0.337564 14.5145 -0.15003 13.5833 1.00768L12.9062 1.85033L17.1623 5.23595Z" fill="#666666"/>
<path d="M13.0262 12.3399C13.0489 12.5449 13.1521 12.74 13.3257 12.88C13.6756 13.1576 14.1865 13.1025 14.4659 12.755L19.1347 6.95393C19.4191 6.60137 19.3562 6.08377 18.9912 5.80872C18.6389 5.54367 18.133 5.61869 17.8561 5.96125L17.4006 6.52635L16.6203 5.90624L16.6229 5.90374L12.3693 2.51562L1.48633 16.0306L5.74238 19.4162L15.6111 7.16397L16.3913 7.78408L13.1999 11.7473C13.059 11.9198 13.0036 12.1349 13.0262 12.3399Z" fill="#666666"/>
<path d="M5.03477 20.0422L1.02537 16.8516C0.959936 17.0741 0.927217 17.2691 0.927217 17.2691L0.00855457 21.6399C-0.0568844 21.955 0.265277 22.2125 0.559752 22.0775L4.6522 20.2272C4.64969 20.2272 4.8309 20.1522 5.03477 20.0422Z" fill="#666666"/>
<path d="M22.4155 20.8254C22.3802 20.8254 22.3475 20.8279 22.3122 20.8329L16.1283 21.628C15.8111 21.668 15.5897 21.3229 15.7608 21.0529C15.8539 20.9104 15.9445 20.7653 16.0351 20.6203C16.2742 20.2352 15.9546 19.7227 15.5116 19.7227C15.4814 19.7227 15.4512 19.7252 15.4185 19.7302L7.31415 20.9404L6.34515 21.0854L3.70242 21.4805C3.40291 21.5255 3.20156 21.778 3.22673 22.0806C3.2368 22.2156 3.29217 22.3432 3.38026 22.4382C3.48345 22.5507 3.62691 22.6132 3.78296 22.6132C3.81316 22.6132 3.84337 22.6107 3.87608 22.6057L13.5359 21.1629C13.8656 21.1129 14.0921 21.483 13.8983 21.753C13.8354 21.8381 13.7725 21.9256 13.7095 22.0106C13.5359 22.2456 13.5761 22.6382 13.7775 22.8407C13.8807 22.9458 14.0116 23.0008 14.15 23.0008C14.1651 23.0008 14.1827 23.0008 14.1978 22.9983H14.2003H14.2029L22.5413 21.9431H22.5438H22.5464C22.6898 21.9206 22.8156 21.8381 22.8987 21.7105C22.9893 21.5705 23.022 21.398 22.9818 21.243C22.9163 20.9904 22.6948 20.8254 22.4155 20.8254Z" fill="#666666"/>
</svg>
