<svg width="18" height="16" viewBox="0 0 18 16" fill="none" xmlns="http://www.w3.org/2000/svg">
<path d="M2.5625 8.97168C2.39001 8.97168 2.25 9.1117 2.25 9.28418C2.25 9.45667 2.39001 9.59669 2.5625 9.59669C2.73498 9.59669 2.875 9.45667 2.875 9.28418C2.875 9.1117 2.73498 8.97168 2.5625 8.97168Z" fill="#777777" stroke="#777777" stroke-width="0.5"/>
<path d="M15.3631 10.0553L12.417 11.0681C12.4301 10.9956 12.4374 10.9216 12.4374 10.8466C12.4374 10.1574 11.8767 9.59656 11.1874 9.59656H9.16371C9.11 9.59656 9.05702 9.58277 9.01027 9.5564L7.35926 8.62781C7.03285 8.44385 6.66188 8.34656 6.28651 8.34656H4.07117C3.94227 7.98291 3.59485 7.72168 3.1875 7.72168H1.3125C1.13989 7.72168 1 7.86157 1 8.03418V13.6591C1 13.8317 1.13989 13.9716 1.3125 13.9716H3.1875C3.58558 13.9716 3.92689 13.7214 4.06238 13.3701C4.41614 13.4141 4.82545 13.5187 5.08265 13.673L6.71693 14.6536C7.33607 15.0252 8.04494 15.2216 8.7671 15.2216C9.33937 15.2216 9.89382 15.1015 10.4152 14.8646L16.2478 12.2964C16.8938 12.0343 17.2128 11.2593 16.8435 10.5762C16.5719 10.0735 15.9358 9.84986 15.3631 10.0553ZM3.5 13.0355C3.49927 13.2072 3.35926 13.3466 3.1875 13.3466H1.625V8.34668H3.1875C3.35975 8.34668 3.5 8.48682 3.5 8.65918V13.0355ZM16.0104 11.7184C16.0071 11.7196 16.0038 11.7211 16.0005 11.7224C16.0005 11.7224 10.1592 14.2944 10.1581 14.2949C9.71803 14.4951 9.25002 14.5966 8.7671 14.5966C8.15822 14.5966 7.56056 14.431 7.03859 14.1177L5.40418 13.1371C5.05433 12.9273 4.55335 12.7993 4.12501 12.7481V8.97168H6.28651C6.55458 8.97168 6.81947 9.04102 7.05275 9.17249L8.70375 10.1011C8.84364 10.1799 9.00282 10.2217 9.16371 10.2217H11.1874C11.532 10.2217 11.8124 10.502 11.8124 10.8467C11.8124 11.1901 11.5319 11.4717 11.1874 11.4717H8.01063C7.83803 11.4717 7.69813 11.6116 7.69813 11.7842C7.69813 11.9567 7.83803 12.0966 8.01063 12.0966H11.1874C11.3924 12.0966 11.5941 12.0457 11.7732 11.9502C11.7732 11.9502 15.5714 10.6445 15.5729 10.644C15.8529 10.543 16.1696 10.6436 16.2937 10.8733C16.4799 11.2177 16.326 11.592 16.0104 11.7184Z" fill="#777777" stroke="#777777" stroke-width="0.5"/>
<path d="M10.1011 8.3611C10.1599 8.412 10.2328 8.43739 10.3058 8.43739C10.3788 8.43739 10.4518 8.412 10.5105 8.3611C13.0602 6.15138 14.6374 5.03309 14.6374 3.29529C14.6374 1.92053 13.6641 0.78125 12.2968 0.78125C11.3988 0.78125 10.7112 1.29883 10.2683 2.07556C9.82644 1.30054 9.13955 0.78125 8.24025 0.78125C7.1935 0.78125 6.31837 1.4596 6.01076 2.50928C5.96217 2.67493 6.05714 2.84851 6.22279 2.8971C6.38844 2.94568 6.56203 2.85071 6.61049 2.68506C6.83815 1.90821 7.4778 1.40625 8.24025 1.40625C9.13173 1.40625 9.7571 2.19788 9.96719 2.93494C10.0047 3.07032 10.128 3.16407 10.2683 3.16407C10.4088 3.16407 10.532 3.07032 10.5695 2.93494C10.5738 2.91968 11.0078 1.40625 12.2968 1.40625C13.2748 1.40625 14.0124 2.21826 14.0124 3.29529C14.0124 4.68543 12.6535 5.68763 10.3056 7.71205C8.87502 6.48353 7.73867 5.61878 7.09279 4.77283C6.98805 4.63563 6.79201 4.60926 6.6548 4.714C6.51759 4.81873 6.49135 5.01478 6.59596 5.15211C7.32399 6.1056 8.553 7.01918 10.1011 8.3611Z" fill="#777777" stroke="#777777" stroke-width="0.5"/>
<path d="M6.28125 3.53418C6.10877 3.53418 5.96875 3.6742 5.96875 3.84668C5.96875 4.01917 6.10877 4.15919 6.28125 4.15919C6.45374 4.15919 6.59376 4.01917 6.59376 3.84668C6.59376 3.6742 6.45374 3.53418 6.28125 3.53418Z" fill="#777777" stroke="#777777" stroke-width="0.5"/>
</svg>
