<svg width="16" height="16" viewBox="0 0 16 16" fill="none" xmlns="http://www.w3.org/2000/svg">
<path d="M8 3.15625C5.32916 3.15625 3.15625 5.32912 3.15625 8C3.15625 10.6709 5.32916 12.8438 8 12.8438C10.6708 12.8438 12.8438 10.6709 12.8438 8C12.8438 5.32912 10.6708 3.15625 8 3.15625ZM8 11.9062C7.04638 11.9062 6.17162 11.5626 5.49266 10.9928C5.79747 10.2309 6.53691 9.71875 7.375 9.71875H8.625C9.46309 9.71875 10.2025 10.2309 10.5073 10.9928C9.82837 11.5626 8.95363 11.9062 8 11.9062ZM6.59375 7.375C6.59375 6.59959 7.22459 5.96875 8 5.96875C8.77541 5.96875 9.40625 6.59959 9.40625 7.375C9.40625 8.15041 8.77541 8.78125 8 8.78125C7.22459 8.78125 6.59375 8.15041 6.59375 7.375ZM11.1878 10.2552C10.8496 9.67359 10.3243 9.22588 9.70234 8.98347C10.0995 8.56338 10.3438 7.99734 10.3438 7.375C10.3438 6.08266 9.29234 5.03125 8 5.03125C6.70766 5.03125 5.65625 6.08266 5.65625 7.375C5.65625 7.99734 5.90053 8.56338 6.29769 8.98347C5.67575 9.22588 5.15038 9.67359 4.81225 10.2552C4.35991 9.61775 4.09375 8.83938 4.09375 8C4.09375 5.84609 5.84609 4.09375 8 4.09375C10.1539 4.09375 11.9062 5.84609 11.9062 8C11.9062 8.83938 11.6401 9.61775 11.1878 10.2552Z" fill="#777777"/>
<path d="M15.5312 5.96875H14.406C14.2902 5.60344 14.1429 5.24834 13.9655 4.90709L14.7617 4.11088C14.9448 3.92781 14.9448 3.63103 14.7617 3.44797L12.552 1.23828C12.3689 1.05522 12.0722 1.05522 11.8891 1.23828L11.0929 2.03447C10.7517 1.85716 10.3965 1.70978 10.0312 1.59397V0.46875C10.0312 0.209875 9.82137 0 9.5625 0H6.4375C6.17863 0 5.96875 0.209875 5.96875 0.46875V1.59397C5.60347 1.70978 5.24831 1.85716 4.90709 2.0345L4.11088 1.23831C3.92781 1.05525 3.63103 1.05525 3.44797 1.23831L1.23825 3.448C1.05519 3.63106 1.05519 3.92784 1.23825 4.11091L2.03447 4.90712C1.85709 5.24837 1.70978 5.60344 1.59394 5.96878H0.46875C0.209875 5.96878 0 6.17866 0 6.43753V9.5625C0 9.82137 0.209875 10.0312 0.46875 10.0312H1.59397C1.70981 10.3966 1.85712 10.7517 2.0345 11.0929L1.23828 11.8891C1.05522 12.0722 1.05522 12.369 1.23828 12.552L3.448 14.7617C3.63106 14.9448 3.92784 14.9448 4.11091 14.7617L4.90712 13.9655C5.24831 14.1429 5.6035 14.2902 5.96878 14.4061V15.5312C5.96878 15.7901 6.17866 16 6.43753 16H9.5625C9.82137 16 10.0312 15.7901 10.0312 15.5312V14.406C10.3965 14.2902 10.7517 14.1428 11.0929 13.9655L11.8891 14.7617C12.0722 14.9447 12.369 14.9447 12.552 14.7617L14.7618 12.552C14.9448 12.3689 14.9448 12.0722 14.7618 11.8891L13.9655 11.0929C14.1429 10.7516 14.2902 10.3966 14.4061 10.0312H15.5312C15.7901 10.0312 16 9.82134 16 9.56247V6.4375C16 6.17863 15.7901 5.96875 15.5312 5.96875ZM15.0625 9.09375H14.0531C13.8392 9.09375 13.6524 9.23853 13.5991 9.44566V9.44569C13.4648 9.96759 13.2568 10.4691 12.9808 10.9362V10.9362C12.8719 11.1203 12.9016 11.3548 13.0529 11.5061L13.7673 12.2206L12.2206 13.7673L11.5061 13.0529C11.3548 12.9016 11.1204 12.872 10.9362 12.9808H10.9362C10.4691 13.2567 9.96762 13.4648 9.44566 13.5991C9.23853 13.6524 9.09375 13.8392 9.09375 14.0531V15.0625H6.90625V14.0531C6.90625 13.8392 6.76147 13.6525 6.55434 13.5992C6.03237 13.4648 5.53088 13.2567 5.06381 12.9808H5.06378C4.87962 12.872 4.64516 12.9017 4.49391 13.0529L3.77944 13.7674L2.23266 12.2206L2.94712 11.5061C3.09837 11.3549 3.12806 11.1204 3.01925 10.9362V10.9362C2.74325 10.4691 2.53522 9.96762 2.40088 9.44572V9.44569C2.34756 9.23853 2.16081 9.09375 1.94694 9.09375H0.9375V6.90625H1.94694C2.16081 6.90625 2.34756 6.76147 2.40088 6.55434V6.55431C2.53519 6.03241 2.74325 5.53091 3.01925 5.06384V5.06381C3.12806 4.87966 3.09841 4.64519 2.94712 4.49391L2.23266 3.77944L3.77944 2.23266L4.49391 2.94712C4.64516 3.09837 4.87962 3.12803 5.06378 3.01925H5.06381C5.53088 2.74331 6.03237 2.53525 6.55434 2.40088C6.76147 2.34753 6.90625 2.16078 6.90625 1.94691V0.9375H9.09375V1.94691C9.09375 2.16078 9.23853 2.34753 9.44566 2.40084C9.96762 2.53522 10.4691 2.74328 10.9362 3.01922H10.9362C11.1204 3.12803 11.3548 3.09834 11.5061 2.94709L12.2206 2.23263L13.7673 3.77941L13.0529 4.49388C12.9016 4.64512 12.8719 4.87959 12.9808 5.06378V5.06381C13.2568 5.53088 13.4648 6.03237 13.5991 6.55428V6.55431C13.6524 6.76144 13.8392 6.90622 14.0531 6.90622H15.0625V9.09375Z" fill="#777777"/>
</svg>
