<svg width="16" height="16" viewBox="0 0 16 16" fill="none" xmlns="http://www.w3.org/2000/svg">
<g clip-path="url(#clip0)">
<path d="M11.0048 7.56588C10.2572 6.33537 9.15647 5.1575 8.42894 4.22909C8.94766 3.56272 8.76775 2.58384 8.02188 2.15191C8.22347 1.86291 8.46994 1.74044 8.50141 1.72566C8.78875 1.60966 9.01744 1.02237 8.72156 0.509906C8.53725 0.190625 8.20713 0 7.8385 0H4.92719C4.55853 0 4.22841 0.190625 4.04409 0.509844C3.74772 1.02319 3.97784 1.60997 4.26425 1.72559C4.29575 1.74041 4.54222 1.86287 4.74378 2.15184C4.0025 2.58113 3.81622 3.55728 4.33475 4.2265C3.12966 5.76259 0.9375 7.95006 0.9375 9.99912C0.9375 13.4178 3.88647 14.3165 7.31022 14.0833C8.06403 15.2364 9.36628 16 10.8438 16C13.17 16 15.0625 14.1075 15.0625 11.7812C15.0625 9.50897 13.2566 7.65084 11.0048 7.56588ZM7.32031 3.83522H5.44531C5.19525 3.83522 4.97813 3.63075 4.97813 3.36803C4.97813 3.14284 5.13828 2.95441 5.35066 2.91053C5.39775 2.91506 5.44528 2.91331 5.49966 2.90088H7.27541C7.31959 2.91009 7.36372 2.91263 7.40694 2.90925C7.62325 2.95 7.7875 3.14006 7.7875 3.36803C7.7875 3.63059 7.57053 3.83522 7.32031 3.83522ZM4.92716 0.9375C8.00366 0.951844 7.87 0.898812 7.91275 0.984312C7.67484 1.13625 7.29744 1.44247 7.05247 1.96334H5.71319C5.46822 1.4425 5.09084 1.13625 4.85291 0.984312C4.86816 0.953844 4.89297 0.9375 4.92716 0.9375ZM1.875 9.99912C1.875 8.31416 4.00753 6.17947 5.12653 4.73578C5.22903 4.75966 5.33566 4.77272 5.44531 4.77272C7.33291 4.76116 7.36137 4.79978 7.63581 4.73656C8.29341 5.58631 9.23822 6.60419 9.95031 7.65806C8.94438 7.87584 8.07088 8.45325 7.47191 9.24869C7.00959 8.67091 6.22437 8.65366 6.06941 8.37387C6.02366 8.29122 6.0725 8.15509 6.17194 8.08825C6.31369 7.99294 6.61687 8.0305 6.72344 8.12875C6.91372 8.30431 7.21028 8.29231 7.38581 8.10203C7.56134 7.91175 7.54934 7.61519 7.35906 7.43969C7.21388 7.30575 7.02975 7.21016 6.83066 7.15425V7.1165C6.83066 6.85763 6.62078 6.64775 6.36191 6.64775C6.10303 6.64775 5.89316 6.85763 5.89316 7.1165V7.18563C5.216 7.43981 4.92031 8.23406 5.24934 8.82812C5.47913 9.24294 5.88216 9.40213 6.20597 9.53003C6.46334 9.63166 6.83894 9.77019 6.80781 10.0489C6.79297 10.182 6.69225 10.3141 6.55722 10.3777C6.36441 10.4684 5.97669 10.4123 5.74388 10.26C5.52719 10.1181 5.23669 10.1789 5.09497 10.3956C4.95322 10.6122 5.01397 10.9028 5.23059 11.0445C5.41219 11.1633 5.64431 11.2591 5.89313 11.3126V11.3712C5.89313 11.7495 6.31753 11.9684 6.62528 11.7589C6.62269 12.2433 6.70184 12.7162 6.85906 13.1671C4.16213 13.2496 1.875 12.7015 1.875 9.99912ZM10.8438 15.0625C9.03447 15.0625 7.5625 13.5905 7.5625 11.7812C7.5625 9.97197 9.03447 8.5 10.8438 8.5C12.653 8.5 14.125 9.97197 14.125 11.7812C14.125 13.5905 12.653 15.0625 10.8438 15.0625Z" fill="#777777"/>
<path d="M11.4971 10.4488L9.50839 12.4375C9.32533 12.6206 9.32533 12.9174 9.50839 13.1004C9.69145 13.2835 9.98823 13.2835 10.1713 13.1004L12.16 11.1117C12.3431 10.9287 12.3431 10.6319 12.16 10.4488C11.977 10.2658 11.6802 10.2658 11.4971 10.4488Z" fill="#777777"/>
<path d="M10.1471 11.0847C10.3296 10.9022 10.3296 10.6064 10.1471 10.4239C9.96469 10.2415 9.66888 10.2415 9.48644 10.4239C9.304 10.6064 9.304 10.9022 9.48644 11.0847C9.66888 11.2671 9.96469 11.2671 10.1471 11.0847Z" fill="#777777"/>
<path d="M11.4767 12.4152C11.2942 12.5976 11.2942 12.8934 11.4767 13.0759C11.6591 13.2583 11.9549 13.2583 12.1374 13.0759C12.3198 12.8934 12.3198 12.5976 12.1374 12.4152C11.9549 12.2327 11.6591 12.2327 11.4767 12.4152Z" fill="#777777"/>
</g>
<defs>
<clipPath id="clip0">
<rect width="16" height="16" fill="white"/>
</clipPath>
</defs>
</svg>
