<svg width="16" height="16" viewBox="0 0 16 16" fill="none" xmlns="http://www.w3.org/2000/svg">
<path d="M8.51605 7.44159C8.19652 7.32866 7.84412 7.19297 7.65299 7.04309C7.62555 7.02159 7.60686 6.94766 7.62315 6.86125C7.63168 6.816 7.67102 6.66491 7.81924 6.62022C8.11043 6.5325 8.30705 6.64647 8.37812 6.69953C8.58546 6.85447 8.87921 6.81203 9.03421 6.60466C9.18918 6.39728 9.14671 6.10356 8.93934 5.94856C8.86549 5.89341 8.69137 5.77888 8.44265 5.70913V5.64453C8.44265 5.38566 8.23277 5.17578 7.9739 5.17578C7.71502 5.17578 7.50515 5.38566 7.50515 5.64453V5.73744C7.09239 5.87956 6.78633 6.23919 6.70183 6.68762C6.62074 7.11803 6.76349 7.53691 7.07436 7.78072C7.37136 8.01366 7.79258 8.18019 8.20355 8.32547C8.4693 8.41941 8.49621 8.61084 8.47202 8.75488C8.43774 8.95866 8.2663 9.17884 7.97077 9.18081C7.63677 9.18303 7.54943 9.16934 7.30158 9.00722C7.08496 8.8655 6.79443 8.92622 6.65271 9.14287C6.51099 9.35953 6.57171 9.65003 6.78836 9.79178C7.06099 9.97013 7.26946 10.0541 7.50511 10.0914V10.163C7.50511 10.4219 7.71499 10.6318 7.97387 10.6318C8.23274 10.6318 8.44262 10.4219 8.44262 10.163V10.0407C8.97631 9.85819 9.31737 9.38122 9.39653 8.91028C9.50646 8.25684 9.15259 7.66659 8.51605 7.44159Z" fill="#777777"/>
<path d="M15.5312 6.02806H14.4913C14.3592 5.60731 14.185 5.20103 13.9706 4.81372L14.9632 3.82763C15.0515 3.73988 15.1013 3.62063 15.1016 3.49612C15.1019 3.37166 15.0526 3.25213 14.9647 3.164L12.8438 1.03816C12.6612 0.855156 12.3649 0.854531 12.1815 1.03672L11.1358 2.07572C10.762 1.88416 10.3715 1.72766 9.9685 1.60791V0.46875C9.9685 0.209875 9.75863 0 9.49975 0H6.50025C6.24137 0 6.0315 0.209875 6.0315 0.46875V1.60791C5.6285 1.72766 5.23803 1.88416 4.86425 2.07572L3.81853 1.03672C3.63512 0.8545 3.33888 0.855156 3.15631 1.03816L1.03531 3.16397C0.947375 3.25209 0.898125 3.37162 0.898406 3.49609C0.898688 3.62059 0.948469 3.73988 1.03681 3.82759L2.02944 4.81369C1.81503 5.201 1.64081 5.60734 1.50875 6.02803H0.46875C0.209875 6.02803 0 6.23791 0 6.49678V9.50319C0 9.76206 0.209875 9.97194 0.46875 9.97194H1.50875C1.64081 10.3926 1.81503 10.799 2.02944 11.1862L1.03681 12.1723C0.948469 12.2601 0.898688 12.3793 0.898406 12.5038C0.898125 12.6283 0.947375 12.7478 1.03531 12.836L3.15628 14.9618C3.33884 15.1448 3.63513 15.1454 3.8185 14.9633L4.86422 13.9242C5.238 14.1158 5.6285 14.2723 6.03147 14.392V15.5312C6.03147 15.7901 6.24134 16 6.50022 16H9.49972C9.75859 16 9.96847 15.7901 9.96847 15.5312V14.3921C10.3715 14.2723 10.762 14.1158 11.1357 13.9242L12.1815 14.9633C12.3649 15.1455 12.6612 15.1448 12.8437 14.9618L14.9647 12.836C15.0526 12.7479 15.1018 12.6283 15.1016 12.5039C15.1013 12.3794 15.0515 12.2601 14.9632 12.1724L13.9705 11.1863C14.1849 10.7989 14.3592 10.3927 14.4912 9.97197H15.5312C15.7901 9.97197 16 9.76209 16 9.50322V6.49681C16 6.23794 15.7902 6.02806 15.5312 6.02806ZM15.0625 9.03447H14.1371C13.9225 9.03447 13.7354 9.18013 13.6827 9.38809C13.5374 9.96156 13.3027 10.5079 12.985 11.0119C12.8679 11.1977 12.8955 11.4397 13.0512 11.5944L13.9692 12.5064L12.5104 13.9686L11.5485 13.0128C11.398 12.8633 11.1658 12.8335 10.9825 12.9401C10.486 13.2288 9.9505 13.4429 9.39087 13.5766C9.17984 13.6269 9.03097 13.8155 9.03097 14.0325V15.0625H6.96897V14.0325C6.96897 13.8155 6.82009 13.6269 6.60909 13.5765C6.0495 13.4429 5.51403 13.2288 5.01753 12.9401C4.83413 12.8334 4.60197 12.8632 4.4515 13.0127L3.48956 13.9685L2.03078 12.5064L2.94878 11.5944C3.1045 11.4397 3.13203 11.1977 3.015 11.0119C2.69731 10.5078 2.46256 9.9615 2.31731 9.38806C2.26463 9.18009 2.07747 9.03444 1.86291 9.03444H0.9375V6.96553H1.86294C2.0775 6.96553 2.26466 6.81987 2.31734 6.61191C2.46256 6.03847 2.69731 5.49213 3.01503 4.98803C3.13209 4.80231 3.10456 4.56025 2.94881 4.40553L2.03078 3.49356L3.48956 2.03144L4.4515 2.98719C4.602 3.13669 4.83409 3.16653 5.01753 3.05988C5.51403 2.77119 6.0495 2.55703 6.60909 2.42341C6.82009 2.37303 6.96897 2.18444 6.96897 1.96747V0.9375H9.03097V1.9675C9.03097 2.18444 9.17984 2.37306 9.39087 2.42344C9.95047 2.55706 10.486 2.77122 10.9825 3.05991C11.1658 3.16653 11.398 3.13675 11.5485 2.98722L12.5104 2.03147L13.9692 3.49359L13.0512 4.40556C12.8955 4.56025 12.8679 4.80231 12.985 4.98806C13.3027 5.49213 13.5374 6.03847 13.6827 6.61194C13.7354 6.81991 13.9225 6.96556 14.1371 6.96556H15.0625V9.03447Z" fill="#777777"/>
<path d="M8.02794 3.44336C5.50753 3.44336 3.45703 5.51011 3.45703 8.05048C3.45703 10.5909 5.50753 12.6576 8.02794 12.6576C10.5483 12.6576 12.5988 10.5909 12.5988 8.05048C12.5988 5.51011 10.5483 3.44336 8.02794 3.44336ZM8.02794 11.7201C6.02447 11.7201 4.39453 10.0739 4.39453 8.05045C4.39453 6.02702 6.02447 4.38083 8.02794 4.38083C10.0314 4.38083 11.6613 6.02702 11.6613 8.05045C11.6613 10.0739 10.0314 11.7201 8.02794 11.7201Z" fill="#777777"/>
</svg>
