<svg width="18" height="18" viewBox="0 0 18 18" fill="none" xmlns="http://www.w3.org/2000/svg">
<path d="M5.375 12.9375C5.375 12.0759 4.67406 11.375 3.8125 11.375C2.95094 11.375 2.25 12.0759 2.25 12.9375C2.25 13.7991 2.95094 14.5 3.8125 14.5C4.67406 14.5 5.375 13.7991 5.375 12.9375ZM3.8125 13.875C3.29556 13.875 2.875 13.4544 2.875 12.9375C2.875 12.4206 3.29556 12 3.8125 12C4.32944 12 4.75 12.4206 4.75 12.9375C4.75 13.4544 4.32944 13.875 3.8125 13.875Z" fill="#777777" stroke="#777777" stroke-width="0.5"/>
<path d="M10.5625 12.9375C10.5625 12.0759 9.86156 11.375 9 11.375C8.13844 11.375 7.4375 12.0759 7.4375 12.9375C7.4375 13.7991 8.13844 14.5 9 14.5C9.86156 14.5 10.5625 13.7991 10.5625 12.9375ZM9 13.875C8.48306 13.875 8.0625 13.4544 8.0625 12.9375C8.0625 12.4206 8.48306 12 9 12C9.51694 12 9.9375 12.4206 9.9375 12.9375C9.9375 13.4544 9.51694 13.875 9 13.875Z" fill="#777777" stroke="#777777" stroke-width="0.5"/>
<path d="M15.75 12.9375C15.75 12.0759 15.0491 11.375 14.1875 11.375C13.3259 11.375 12.625 12.0759 12.625 12.9375C12.625 13.7991 13.3259 14.5 14.1875 14.5C15.0491 14.5 15.75 13.7991 15.75 12.9375ZM14.1875 13.875C13.6706 13.875 13.25 13.4544 13.25 12.9375C13.25 12.4206 13.6706 12 14.1875 12C14.7044 12 15.125 12.4206 15.125 12.9375C15.125 13.4544 14.7044 13.875 14.1875 13.875Z" fill="#777777" stroke="#777777" stroke-width="0.5"/>
<path d="M14.8125 14.5H13.5625C12.7676 14.5 12.0706 14.9263 11.6875 15.5621C11.3044 14.9263 10.6074 14.5 9.8125 14.5H8.1875C7.39262 14.5 6.69556 14.9263 6.3125 15.5621C5.92944 14.9263 5.23238 14.5 4.4375 14.5H3.1875C1.98131 14.5 1 15.4813 1 16.6875C1 16.8601 1.13991 17 1.3125 17H7.59375C7.76634 17 7.90625 16.8601 7.90625 16.6875C7.90625 16.5149 7.76634 16.375 7.59375 16.375H6.65637C6.80156 15.6627 7.43294 15.125 8.1875 15.125H9.8125C10.5671 15.125 11.1984 15.6627 11.3436 16.375H10.4062C10.2337 16.375 10.0938 16.5149 10.0938 16.6875C10.0938 16.8601 10.2337 17 10.4062 17H16.6875C16.8601 17 17 16.8601 17 16.6875C17 15.4813 16.0187 14.5 14.8125 14.5ZM1.65641 16.375C1.80159 15.6627 2.43297 15.125 3.18753 15.125H4.43753C5.19209 15.125 5.82344 15.6627 5.96866 16.375H1.65641ZM12.0314 16.375C12.1766 15.6627 12.808 15.125 13.5625 15.125H14.8125C15.5671 15.125 16.1984 15.6627 16.3437 16.375H12.0314Z" fill="#777777" stroke="#777777" stroke-width="0.5"/>
<path d="M13.6875 8.18748V9.43748C13.6875 9.61005 13.8274 9.74998 14 9.74998H15.25C15.4226 9.74998 15.5625 9.61005 15.5625 9.43748V8.18748C15.5625 7.78011 15.3012 7.43273 14.9375 7.30373V3.81248C14.9375 3.60077 14.7508 3.52783 14.7477 3.52508C14.7472 3.52486 14.7467 3.52458 14.7461 3.52436L9.12694 1.02695C9.04613 0.991016 8.95391 0.991016 8.87309 1.02695L3.24809 3.52695C3.13525 3.57708 3.0625 3.68898 3.0625 3.81248C3.0625 3.93595 3.13522 4.04789 3.24806 4.09805L5.5625 5.1267V6.97533C5.5625 7.09883 5.63525 7.21073 5.74809 7.26092L8.87309 8.64967C8.91347 8.66761 8.95675 8.67658 9 8.67658C9.04325 8.67658 9.08653 8.66761 9.12691 8.64967L12.2519 7.26092C12.3647 7.21077 12.4375 7.09883 12.4375 6.97533V5.1267L14.3125 4.29336V7.30377C13.9488 7.43277 13.6875 7.78011 13.6875 8.18748ZM14.9375 9.12498H14.3125V8.18748C14.3125 8.01517 14.4527 7.87498 14.625 7.87498C14.7973 7.87498 14.9375 8.01517 14.9375 8.18748V9.12498ZM9 1.65448L13.1524 3.49998H9C8.82741 3.49998 8.6875 3.63992 8.6875 3.81248C8.6875 3.98505 8.82741 4.12498 9 4.12498H13.1525L9 5.97052L4.14441 3.81252L9 1.65448ZM11.8125 6.7722L9 8.02208L6.1875 6.7722V5.40445L8.87309 6.59805C8.91347 6.61598 8.95675 6.62495 9 6.62495C9.04325 6.62495 9.08653 6.61598 9.12691 6.59805L11.8125 5.40448V6.7722Z" fill="#777777" stroke="#777777" stroke-width="0.5"/>
<path d="M9 17C9.17259 17 9.3125 16.8601 9.3125 16.6875C9.3125 16.5149 9.17259 16.375 9 16.375C8.82741 16.375 8.6875 16.5149 8.6875 16.6875C8.6875 16.8601 8.82741 17 9 17Z" fill="#777777" stroke="#777777" stroke-width="0.5"/>
</svg>
