<svg width="18" height="18" viewBox="0 0 18 18" fill="none" xmlns="http://www.w3.org/2000/svg">
<path d="M9.8 17H8.2C7.98783 17 7.78434 16.9157 7.63432 16.7657C7.48429 16.6157 7.4 16.4122 7.4 16.2V15.1947C6.8203 15.047 6.26459 14.8175 5.7496 14.5131L5.04027 15.2221C4.88785 15.3675 4.6853 15.4486 4.47467 15.4486C4.26403 15.4486 4.06149 15.3675 3.90907 15.2221L2.77787 14.0909C2.62789 13.9409 2.54364 13.7375 2.54364 13.5253C2.54364 13.3132 2.62789 13.1098 2.77787 12.9597L3.48667 12.2507C3.18245 11.7355 2.95296 11.1797 2.80507 10.6H1.8C1.58783 10.6 1.38434 10.5157 1.23431 10.3657C1.08429 10.2157 1 10.0122 1 9.8V8.2C1 7.98783 1.08429 7.78434 1.23431 7.63432C1.38434 7.48429 1.58783 7.4 1.8 7.4H2.80507C2.95296 6.82028 3.18245 6.26451 3.48667 5.74933L2.77787 5.04027C2.62789 4.89024 2.54364 4.6868 2.54364 4.47467C2.54364 4.26254 2.62789 4.05909 2.77787 3.90907L3.90907 2.77787C4.06149 2.63249 4.26403 2.55138 4.47467 2.55138C4.6853 2.55138 4.88785 2.63249 5.04027 2.77787L5.7496 3.48693C6.26459 3.18255 6.8203 2.95304 7.4 2.80533V1.8C7.4 1.58783 7.48429 1.38434 7.63432 1.23431C7.78434 1.08429 7.98783 1 8.2 1H9.8C10.0122 1 10.2157 1.08429 10.3657 1.23431C10.5157 1.38434 10.6 1.58783 10.6 1.8V2.80533C11.1797 2.95304 11.7354 3.18255 12.2504 3.48693L12.9597 2.77787C13.1122 2.63249 13.3147 2.55138 13.5253 2.55138C13.736 2.55138 13.9385 2.63249 14.0909 2.77787L15.2221 3.90907C15.3721 4.05909 15.4564 4.26254 15.4564 4.47467C15.4564 4.6868 15.3721 4.89024 15.2221 5.04027L14.5133 5.74933C14.8175 6.26451 15.047 6.82028 15.1949 7.4H16.2C16.4122 7.4 16.6157 7.48429 16.7657 7.63432C16.9157 7.78434 17 7.98783 17 8.2V9.8C17 10.0122 16.9157 10.2157 16.7657 10.3657C16.6157 10.5157 16.4122 10.6 16.2 10.6H15.1949C15.047 11.1797 14.8175 11.7355 14.5133 12.2507L15.2221 12.9597C15.3721 13.1098 15.4564 13.3132 15.4564 13.5253C15.4564 13.7375 15.3721 13.9409 15.2221 14.0909L14.0909 15.2221C13.9385 15.3675 13.736 15.4486 13.5253 15.4486C13.3147 15.4486 13.1122 15.3675 12.9597 15.2221L12.2504 14.5131C11.7354 14.8175 11.1797 15.047 10.6 15.1947V16.2C10.6 16.4122 10.5157 16.6157 10.3657 16.7657C10.2157 16.9157 10.0122 17 9.8 17ZM5.70933 13.9093C5.75997 13.9093 5.80957 13.9237 5.85227 13.9509C6.42584 14.3166 7.05934 14.5784 7.72373 14.7243C7.78301 14.7373 7.83608 14.7701 7.87419 14.8173C7.9123 14.8645 7.93316 14.9233 7.93333 14.984V16.2C7.93333 16.2707 7.96143 16.3386 8.01144 16.3886C8.06145 16.4386 8.12928 16.4667 8.2 16.4667H9.8C9.87072 16.4667 9.93855 16.4386 9.98856 16.3886C10.0386 16.3386 10.0667 16.2707 10.0667 16.2V14.984C10.0667 14.9232 10.0874 14.8642 10.1256 14.8168C10.1637 14.7694 10.2169 14.7365 10.2763 14.7235C10.9407 14.5776 11.5742 14.3158 12.1477 13.9501C12.1989 13.9176 12.2596 13.9036 12.3199 13.9102C12.3801 13.9168 12.4363 13.9438 12.4792 13.9867L13.3368 14.8443C13.3876 14.8927 13.4551 14.9197 13.5253 14.9197C13.5955 14.9197 13.663 14.8927 13.7139 14.8443L14.8451 13.7131C14.8951 13.6631 14.9231 13.5952 14.9231 13.5245C14.9231 13.4538 14.8951 13.386 14.8451 13.336L13.9867 12.4792C13.9438 12.4363 13.9168 12.3801 13.9102 12.3199C13.9036 12.2596 13.9176 12.1989 13.9501 12.1477C14.3157 11.5741 14.5775 10.9406 14.7235 10.2763C14.7365 10.2169 14.7694 10.1637 14.8168 10.1256C14.8642 10.0874 14.9232 10.0667 14.984 10.0667H16.2C16.2707 10.0667 16.3386 10.0386 16.3886 9.98856C16.4386 9.93855 16.4667 9.87072 16.4667 9.8V8.2C16.4667 8.12928 16.4386 8.06145 16.3886 8.01144C16.3386 7.96143 16.2707 7.93333 16.2 7.93333H14.984C14.9232 7.93328 14.8643 7.91248 14.817 7.87436C14.7696 7.83624 14.7367 7.7831 14.7237 7.72373C14.5778 7.05937 14.316 6.42588 13.9504 5.85227C13.9179 5.80109 13.9038 5.74037 13.9105 5.68012C13.9171 5.61986 13.9441 5.56367 13.9869 5.5208L14.8445 4.6632C14.8945 4.61319 14.9226 4.54538 14.9226 4.47467C14.9226 4.40396 14.8945 4.33614 14.8445 4.28613L13.7133 3.15493C13.6625 3.10645 13.595 3.0794 13.5248 3.0794C13.4546 3.0794 13.3871 3.10645 13.3363 3.15493L12.4792 4.01333C12.4363 4.05619 12.3801 4.08316 12.3199 4.0898C12.2596 4.09645 12.1989 4.08236 12.1477 4.04987C11.5742 3.6842 10.9407 3.42242 10.2763 3.27653C10.2169 3.26352 10.1637 3.23059 10.1256 3.1832C10.0874 3.13581 10.0667 3.07682 10.0667 3.016V1.8C10.0667 1.72928 10.0386 1.66145 9.98856 1.61144C9.93855 1.56143 9.87072 1.53333 9.8 1.53333H8.2C8.12928 1.53333 8.06145 1.56143 8.01144 1.61144C7.96143 1.66145 7.93333 1.72928 7.93333 1.8V3.016C7.93334 3.07682 7.91256 3.13581 7.87444 3.1832C7.83632 3.23059 7.78314 3.26352 7.72373 3.27653C7.05934 3.42242 6.42584 3.6842 5.85227 4.04987C5.80109 4.08236 5.74037 4.09645 5.68012 4.0898C5.61986 4.08316 5.56367 4.05619 5.5208 4.01333L4.6632 3.15573C4.61237 3.10731 4.54487 3.0803 4.47467 3.0803C4.40447 3.0803 4.33696 3.10731 4.28613 3.15573L3.15493 4.28693C3.10494 4.33694 3.07686 4.40476 3.07686 4.47547C3.07686 4.54618 3.10494 4.61399 3.15493 4.664L4.01333 5.5208C4.05619 5.56367 4.08316 5.61986 4.0898 5.68012C4.09645 5.74037 4.08236 5.80109 4.04987 5.85227C3.68427 6.42588 3.4225 7.05937 3.27653 7.72373C3.26352 7.78314 3.23059 7.83632 3.1832 7.87444C3.13581 7.91256 3.07682 7.93334 3.016 7.93333H1.8C1.72928 7.93333 1.66145 7.96143 1.61144 8.01144C1.56143 8.06145 1.53333 8.12928 1.53333 8.2V9.8C1.53333 9.87072 1.56143 9.93855 1.61144 9.98856C1.66145 10.0386 1.72928 10.0667 1.8 10.0667H3.016C3.07677 10.0667 3.1357 10.0875 3.18304 10.1256C3.23037 10.1638 3.26326 10.2169 3.27627 10.2763C3.42224 10.9406 3.68401 11.5741 4.0496 12.1477C4.08209 12.1989 4.09618 12.2596 4.08954 12.3199C4.0829 12.3801 4.05592 12.4363 4.01307 12.4792L3.15547 13.3368C3.10547 13.3868 3.07739 13.4546 3.07739 13.5253C3.07739 13.596 3.10547 13.6639 3.15547 13.7139L4.28667 14.8451C4.3374 14.8937 4.40494 14.9208 4.4752 14.9208C4.54546 14.9208 4.613 14.8937 4.66373 14.8451L5.5208 13.9867C5.57093 13.9369 5.63873 13.9091 5.70933 13.9093Z" fill="#777777" stroke="#777777" stroke-width="0.3"/>
<path d="M8.99922 13.8002C8.04987 13.8002 7.12184 13.5187 6.33248 12.9913C5.54313 12.4638 4.9279 11.7142 4.5646 10.8371C4.2013 9.95999 4.10624 8.99487 4.29145 8.06376C4.47666 7.13266 4.93382 6.27738 5.60511 5.60608C6.2764 4.93479 7.13168 4.47764 8.06279 4.29243C8.9939 4.10722 9.95902 4.20228 10.8361 4.56558C11.7132 4.92888 12.4628 5.5441 12.9903 6.33346C13.5177 7.12282 13.7992 8.05085 13.7992 9.0002C13.7977 10.2728 13.2915 11.4928 12.3917 12.3927C11.4918 13.2925 10.2718 13.7987 8.99922 13.8002ZM8.99922 4.73353C8.15535 4.73353 7.33044 4.98377 6.62879 5.45259C5.92714 5.92142 5.38027 6.58778 5.05734 7.36741C4.7344 8.14705 4.64991 9.00493 4.81454 9.83258C4.97917 10.6602 5.38553 11.4205 5.98223 12.0172C6.57894 12.6139 7.33918 13.0203 8.16684 13.1849C8.99449 13.3495 9.85237 13.265 10.632 12.9421C11.4116 12.6192 12.078 12.0723 12.5468 11.3706C13.0157 10.669 13.2659 9.84406 13.2659 9.0002C13.2645 7.86902 12.8146 6.78455 12.0147 5.98469C11.2149 5.18482 10.1304 4.73487 8.99922 4.73353Z" fill="#777777" stroke="#777777" stroke-width="0.3"/>
<path d="M11.8024 6.90362L9.13574 5.30362C9.09473 5.27877 9.0477 5.26562 8.99974 5.26562C8.95179 5.26562 8.90475 5.27877 8.86374 5.30362L6.19708 6.90362C6.15709 6.92702 6.12396 6.96053 6.10103 7.00078C6.07809 7.04104 6.06615 7.08662 6.06641 7.13295V11.6663C6.06641 11.737 6.09451 11.8048 6.14452 11.8548C6.19452 11.9049 6.26235 11.933 6.33308 11.933H11.6664C11.7371 11.933 11.805 11.9049 11.855 11.8548C11.905 11.8048 11.9331 11.737 11.9331 11.6663V7.13295C11.9333 7.08662 11.9214 7.04104 11.8985 7.00078C11.8755 6.96053 11.8424 6.92702 11.8024 6.90362ZM10.0664 11.3996H7.93308V11.133H10.0664V11.3996ZM7.39974 8.99962V8.73295H10.5997V8.99962H7.39974ZM10.0664 10.5996H7.93308V10.333H10.0664V10.5996ZM10.0664 9.79962H7.93308V9.53295H10.0664V9.79962ZM11.3997 11.3996H10.5997V9.53295H10.8664C10.9371 9.53295 11.005 9.50486 11.055 9.45485C11.105 9.40484 11.1331 9.33701 11.1331 9.26629V8.46629C11.1331 8.39556 11.105 8.32773 11.055 8.27772C11.005 8.22771 10.9371 8.19962 10.8664 8.19962H7.13308C7.06235 8.19962 6.99452 8.22771 6.94452 8.27772C6.89451 8.32773 6.86641 8.39556 6.86641 8.46629V9.26629C6.86641 9.33701 6.89451 9.40484 6.94452 9.45485C6.99452 9.50486 7.06235 9.53295 7.13308 9.53295H7.39974V11.3996H6.59974V7.28495L8.99974 5.84495L11.3997 7.28495V11.3996Z" fill="#777777"/>
<path d="M8.19922 7.13301C8.19922 7.29123 8.24614 7.4459 8.33404 7.57746C8.42195 7.70902 8.54689 7.81156 8.69307 7.87211C8.83926 7.93266 9.00011 7.9485 9.1553 7.91763C9.31048 7.88676 9.45303 7.81057 9.56491 7.69869C9.67679 7.58681 9.75299 7.44426 9.78385 7.28908C9.81472 7.13389 9.79888 6.97304 9.73833 6.82686C9.67778 6.68068 9.57524 6.55574 9.44368 6.46783C9.31212 6.37993 9.15745 6.33301 8.99922 6.33301C8.78705 6.33301 8.58356 6.41729 8.43353 6.56732C8.2835 6.71735 8.19922 6.92083 8.19922 7.13301ZM9.26589 7.13301C9.26589 7.18575 9.25025 7.2373 9.22095 7.28116C9.19165 7.32501 9.15 7.35919 9.10127 7.37937C9.05254 7.39956 8.99893 7.40484 8.9472 7.39455C8.89547 7.38426 8.84795 7.35886 8.81066 7.32157C8.77337 7.28427 8.74797 7.23676 8.73768 7.18503C8.72739 7.1333 8.73267 7.07968 8.75285 7.03096C8.77304 6.98223 8.80722 6.94058 8.85107 6.91128C8.89492 6.88198 8.94648 6.86634 8.99922 6.86634C9.06995 6.86634 9.13778 6.89443 9.18779 6.94444C9.2378 6.99445 9.26589 7.06228 9.26589 7.13301Z" fill="#777777"/>
</svg>
