<svg width="16" height="16" viewBox="0 0 16 16" fill="none" xmlns="http://www.w3.org/2000/svg">
<path d="M6.15625 1.9375H4.28125C4.02237 1.9375 3.8125 2.14737 3.8125 2.40625V4.28125C3.8125 4.54012 4.02237 4.75 4.28125 4.75H6.15625C6.41512 4.75 6.625 4.54012 6.625 4.28125V2.40625C6.625 2.14737 6.41512 1.9375 6.15625 1.9375ZM5.6875 3.8125H4.75V2.875H5.6875V3.8125Z" fill="#777777"/>
<path d="M8.03125 4.75H9.90625C10.1651 4.75 10.375 4.54013 10.375 4.28125C10.375 4.02237 10.1651 3.8125 9.90625 3.8125H8.03125C7.77237 3.8125 7.5625 4.02237 7.5625 4.28125C7.5625 4.54013 7.77237 4.75 8.03125 4.75Z" fill="#777777"/>
<path d="M8.03125 2.875H11.1562C11.4151 2.875 11.625 2.66513 11.625 2.40625C11.625 2.14737 11.4151 1.9375 11.1562 1.9375H8.03125C7.77237 1.9375 7.5625 2.14737 7.5625 2.40625C7.5625 2.66513 7.77237 2.875 8.03125 2.875Z" fill="#777777"/>
<path d="M6.15625 5.6875H4.28125C4.02237 5.6875 3.8125 5.89737 3.8125 6.15625V8.03125C3.8125 8.29012 4.02237 8.5 4.28125 8.5H6.15625C6.41512 8.5 6.625 8.29012 6.625 8.03125V6.15625C6.625 5.89737 6.41512 5.6875 6.15625 5.6875ZM5.6875 7.5625H4.75V6.625H5.6875V7.5625Z" fill="#777777"/>
<path d="M8.03125 6.625H11.1562C11.4151 6.625 11.625 6.41513 11.625 6.15625C11.625 5.89737 11.4151 5.6875 11.1562 5.6875H8.03125C7.77237 5.6875 7.5625 5.89737 7.5625 6.15625C7.5625 6.41513 7.77237 6.625 8.03125 6.625Z" fill="#777777"/>
<path d="M6.15625 9.4375H4.28125C4.02237 9.4375 3.8125 9.64737 3.8125 9.90625V11.7812C3.8125 12.0401 4.02237 12.25 4.28125 12.25H6.15625C6.41512 12.25 6.625 12.0401 6.625 11.7812V9.90625C6.625 9.64737 6.41512 9.4375 6.15625 9.4375ZM5.6875 11.3125H4.75V10.375H5.6875V11.3125Z" fill="#777777"/>
<path d="M12.3779 9.89636C12.1994 9.71789 11.9087 9.70148 11.7221 9.87133C11.5228 10.0527 11.5173 10.3615 11.7057 10.5499L12.3686 11.2128C12.5516 11.3959 12.8484 11.3959 13.0315 11.2128L14.3573 9.88698C14.5457 9.69861 14.5402 9.38979 14.3409 9.20842C14.1542 9.03854 13.8635 9.05498 13.685 9.23345L12.7 10.2185L12.3779 9.89636Z" fill="#777777"/>
<path d="M15.6958 7.59234L13.5 6.76891V0.46875C13.5 0.209875 13.2901 0 13.0312 0H2.40625C2.14738 0 1.9375 0.209875 1.9375 0.46875V1.875H0.46875C0.209875 1.875 0 2.08488 0 2.34375V15.5312C0 15.7901 0.209875 16 0.46875 16H11.0938C11.3526 16 11.5625 15.7901 11.5625 15.5312V14.125H12.2597C12.4532 14.2339 12.6558 14.3286 12.8667 14.4077C12.9197 14.4276 12.9755 14.4375 13.0312 14.4375C13.087 14.4375 13.1428 14.4276 13.1958 14.4077C14.0234 14.0973 14.727 13.5493 15.2304 12.8228C15.7339 12.0963 16 11.2451 16 10.3612V8.03125C16 7.83588 15.8788 7.66094 15.6958 7.59234ZM10.625 15.0625H0.9375V2.8125H1.9375V13.6562C1.9375 13.9151 2.14738 14.125 2.40625 14.125H10.625V15.0625ZM2.875 13.1875V0.9375H12.5625V6.76891L10.4462 7.5625H8.03125C7.77238 7.5625 7.5625 7.77238 7.5625 8.03125C7.5625 8.29012 7.77238 8.5 8.03125 8.5H10.0625V9.4375H8.03125C7.77238 9.4375 7.5625 9.64738 7.5625 9.90625C7.5625 10.1651 7.77238 10.375 8.03125 10.375H10.0627C10.0638 10.6932 10.0994 11.0072 10.1681 11.3125H8.03125C7.77238 11.3125 7.5625 11.5224 7.5625 11.7812C7.5625 12.0401 7.77238 12.25 8.03125 12.25H10.4966C10.593 12.4479 10.7049 12.6393 10.8321 12.8228C10.9202 12.9501 11.0149 13.0715 11.115 13.1875H2.875ZM15.0625 10.3612C15.0625 11.7046 14.2533 12.9292 13.0312 13.4631C11.8092 12.9292 11 11.7046 11 10.3612V8.35609L13.0312 7.59438L15.0625 8.35609V10.3612Z" fill="#777777"/>
</svg>
