<svg width="20" height="20" viewBox="0 0 20 20" fill="none" xmlns="http://www.w3.org/2000/svg">
<path fill-rule="evenodd" clip-rule="evenodd" d="M1.66663 3.74992C1.66663 2.59935 2.59935 1.66663 3.74992 1.66663C4.90049 1.66663 5.83321 2.59935 5.83321 3.74992C5.83321 4.89719 4.90584 5.82786 3.75983 5.83319L3.74958 5.83313L3.73952 5.83319C2.59374 5.82759 1.66663 4.89702 1.66663 3.74992ZM7.49985 3.74992C7.49985 5.53467 6.25302 7.0282 4.58289 7.407V7.49997C4.58289 7.71884 4.626 7.93556 4.70976 8.13777C4.79352 8.33998 4.91629 8.52371 5.07105 8.67847C5.22581 8.83323 5.40955 8.95599 5.61176 9.03975C5.81397 9.1235 6.03069 9.16661 6.24956 9.1666L13.7494 9.16645C14.1914 9.16644 14.6153 8.99085 14.9279 8.67829C15.2404 8.36574 15.416 7.94183 15.416 7.49982V7.40679C13.7464 7.02763 12.5 5.53433 12.5 3.74992C12.5 1.6789 14.1789 0 16.2499 0C18.3209 0 19.9998 1.6789 19.9998 3.74992C19.9998 5.53476 18.7529 7.02835 17.0826 7.40706V7.49982C17.0826 8.38384 16.7315 9.23166 16.1064 9.85677C15.4813 10.4819 14.6335 10.8331 13.7494 10.8331L10.8331 10.8331L10.8329 12.5929C12.5031 12.9717 13.7498 14.4652 13.7498 16.2499C13.7498 18.3209 12.0709 19.9998 9.99992 19.9998C7.9289 19.9998 6.25 18.3209 6.25 16.2499C6.25 14.4654 7.49651 12.972 9.16632 12.593L9.16645 10.8332L6.24959 10.8332C5.81186 10.8332 5.37841 10.747 4.97399 10.5795C4.56957 10.412 4.20211 10.1665 3.89257 9.85697C3.58305 9.54745 3.33751 9.17999 3.17 8.77557C3.00248 8.37116 2.91626 7.93771 2.91626 7.49997V7.40685C1.24648 7.02779 0 5.53442 0 3.74992C0 1.6789 1.6789 0 3.74992 0C5.82095 0 7.49985 1.6789 7.49985 3.74992ZM9.98685 14.1667C8.84229 14.1737 7.91663 15.1037 7.91663 16.2499C7.91663 17.4005 8.84935 18.3332 9.99992 18.3332C11.1505 18.3332 12.0832 17.4005 12.0832 16.2499C12.0832 15.1036 11.1573 14.1734 10.0125 14.1667C10.0082 14.1667 10.0039 14.1668 9.99951 14.1668C9.99528 14.1668 9.99106 14.1667 9.98685 14.1667ZM16.2493 5.83313L16.2596 5.83319C17.4057 5.82795 18.3332 4.89725 18.3332 3.74992C18.3332 2.59935 17.4005 1.66663 16.2499 1.66663C15.0994 1.66663 14.1666 2.59935 14.1666 3.74992C14.1666 4.89701 15.0937 5.82757 16.2395 5.83319L16.2493 5.83313Z" fill="white"/>
</svg>
