<svg width="16" height="16" viewBox="0 0 16 16" fill="none" xmlns="http://www.w3.org/2000/svg">
<path d="M15.5555 1.66666C15.5555 0.883313 15.8924 0.55 15.8924 0.55C16.0062 0.452 16.0311 0.312656 15.9591 0.194C15.8871 0.0753438 15.7289 0 15.5555 0H2.22221C0.997333 0 0 0.747344 0 1.66666C0 2.586 0.997333 3.33331 2.22221 3.33331H15.5555C15.7253 3.33331 15.8782 3.25797 15.952 3.14266C16.0267 3.028 16.0035 2.88866 15.8987 2.78866C15.8951 2.78534 15.5555 2.452 15.5555 1.66666ZM14.8525 2.66666H2.22221C1.48708 2.66666 0.888875 2.218 0.888875 1.66666C0.888875 1.11531 1.48708 0.666656 2.22221 0.666656H14.8524C14.7502 0.91 14.6666 1.23931 14.6666 1.66666C14.6667 2.094 14.7502 2.42334 14.8525 2.66666Z" fill="#777777"/>
<path d="M14.6682 1.33301H2.22376C1.97842 1.33301 1.7793 1.48235 1.7793 1.66635C1.7793 1.85035 1.97842 1.99966 2.22376 1.99966H14.6682C14.9135 1.99966 15.1127 1.85032 15.1127 1.66632C15.1127 1.48232 14.9135 1.33301 14.6682 1.33301Z" fill="#777777"/>
<path d="M15.5555 2.66635C15.3102 2.66635 15.1111 2.8157 15.1111 2.9997V15.333H2.22221C1.48708 15.333 0.888875 14.8844 0.888875 14.333V1.66635C0.888875 1.48235 0.68975 1.33301 0.444417 1.33301C0.199083 1.33301 0 1.48235 0 1.66635V14.333C0 15.2524 0.997333 15.9997 2.22221 15.9997H15.5555C15.8009 15.9997 16 15.8504 16 15.6664V2.9997C16 2.8157 15.8009 2.66635 15.5555 2.66635Z" fill="#777777"/>
<path d="M8 14C10.2091 14 12 12.2091 12 10C12 7.79086 10.2091 6 8 6C5.79086 6 4 7.79086 4 10C4 12.2091 5.79086 14 8 14Z" stroke="#777777" stroke-width="0.7" stroke-linecap="round" stroke-linejoin="round"/>
<path d="M6.39961 10C6.39961 12.2091 7.11595 14 7.99961 14C8.88327 14 9.59961 12.2091 9.59961 10C9.59961 7.79086 8.88327 6 7.99961 6C7.11595 6 6.39961 7.79086 6.39961 10Z" stroke="#777777" stroke-width="0.7" stroke-linecap="round" stroke-linejoin="round"/>
<path d="M4 10H12" stroke="#777777" stroke-width="0.7" stroke-linecap="round" stroke-linejoin="round"/>
</svg>
