<svg width="18" height="18" viewBox="0 0 18 18" fill="none" xmlns="http://www.w3.org/2000/svg">
<path d="M8.38209 11.8744C8.50427 11.752 8.50427 11.5538 8.38209 11.4314C8.25978 11.3093 8.06164 11.3093 7.9392 11.4314C7.81714 11.5538 7.81714 11.752 7.9392 11.8744C8.06164 11.9965 8.25978 11.9965 8.38209 11.8744Z" fill="#777777" stroke="#888888" stroke-width="0.5"/>
<path d="M6.90039 4.44325C6.90039 6.34185 8.44503 7.88662 10.3436 7.88662C12.2422 7.88662 13.7869 6.34185 13.7869 4.44325C13.7869 2.54464 12.2422 1 10.3436 1C8.44503 1 6.90039 2.54464 6.90039 4.44325ZM13.1609 4.44325C13.1609 5.9967 11.8971 7.26052 10.3436 7.26052C8.79019 7.26052 7.52637 5.9967 7.52637 4.44325C7.52637 2.88992 8.79019 1.6261 10.3436 1.6261C11.8971 1.6261 13.1609 2.88992 13.1609 4.44325Z" fill="#777777" stroke="#888888" stroke-width="0.5"/>
<path d="M4.6231 16.9392C4.74443 17.0615 4.94196 17.0629 5.06488 16.9418L6.58249 15.4467C6.84032 15.1888 6.91872 14.8071 6.80534 14.4753L7.13178 14.1605C7.30754 13.9907 7.53895 13.8971 7.78357 13.8971H11.9449C12.6832 13.8971 13.3809 13.6136 13.9099 13.0988C13.9317 13.0777 13.7447 13.2979 16.7488 9.70742C17.1944 9.18027 17.1277 8.38869 16.6001 7.94262C16.0758 7.50072 15.2903 7.5642 14.8435 8.0823L12.9964 9.98078C12.7631 9.69372 12.4075 9.51479 12.0232 9.51479H8.53259C8.03589 9.30698 7.50886 9.2018 6.96508 9.2018C5.45774 9.2018 4.14157 9.89798 3.43523 11.2033C3.13766 11.1469 2.82381 11.2369 2.59803 11.4627L1.10891 12.9562C0.987337 13.0781 0.987093 13.2754 1.10842 13.3977L4.6231 16.9392ZM6.96495 9.82778C7.44441 9.82778 7.90796 9.92428 8.34301 10.1146C8.38264 10.132 8.42533 10.1409 8.4685 10.1409H12.0232C12.3626 10.1409 12.6493 10.4177 12.6493 10.7669C12.6493 11.1121 12.3685 11.393 12.0232 11.393H9.46924C9.29641 11.393 9.15625 11.5331 9.15625 11.706C9.15625 11.8789 9.29641 12.0189 9.46924 12.0189H12.0232C12.7136 12.0189 13.2753 11.4573 13.2753 10.7669C13.2753 10.7118 13.2713 10.6573 13.2642 10.6032C15.0511 8.7665 15.303 8.50843 15.3138 8.49558C15.5369 8.23225 15.9329 8.19886 16.1964 8.42097C16.4601 8.64394 16.4935 9.03974 16.2697 9.30454L13.4621 12.6609C13.0522 13.0545 12.5139 13.2711 11.9449 13.2711H7.78357C7.37579 13.2711 6.98978 13.4271 6.69698 13.71L6.43095 13.9667L3.97865 11.5145C4.55179 10.4393 5.62726 9.82778 6.96495 9.82778ZM3.04103 11.9051C3.14426 11.8018 3.30277 11.7833 3.42863 11.861C3.48281 11.8941 3.32723 11.7524 6.13986 14.5611C6.26498 14.6863 6.25825 14.8856 6.14157 15.0023L4.84778 16.2769L1.77207 13.1777L3.04103 11.9051Z" fill="#777777" stroke="#888888" stroke-width="0.5"/>
<path d="M9.96838 2.56506V2.93187C9.60402 3.06103 9.34227 3.409 9.34227 3.81714C9.34227 4.33488 9.76351 4.75623 10.2814 4.75623C10.4539 4.75623 10.5944 4.89664 10.5944 5.06922C10.5944 5.2418 10.4539 5.38221 10.2814 5.38221C10.1477 5.38221 10.0032 5.29819 9.87493 5.14542C9.76363 5.01308 9.56622 4.99608 9.43388 5.10726C9.30155 5.21856 9.28442 5.41597 9.39572 5.54831C9.56304 5.74731 9.75984 5.886 9.96838 5.95596V6.3213C9.96838 6.49425 10.1085 6.63429 10.2814 6.63429C10.4542 6.63429 10.5944 6.49425 10.5944 6.3213V5.9545C10.9587 5.82522 11.2205 5.47725 11.2205 5.06922C11.2205 4.55137 10.7992 4.13013 10.2814 4.13013C10.1088 4.13013 9.96838 3.98972 9.96838 3.81714C9.96838 3.64457 10.1088 3.50403 10.2814 3.50403C10.3923 3.50403 10.5094 3.56066 10.6199 3.66768C10.7442 3.78791 10.9423 3.78461 11.0626 3.66047C11.1828 3.5362 11.1795 3.33806 11.0553 3.21783C10.8965 3.06409 10.7375 2.97712 10.5944 2.92967V2.56506C10.5944 2.39212 10.4542 2.25195 10.2814 2.25195C10.1085 2.25195 9.96838 2.39212 9.96838 2.56506Z" fill="#777777" stroke="#888888" stroke-width="0.5"/>
</svg>
