<svg width="18" height="18" viewBox="0 0 18 18" fill="none" xmlns="http://www.w3.org/2000/svg">
<path d="M11.6419 6.66934C11.5113 6.66934 11.392 6.58468 11.348 6.46196C11.3047 6.34102 11.3417 6.20171 11.4398 6.11849C11.5421 6.03168 11.6928 6.02049 11.8068 6.09134C11.9161 6.15924 11.9737 6.29152 11.9485 6.41777C11.9197 6.56193 11.789 6.66934 11.6419 6.66934Z" fill="#777777" stroke="#777777" stroke-width="0.3"/>
<path d="M16.8805 8.75425L15.1311 7.38016C15.037 7.30625 14.909 7.29256 14.8015 7.34487C14.6939 7.39719 14.6256 7.50631 14.6256 7.62594V7.94716H12.9125C12.865 7.77059 12.8054 7.597 12.7337 7.42697C12.6666 7.26797 12.4833 7.19347 12.3243 7.26047C12.1653 7.32753 12.0907 7.51081 12.1578 7.66984C12.3354 8.09103 12.4255 8.5385 12.4255 8.99988C12.4255 9.90109 12.0695 10.7583 11.4508 11.3929V11.3796C11.4508 10.6114 10.9726 9.95291 10.2982 9.68616C10.694 9.33019 10.9433 8.81428 10.9433 8.24125C10.9433 7.16975 10.0716 6.298 9.00006 6.298C7.92856 6.298 7.05681 7.16975 7.05681 8.24125C7.05681 8.81425 7.30612 9.33016 7.70197 9.68612C7.02766 9.95288 6.54944 10.6114 6.54944 11.3796V11.3931C5.93056 10.7586 5.5745 9.90128 5.5745 8.99988C5.5745 7.11116 7.11125 5.57453 9.00012 5.57453C9.45725 5.57453 9.901 5.66303 10.319 5.83756C10.4784 5.90409 10.6613 5.82888 10.7277 5.66959C10.7942 5.51034 10.7191 5.32731 10.5598 5.26081C10.394 5.19159 10.2248 5.13381 10.0528 5.08759V3.37441H10.374C10.4937 3.37441 10.6028 3.30612 10.6551 3.19853C10.7074 3.09094 10.6937 2.96294 10.6198 2.86888L9.24575 1.11947C9.18653 1.04403 9.09591 1 9 1C8.90409 1 8.81347 1.04403 8.75425 1.11947L7.38016 2.86888C7.30628 2.96294 7.29256 3.09094 7.34487 3.19853C7.39716 3.30612 7.50628 3.37441 7.62591 3.37441H7.94709V5.08831C6.55828 5.4625 5.46241 6.55837 5.08825 7.94712H3.37441V7.62591C3.37441 7.50628 3.30609 7.39716 3.19853 7.34484C3.09094 7.29256 2.96294 7.30622 2.86888 7.38013L1.11947 8.75425C1.04403 8.8135 1 8.90409 1 9C1 9.09591 1.04403 9.1865 1.11947 9.24575L2.86888 10.6198C2.925 10.6639 2.99322 10.6866 3.06194 10.6866C3.10841 10.6866 3.15512 10.6762 3.19853 10.6552C3.30609 10.6028 3.37441 10.4937 3.37441 10.3741V10.0529H5.08906C5.33428 10.9619 5.89244 11.7702 6.68237 12.3221C6.68256 12.3222 6.68275 12.3223 6.68294 12.3225C7.07081 12.5936 7.49753 12.7919 7.94709 12.9125V14.6256H7.62591C7.50628 14.6256 7.39716 14.6939 7.34487 14.8015C7.29256 14.9091 7.30628 15.0371 7.38016 15.1311L8.75425 16.8805C8.8135 16.956 8.90409 17 9 17C9.09591 17 9.18653 16.956 9.24575 16.8805L10.6198 15.1311C10.6937 15.0371 10.7074 14.9091 10.6551 14.8015C10.6028 14.6939 10.4937 14.6256 10.3741 14.6256H10.0529V12.9126C10.5026 12.792 10.9294 12.5937 11.3174 12.3225C11.3177 12.3223 11.3181 12.322 11.3184 12.3217C12.1079 11.7698 12.6658 10.9616 12.9109 10.0529H14.6256V10.3741C14.6256 10.4937 14.6939 10.6029 14.8015 10.6552C14.8449 10.6763 14.8916 10.6866 14.9381 10.6866C15.0068 10.6866 15.075 10.664 15.1312 10.6199L16.8806 9.24578C16.956 9.18653 17 9.09594 17 9.00003C17 8.90413 16.956 8.8135 16.8805 8.75425ZM8.26866 2.74953L9 1.81841L9.73134 2.74953C9.56294 2.75431 9.42787 2.89234 9.42787 3.06191V4.97172C9.28659 4.95694 9.14391 4.94953 9.00012 4.94953C8.85556 4.94953 8.71278 4.95716 8.57209 4.972V3.06191C8.57213 2.89234 8.43703 2.75434 8.26866 2.74953ZM3.06191 9.42787C2.89231 9.42787 2.75428 9.56294 2.74953 9.73134L1.81841 9L2.74953 8.26866C2.75428 8.43706 2.89231 8.57212 3.06191 8.57212H4.97197C4.95716 8.71272 4.94953 8.85541 4.94953 8.99988C4.94953 9.14366 4.95719 9.2865 4.97225 9.42787H3.06191ZM9.00009 6.92303C9.72697 6.92303 10.3183 7.51437 10.3183 8.24128C10.3183 8.96259 9.736 9.55044 9.01681 9.55941H8.98338C8.26419 9.55044 7.68184 8.96259 7.68184 8.24128C7.68184 7.51437 8.27322 6.92303 9.00009 6.92303ZM7.17447 11.3796C7.17447 10.7206 7.7105 10.1844 8.36938 10.1844H8.98056C8.98706 10.1844 8.99356 10.1845 9.00006 10.1845C9.00656 10.1845 9.01306 10.1844 9.01956 10.1844H9.63056C10.2896 10.1844 10.8258 10.7206 10.8258 11.3796V11.8989C10.2798 12.2439 9.65203 12.4255 9.00009 12.4255C8.34816 12.4255 7.72034 12.2439 7.17441 11.8989V11.3796H7.17447ZM9.73134 15.2505L9 16.1816L8.26866 15.2505C8.43706 15.2457 8.57212 15.1077 8.57212 14.9381V13.0282C8.71353 13.043 8.85634 13.0505 9.00016 13.0505C9.14388 13.0505 9.28659 13.043 9.42791 13.0282V14.9381C9.42787 15.1077 9.56297 15.2457 9.73134 15.2505ZM15.2505 9.73134C15.2457 9.56294 15.1077 9.42787 14.9381 9.42787H13.0278C13.0428 9.2865 13.0505 9.14366 13.0505 8.99988C13.0505 8.85609 13.0431 8.71344 13.0283 8.57212H14.9381C15.1077 8.57212 15.2457 8.43706 15.2505 8.26866L16.1816 9L15.2505 9.73134Z" fill="#777777" stroke="#777777" stroke-width="0.3"/>
</svg>
