<svg width="16" height="16" viewBox="0 0 16 16" fill="none" xmlns="http://www.w3.org/2000/svg">
<path d="M8.41016 4.09473H4.43041C4.17153 4.09473 3.96166 3.88485 3.96166 3.62598C3.96166 3.3671 4.17153 3.15723 4.43041 3.15723H8.41016C8.66903 3.15723 8.87891 3.3671 8.87891 3.62598C8.87891 3.88485 8.66903 4.09473 8.41016 4.09473Z" fill="#777777"/>
<path d="M0.000124931 6.41997C0.000124931 6.16109 0.21 5.95122 0.468875 5.95122H1.90687V0.46875C1.90687 0.209875 2.11675 0 2.37562 0H10.4672C10.5916 0 10.7108 0.0494063 10.7987 0.137313L13.9559 3.29481C14.0437 3.38272 14.0932 3.50197 14.0932 3.62625V7.10669H15.5312C15.7901 7.10669 16 7.31656 16 7.57544V15.5175C16 15.7764 15.7901 15.9863 15.5312 15.9863H0.46875C0.344406 15.9863 0.225219 15.9369 0.137281 15.849C0.0493755 15.7611 0 15.6418 0 15.5175L0.000124931 6.41997ZM2.84437 5.95122H5.25475C5.44888 5.95122 5.62294 6.07091 5.69244 6.25219L6.73878 8.98172H7.56038V6.43841C7.56038 6.17953 7.77025 5.96966 8.02913 5.96966H11.7494C12.0082 5.96966 12.2181 6.17953 12.2181 6.43841V8.98172H13.1556V4.09466H10.4672C10.2083 4.09466 9.99847 3.88478 9.99847 3.62591V0.9375H2.84437V5.95122ZM8.49788 8.98169H11.2806V6.90712H8.49788V8.98169ZM12.4924 3.15716L10.936 1.60053V3.15716H12.4924ZM14.0931 8.04419V8.98169H15.0625V8.04419H14.0931ZM15.0625 15.0488V9.91919H6.41647C6.22231 9.91919 6.04828 9.7995 5.97878 9.61822L4.93244 6.88869H0.937656L0.9375 15.0488H15.0625Z" fill="#777777"/>
</svg>
